<?xml version="1.0" encoding="UTF-8"?>
<svg width="860px" height="30px" viewBox="0 0 860 30" version="1.1" xmlns="http://www.w3.org/2000/svg" xmlns:xlink="http://www.w3.org/1999/xlink">
    <!-- Generator: Sketch 49 (51002) - http://www.bohemiancoding.com/sketch -->
    <title>0</title>
    <desc>Created with Sketch.</desc>
    <defs></defs>
    <g id="Symbols" stroke="none" stroke-width="1" fill="none" fill-rule="evenodd">
        <g id="0">
            <g id="Group-6">
                <g>
                    <g id="Group-4" fill="#FC8E61">
                        <polygon id="Rectangle-37" points="0 0 4 0 4 26.168457 0 30"></polygon>
                        <polygon id="Rectangle-37-Copy" transform="translate(15.000000, 2.000000) rotate(-90.000000) translate(-15.000000, -2.000000) " points="13 -13 17 -13 17 17 13 13.2338867"></polygon>
                    </g>
                    <g id="Group-4-Copy" transform="translate(845.000000, 15.000000) scale(-1, 1) translate(-845.000000, -15.000000) translate(830.000000, 0.000000)" fill="#FC8E61">
                        <polygon id="Rectangle-37" points="0 0 4 0 4 26.168457 0 30"></polygon>
                        <polygon id="Rectangle-37-Copy" transform="translate(15.000000, 2.000000) rotate(-90.000000) translate(-15.000000, -2.000000) " points="13 -13 17 -13 17 17 13 13.2338867"></polygon>
                    </g>
                    <polygon id="Rectangle-37-Copy-2" fill="#5EAFFA" transform="translate(66.875000, 2.000000) rotate(-90.000000) translate(-66.875000, -2.000000) " points="64.875 -13 68.875 -8.99707031 68.875 17 64.875 13.2338867"></polygon>
                    <polygon id="Rectangle-37-Copy-4" fill="#5EAFFA" transform="translate(170.625000, 2.000000) rotate(-90.000000) translate(-170.625000, -2.000000) " points="168.625 -13 172.625 -8.99707031 172.625 17 168.625 13.2338867"></polygon>
                    <polygon id="Rectangle-37-Copy-6" fill="#5EAFFA" transform="translate(274.375000, 2.000000) rotate(-90.000000) translate(-274.375000, -2.000000) " points="272.375 -13 276.375 -8.99707031 276.375 17 272.375 13.2338867"></polygon>
                    <polygon id="Rectangle-37-Copy-8" fill="#5EAFFA" transform="translate(378.125000, 2.000000) rotate(-90.000000) translate(-378.125000, -2.000000) " points="376.125 -13 380.125 -8.99707031 380.125 17 376.125 13.2338867"></polygon>
                    <polygon id="Rectangle-37-Copy-10" fill="#5EAFFA" transform="translate(481.875000, 2.000000) rotate(-90.000000) translate(-481.875000, -2.000000) " points="479.875 -13 483.875 -8.99707031 483.875 17 479.875 13.2338867"></polygon>
                    <polygon id="Rectangle-37-Copy-12" fill="#5EAFFA" transform="translate(585.625000, 2.000000) rotate(-90.000000) translate(-585.625000, -2.000000) " points="583.625 -13 587.625 -8.99707031 587.625 17 583.625 13.2338867"></polygon>
                    <polygon id="Rectangle-37-Copy-14" fill="#5EAFFA" transform="translate(689.375000, 2.000000) rotate(-90.000000) translate(-689.375000, -2.000000) " points="687.375 -13 691.375 -8.99707031 691.375 17 687.375 13.2338867"></polygon>
                    <polygon id="Rectangle-37-Copy-16" fill="#5EAFFA" transform="translate(793.125000, 2.000000) rotate(-90.000000) translate(-793.125000, -2.000000) " points="791.125 -13 795.125 -8.99707031 795.125 17 791.125 13.2338867"></polygon>
                    <polygon id="Rectangle-37-Copy-3" fill="#FC8E61" transform="translate(118.750000, 2.000000) rotate(-90.000000) translate(-118.750000, -2.000000) " points="116.75 -13 120.75 -8.99707031 120.75 17 116.75 13.2338867"></polygon>
                    <polygon id="Rectangle-37-Copy-5" fill="#FC8E61" transform="translate(222.500000, 2.000000) rotate(-90.000000) translate(-222.500000, -2.000000) " points="220.5 -13 224.5 -8.99707031 224.5 17 220.5 13.2338867"></polygon>
                    <polygon id="Rectangle-37-Copy-7" fill="#FC8E61" transform="translate(326.250000, 2.000000) rotate(-90.000000) translate(-326.250000, -2.000000) " points="324.25 -13 328.25 -8.99707031 328.25 17 324.25 13.2338867"></polygon>
                    <polygon id="Rectangle-37-Copy-9" fill="#FC8E61" transform="translate(430.000000, 2.000000) rotate(-90.000000) translate(-430.000000, -2.000000) " points="428 -13 432 -8.99707031 432 17 428 13.2338867"></polygon>
                    <polygon id="Rectangle-37-Copy-11" fill="#FC8E61" transform="translate(533.750000, 2.000000) rotate(-90.000000) translate(-533.750000, -2.000000) " points="531.75 -13 535.75 -8.99707031 535.75 17 531.75 13.2338867"></polygon>
                    <polygon id="Rectangle-37-Copy-13" fill="#FC8E61" transform="translate(637.500000, 2.000000) rotate(-90.000000) translate(-637.500000, -2.000000) " points="635.5 -13 639.5 -8.99707031 639.5 17 635.5 13.2338867"></polygon>
                    <polygon id="Rectangle-37-Copy-15" fill="#FC8E61" transform="translate(741.250000, 2.000000) rotate(-90.000000) translate(-741.250000, -2.000000) " points="739.25 -13 743.25 -8.99707031 743.25 17 739.25 13.2338867"></polygon>
                </g>
            </g>
        </g>
    </g>
</svg>