<?xml version="1.0" encoding="UTF-8"?>
<svg width="24px" height="24px" viewBox="0 0 24 24" version="1.1" xmlns="http://www.w3.org/2000/svg" xmlns:xlink="http://www.w3.org/1999/xlink">
    <!-- Generator: Sketch 52.2 (67145) - http://www.bohemiancoding.com/sketch -->
    <title>1-1</title>
    <desc>Created with Sketch.</desc>
    <defs>
        <polygon id="path-1" points="0.00381102362 0.0277165354 17.2747811 0.0277165354 17.2747811 21.2777071 0.00381102362 21.2777071"></polygon>
    </defs>
    <g id="Symbols" stroke="none" stroke-width="1" fill="none" fill-rule="evenodd">
        <g id="1-1">
            <g>
                <path d="M21.1421102,20.1138268 L20.1138268,20.1138268 L20.1138268,21.1422835 C20.1138268,21.7104724 19.6533858,22.1709134 19.0851969,22.1709134 C18.5171811,22.1709134 18.0567402,21.7104724 18.0567402,21.1422835 L18.0567402,20.1138268 L17.0284567,20.1138268 C16.4602677,20.1138268 16,19.6535591 16,19.0853701 C16,18.5177008 16.4602677,18.0569134 17.0284567,18.0569134 L18.0567402,18.0569134 L18.0567402,17.0284567 C18.0567402,16.4607874 18.5171811,16 19.0851969,16 C19.6533858,16 20.1138268,16.4607874 20.1138268,17.0284567 L20.1138268,18.0569134 L21.1421102,18.0569134 C21.7102992,18.0569134 22.1705669,18.5177008 22.1705669,19.0853701 C22.1705669,19.6535591 21.7102992,20.1138268 21.1421102,20.1138268 Z M22.5132126,21.139685 C22.5132126,21.1407244 22.5135591,21.1415906 22.5135591,21.1422835 C22.5135591,21.7104724 22.0531181,22.1707402 21.4849291,22.1707402 L20.8569764,22.1707402 C21.0336693,21.8672441 21.1421102,21.5188819 21.1421102,21.1422835 C21.6560787,21.1422835 22.119811,20.9472283 22.4804724,20.6357638 C22.5123465,20.9454961 22.5137323,21.139685 22.5137323,21.139685 L22.5132126,21.139685 Z" id="Fill-1" fill="#748093"></path>
                <g id="Group-5" transform="translate(1.000000, 1.000000)">
                    <mask id="mask-2" fill="white">
                        <use xlink:href="#path-1"></use>
                    </mask>
                    <g id="Clip-4"></g>
                    <path d="M16.4555843,16.1354236 C15.3195528,16.1354236 14.3986709,17.0563055 14.3986709,18.192337 C14.3986709,19.3281953 15.3195528,20.2492504 16.4555843,20.2492504 C16.4555843,20.6256756 16.5640252,20.9740378 16.7407181,21.2777071 L1.02873386,21.2777071 C0.46071811,21.2777071 0.000277165354,20.8174394 0.000277165354,20.2492504 C0.000277165354,20.2485575 0.000623622047,20.2475181 0.000623622047,20.2464787 L-6.92913386e-05,20.2464787 C-6.92913386e-05,20.2464787 -6.92913386e-05,16.4993764 2.73815118,15.1364157 C4.47112756,14.2744315 3.80367874,14.9739276 5.93126929,14.0915024 C8.05851339,13.2108094 8.56243465,12.9033291 8.56243465,12.9033291 L8.58252913,10.8727465 C8.58252913,10.8727465 7.78567874,10.2633291 7.53830866,8.35244724 C7.03958425,8.4964 6.87519055,7.76710866 6.8455685,7.30251024 C6.81889134,6.8543685 6.55697008,5.45312441 7.16534803,5.57940787 C7.04079685,4.64414803 6.95141102,3.80035276 6.9952378,3.35342362 C7.14785197,1.78432126 8.65892283,0.145234646 10.9865921,0.0253606299 C13.7246394,0.144888189 14.8093953,1.78328189 14.9614898,3.35221102 C15.005663,3.79948661 14.9081354,4.64345512 14.7835843,5.57750236 C15.3919622,5.45260472 15.1274425,6.85125039 15.0979937,7.30025827 C15.0709701,7.76451024 14.9024189,8.49137638 14.4054268,8.34777008 C14.1568441,10.2584787 13.3601669,10.8628724 13.3601669,10.8628724 L13.3788756,12.8834079 C13.3788756,12.8834079 13.8824504,13.1709669 16.0098677,14.0521795 C16.6236157,14.3064787 17.0010803,14.4306835 17.2747811,14.5024 C16.7800409,14.8779591 16.4555843,15.466589 16.4555843,16.1354236" id="Fill-3" fill="#748093" mask="url(#mask-2)"></path>
                </g>
            </g>
        </g>
    </g>
</svg>