<?xml version="1.0" encoding="UTF-8"?>
<svg width="18px" height="18px" viewBox="0 0 18 18" version="1.1" xmlns="http://www.w3.org/2000/svg" xmlns:xlink="http://www.w3.org/1999/xlink">
    <!-- Generator: Sketch 52.4 (67378) - http://www.bohemiancoding.com/sketch -->
    <title>信息上传完整</title>
    <desc>Created with Sketch.</desc>
    <g id="候选人管理" stroke="none" stroke-width="1" fill="none" fill-rule="evenodd">
        <g id="切图" transform="translate(-1299.000000, -1727.000000)" fill="#5EC860">
            <g id="信息上传完整" transform="translate(1299.000000, 1727.000000)">
                <path d="M14.9195845,7.55009891 C13.3520807,9.66423306 11.7847543,11.7812059 10.2172505,13.8955175 C9.89026586,14.3372928 9.12842531,14.6557613 8.58889175,14.2822926 C7.46103418,13.5035972 6.33424113,12.7247243 5.2076255,11.946916 C4.69222103,11.5906571 4.42147844,11.0218492 4.78039866,10.4663479 C5.07810906,10.0038145 5.89122393,9.72047513 6.40999938,10.0781534 C7.53679243,10.8557843 8.90256993,11.8007221 8.90256993,11.8007221 C10.2220409,10.0196049 11.5406247,8.23848767 12.8613376,6.45878982 C13.7133074,5.3089322 15.7790059,6.3904832 14.9195845,7.55009891 M9.99991129,0 C4.47754309,0 0,4.47647857 0,10.0000887 C0,15.5236988 4.47754309,20 9.99991129,20 C15.5224569,20 20,15.5226343 20,10.0000887 C20,4.47754309 15.5224569,0 9.99991129,0" id="Fill-1"></path>
            </g>
        </g>
    </g>
</svg>