<?xml version="1.0" encoding="UTF-8"?>
<svg width="122px" height="36px" viewBox="0 0 122 36" version="1.1" xmlns="http://www.w3.org/2000/svg" xmlns:xlink="http://www.w3.org/1999/xlink">
    <!-- Generator: Sketch 46.2 (44496) - http://www.bohemiancoding.com/sketch -->
    <title>ｌｏｇｏ</title>
    <desc>Created with Sketch.</desc>
    <defs></defs>
    <g id="Symbols" stroke="none" stroke-width="1" fill="none" fill-rule="evenodd">
        <g id="ｌｏｇｏ" fill="#FFFFFF">
            <g>
                <path d="M54.5602037,12.764725 L54.5602037,11.1526233 C54.5677013,10.4912449 54.5585533,9.27192185 54.5602037,9.26995896 C54.561364,9.26857897 56.0447309,9.2624433 56.4945905,9.26995896 L56.4945905,9.18723735 L56.4945905,9.18723735 C56.4945905,8.31145327 55.7846272,7.60148999 54.9088432,7.60148999 L54.9088432,7.60148999 L54.9088432,5.51590378 L71.7897423,5.51590378 C72.4120482,5.51590378 72.7606842,5.49335713 72.8356608,5.44826315 C72.9406281,5.38813784 73.0231011,5.24534237 73.0830824,5.01987247 L75.1749193,5.01987247 C75.0999427,5.69628219 74.9050064,6.23364407 74.5901047,6.63197424 C74.2677053,7.03030441 73.7916109,7.33092644 73.1618074,7.53384936 L73.1618074,9.26995896 L73.5779255,9.26995896 C73.855339,9.26995896 75.3773551,9.26995896 75.3773551,9.26995896 C75.3773551,9.2812324 75.3661087,10.1483573 75.3661087,10.5213672 C75.3661087,10.7332979 75.3661087,10.8106596 75.3661087,11.3442717 L75.3661087,11.3442717 L75.3661087,11.3442717 C75.372271,12.1225798 74.7463231,12.7585186 73.9680151,12.7646809 C73.9642959,12.7647103 73.9605766,12.764725 73.9568573,12.764725 L73.2967646,12.764725 L73.2967646,12.1108656 C73.2967646,11.8027234 73.2967646,11.3442717 73.2967646,11.3442717 C73.2975459,11.3442717 72.6669672,11.3442717 72.0821496,11.3442717 L57.9003949,11.3442717 C57.278089,11.3442717 56.6407942,11.349467 56.6407942,11.3442717 C56.6407942,11.3390764 56.6407942,11.738841 56.6407942,11.9643109 L56.6407942,12.764725 L54.5602037,12.764725 Z M58.5864275,9.25868552 L63.6698161,9.25868552 L63.6698161,7.60148999 L58.5864275,7.60148999 L58.5864275,9.25868552 Z M65.7391602,9.25868552 L71.0812169,9.25868552 L71.0812169,7.60148999 L65.7391602,7.60148999 L65.7391602,9.25868552 Z M77.6153957,18.0970617 L77.6153957,16.0227489 C78.5451057,15.9024983 79.2836142,15.5981185 79.8309435,15.1096004 C80.6406909,14.3730653 81.0455585,13.3321615 81.0455585,11.9868578 C81.0455585,11.7839348 81.0343121,11.4720395 81.0118192,11.0511623 C80.4195039,11.5096178 79.8721829,11.8290287 79.3698396,12.0094046 C78.897487,12.1747492 78.3126782,12.2837247 77.6153957,12.3363344 L77.6153957,10.2620216 C78.2227063,10.186865 78.7287908,10.0365539 79.1336645,9.81108403 C79.5385382,9.58561413 79.9509033,9.21735214 80.3707724,8.70628701 C80.0108846,8.2553472 79.6285097,7.91338964 79.223636,7.68040407 C78.803767,7.4474185 78.2789386,7.2933497 77.649135,7.21819307 L77.649135,5.13260686 C78.8862491,5.15515385 80.0071326,5.59481357 81.0118192,6.45159922 L81.0118192,4.97477871 L83.0811632,4.97477871 L83.0811632,7.11673212 C83.0811632,7.56767193 82.9574537,8.07872939 82.7100309,8.64991982 C82.9799467,9.40900184 83.1149025,10.1304947 83.1149025,10.8144201 L83.1149025,17.6573976 C83.1149025,18.7997784 83.0474246,19.6340046 82.9124667,20.160101 C82.5600766,21.5129205 81.7840804,22.5876442 80.5844546,23.3843046 C79.7372189,23.9479793 78.7250496,24.2147809 77.6153957,24.2749062 L77.4077734,22.2383984 C78.6527734,22.2181641 79.4823012,21.7421432 80.0446257,21.1634371 C80.4794901,20.7200129 80.7568994,20.2239866 80.8768619,19.6753431 C80.9743315,19.254466 81.0230656,18.6720108 81.0230656,17.9279601 C81.0230656,17.6724275 81.0193168,17.29665 81.0118192,16.8006162 C79.9696443,17.6198235 78.8375145,18.0519677 77.6153957,18.0970617 Z M84.1045888,12.9901938 L84.1045888,10.9046076 L85.7353219,10.9046076 L85.7353219,8.57100575 L84.1045888,8.57100575 L84.1045888,6.48541953 L85.7353219,6.48541953 L85.7353219,4.48 L86.480487,4.71348023 L86.480487,4.71348023 C87.255014,4.95616031 87.7821731,5.67376342 87.7821731,6.48541953 L87.7821731,6.48541953 L94.7662094,6.48541953 L94.7662094,4.48 L95.543238,4.71951586 L95.543238,4.71951586 C96.3181484,4.95837879 96.8467999,5.67453011 96.8467999,6.48541953 L96.8467999,6.48541953 L98.4437937,6.48541953 L98.4437937,8.57100575 L96.8467999,8.57100575 L96.8467999,10.9046076 L98.4437937,10.9046076 L98.4437937,12.9901938 L84.1045888,12.9901938 Z M87.7821731,10.9046076 L94.7662094,10.9046076 L94.7662094,8.57100575 L87.7821731,8.57100575 L87.7821731,10.9046076 Z M84.3182711,21.3550855 L84.3182711,16.8908037 C84.3182711,16.1204754 84.3180757,14.3881113 84.3182711,14.3881003 C84.3184665,14.3880892 85.8579769,14.3768268 86.7250082,14.3768268 L95.3397776,14.3768268 C98.0140861,14.3768268 98.3425757,14.3747656 98.3425757,14.3768268 C98.3425757,14.378888 98.3425757,15.9175264 98.3425757,16.6766084 L98.3425757,21.5129137 C98.3425757,22.7518647 98.3431957,24.1926413 98.3425757,24.1959922 C98.3419558,24.199343 97.7578783,24.1959922 97.8450186,24.1959922 C97.3113596,24.2072656 96.7193446,24.1959922 95.8571136,24.1959922 L86.6462832,24.1959922 C85.8965171,24.1959922 85.3079595,23.9855567 84.8805929,23.5646796 C84.63317,23.3166627 84.4794703,23.027314 84.419489,22.6966248 C84.3520101,22.3283573 84.3182711,21.881182 84.3182711,21.3550855 Z M86.4326009,20.3179292 L86.4326009,21.3325387 C86.4326009,21.8360881 86.7250053,22.0878591 87.3098229,22.0878591 L95.5197205,22.0878591 C95.7609898,22.0878591 96.21823,22.0968239 96.2169995,22.0878591 C96.215769,22.0788942 96.2169995,21.49815 96.2169995,21.2198043 L96.2169995,20.3179292 L86.4326009,20.3179292 Z M86.4326009,18.232343 L96.2169995,18.232343 L96.2169995,17.4544757 C96.2169995,17.0636612 96.2157104,16.4962333 96.2169995,16.4962333 C96.8307451,16.4962333 95.6396846,16.4962333 95.2273132,16.4962333 L87.366055,16.4962333 C86.9986696,16.4962333 86.4326009,16.4927512 86.4326009,16.4962333 C86.4326009,16.4997155 86.4326009,16.9509272 86.4326009,17.2515538 L86.4326009,18.232343 Z M100.738066,12.302514 L100.738066,10.2169278 L102.863643,10.2169278 C103.628404,10.2169278 104.19072,10.4048166 104.550608,10.7805998 C104.880505,11.133836 105.045451,11.6937445 105.045451,12.4603422 L105.045451,21.1521636 C105.045451,21.5730408 105.094185,21.8360851 105.191655,21.9413044 C105.30412,22.0540393 105.551539,22.110406 105.933919,22.110406 L107.013577,22.110406 L107.013577,24.2072656 L105.337858,24.2072656 C104.603088,24.2072656 104.100752,24.1058057 103.830836,23.9028828 C103.253516,23.4820056 102.964861,22.8957926 102.964861,22.1442263 L102.964861,13.3396704 C102.964861,12.8511523 102.878639,12.5430147 102.706193,12.4152484 C102.601225,12.3400918 102.387545,12.302514 102.065146,12.302514 L100.738066,12.302514 Z M100.738066,7.36474777 L100.738066,5.27916156 L105.394091,5.27916156 L105.394091,5.27916156 L105.394091,5.27916156 C105.394091,6.43099902 104.460342,7.36474777 103.308504,7.36474777 L100.738066,7.36474777 Z M107.66587,19.9909994 L107.66587,17.9054132 L113.480277,17.9054132 L113.480277,7.2858337 L107.66587,7.2858337 L107.66587,5.23406781 L121.386521,5.23406781 L121.386521,7.2858337 L115.560868,7.2858337 L115.560868,17.9054132 L121.386521,17.9054132 L121.386521,19.9909994 L115.560868,19.9909994 L115.560868,24.2749062 L113.480277,24.2749062 L113.480277,19.9909994 L107.66587,19.9909994 Z M108,8.8 L110.069344,8.8 L110.069344,12.9711724 C110.069344,13.6776448 110.106832,14.0872423 110.181808,14.1999773 C110.264283,14.3127122 110.508043,14.6036505 111.237927,14.6036505 L111.237927,16.4772119 C110.480663,16.4170866 109.252105,16.1841046 108.832236,15.7782587 C108.56232,15.5152105 108.359887,15.2484084 108.224929,14.9778446 C108.074975,14.654671 108,13.985787 108,12.9711724 L108,8.8 Z M121.157927,8.8 L119.088582,8.8 L119.088582,12.9711724 C119.088582,13.6776448 119.051095,14.0872423 118.976118,14.1999773 C118.893644,14.3127122 118.649883,14.6036505 117.92,14.6036505 L117.92,16.4772119 C118.677264,16.4170866 119.905821,16.1841046 120.32569,15.7782587 C120.595606,15.5152105 120.79804,15.2484084 120.932998,14.9778446 C121.082951,14.654671 121.157927,13.985787 121.157927,12.9711724 L121.157927,8.8 Z" id="爱猎评"></path>
                <path d="M59.7949916,13.1367103 L54.4,13.1367103 L54.4,15.2167103 L58.3694462,15.2167103 L54.4149227,20.9867187 L54.4149227,24.3467187 L60.9234056,15.2167103 L75.36,15.2167103 L75.36,13.1367103 L62.4061693,13.1367103 L63.4446102,11.68 L60.7933602,11.68 L59.7949916,13.1367103 Z" id="Combined-Shape"></path>
                <path d="M62.72,16.64 L60.64,16.64 L60.64,18.24 C60.64,19.7715966 61.2063188,21.1709224 62.1409792,22.24 L57.92,22.24 L57.92,24.272 L65.9258594,24.272 L65.9258594,24.2686054 C66.1857717,24.3025103 66.4508434,24.32 66.72,24.32 C66.9911795,24.32 67.2582125,24.3022464 67.52,24.2678381 L67.52,24.2721777 L77.7224805,24.2721777 L77.7224805,22.24 L71.2990208,22.24 C72.2336812,21.1709224 72.8,19.7715966 72.8,18.24 L72.8,16.64 L70.72,16.64 L70.72,18.24 C70.72,20.449139 68.929139,22.24 66.72,22.24 C64.510861,22.24 62.72,20.449139 62.72,18.24 L62.72,16.64 Z" id="Combined-Shape"></path>
                <rect id="Rectangle-24-Copy-2" x="60.64" y="15.84" width="12.16" height="2.08"></rect>
                <path d="M55.52125,33.3975 L56.8375,28.95 C56.9475006,28.5799982 57.0924991,28.2862511 57.2725,28.06875 C57.5150012,27.7712485 57.8424979,27.6225 58.255,27.6225 C58.6650021,27.6225 58.9812489,27.7387488 59.20375,27.97125 C59.3787509,28.1562509 59.5112496,28.3937485 59.60125,28.68375 L61.03375,33.40125 L60.1,33.40125 L59.54875,31.63875 L57.0175,31.63875 L56.42875,33.40125 L55.52125,33.3975 Z M57.2125,30.81 L59.3125,30.81 L58.76125,28.96875 C58.7287498,28.8612495 58.6675004,28.7550005 58.5775,28.65 C58.4974996,28.5574995 58.3962506,28.51125 58.27375,28.51125 C58.1387493,28.51125 58.0237505,28.5699994 57.92875,28.6875 C57.8562496,28.7725004 57.8050001,28.8662495 57.775,28.96875 L57.2125,30.81 Z M65.2675,27.64875 L66.1975,27.64875 L66.1975,33.37875 L65.2675,33.37875 L65.2675,27.64875 Z M74.5,32.5725 L74.5,33.40125 L71.94625,33.40125 C71.4837477,33.40125 71.1187513,33.2737513 70.85125,33.01875 C70.7337494,32.9087495 70.6550002,32.8012505 70.615,32.69625 C70.5499997,32.5312492 70.5175,32.3075014 70.5175,32.025 L70.5175,27.675 L71.4475,27.675 L71.4475,31.8975 C71.4475,32.3475022 71.6137483,32.5725 71.94625,32.5725 L74.5,32.5725 Z M78.74125,27.64875 L79.67125,27.64875 L79.67125,33.37875 L78.74125,33.37875 L78.74125,27.64875 Z M88.15,27.6525 L88.15,28.48125 L85.54,28.48125 C85.1274979,28.48125 84.92125,28.6449984 84.92125,28.9725 L84.92125,29.86875 L88.15,29.86875 L88.15,30.6975 L84.92125,30.6975 L84.92125,32.0775 C84.92125,32.2400008 84.9699995,32.3662495 85.0675,32.45625 C85.1500004,32.5312504 85.2562494,32.56875 85.38625,32.56875 L88.15,32.56875 L88.15,33.3975 L85.38625,33.3975 C85.1687489,33.3975 84.9387512,33.3512505 84.69625,33.25875 C84.2262477,33.0787491 83.99125,32.6475034 83.99125,31.965 L83.99125,29.0025 C83.99125,28.594998 84.1112488,28.2600013 84.35125,27.9975 C84.5637511,27.7674988 84.8512482,27.6525 85.21375,27.6525 L88.15,27.6525 Z M93.3475,33.38625 L92.4175,33.38625 L92.4175,28.785 C92.4175,28.4524983 92.5437487,28.1725011 92.79625,27.945 C93.0137511,27.747499 93.2612486,27.64875 93.53875,27.64875 L95.4175,27.64875 C95.8025019,27.64875 96.1149988,27.7287492 96.355,27.88875 C96.6575015,28.091251 96.80875,28.3749982 96.80875,28.74 L96.80875,30.14625 C96.80875,30.4187514 96.6987511,30.6662489 96.47875,30.88875 C96.2112487,31.1562513 95.8462523,31.29 95.38375,31.29 L93.3475,31.29 L93.3475,33.38625 Z M93.3475,30.46125 L95.4025,30.46125 C95.5300006,30.46125 95.6437495,30.4275003 95.74375,30.36 C95.8337505,30.2949997 95.87875,30.1862508 95.87875,30.03375 L95.87875,28.8975 C95.87875,28.7824994 95.8375004,28.6825004 95.755,28.5975 C95.6799996,28.5174996 95.5950005,28.4775 95.5,28.4775 L93.86875,28.4775 C93.5212483,28.4775 93.3475,28.6199986 93.3475,28.905 L93.3475,30.46125 Z M101.0725,27.64875 L102.0025,27.64875 L102.0025,33.37875 L101.0725,33.37875 L101.0725,27.64875 Z M107.24125,33.42 L106.31125,33.42 L106.31125,28.8 C106.31125,28.4149981 106.421249,28.1112511 106.64125,27.88875 C106.808751,27.7212492 107.031249,27.6375 107.30875,27.6375 C107.778752,27.6375 108.099999,27.8774976 108.2725,28.3575 L109.6075,32.05875 C109.665,32.2137508 109.715,32.3174997 109.7575,32.37 C109.795,32.4125002 109.85125,32.43375 109.92625,32.43375 C110.091251,32.43375 110.17375,32.2900014 110.17375,32.0025 L110.17375,27.6675 L111.10375,27.6675 L111.10375,32.055 C111.10375,32.4875022 110.986251,32.8249988 110.75125,33.0675 C110.586249,33.2425009 110.340002,33.33 110.0125,33.33 C109.697498,33.33 109.445001,33.2550007 109.255,33.105 C109.069999,32.9549993 108.93875,32.7737511 108.86125,32.56125 L107.59,29.02125 C107.4975,28.7637487 107.4125,28.635 107.335,28.635 C107.2725,28.635 107.24125,28.6724996 107.24125,28.7475 L107.24125,33.42 Z M120.23125,27.6525 L120.23125,28.48125 L116.845,28.48125 C116.659999,28.48125 116.51875,28.5287495 116.42125,28.62375 C116.32125,28.7212505 116.27125,28.8374993 116.27125,28.9725 L116.27125,32.11125 C116.27125,32.2487507 116.30875,32.3562496 116.38375,32.43375 C116.46625,32.5187504 116.564999,32.56125 116.68,32.56125 L119.0875,32.56125 C119.197501,32.56125 119.295,32.5175004 119.38,32.43 C119.4575,32.3499996 119.49625,32.2387507 119.49625,32.09625 L119.49625,31.25625 C119.49625,31.1237493 119.46375,31.0200004 119.39875,30.945 C119.31875,30.8524995 119.223751,30.80625 119.11375,30.80625 L117.31,30.80625 L117.31,29.9775 L119.14,29.9775 C119.525002,29.9775 119.841249,30.0874989 120.08875,30.3075 C120.17625,30.3875004 120.25125,30.4874994 120.31375,30.6075 C120.38875,30.7525007 120.42625,30.8924993 120.42625,31.0275 L120.42625,32.11125 C120.42625,32.5387521 120.296251,32.8724988 120.03625,33.1125 C119.836249,33.2975009 119.597501,33.39 119.32,33.39 L116.545,33.39 C116.174998,33.39 115.882501,33.2800011 115.6675,33.06 C115.449999,32.8374989 115.34125,32.523752 115.34125,32.11875 L115.34125,28.92 C115.34125,28.5649982 115.458749,28.2600013 115.69375,28.005 C115.908751,27.7699988 116.229998,27.6525 116.6575,27.6525 L120.23125,27.6525 Z" id="A-I-L-I-E-P-I-N-G"></path>
                <g id="Page-1">
                    <g id="Group-3">
                        <path d="M17.3554405,20.1164206 C8.82792988,22.4620791 4.86901694,17.3863122 4.98922871,13.780533 C4.98922871,13.780533 14.9517558,22.0439991 25.9778358,12.4913765 C25.9778358,12.4913765 22.3248664,18.7508151 17.3554405,20.1164206 M31.092984,11.3622848 C29.8136005,4.39018057 22.2119958,-0.622736457 13.8305746,0.0913993143 C5.25094165,0.821890743 -0.893990118,7.2741056 0.106795765,14.5042249 C0.619026353,18.2063003 2.90873929,21.3916105 6.17097459,23.5228078 C6.69476753,25.37504 7.03227812,28.0472603 6.52151576,31.6668224 C6.34863106,32.8901888 6.68192047,30.4309595 10.8928193,25.6523511 C12.9477981,26.2306798 15.1707064,26.464437 17.4528946,26.2700069 C20.0162499,26.0518702 22.3593699,25.319541 24.3622264,24.2117669 C23.9437793,22.9496247 23.7881464,21.5944942 23.9525887,20.1958098 C24.4136146,16.2765166 27.2451064,13.0061202 31.092984,11.3622848" id="Fill-1"></path>
                    </g>
                    <path d="M41.018847,26.4409935 C34.8602082,29.0687088 31.8988257,24.9606268 31.9262187,21.837984 C31.9262187,21.837984 39.3030174,28.2762729 47.1578142,19.2454104 C47.1578142,19.2454104 44.6069586,24.91095 41.018847,26.4409935 M38.6073462,10.911494 C31.7052365,10.4691871 25.5519293,14.7377066 24.8630604,20.4426197 C24.1740076,26.1484527 29.2106376,31.1319492 36.1125634,31.5742562 C37.583327,31.668458 39.01916,31.547026 40.3761233,31.2451018 C44.6915275,34.6794201 45.3046521,36.7262856 45.0103155,35.7607171 C44.2374293,33.2312513 44.1302474,31.241606 44.2657415,29.7676789 C47.3142667,28.0538315 49.46581,25.2802138 49.8570331,22.0429465 C50.5455343,16.3369295 45.5090882,11.352697 38.6073462,10.911494" id="Fill-4"></path>
                </g>
            </g>
        </g>
    </g>
</svg>