<?xml version="1.0" encoding="UTF-8"?>
<svg width="96px" height="96px" viewBox="0 0 96 96" version="1.1" xmlns="http://www.w3.org/2000/svg" xmlns:xlink="http://www.w3.org/1999/xlink">
    <!-- Generator: Sketch 49 (51002) - http://www.bohemiancoding.com/sketch -->
    <title>faqi/ic_1</title>
    <desc>Created with Sketch.</desc>
    <defs>
        <polygon id="path-1" points="0 0 13.5763845 0 13.5763845 13.5763845 0 13.5763845"></polygon>
        <polygon id="path-3" points="0.00164230457 0.00130727444 10.173282 0.00130727444 10.173282 9.03733273 0.00164230457 9.03733273"></polygon>
    </defs>
    <g id="Symbols" stroke="none" stroke-width="1" fill="none" fill-rule="evenodd">
        <g id="faqi/ic_1">
            <g id="Group-8">
                <g transform="translate(3.000000, 11.000000)">
                    <rect id="Rectangle-36" stroke="#97A2B3" stroke-width="2" x="8.69316909" y="13.4468085" width="70.9730666" height="52.3055379"></rect>
                    <rect id="Rectangle-36-Copy-2" stroke="#97A2B3" stroke-width="2" x="15.4813613" y="17.6894287" width="57.3966821" height="43.8202976"></rect>
                    <rect id="Rectangle-36-Copy" stroke="#97A2B3" stroke-width="2" x="1.05645282" y="66.0552984" width="87.0950231" height="6.4852403"></rect>
                    <path d="M25.0879117,28.1445031 L63.6957551,28.1445031" id="Line-3" stroke="#97A2B3" stroke-width="2" stroke-linecap="square"></path>
                    <path d="M25.0879117,33.2356472 L63.6957551,33.2356472" id="Line-3-Copy" stroke="#97A2B3" stroke-width="2" stroke-linecap="square"></path>
                    <path d="M25.0147631,38.7510534 L45.0282264,38.7510534" id="Line-3-Copy-2" stroke="#97A2B3" stroke-width="2" stroke-linecap="square"></path>
                    <path d="M25.0147631,44.6907216 L45.0282264,44.6907216" id="Line-3-Copy-3" stroke="#97A2B3" stroke-width="2" stroke-linecap="square"></path>
                    <circle id="Oval" stroke="#F95714" cx="56.0590388" cy="44.6907216" r="8.4852403"></circle>
                    <polygon id="Star" stroke="#F95714" fill="#F95714" points="56.0590388 47.2362937 53.0665393 48.8095438 53.6380559 45.4773467 51.217073 43.1174716 54.5627891 42.6313106 56.0590388 39.5995775 57.5552885 42.6313106 60.9010046 43.1174716 58.4800217 45.4773467 59.0515383 48.8095438"></polygon>
                    <path d="M25.0147631,50.6303899 L45.0282264,50.6303899" id="Line-3-Copy-4" stroke="#97A2B3" stroke-width="2" stroke-linecap="square"></path>
                    <circle id="Oval-5" stroke="#97A2B3" fill="#FFFFFF" cx="42.6265571" cy="11.0308124" r="11.0308124"></circle>
                    <circle id="Oval-5-Copy" stroke="#97A2B3" fill="#FFFFFF" cx="82.3632837" cy="34.5084333" r="7.63671627"></circle>
                    <g id="Page-1" transform="translate(35.425532, 4.787234)">
                        <mask id="mask-2" fill="white">
                            <use xlink:href="#path-1"></use>
                        </mask>
                        <g id="Clip-2"></g>
                        <path d="M2.0662535,8.85419347 L8.55921791,8.85419347 L8.55921791,8.26423243 L2.0662535,8.26423243 L2.0662535,8.85419347 Z M10.6252439,3.8371357 C10.3000951,3.8371357 10.0352433,3.57252919 10.0352433,3.2464921 L10.0352433,1.08049555 L12.6200511,3.8371357 L10.6252439,3.8371357 Z M13.4728556,4.02734296 L13.4901484,3.92291098 L9.8477537,0 L4.13182439,0 C3.47993404,0 2.95182322,0.52830294 2.95182322,1.18060463 L3.5418238,1.18060463 C3.5418238,0.854795068 3.80644805,0.589961036 4.13182439,0.589961036 L9.44478763,0.589961036 L9.44478763,3.2464921 C9.44478763,3.89879379 9.97244338,4.42709673 10.6247888,4.42709673 L12.9859288,4.42709673 L12.9859288,10.6254417 C12.9859288,10.9512513 12.7217596,11.2151752 12.3959282,11.2151752 L11.2152445,11.2151752 L11.2152445,11.8058188 L12.3959282,11.8058188 C13.0482737,11.8058188 13.5763845,11.2770608 13.5763845,10.6254417 L13.5763845,4.13154741 L13.4728556,4.02734296 Z M2.0662535,10.6254417 L8.55921791,10.6254417 L8.55921791,10.0347981 L2.0662535,10.0347981 L2.0662535,10.6254417 Z M2.0662535,7.08317276 L5.01807671,7.08317276 L5.01807671,6.49252916 L2.0662535,6.49252916 L2.0662535,7.08317276 Z M10.0352433,12.3957798 C10.0352433,12.7215894 9.77061903,12.9857409 9.44547024,12.9857409 L1.18045624,12.9857409 C0.854624836,12.9857409 0.590683194,12.7215894 0.590683194,12.3957798 L0.590683194,2.95094278 C0.590683194,2.62536074 0.854624836,2.36098175 1.18045624,2.36098175 L6.49296441,2.36098175 L6.49296441,5.01774033 C6.49296441,5.66935946 7.02198538,6.1976624 7.67364819,6.1976624 L10.0347882,6.1976624 L10.0347882,12.3957798 L10.0352433,12.3957798 Z M7.08433021,2.85174378 L9.66891049,5.60770137 L7.67478587,5.60770137 C7.34895446,5.60770137 7.08478528,5.34286733 7.08478528,5.01774033 L7.08478528,2.85174378 L7.08433021,2.85174378 Z M10.5390078,5.69393169 L6.89593049,1.77124823 L1.18045624,1.77124823 C0.528338357,1.77056567 0,2.29932365 0,2.95094278 L0,12.3957798 C0,13.0480815 0.528338357,13.5763845 1.18045624,13.5763845 L9.44547024,13.5763845 C10.0975881,13.5763845 10.6252439,13.0480815 10.6252439,12.3957798 L10.6252439,5.90256812 L10.521715,5.79836367 L10.5390078,5.69393169 Z M2.0662535,5.31192453 L5.01807671,5.31192453 L5.01807671,4.72196349 L2.0662535,4.72196349 L2.0662535,5.31192453 Z" id="Fill-1" fill="#F66A59" mask="url(#mask-2)"></path>
                    </g>
                    <g id="Page-1" transform="translate(77.272140, 30.265813)">
                        <mask id="mask-4" fill="white">
                            <use xlink:href="#path-3"></use>
                        </mask>
                        <g id="Clip-2"></g>
                        <path d="M5.83267097,1.25366305 C5.83267097,0.92592475 6.09944693,0.661382329 6.42495169,0.661382329 L8.9207948,0.661382329 C9.24866449,0.661382329 9.51307552,0.928158284 9.51307552,1.25366305 L9.51307552,2.66893544 C9.51307552,2.99673943 9.24636526,3.26121616 8.9207948,3.26121616 L6.42495169,3.26121616 C6.0971477,3.26121616 5.83267097,2.9945059 5.83267097,2.66893544 L5.83267097,1.25366305 Z M8.9207948,0.00130727444 L6.42495169,0.00130727444 C5.73321301,0.00130727444 5.17253023,0.564157898 5.17253023,1.25366305 L5.17253023,2.66893544 C5.17253023,3.36067413 5.73544654,3.92135691 6.42495169,3.92135691 L8.9207948,3.92135691 C9.61259918,3.92135691 10.173282,3.35844059 10.173282,2.66893544 L10.173282,1.25366305 C10.173282,0.561924364 9.61259918,0.00130727444 8.9207948,0.00130727444 Z M0.660134177,6.36970457 C0.660134177,6.04190057 0.926910132,5.77735815 1.2524149,5.77735815 L3.7483237,5.77735815 C4.076062,5.77735815 4.34060442,6.0441998 4.34060442,6.36970457 L4.34060442,7.78491127 C4.34060442,8.11278095 4.07382847,8.37719199 3.7483237,8.37719199 L1.2524149,8.37719199 C0.924676598,8.37719199 0.660134177,8.11048172 0.660134177,7.78491127 L0.660134177,6.36970457 Z M3.7483237,5.1172831 L1.2524149,5.1172831 C0.560676212,5.1172831 -6.5692183e-06,5.68019942 -6.5692183e-06,6.36970457 L-6.5692183e-06,7.78491127 C-6.5692183e-06,8.47671564 0.562909747,9.03733273 1.2524149,9.03733273 L3.7483237,9.03733273 C4.44006239,9.03733273 5.00067947,8.47448211 5.00067947,7.78491127 L5.00067947,6.36970457 C5.00067947,5.67796588 4.44006239,5.1172831 3.7483237,5.1172831 Z M1.13712512,4.06831032 C1.14842417,4.09090843 1.28407853,4.3441518 1.55308802,4.3441518 C1.73623783,4.3441518 1.91255565,4.17006751 1.92162117,4.1609363 L2.80104242,3.10526292 C2.80327595,3.10073016 2.88236934,3.0012065 2.8575377,2.89044948 C2.84170588,2.82035592 2.78974336,2.76386064 2.70381799,2.72083226 C2.66768729,2.70283261 2.6314909,2.69376709 2.5953602,2.69376709 C2.46193937,2.69376709 2.37378046,2.8112904 2.36918201,2.81358963 L1.94645281,3.31324437 C1.94192005,3.25215064 1.93745298,3.1978889 1.93292022,3.15045914 C1.92838746,3.10296369 1.92608824,3.06683299 1.92608824,3.04646842 L1.92608824,3.00350573 C1.92608824,2.73219701 1.97811644,2.48578563 1.9826492,2.47448658 L1.98494843,2.46318752 L1.9826492,2.4608883 C2.07534088,2.02232728 2.28555586,1.68999053 2.33305131,1.66285966 L2.34664959,1.67645794 L2.36241571,1.65609336 C2.64725702,1.27856039 2.95476213,1.03668177 3.36395874,0.871663007 C3.58100571,0.783438405 3.80475328,0.740475717 4.01733319,0.69751303 C4.33830519,0.66591509 4.34960425,0.417270177 4.34513718,0.340344631 C4.34060442,0.236353905 4.29310897,0.125596885 4.23431447,0.125596885 C4.06029588,0.125596885 3.8793796,0.125596885 3.70306178,0.170858799 C3.20340704,0.254484948 2.71288351,0.498597099 2.28555586,0.880662836 C1.84022855,1.32605584 1.56445277,1.77591591 1.44463023,2.25520607 C1.40390107,2.4608883 1.35647132,2.73219701 1.35647132,3.00573926 C1.35647132,3.01933754 1.35647132,3.04193566 1.35417209,3.06906653 C1.35193856,3.10972999 1.34963933,3.1616925 1.34963933,3.22508546 L0.825152941,2.55134643 C0.822919407,2.5491129 0.77095689,2.49708469 0.685031515,2.49708469 C0.61717149,2.49708469 0.549311465,2.53098186 0.483816358,2.59430912 C0.296199484,2.781926 0.388825462,2.92434665 0.393358222,2.93111294 L1.13712512,4.06831032 Z M9.20110335,4.92513346 C9.18757076,4.90023613 9.0519164,4.65159121 8.78743967,4.65159121 C8.60428986,4.65159121 8.42797204,4.82560981 8.41897222,4.83467533 L7.53948527,5.8904144 C7.53725174,5.89494716 7.45809266,5.99447082 7.48298999,6.10522784 C7.49882181,6.17525571 7.55085002,6.23181668 7.6367097,6.27477936 C7.67290609,6.29277902 7.70903679,6.30191023 7.74523319,6.30191023 C7.87858832,6.30191023 7.96674723,6.18432123 7.97127999,6.182022 L8.43473834,5.63270397 C8.4392711,5.71409658 8.44603739,5.7887229 8.45057016,5.84298464 C8.45510292,5.8904144 8.45740214,5.92661079 8.45740214,5.94690968 C8.45740214,6.13235871 8.42573851,6.28607842 8.38954212,6.46462977 C8.38277582,6.4962934 8.37594384,6.5257235 8.37141107,6.55732144 C8.23582241,7.05467696 7.97357921,7.47293909 7.81079399,7.5543317 L7.80626122,7.55663093 L7.803962,7.56116369 C7.53271897,7.87760294 7.18908317,8.12401431 7.07379338,8.12401431 L7.06926062,8.12401431 L7.06472786,8.12624785 C6.80925096,8.21217322 6.59910167,8.25513591 6.32326019,8.30039783 C6.07454959,8.32522947 5.9954562,8.48118271 5.99992327,8.60560371 C6.00675526,8.73442608 6.10621322,8.87231397 6.28029751,8.87231397 L6.45884886,8.87231397 C6.58773692,8.85424862 6.71432576,8.82711775 6.7980176,8.8090524 C6.91784014,8.78192153 6.95397084,8.77515523 6.96533559,8.76379048 C7.52818621,8.58977189 7.99841086,8.2619679 8.40760747,7.76454669 C8.8191033,7.21746219 9.02708475,6.63424699 9.02708475,6.03736781 L9.02708475,5.97187271 C9.02708475,5.90624622 9.02938398,5.81808731 9.02708475,5.72086288 L9.55833744,6.40590096 C9.56057097,6.40813449 9.61259918,6.46009701 9.69852456,6.46009701 C9.76631889,6.46009701 9.83411322,6.42619985 9.89973971,6.36293827 C10.0873566,6.17525571 9.99459922,6.03283505 9.99013216,6.02606876 L9.20110335,4.92513346 Z" id="Fill-1" fill="#F95714" mask="url(#mask-4)"></path>
                    </g>
                    <g id="Page-1" transform="translate(1.914894, 44.042553)">
                        <path d="M5.0794521,10.1590095 C2.27850354,10.1590095 1.17037796e-05,7.88040067 1.17037796e-05,5.0794521 C1.17037796e-05,2.27850354 2.27850354,1.170378e-05 5.0794521,1.170378e-05 C7.88040067,1.170378e-05 10.1590095,2.27850354 10.1590095,5.0794521 C10.1590095,7.88040067 7.88040067,10.1590095 5.0794521,10.1590095" id="Path" stroke="#97A2B3" fill="#FFFFFF"></path>
                        <path d="M7.51688127,3.73234706 C7.37468035,3.59119947 7.14458404,3.59272097 7.0039046,3.73515596 L4.35896742,6.40923556 L3.1881213,5.206087 C3.04802706,5.06213051 2.8183989,5.05955568 2.6750276,5.19883066 C2.53130518,5.33857379 2.52814516,5.56855306 2.66788829,5.71192436 L4.09656868,7.18016353 C4.09738795,7.1813339 4.0987924,7.1813339 4.09949463,7.18238724 C4.10019685,7.18308947 4.10066501,7.18461096 4.10136723,7.18519615 C4.1241896,7.20778445 4.15251275,7.22159491 4.17931441,7.23680982 C4.19347598,7.24441728 4.20471161,7.2571744 4.21922429,7.26302629 C4.26311347,7.28105011 4.30992859,7.29006202 4.35639259,7.29006202 C4.40250548,7.29006202 4.44861838,7.28105011 4.4920394,7.26361148 C4.50620097,7.25787662 4.51708549,7.24617284 4.53054483,7.2389165 C4.5576976,7.22381862 4.58602075,7.21035928 4.60931127,7.18741987 C4.6100135,7.18683468 4.61036461,7.18519615 4.61141795,7.18461096 C4.61212018,7.18344058 4.61329056,7.18308947 4.6143439,7.18238724 L7.5194561,4.24567484 C7.66060368,4.10277169 7.65908219,3.87314353 7.51688127,3.73234706" id="Path" fill="#F95714"></path>
                    </g>
                </g>
            </g>
        </g>
    </g>
</svg>