<?xml version="1.0" encoding="UTF-8"?>
<svg width="96px" height="96px" viewBox="0 0 96 96" version="1.1" xmlns="http://www.w3.org/2000/svg" xmlns:xlink="http://www.w3.org/1999/xlink">
    <!-- Generator: Sketch 49 (51002) - http://www.bohemiancoding.com/sketch -->
    <title>faqi/ic_2</title>
    <desc>Created with Sketch.</desc>
    <defs>
        <polygon id="path-1" points="0.535819161 0.0326615646 27.1534297 0.0326615646 27.1534297 26.1886423 0.535819161 26.1886423"></polygon>
        <polygon id="path-3" points="0 0 13.8649922 0 13.8649922 13.8649922 0 13.8649922"></polygon>
        <polygon id="path-5" points="4.59808413e-05 0.0933717618 14.7737976 0.0933717618 14.7737976 14.8671387 4.59808413e-05 14.8671387"></polygon>
    </defs>
    <g id="Symbols" stroke="none" stroke-width="1" fill="none" fill-rule="evenodd">
        <g id="faqi/ic_2">
            <g id="Group-10">
                <g transform="translate(2.000000, 14.000000)">
                    <rect id="Rectangle-8" stroke="#97A2B3" stroke-width="2" x="15.0816327" y="1" width="50.5714286" height="66.5306122" rx="4"></rect>
                    <path d="M15.0204082,10.3265306 L64.8901635,10.3265306" id="Line-4" stroke="#97A2B3" stroke-width="2" stroke-linecap="square"></path>
                    <path d="M24.4081633,18.7755102 L58.2040816,18.7755102" id="Line-4-Copy-3" stroke="#97A2B3" stroke-width="2" stroke-linecap="square"></path>
                    <path d="M24.4081633,27.2244898 L53.5102041,27.2244898" id="Line-4-Copy-4" stroke="#97A2B3" stroke-width="2" stroke-linecap="square"></path>
                    <path d="M24.4081633,34.7346939 L46,34.7346939" id="Line-4-Copy-5" stroke="#97A2B3" stroke-width="2" stroke-linecap="square"></path>
                    <path d="M24.4081633,43.1836735 L38.4897959,43.1836735" id="Line-4-Copy-6" stroke="#97A2B3" stroke-width="2" stroke-linecap="square"></path>
                    <path d="M37.5510204,5.63265306 L45.0612245,5.63265306" id="Line-4-Copy-2" stroke="#97A2B3" stroke-width="2" stroke-linecap="square"></path>
                    <circle id="Oval-2" stroke="#97A2B3" fill="#FFFFFF" cx="40.3673469" cy="61.9591837" r="3.75510204"></circle>
                    <path d="M16.3747073,55.8571429 L65.305687,55.8571429" id="Line-4-Copy" stroke="#97A2B3" stroke-width="2" stroke-linecap="square"></path>
                    <g id="Page-1" transform="translate(45.061224, 2.816327)">
                        <polygon id="Fill-1" fill="#97A2B3" points="5.01566893 36.1687387 10.7356803 41.88875 24.9203175 27.7060686 19.1963946 21.9854053"></polygon>
                        <polygon id="Fill-2" fill="#F95714" points="0.290433673 45.3740193 1.60276361 46.6915646 9.6169076 43.0114342 3.89494048 37.2868594"></polygon>
                        <polygon id="Fill-3" fill="#F95714" points="0 46.9059836 1.11740363 46.9059836 0 45.7840164"></polygon>
                        <g id="Group-6" transform="translate(19.557823, 0.619135)">
                            <mask id="mask-2" fill="white">
                                <use xlink:href="#path-1"></use>
                            </mask>
                            <g id="Clip-5"></g>
                            <path d="M19.2135402,16.6939711 C19.0394756,16.6705017 18.8308588,16.613784 18.5863861,16.6079167 C18.3425652,16.5942262 18.0687557,16.5772761 17.7656094,16.5570663 C17.4696344,16.5674972 17.1391071,16.5733645 16.798801,16.5837954 C16.457191,16.6170437 16.0953713,16.6548554 15.7237727,16.6881037 C14.9812273,16.7989314 14.193699,16.9456151 13.4218169,17.1470607 C11.8721854,17.5421287 10.3714484,18.0910516 9.27034297,18.5532681 C8.95872166,18.6836536 8.68751984,18.8036083 8.44500283,18.9111763 C8.45217404,18.9150879 8.46260488,18.9216071 8.46847222,18.9248668 C8.31722506,18.9718056 8.1614144,19.0252636 8.00429989,19.0761139 C8.24551304,18.7012557 8.43913549,18.2990164 8.58255952,17.880479 C8.70968537,17.8367999 8.82703231,17.7963804 8.96719671,17.7500935 C10.132191,17.3680641 11.7072477,16.9260573 13.3149008,16.6483362 C14.1193793,16.5075198 14.9297251,16.4201616 15.6898724,16.3693112 C16.0745096,16.3595323 16.4435006,16.3562727 16.789674,16.3464938 C17.1391071,16.3667035 17.4715901,16.3836536 17.7753883,16.3999518 C18.0785346,16.4397194 18.3523441,16.479487 18.5994246,16.5172988 C18.8445493,16.5375085 19.0486026,16.613784 19.2226672,16.6548554 C19.5642772,16.7415618 19.7585516,16.7917602 19.7585516,16.7917602 C19.7585516,16.7917602 19.5616695,16.75786 19.2135402,16.6939711 M27.05036,17.6822931 C26.9727806,17.4951899 26.8736876,17.1731378 26.6885402,16.8523895 C26.5073044,16.5303373 26.2830414,16.0687727 25.9642489,15.6932625 C25.6500198,15.3047137 25.2647307,14.8966071 24.8090334,14.484589 C24.3500765,14.0927806 23.8317942,13.7544303 23.2489711,13.4121684 C22.6700595,13.0679507 22.0500765,12.8475992 21.3838067,12.6116015 C20.7214484,12.3977693 20.0401842,12.2771627 19.3347988,12.1806774 C18.640496,12.1135289 17.9351105,12.10375 17.2336366,12.1441695 C16.5465051,12.2171854 15.8508985,12.3051956 15.2015788,12.4851276 C14.5411763,12.6598441 13.9075028,12.8736763 13.3188124,13.1618282 C12.1342602,13.7009722 11.1159495,14.4650312 10.3075595,15.2414768 C9.90988379,15.6469756 9.56110261,16.038784 9.26643141,16.433852 C9.07476474,16.6783248 8.92221372,16.9267092 8.78074546,17.1568396 C8.84984977,16.7787217 8.87462302,16.3843056 8.84528628,15.9755471 C9.08975907,15.7010856 9.34727041,15.4324915 9.61521259,15.1749802 C9.51416383,14.7460119 9.41441893,14.3203033 9.33683957,13.8717772 C9.19406746,13.0679507 9.10996882,12.2536933 9.0571627,11.4974575 C9.04868764,11.115428 9.04347222,10.7464371 9.03564909,10.3957001 C9.05390306,10.0469189 9.07280896,9.7157398 9.08649943,9.41063776 C9.12887472,9.10944728 9.16994615,8.8343339 9.20384637,8.59051304 C9.2260119,8.34278061 9.30359127,8.13872732 9.34075113,7.9646627 C9.42745748,7.62631236 9.47700397,7.42812642 9.47700397,7.42812642 C9.47700397,7.42812642 9.4444076,7.62631236 9.38443027,7.97444161 C9.36030896,8.14981009 9.30098356,8.35647109 9.29772392,8.60029195 C9.27946995,8.84932823 9.26317177,9.11987812 9.24231009,9.42041667 C9.25274093,9.72160714 9.26317177,10.046267 9.27360261,10.3885289 C9.30619898,10.7327466 9.34075113,11.0958702 9.37595522,11.4635573 C9.48678288,12.2074065 9.63477041,12.9942829 9.83491213,13.7642092 C9.91575113,14.089521 10.0128883,14.3978827 10.1113294,14.709504 C11.2665448,13.6918452 12.5651842,12.8371684 13.8814257,12.1911083 C13.9387954,11.7523611 13.9896457,11.3097024 13.9981207,10.8748668 C14.0020323,10.3350709 14.0261536,9.81287698 13.968784,9.2835119 C13.8990278,8.24238379 13.71714,7.23385204 13.4270323,6.26899943 C13.3051219,5.79700397 13.1069359,5.30871032 12.9400425,4.85236111 C12.7757568,4.39992347 12.5560573,3.93509921 12.361131,3.49635204 C12.1759836,3.06803571 11.9791015,2.63906746 11.7750482,2.23356859 C11.5709949,1.81177154 11.3936706,1.44278061 11.2489427,1.1383305 C11.1152976,0.823449546 10.9373214,0.531386054 10.8538747,0.341023243 C10.7469586,0.140229592 10.6902409,0.0326615646 10.6902409,0.0326615646 C10.6902409,0.0326615646 10.5696344,0.0593905896 10.3688407,0.136969955 C10.1830414,0.213897392 9.85838152,0.314294218 9.53698129,0.50204932 C9.21492914,0.679373583 8.75597222,0.903636621 8.37915816,1.22177721 C7.98995748,1.53665816 7.58185091,1.92520692 7.16918084,2.3809042 C6.77998016,2.83594955 6.44097789,3.35488379 6.09741213,3.93835884 C5.75645408,4.51727041 5.53153912,5.13660147 5.29814909,5.80287132 C5.08757653,6.46653345 4.96240646,7.14584184 4.8659212,7.85253118 C4.80203231,8.54618197 4.78964569,9.25678288 4.83332483,9.95304138 C4.90308107,10.639521 4.98978741,11.3364314 5.17428288,11.9896627 C5.34443594,12.6461536 5.56217971,13.2824348 5.85033163,13.8678656 C6.34644841,14.9637557 7.04009921,15.9077466 7.75200397,16.6815845 C7.61183957,18.0310743 6.75781463,19.1869416 5.70299603,20.0305357 C5.56152778,20.1009439 5.42723073,20.1785232 5.29814909,20.2541468 L3.02422619,17.9802239 L0.535819161,20.468631 L6.25909014,26.1886423 L8.74749717,23.7034949 L6.1013237,21.0579734 C6.1821627,21.0006037 6.25909014,20.9451899 6.3366695,20.8845607 C7.48406179,20.315428 8.83941893,19.8903713 9.83491213,19.6380754 C9.96399376,19.7019643 10.0904677,19.7658532 10.2247647,19.8225709 C10.6478656,20.010326 11.1074745,20.1974291 11.5938124,20.3675822 C12.0827579,20.5462103 12.5893056,20.6896344 13.115411,20.8304507 C13.6369529,20.9745266 14.1702296,21.0677523 14.7048101,21.1583702 C15.2413464,21.232038 15.7804904,21.2959269 16.3157228,21.3089654 C16.8522591,21.3122251 17.3783645,21.3356944 17.9031661,21.2822364 C18.9455981,21.2079167 19.952826,21.0279847 20.9189824,20.7365731 C21.389674,20.6159666 21.8799235,20.4184325 22.3349688,20.2515391 C22.7900142,20.0872534 23.2515788,19.86625 23.6922817,19.6745833 C24.1225539,19.4868282 24.5495663,19.2899461 24.9537613,19.0891525 C25.37947,18.8811876 25.747809,18.7045153 26.0483475,18.5597874 C26.3645323,18.4294019 26.65464,18.2514257 26.8450028,18.1640675 C27.0484042,18.0578033 27.1540164,18.0004337 27.1540164,18.0004337 C27.1540164,18.0004337 27.1266355,17.8798271 27.05036,17.6822931" id="Fill-4" fill="#97A2B3" mask="url(#mask-2)"></path>
                        </g>
                        <g id="Group-9" transform="translate(17.836735, 41.306122)">
                            <circle id="Oval-5" stroke="#97A2B3" fill="#FFFFFF" cx="11.2653061" cy="11.2653061" r="11.2653061"></circle>
                            <g id="Page-1" transform="translate(4.332810, 4.332810)">
                                <mask id="mask-4" fill="white">
                                    <use xlink:href="#path-3"></use>
                                </mask>
                                <g id="Clip-2"></g>
                                <path d="M2.11017805,9.04241649 L8.74117032,9.04241649 L8.74117032,8.43991403 L2.11017805,8.43991403 L2.11017805,9.04241649 Z M10.851116,3.91870578 C10.5190552,3.91870578 10.2485731,3.64847425 10.2485731,3.31550624 L10.2485731,1.10346479 L12.888329,3.91870578 L10.851116,3.91870578 Z M13.7592625,4.11295648 L13.7769228,4.00630448 L10.0570979,0 L4.21965898,0 C3.5539107,0 3.01457327,0.539533639 3.01457327,1.205702 L3.61711612,1.205702 C3.61711612,0.872966357 3.88736577,0.602502466 4.21965898,0.602502466 L9.64556554,0.602502466 L9.64556554,3.31550624 C9.64556554,3.98167461 10.1844382,4.52120825 10.8506513,4.52120825 L13.2619845,4.52120825 L13.2619845,10.851318 C13.2619845,11.1840537 12.9921996,11.4535881 12.6594417,11.4535881 L11.4536589,11.4535881 L11.4536589,12.0567877 L12.6594417,12.0567877 C13.3256547,12.0567877 13.8649922,11.5167893 13.8649922,10.851318 L13.8649922,4.21937612 L13.7592625,4.11295648 Z M2.11017805,10.851318 L8.74117032,10.851318 L8.74117032,10.2481185 L2.11017805,10.2481185 L2.11017805,10.851318 Z M2.11017805,7.23374731 L5.12475132,7.23374731 L5.12475132,6.63054777 L2.11017805,6.63054777 L2.11017805,7.23374731 Z M10.2485731,12.6592901 C10.2485731,12.9920258 9.97832349,13.2617926 9.64626266,13.2617926 L1.20555046,13.2617926 C0.872792507,13.2617926 0.603239976,12.9920258 0.603239976,12.6592901 L0.603239976,3.01367412 C0.603239976,2.68117083 0.872792507,2.41117165 1.20555046,2.41117165 L6.63099227,2.41117165 L6.63099227,5.12440778 C6.63099227,5.78987908 7.1712592,6.32941272 7.83677511,6.32941272 L10.2481084,6.32941272 L10.2481084,12.6592901 L10.2485731,12.6592901 Z M7.23492937,2.91236634 L9.87445282,5.72691025 L7.83793697,5.72691025 C7.50517902,5.72691025 7.23539411,5.45644636 7.23539411,5.12440778 L7.23539411,2.91236634 L7.23492937,2.91236634 Z M10.7630467,5.81497366 L7.04252463,1.80890154 L1.20555046,1.80890154 C0.539569809,1.80820447 0,2.34820282 0,3.01367412 L0,12.6592901 C0,13.3254585 0.539569809,13.8649922 1.20555046,13.8649922 L9.64626266,13.8649922 C10.3122433,13.8649922 10.851116,13.3254585 10.851116,12.6592901 L10.851116,6.0280453 L10.7453863,5.92162566 L10.7630467,5.81497366 Z M2.11017805,5.42484577 L5.12475132,5.42484577 L5.12475132,4.8223433 L2.11017805,4.8223433 L2.11017805,5.42484577 Z" id="Fill-1" fill="#F66A59" mask="url(#mask-4)"></path>
                            </g>
                        </g>
                    </g>
                    <path d="M30.1480788,51.1183434 C32.9749482,51.6638233 34.8602918,51.2434065 35.8041095,49.857093 C37.6501847,48.4991995 39.5695253,49.0373452 41.5621313,51.4715302 C43.4529755,52.6926718 44.6671649,52.1545261 45.2046995,49.857093" id="Path-4" stroke="#F95714" transform="translate(37.676389, 50.617482) rotate(-1.000000) translate(-37.676389, -50.617482) "></path>
                    <g id="Page-1" transform="translate(0.000000, 14.081633)">
                        <g id="Group-3" transform="translate(0.000000, 0.059913)">
                            <mask id="mask-6" fill="white">
                                <use xlink:href="#path-5"></use>
                            </mask>
                            <g id="Clip-2"></g>
                            <path d="M7.38686814,13.9438741 C3.78564865,13.9438741 0.923341274,11.0814134 0.923341274,7.48034719 C0.923341274,3.8791277 3.78564865,1.01682032 7.38686814,1.01682032 C10.9879344,1.01682032 13.850395,3.8791277 13.850395,7.48034719 C13.850395,11.0814134 10.9879344,13.9438741 7.38686814,13.9438741 M7.38686814,0.0933717618 C3.32415427,0.0933717618 4.59808413e-05,3.41748005 4.59808413e-05,7.48034719 C4.59808413e-05,11.5430611 3.32415427,14.8671693 7.38686814,14.8671693 C11.4497353,14.8671693 14.7738436,11.5430611 14.7738436,7.48034719 C14.7738436,3.41748005 11.4497353,0.0933717618 7.38686814,0.0933717618" id="Fill-1" fill="#97A2B3" mask="url(#mask-6)"></path>
                        </g>
                        <path d="M7.38709804,7.32241833 C6.30930712,7.32241833 5.43551787,6.45629254 5.43551787,5.38708471 C5.43551787,4.31818342 6.30930712,3.45159783 7.38709804,3.45159783 C8.46488896,3.45159783 9.33867822,4.31772362 9.33867822,5.38708471 C9.33867822,6.45583274 8.46488896,7.32241833 7.38709804,7.32241833 M8.91841333,7.63171612 C9.64307139,7.14462574 10.1192796,6.32126214 10.1192796,5.38754452 C10.1192796,3.89071487 8.89572945,2.67743374 7.38709804,2.67743374 C5.87846664,2.67743374 4.65537626,3.89071487 4.65537626,5.38754452 C4.65537626,6.32110887 5.13143124,7.14447247 5.85593603,7.63171612 C4.46133711,8.22211012 3.48393769,9.59448496 3.48393769,11.1935454 L4.26453911,11.1935454 C4.26453911,9.48367114 5.66266322,8.09704223 7.38709804,8.09704223 C9.11153286,8.09704223 10.5095037,9.48367114 10.5095037,11.1935454 L11.2901051,11.1935454 C11.2901051,9.59448496 10.312859,8.22226339 8.91841333,7.63171612" id="Fill-4" fill="#F95714"></path>
                    </g>
                </g>
            </g>
        </g>
    </g>
</svg>