<?xml version="1.0" encoding="UTF-8"?>
<svg width="96px" height="96px" viewBox="0 0 96 96" version="1.1" xmlns="http://www.w3.org/2000/svg" xmlns:xlink="http://www.w3.org/1999/xlink">
    <!-- Generator: Sketch 49 (51002) - http://www.bohemiancoding.com/sketch -->
    <title>faqi/ic_3</title>
    <desc>Created with Sketch.</desc>
    <defs>
        <polygon id="path-1" points="0.0044 0 23.8668 0 23.8668 23.8684 0.0044 23.8684"></polygon>
        <circle id="path-3" cx="4" cy="13" r="4"></circle>
        <circle id="path-4" cx="4" cy="19" r="4"></circle>
        <circle id="path-5" cx="4" cy="13" r="4"></circle>
        <polygon id="path-6" points="0 0 16.8 0 16.8 15.75 0 15.75"></polygon>
    </defs>
    <g id="Symbols" stroke="none" stroke-width="1" fill="none" fill-rule="evenodd">
        <g id="faqi/ic_3">
            <g id="Group-13">
                <g transform="translate(2.000000, 12.000000)">
                    <path d="M69.6298828,14.0078125 C62.2239583,3.8343099 53.2047526,-0.675455729 42.5722656,0.478515625 C30.3053385,2.35351562 22.6984049,9.87320964 19.7514648,23.0375977 C10.7752279,25.371582 6.28710937,31.2151693 6.28710937,40.5683594 C7.48307292,47.4264323 12.1935221,52.1202799 20.418457,54.6499023 M72.5902462,54.6499023 C80.8237019,52.590332 86.3173828,47.8964844 89.0712891,40.5683594 C90.9472656,30.1451823 87.0986328,22.296875 77.5253906,17.0234375 C69.9467773,12.8322754 63.7446289,12.7468262 55.5117188,21.3056641" id="Path-5" stroke="#97A2B3" stroke-width="2" stroke-linecap="round"></path>
                    <g id="Page-1" transform="translate(36.000000, 19.000000)">
                        <mask id="mask-2" fill="white">
                            <use xlink:href="#path-1"></use>
                        </mask>
                        <g id="Clip-2"></g>
                        <path d="M3.6324,15.5664 L15.0468,15.5664 L15.0468,14.5292 L3.6324,14.5292 L3.6324,15.5664 Z M18.6788,6.746 C18.1072,6.746 17.6416,6.2808 17.6416,5.7076 L17.6416,1.8996 L22.1856,6.746 L18.6788,6.746 Z M23.6848,7.0804 L23.7152,6.8968 L17.312,0 L7.2636,0 C6.1176,0 5.1892,0.9288 5.1892,2.0756 L6.2264,2.0756 C6.2264,1.5028 6.6916,1.0372 7.2636,1.0372 L16.6036,1.0372 L16.6036,5.7076 C16.6036,6.8544 17.5312,7.7832 18.678,7.7832 L22.8288,7.7832 L22.8288,18.6804 C22.8288,19.2532 22.3644,19.7172 21.7916,19.7172 L19.716,19.7172 L19.716,20.7556 L21.7916,20.7556 C22.9384,20.7556 23.8668,19.826 23.8668,18.6804 L23.8668,7.2636 L23.6848,7.0804 Z M3.6324,18.6804 L15.0468,18.6804 L15.0468,17.642 L3.6324,17.642 L3.6324,18.6804 Z M3.6324,12.4528 L8.8216,12.4528 L8.8216,11.4144 L3.6324,11.4144 L3.6324,12.4528 Z M17.6416,21.7928 C17.6416,22.3656 17.1764,22.83 16.6048,22.83 L2.0752,22.83 C1.5024,22.83 1.0384,22.3656 1.0384,21.7928 L1.0384,5.188 C1.0384,4.6156 1.5024,4.1508 2.0752,4.1508 L11.4144,4.1508 L11.4144,8.8216 C11.4144,9.9672 12.3444,10.896 13.49,10.896 L17.6408,10.896 L17.6408,21.7928 L17.6416,21.7928 Z M12.454,5.0136 L16.9976,9.8588 L13.492,9.8588 C12.9192,9.8588 12.4548,9.3932 12.4548,8.8216 L12.4548,5.0136 L12.454,5.0136 Z M18.5272,10.0104 L12.1228,3.114 L2.0752,3.114 C0.9288,3.1128 0,4.0424 0,5.188 L0,21.7928 C0,22.9396 0.9288,23.8684 2.0752,23.8684 L16.6048,23.8684 C17.7512,23.8684 18.6788,22.9396 18.6788,21.7928 L18.6788,10.3772 L18.4968,10.194 L18.5272,10.0104 Z M3.6324,9.3388 L8.8216,9.3388 L8.8216,8.3016 L3.6324,8.3016 L3.6324,9.3388 Z" id="Fill-1" fill="#F66A59" mask="url(#mask-2)"></path>
                    </g>
                    <circle id="Oval-6" stroke="#97A2B3" fill="#FFFFFF" cx="32" cy="50" r="2"></circle>
                    <g id="Group-11" transform="translate(14.000000, 54.000000)">
                        <g id="Oval-6-Copy-3">
                            <use fill="#FFFFFF" fill-rule="evenodd" xlink:href="#path-3"></use>
                            <circle stroke="#97A2B3" stroke-width="2" cx="4" cy="13" r="3"></circle>
                        </g>
                        <rect id="Rectangle-10" fill="#97A2B3" x="17" y="0" width="2" height="14" rx="1"></rect>
                        <rect id="Rectangle-10-Copy" fill="#97A2B3" transform="translate(13.000000, 13.000000) rotate(-90.000000) translate(-13.000000, -13.000000) " x="12" y="7" width="2" height="12" rx="1"></rect>
                    </g>
                    <g id="Group-11-Copy-2" transform="translate(42.000000, 54.000000)">
                        <g id="Oval-6-Copy-3">
                            <use fill="#FFFFFF" fill-rule="evenodd" xlink:href="#path-4"></use>
                            <circle stroke="#97A2B3" stroke-width="2" cx="4" cy="19" r="3"></circle>
                        </g>
                        <rect id="Rectangle-10" fill="#97A2B3" x="3" y="0" width="2" height="16" rx="1"></rect>
                    </g>
                    <g id="Group-11-Copy" transform="translate(68.500000, 62.500000) scale(-1, 1) translate(-68.500000, -62.500000) translate(59.000000, 54.000000)">
                        <g id="Oval-6-Copy-3">
                            <use fill="#FFFFFF" fill-rule="evenodd" xlink:href="#path-5"></use>
                            <circle stroke="#97A2B3" stroke-width="2" cx="4" cy="13" r="3"></circle>
                        </g>
                        <rect id="Rectangle-10" fill="#97A2B3" x="17" y="0" width="2" height="14" rx="1"></rect>
                        <rect id="Rectangle-10-Copy" fill="#97A2B3" transform="translate(13.000000, 13.000000) rotate(-90.000000) translate(-13.000000, -13.000000) " x="12" y="7" width="2" height="12" rx="1"></rect>
                    </g>
                    <circle id="Oval-6-Copy" stroke="#97A2B3" fill="#FFFFFF" cx="46" cy="50" r="2"></circle>
                    <circle id="Oval-6-Copy-2" stroke="#97A2B3" fill="#FFFFFF" cx="60" cy="50" r="2"></circle>
                    <g id="Group-12" transform="translate(0.000000, 3.000000)">
                        <circle id="Oval-7" stroke="#97A2B3" fill="#FFFFFF" cx="12" cy="12" r="12"></circle>
                        <g id="Page-1" transform="translate(3.600000, 3.600000)">
                            <mask id="mask-7" fill="white">
                                <use xlink:href="#path-6"></use>
                            </mask>
                            <g id="Clip-2"></g>
                            <path d="M9.63198698,2.18288489 C9.63198698,1.6116295 10.0725364,1.15052599 10.6100695,1.15052599 L14.7316635,1.15052599 C15.273102,1.15052599 15.709746,1.61552261 15.709746,2.18288489 L15.709746,4.64973719 C15.709746,5.22110708 15.2693051,5.6820961 14.7316635,5.6820961 L10.6100695,5.6820961 C10.0687395,5.6820961 9.63198698,5.21721398 9.63198698,4.64973719 L9.63198698,2.18288489 Z M14.7316635,0 L10.6100695,0 C9.46774375,0 8.5418415,0.98106157 8.5418415,2.18288489 L8.5418415,4.64973719 C8.5418415,5.85545361 9.47143217,6.83273658 10.6100695,6.83273658 L14.7316635,6.83273658 C15.8740978,6.83273658 16.8,5.85156051 16.8,4.64973719 L16.8,2.18288489 C16.8,0.977168468 15.8740978,0 14.7316635,0 Z M1.09014548,11.1002628 C1.09014548,10.5288929 1.53069487,10.0677894 2.06822805,10.0677894 L6.18993045,10.0677894 C6.73115205,10.0677894 7.16801302,10.5329005 7.16801302,11.1002628 L7.16801302,13.5670006 C7.16801302,14.138485 6.72746363,14.5993595 6.18993045,14.5993595 L2.06822805,14.5993595 C1.52700645,14.5993595 1.09014548,14.1344774 1.09014548,13.5670006 L1.09014548,11.1002628 Z M6.18993045,8.91726342 L2.06822805,8.91726342 C0.925902249,8.91726342 0,9.89843949 0,11.1002628 L0,13.5670006 C0,14.7728315 0.92959067,15.75 2.06822805,15.75 L6.18993045,15.75 C7.33225625,15.75 8.25805002,14.7689384 8.25805002,13.5670006 L8.25805002,11.1002628 C8.25805002,9.89454639 7.33225625,8.91726342 6.18993045,8.91726342 Z M1.87784041,7.08887976 C1.89649949,7.12826879 2.12051684,7.56967779 2.56475465,7.56967779 C2.86720521,7.56967779 3.15837353,7.26624488 3.17334418,7.25032897 L4.62560586,5.41026601 C4.62929428,5.4023653 4.75990779,5.22889328 4.71890122,5.03584125 C4.69275682,4.91366657 4.60694679,4.815194 4.46505105,4.74019455 C4.40538541,4.70882073 4.34561128,4.69301932 4.28594564,4.69301932 C4.06561671,4.69301932 3.92003254,4.89786516 3.91243874,4.90187276 L3.21435075,5.77278246 C3.20686542,5.66629468 3.19948858,5.57171522 3.19200325,5.48904406 C3.18451793,5.40625841 3.18072102,5.34328176 3.18072102,5.30778584 L3.18072102,5.23290089 C3.18072102,4.76000356 3.26663955,4.33050287 3.27412487,4.31080835 L3.27792178,4.29111384 L3.27412487,4.28710624 C3.42719436,3.52268431 3.7743399,2.94341372 3.8527731,2.89612398 L3.87522907,2.9198261 L3.90126499,2.88433018 C4.3716472,2.22628152 4.87945604,1.80468154 5.55519653,1.51705004 C5.9136243,1.36327253 6.28311734,1.28838758 6.63416826,1.21350263 C7.16421611,1.15842669 7.18287519,0.725032897 7.17549834,0.590949902 C7.16801302,0.409691678 7.08957982,0.216639646 6.99248755,0.216639646 C6.70511613,0.216639646 6.406354,0.216639646 6.11518568,0.295532203 C5.29006412,0.441294502 4.4800217,0.866787592 3.7743399,1.53273695 C3.03893377,2.30906718 2.58352221,3.09318362 2.38564925,3.92859739 C2.3183898,4.28710624 2.24006509,4.76000356 2.24006509,5.23679399 C2.24006509,5.26049611 2.24006509,5.29988513 2.23626819,5.34717487 C2.23257976,5.41805221 2.22878286,5.50862407 2.22878286,5.61911945 L1.36265473,4.44477685 C1.35896631,4.44088374 1.27315627,4.35019738 1.13126053,4.35019738 C1.01919761,4.35019738 0.907134693,4.40928092 0.79897716,4.5196618 C0.489149765,4.84668232 0.642110769,5.09492479 0.649596095,5.1067186 L1.87784041,7.08887976 Z M15.1945604,8.58234219 C15.1722129,8.53894555 14.9481955,8.10555176 14.511443,8.10555176 C14.2089925,8.10555176 13.9178241,8.40887016 13.902962,8.42467158 L12.4505918,10.264849 C12.4469034,10.2727497 12.3161814,10.4462218 12.3572964,10.6392738 C12.3834408,10.761334 12.4693594,10.859921 12.6111466,10.934806 C12.6709207,10.9661798 12.7305864,10.9820957 12.7903605,10.9820957 C13.010581,10.9820957 13.1561651,10.7771354 13.1636505,10.7731278 L13.9289979,9.81565383 C13.9364832,9.95752303 13.947657,10.0875984 13.9551423,10.1821779 C13.9626276,10.264849 13.9664245,10.3279402 13.9664245,10.3633216 C13.9664245,10.6865635 13.9141357,10.9545005 13.8543616,11.2657196 C13.8431878,11.3209101 13.8319056,11.3722074 13.8244203,11.4272833 C13.6005114,12.2941854 13.1674474,13.0232259 12.8986265,13.1650951 L12.8911412,13.1691027 L12.8873443,13.1770034 C12.4394181,13.7285643 11.8719436,14.158065 11.681556,14.158065 L11.6740706,14.158065 L11.6665853,14.1619581 C11.244695,14.311728 10.8976579,14.386613 10.4421379,14.4655055 C10.0314213,14.5087876 9.90080781,14.7806177 9.90818465,14.9974864 C9.91946688,15.2220267 10.0837101,15.4623685 10.37119,15.4623685 L10.6660468,15.4623685 C10.8788904,15.4308802 11.0879371,15.3835905 11.2261444,15.3521021 C11.4240174,15.3048124 11.483683,15.2930186 11.5024506,15.2732096 C12.4319327,14.9698912 13.2084539,14.3985213 13.8841944,13.5315047 C14.5637318,12.5779238 14.9071889,11.5613663 14.9071889,10.5209922 L14.9071889,10.4068327 C14.9071889,10.2924443 14.9109858,10.1387813 14.9071889,9.96931684 L15.7844908,11.163354 C15.7881792,11.1672471 15.8740978,11.2578189 16.0159935,11.2578189 C16.1279479,11.2578189 16.2399024,11.1987354 16.3482769,11.088469 C16.6581043,10.761334 16.5049263,10.5130915 16.4975494,10.5012977 L15.1945604,8.58234219 Z" id="Fill-1" fill="#F95714" mask="url(#mask-7)"></path>
                        </g>
                    </g>
                    <g id="Group-18" transform="translate(74.000000, 45.000000)">
                        <circle id="Oval-8" stroke="#97A2B3" fill="#FFFFFF" cx="9" cy="9" r="9"></circle>
                        <polygon id="Page-1" fill="#F95714" points="11.4302295 1 4 8.99993122 10.366862 9.46151135 7.136764 17 14.1689314 8.04506356 7.49087595 7.79212645"></polygon>
                    </g>
                </g>
            </g>
        </g>
    </g>
</svg>