<?xml version="1.0" encoding="UTF-8"?>
<svg width="96px" height="96px" viewBox="0 0 96 96" version="1.1" xmlns="http://www.w3.org/2000/svg" xmlns:xlink="http://www.w3.org/1999/xlink">
    <!-- Generator: Sketch 49 (51002) - http://www.bohemiancoding.com/sketch -->
    <title>faqi/ic_4</title>
    <desc>Created with Sketch.</desc>
    <defs>
        <polygon id="path-1" points="0 0 15.0204082 0 15.0204082 15.0204082 0 15.0204082"></polygon>
        <polygon id="path-3" points="5.59270517e-05 0.0454407295 9.71816413 0.0454407295 9.71816413 13.0030255 5.59270517e-05 13.0030255"></polygon>
    </defs>
    <g id="Symbols" stroke="none" stroke-width="1" fill="none" fill-rule="evenodd">
        <g id="faqi/ic_4">
            <g id="Group-17">
                <g transform="translate(2.000000, 6.000000)">
                    <g id="Page-1" transform="translate(6.571429, 0.000000)" stroke="#97A2B3" stroke-width="2">
                        <path d="M0.895687181,14.1082191 C1.47019824,47.8864132 12.4531383,70.681056 33.8445073,82.4921476 C56.4612962,67.0756936 68.106452,44.2810507 68.7799745,14.1082191 C52.3226775,12.4189121 40.6775218,8.0080118 33.8445073,0.875518176 C20.7658243,9.69731877 9.78288425,14.1082191 0.895687181,14.1082191 Z" id="Path-2"></path>
                    </g>
                    <path d="M41.8418593,55.3265306 L60.9591837,36.7529132 L60.9591837,24.4081633 C60.9591837,22.8865624 59.7256825,21.6530612 58.2040816,21.6530612 L26.2857143,21.6530612 C24.7641134,21.6530612 23.5306122,22.8865624 23.5306122,24.4081633 L23.5306122,52.5714286 C23.5306122,54.0930294 24.7641134,55.3265306 26.2857143,55.3265306 L41.8418593,55.3265306 Z" id="Rectangle-37" stroke="#97A2B3" stroke-width="2"></path>
                    <path d="M30.5102041,28.6326531 L54.1479674,28.6326531" id="Line-5" stroke="#97A2B3" stroke-width="2" stroke-linecap="square"></path>
                    <path d="M30.5102041,35.2040816 L49.755102,35.2040816" id="Line-5-Copy" stroke="#97A2B3" stroke-width="2" stroke-linecap="square"></path>
                    <path d="M30.5102041,41.7755102 L42.244898,41.7755102" id="Line-5-Copy-2" stroke="#97A2B3" stroke-width="2" stroke-linecap="square"></path>
                    <path d="M30.5102041,48.3469388 L37.5510204,48.3469388" id="Line-5-Copy-3" stroke="#97A2B3" stroke-width="2" stroke-linecap="square"></path>
                    <circle id="Oval-9" stroke="#F95714" fill="#FFFFFF" cx="52.5714286" cy="46.9387755" r="9.3877551"></circle>
                    <polygon id="Star-2" fill="#F95714" points="52.5714286 50.2244898 48.7088398 52.2551729 49.4465286 47.9541171 46.3216286 44.9080924 50.6401342 44.2805768 52.5714286 40.3673469 54.502723 44.2805768 58.8212285 44.9080924 55.6963286 47.9541171 56.4340174 52.2551729"></polygon>
                    <circle id="Oval-5-Copy-2" stroke="#97A2B3" fill="#FFFFFF" cx="79.7959184" cy="33.7959184" r="12.2040816"></circle>
                    <g id="Page-1-Copy" transform="translate(72.285714, 26.285714)">
                        <mask id="mask-2" fill="white">
                            <use xlink:href="#path-1"></use>
                        </mask>
                        <g id="Clip-2"></g>
                        <path d="M2.28602622,9.7959512 L9.46960118,9.7959512 L9.46960118,9.1432402 L2.28602622,9.1432402 L2.28602622,9.7959512 Z M11.7553757,4.2452646 C11.3956431,4.2452646 11.1026209,3.95251377 11.1026209,3.59179843 L11.1026209,1.19542019 L13.9623564,4.2452646 L11.7553757,4.2452646 Z M14.9058677,4.45570285 L14.9249997,4.34016319 L10.8951894,0 L4.57129723,0 C3.85006993,0 3.26578771,0.584494776 3.26578771,1.30617717 L3.91854247,1.30617717 C3.91854247,0.945713554 4.21131292,0.652711005 4.57129723,0.652711005 L10.4493627,0.652711005 L10.4493627,3.59179843 C10.4493627,4.31348082 11.0331414,4.8979756 11.7548722,4.8979756 L14.3671499,4.8979756 L14.3671499,11.7555945 C14.3671499,12.1160582 14.0748829,12.4080538 13.7143952,12.4080538 L12.4081304,12.4080538 L12.4081304,13.06152 L13.7143952,13.06152 C14.4361259,13.06152 15.0204082,12.4765218 15.0204082,11.7555945 L15.0204082,4.5709908 L14.9058677,4.45570285 Z M2.28602622,11.7555945 L9.46960118,11.7555945 L9.46960118,11.1021284 L2.28602622,11.1021284 L2.28602622,11.7555945 Z M2.28602622,7.83655958 L5.55181393,7.83655958 L5.55181393,7.18309342 L2.28602622,7.18309342 L2.28602622,7.83655958 Z M11.1026209,13.714231 C11.1026209,14.0746946 10.8098505,14.366942 10.4501179,14.366942 L1.306013,14.366942 C0.945525216,14.366942 0.653509974,14.0746946 0.653509974,13.714231 L0.653509974,3.26481363 C0.653509974,2.90460173 0.945525216,2.61210262 1.306013,2.61210262 L7.18357496,2.61210262 L7.18357496,5.55144177 C7.18357496,6.272369 7.76886413,6.85686378 8.4898397,6.85686378 L11.1021174,6.85686378 L11.1021174,13.714231 L11.1026209,13.714231 Z M7.83784015,3.15506353 L10.6973239,6.20415277 L8.49109839,6.20415277 C8.1306106,6.20415277 7.83834362,5.91115022 7.83834362,5.55144177 L7.83834362,3.15506353 L7.83784015,3.15506353 Z M11.6599672,6.2995548 L7.62940168,1.95964334 L1.306013,1.95964334 C0.584533959,1.95888818 0,2.54388639 0,3.26481363 L0,13.714231 C0,14.4359134 0.584533959,15.0204082 1.306013,15.0204082 L10.4501179,15.0204082 C11.1715969,15.0204082 11.7553757,14.4359134 11.7553757,13.714231 L11.7553757,6.53038241 L11.6408352,6.41509447 L11.6599672,6.2995548 Z M2.28602622,5.87691625 L5.55181393,5.87691625 L5.55181393,5.22420524 L2.28602622,5.22420524 L2.28602622,5.87691625 Z" id="Fill-1" fill="#F66A59" mask="url(#mask-2)"></path>
                    </g>
                    <g id="Group-16" transform="translate(21.591837, 67.591837)">
                        <circle id="Oval-10" stroke="#97A2B3" fill="#FFFFFF" cx="8.44897959" cy="8.44897959" r="8.44897959"></circle>
                        <g id="Page-1" transform="translate(3.755102, 1.877551)">
                            <g id="Group-3" transform="translate(0.000000, 0.094377)">
                                <mask id="mask-4" fill="white">
                                    <use xlink:href="#path-3"></use>
                                </mask>
                                <g id="Clip-2"></g>
                                <path d="M8.90839635,7.73903161 L8.90839635,9.35867903 C8.90839635,10.9215605 7.6366152,12.1932018 6.07401337,12.1932018 L3.64440243,12.1932018 C2.08152097,12.1932018 0.809879635,10.9215605 0.809879635,9.35867903 L0.809879635,6.52429605 C0.809879635,6.30086748 0.991362918,6.11938419 1.21479149,6.11938419 L8.5034845,6.11938419 C8.72691307,6.11938419 8.90839635,6.30086748 8.90839635,6.52429605 L8.90839635,7.73903161 Z M6.47878541,3.68977325 L6.47878541,5.30956049 L3.23949058,5.30956049 L3.23949058,3.68977325 C3.23949058,2.79535988 3.96472462,2.07012584 4.85913799,2.07012584 C5.75369119,2.07012584 6.47878541,2.79535988 6.47878541,3.68977325 Z M2.0246152,3.68977325 C2.0246152,2.12423526 3.2936,0.855250456 4.85913799,0.855250456 C6.42467599,0.855250456 7.69366079,2.12423526 7.69366079,3.68977325 L7.69366079,5.30942067 L6.88383708,5.30942067 L6.88383708,3.69089179 C6.88383708,2.5726304 5.97739939,1.66633252 4.85913799,1.66633252 C3.74073678,1.66633252 2.83457872,2.5726304 2.83457872,3.69089179 L2.83457872,5.30942067 L2.0246152,5.30942067 L2.0246152,3.68977325 Z M8.5034845,5.30942067 L8.5034845,3.68977325 C8.5034845,1.67709848 6.87195258,0.0454267477 4.85913799,0.0454267477 C2.8463234,0.0454267477 1.21479149,1.67709848 1.21479149,3.68977325 L1.21479149,5.30942067 C0.543666869,5.30942067 5.59270517e-05,5.85317143 5.59270517e-05,6.52429605 L5.59270517e-05,9.35867903 C5.59270517e-05,11.3714936 1.63158784,13.0030255 3.64440243,13.0030255 L6.07401337,13.0030255 C8.08668815,13.0030255 9.71822006,11.3714936 9.71822006,9.35867903 L9.71822006,6.52429605 C9.71822006,5.85317143 9.1744693,5.30942067 8.5034845,5.30942067 Z" id="Fill-1" fill="#F95714" mask="url(#mask-4)"></path>
                            </g>
                            <path d="M4.85913799,7.83340851 C4.41200122,7.83340851 4.04917447,8.19595562 4.04917447,8.64323222 C4.04917447,8.88959088 4.18409848,9.35588267 4.31944195,9.72514103 C4.42975805,10.0257489 4.56803769,10.2626 4.85913799,10.2626 C5.17554529,10.2626 5.28851793,10.0281258 5.3992535,9.72919574 C5.53613495,9.35895866 5.6689617,8.89042979 5.6689617,8.64323222 C5.6689617,8.19595562 5.30627477,7.83340851 4.85913799,7.83340851" id="Fill-4" fill="#F95714"></path>
                        </g>
                    </g>
                    <g id="Page-1-Copy-2" transform="translate(0.000000, 10.326531)">
                        <path d="M5.61971738,11.2395513 C2.52085179,11.2395513 1.29486276e-05,8.71858297 1.29486276e-05,5.61971738 C1.29486276e-05,2.52085179 2.52085179,1.2948628e-05 5.61971738,1.2948628e-05 C8.71858297,1.2948628e-05 11.2395513,2.52085179 11.2395513,5.61971738 C11.2395513,8.71858297 8.71858297,11.2395513 5.61971738,11.2395513" id="Path" stroke="#97A2B3" fill="#FFFFFF"></path>
                        <path d="M8.31639859,4.12933033 C8.15907277,3.97316988 7.90450274,3.9748532 7.74886024,4.132438 L4.82259986,7.09094046 L3.52721914,5.75982153 C3.37222407,5.60055341 3.11817199,5.59770471 2.9595513,5.75179338 C2.80054215,5.9064 2.79704602,6.16084053 2.95165264,6.31946122 L4.53229163,7.94386657 C4.53319803,7.94516144 4.53475186,7.94516144 4.53552878,7.94632681 C4.5363057,7.94710373 4.53682365,7.94878705 4.53760056,7.94943448 C4.56285039,7.97442533 4.59418607,7.98970471 4.62383842,8.00653793 C4.63950626,8.01495454 4.65193695,8.02906854 4.66799324,8.03554286 C4.7165506,8.05548374 4.76834511,8.06545419 4.81975116,8.06545419 C4.87076875,8.06545419 4.92178635,8.05548374 4.96982576,8.03619029 C4.9854936,8.02984546 4.99753582,8.01689683 5.01242674,8.00886868 C5.04246756,7.99216495 5.07380324,7.97727403 5.09957101,7.95189472 C5.10034792,7.95124729 5.10073638,7.94943448 5.10190176,7.94878705 C5.10267868,7.94749219 5.10397354,7.94710373 5.10513892,7.94632681 L8.31924729,4.69725714 C8.47540774,4.5391544 8.47372442,4.28510232 8.31639859,4.12933033" id="Path" fill="#F95714"></path>
                    </g>
                </g>
            </g>
        </g>
    </g>
</svg>