<?xml version="1.0" encoding="UTF-8"?>
<svg width="96px" height="96px" viewBox="0 0 96 96" version="1.1" xmlns="http://www.w3.org/2000/svg" xmlns:xlink="http://www.w3.org/1999/xlink">
    <!-- Generator: Sketch 49 (51002) - http://www.bohemiancoding.com/sketch -->
    <title>faqi/ic_5</title>
    <desc>Created with Sketch.</desc>
    <defs>
        <polygon id="path-1" points="0.000362886598 0.0101705141 36.4093026 0.0101705141 36.4093026 81.0552632 0.000362886598 81.0552632"></polygon>
        <polygon id="path-3" points="0.0420632602 0.00259737484 36.4414351 0.00259737484 36.4414351 81.0552632 0.0420632602 81.0552632"></polygon>
        <polygon id="path-5" points="5.5839174e-06 0 20.3164692 0 20.3164692 21.2647077 5.5839174e-06 21.2647077"></polygon>
        <polygon id="path-7" points="5.8021978e-05 1.45054945e-05 10.4230681 1.45054945e-05 10.4230681 9.39216264 5.8021978e-05 9.39216264"></polygon>
        <polygon id="path-9" points="7.68139662e-05 0.0624113475 13.3475788 0.0624113475 13.3475788 17.8592279 7.68139662e-05 17.8592279"></polygon>
    </defs>
    <g id="Symbols" stroke="none" stroke-width="1" fill="none" fill-rule="evenodd">
        <g id="faqi/ic_5">
            <g id="Group-20">
                <g transform="translate(4.000000, 7.000000)">
                    <g id="Page-1" transform="translate(6.769231, 0.000000)">
                        <g id="Group-7">
                            <g id="Group-3">
                                <mask id="mask-2" fill="white">
                                    <use xlink:href="#path-1"></use>
                                </mask>
                                <g id="Clip-2"></g>
                                <path d="M35.1329748,81.0552632 C34.9678614,81.0552632 34.788414,81.0137331 34.6233006,80.9438453 C34.5411068,80.9023152 25.8566862,76.9059077 17.4613047,70.9385563 C12.4930243,67.4137996 8.58419134,63.8751385 5.84548619,60.4473464 C2.29464082,56.0208183 0.670723299,51.7049763 1.01455835,47.638864 C1.49647175,41.976311 2.44614598,36.5091509 3.20312742,32.1098827 C3.87718928,28.2384316 4.45563052,24.9074212 4.45563052,22.9094004 C4.45563052,20.8275875 3.45061608,18.3855418 2.40441402,15.790548 C1.38669856,13.3064233 0.340496495,10.7386894 0.0647026804,8.19949605 C-0.169177732,6.03480582 0.229997526,4.34176632 1.27601814,3.17617796 C2.84532124,1.39952931 5.40530474,1.39952931 6.24448,1.39952931 C7.23534186,1.39952931 8.59834392,1.95497214 10.9102944,2.95389106 C13.745346,4.17527983 17.6400264,5.8405106 20.6955315,5.8405106 C25.6503852,5.8405106 34.3894202,0.261749688 34.4857666,0.206132225 C35.0642078,-0.168370894 35.8346161,0.0116540541 36.1926037,0.594905613 C36.5640181,1.17724241 36.3852965,1.95497214 35.8070367,2.31575385 C35.4214697,2.56511767 26.3520264,8.3381738 20.6955315,8.3381738 C17.1310779,8.3381738 12.9749377,6.54798669 9.93285938,5.25725904 C8.46008412,4.61912183 6.78100784,3.89737547 6.24448,3.89737547 C5.26704495,3.89737547 3.86376247,3.99452308 3.12020784,4.84140873 C2.56952742,5.46600748 2.36322639,6.50645655 2.52852124,7.92232349 C2.77655423,10.1283609 3.75326351,12.515338 4.70293773,14.8465148 C5.80429856,17.5386561 6.94612124,20.3422154 6.94612124,22.9094004 C6.94612124,25.1161696 6.38201402,28.3906478 5.66676454,32.5400033 C4.90996454,36.8973755 3.97353567,42.3103817 3.50577485,47.860968 C2.84532124,55.7291925 11.5155893,63.6534004 18.9199274,68.8991884 C27.1224346,74.7269472 35.6007357,78.6269389 35.6829295,78.6682861 C36.3023769,78.9599119 36.5781707,79.6951967 36.3023769,80.3197954 C36.0550697,80.7771759 35.6007357,81.0552632 35.1329748,81.0552632" id="Fill-1" fill="#97A2B3" mask="url(#mask-2)"></path>
                            </g>
                            <g id="Group-6" transform="translate(33.929897, 0.000000)">
                                <mask id="mask-4" fill="white">
                                    <use xlink:href="#path-3"></use>
                                </mask>
                                <g id="Clip-5"></g>
                                <path d="M1.2852899,81.0552632 C0.817529072,81.0552632 0.363195052,80.7771759 0.156894021,80.3197954 C-0.132145155,79.6951967 0.142741443,78.9458245 0.776341443,78.6682861 C0.858535258,78.6269389 9.36441567,74.7134087 17.5669229,68.8710137 C24.9438631,63.6254087 33.6141311,55.7149222 32.9534961,47.8465148 C32.4857353,42.2959285 31.5494878,36.883837 30.7925064,32.5264649 C30.0774384,28.3771094 29.5131497,25.1018994 29.5131497,22.895679 C29.5131497,20.3144067 30.6549724,17.5251177 31.7563332,14.8329763 C32.7061889,12.515338 33.6828981,10.1148225 33.9309311,7.90787027 C34.081892,6.47864782 33.8897435,5.45173721 33.3390631,4.82713846 C32.5955085,3.98098462 31.192226,3.88383701 30.2147909,3.88383701 C29.6782631,3.88383701 27.9990054,4.60558337 26.5264115,5.24372058 C23.4845146,6.54798669 19.328193,8.32463534 15.7639208,8.32463534 C10.1072445,8.32463534 1.03798268,2.55157921 0.65241567,2.30148358 C0.073974433,1.92698046 -0.0911389691,1.16370395 0.26684866,0.580635343 C0.638263093,-0.00188440748 1.39506309,-0.168370894 1.97350433,0.192593763 C2.05642392,0.24766237 10.8230384,5.82624033 15.7639208,5.82624033 C18.819426,5.82624033 22.7141064,4.16100956 25.5491579,2.93962079 C27.8611085,1.95497214 29.2237476,1.38599085 30.2147909,1.38599085 C31.0539662,1.38599085 33.6141311,1.38599085 35.1832528,3.16190769 C36.2294548,4.34176632 36.6284487,6.03480582 36.3945682,8.18522578 C36.1187744,10.7386894 35.059327,13.3064233 34.0548569,15.7762778 C32.9946837,18.3577331 32.0038219,20.8138661 32.0038219,22.895679 C32.0038219,24.8938827 32.5820816,28.2241613 33.2561435,32.0961613 C34.0131249,36.4950636 34.9627992,41.976311 35.444894,47.6249597 C35.7885476,51.690706 34.1648115,56.006548 30.6139662,60.4338079 C27.875261,63.861417 23.966428,67.3859909 18.9979662,70.9250179 C10.6027662,76.8916374 1.91816412,80.8887767 1.83597031,80.9301239 C1.62966928,81.0137331 1.4504033,81.0552632 1.2852899,81.0552632" id="Fill-4" fill="#97A2B3" mask="url(#mask-4)"></path>
                            </g>
                        </g>
                    </g>
                    <g id="Page-1" transform="translate(42.549451, 35.780220)">
                        <mask id="mask-6" fill="white">
                            <use xlink:href="#path-5"></use>
                        </mask>
                        <g id="Clip-2"></g>
                        <path d="M12.9278353,5.72812765 C12.9278353,5.72812765 11.1588503,-0.534849944 1.84487605,0.0368873583 L5.5839174e-06,0.0368873583 L5.5839174e-06,21.2647077 L1.84487605,21.2647077 L1.84487605,11.4237234 C4.44921513,11.1019781 7.08018948,11.776627 9.23351555,13.3222553 C9.23351555,13.3222553 17.6226814,20.1525031 20.3164748,7.63101502 C20.311896,7.62665956 14.7727058,9.48504311 12.9278353,5.72812765" id="Fill-1" fill="#F95714" mask="url(#mask-6)"></path>
                    </g>
                    <path d="M25.7230769,21.2747253 L59.3958258,21.2747253" id="Line-6" stroke="#97A2B3" stroke-width="2" stroke-linecap="square"></path>
                    <path d="M25.7230769,32.8791209 L59.3958258,32.8791209" id="Line-6-Copy" stroke="#97A2B3" stroke-width="2" stroke-linecap="square"></path>
                    <path d="M25.5417582,44.4835165 L35.7802198,44.4835165" id="Line-6-Copy-2" stroke="#97A2B3" stroke-width="2" stroke-linecap="square"></path>
                    <path d="M25.5417582,56.0879121 L35.7802198,56.0879121" id="Line-6-Copy-3" stroke="#97A2B3" stroke-width="2" stroke-linecap="square"></path>
                    <g id="Group-15" transform="translate(0.000000, 39.648352)">
                        <circle id="Path" stroke="#97A2B3" fill="#FFFFFF" stroke-linecap="square" cx="8.7032967" cy="8.7032967" r="8.7032967"></circle>
                        <g id="Page-1" transform="translate(3.481319, 4.351648)">
                            <mask id="mask-8" fill="white">
                                <use xlink:href="#path-7"></use>
                            </mask>
                            <g id="Clip-2"></g>
                            <path d="M3.31702945,0.826972747 L3.31702945,0.273733187 L10.2571833,0.273733187 L10.2571833,0.826972747 L7.36246681,0.826972747 L7.36246681,4.23735956 L9.86988659,4.23735956 L9.86988659,4.77319253 L7.36246681,4.77319253 L7.36246681,8.84444967 L10.4231262,8.84444967 L10.4231262,9.39217714 L2.73173275,9.39217714 L2.73173275,8.84444967 L4.21985143,8.84444967 L4.21985143,2.90343429 L4.79949099,2.90343429 L4.79949099,8.84444967 L6.7826822,8.84444967 L6.7826822,0.826972747 L3.31702945,0.826972747 Z M1.20270857,1.45054945e-05 C1.62496352,0.401671648 2.15789538,0.946352967 2.79860308,1.63957055 L2.3268844,2.04717495 C1.96859868,1.63086725 1.45031736,1.06877934 0.768849231,0.355254066 L1.20270857,1.45054945e-05 Z M1.89882725,7.67965846 C2.18995253,7.40884088 2.60350418,6.98353978 3.13933714,6.41289363 C3.18314374,6.68081011 3.23550857,6.9020189 3.29382066,7.07390901 C2.62395692,7.7262211 2.01516132,8.3553244 1.46772396,8.96397495 L1.01645802,8.46890242 C1.13583824,8.30281451 1.21141187,8.14572 1.24651516,7.99138154 C1.29003165,7.83994418 1.3104844,7.63019473 1.3104844,7.3566211 L1.3104844,3.78594857 L5.8021978e-05,3.78594857 L5.8021978e-05,3.23270901 L1.89592615,3.23270901 L1.89592615,7.67965846 L1.89882725,7.67965846 Z" id="Fill-1" fill="#F95714" mask="url(#mask-8)"></path>
                        </g>
                    </g>
                    <g id="Group-16-Copy" transform="translate(64.791209, 0.000000)">
                        <circle id="Oval-10" stroke="#97A2B3" fill="#FFFFFF" cx="11.6043956" cy="11.6043956" r="11.6043956"></circle>
                        <g id="Page-1" transform="translate(5.157509, 2.578755)">
                            <g id="Group-3" transform="translate(0.000000, 0.129624)">
                                <mask id="mask-10" fill="white">
                                    <use xlink:href="#path-9"></use>
                                </mask>
                                <g id="Clip-2"></g>
                                <path d="M12.2353894,10.6293054 L12.2353894,12.8538379 C12.2353894,15.0004041 10.4886398,16.7469617 8.34245761,16.7469617 L5.00546688,16.7469617 C2.8589006,16.7469617 1.11234304,15.0004041 1.11234304,12.8538379 L1.11234304,8.96090606 C1.11234304,8.65403426 1.36160436,8.40477294 1.66847616,8.40477294 L11.6792563,8.40477294 C11.9861281,8.40477294 12.2353894,8.65403426 12.2353894,8.96090606 L12.2353894,10.6293054 Z M8.89839869,5.06778221 L8.89839869,7.29250671 L4.44933377,7.29250671 L4.44933377,5.06778221 C4.44933377,3.83933486 5.44541888,2.84324975 6.67386623,2.84324975 C7.90250562,2.84324975 8.89839869,3.83933486 8.89839869,5.06778221 Z M2.78074239,5.06778221 C2.78074239,2.91756727 4.52365128,1.17465837 6.67386623,1.17465837 C8.82408118,1.17465837 10.5669901,2.91756727 10.5669901,5.06778221 L10.5669901,7.29231468 L9.45472384,7.29231468 L9.45472384,5.06931849 C9.45472384,3.53342324 8.20976148,2.28865292 6.67386623,2.28865292 C5.13777894,2.28865292 3.89320065,3.53342324 3.89320065,5.06931849 L3.89320065,7.29231468 L2.78074239,7.29231468 L2.78074239,5.06778221 Z M11.6792563,7.29231468 L11.6792563,5.06778221 C11.6792563,2.30343961 9.43840087,0.062392144 6.67386623,0.062392144 C3.90933159,0.062392144 1.66847616,2.30343961 1.66847616,5.06778221 L1.66847616,7.29231468 C0.746708565,7.29231468 7.68139662e-05,8.03913846 7.68139662e-05,8.96090606 L7.68139662e-05,12.8538379 C7.68139662e-05,15.6183725 2.24093224,17.8592279 5.00546688,17.8592279 L8.34245761,17.8592279 C11.1068002,17.8592279 13.3476556,15.6183725 13.3476556,12.8538379 L13.3476556,8.96090606 C13.3476556,8.03913846 12.6008319,7.29231468 11.6792563,7.29231468 Z" id="Fill-1" fill="#F95714" mask="url(#mask-10)"></path>
                            </g>
                            <path d="M6.67386623,10.758929 C6.05973857,10.758929 5.56140797,11.2568755 5.56140797,11.8711952 C5.56140797,12.2095607 5.74672166,12.8499972 5.93261146,13.3571614 C6.084127,13.7700364 6.27404954,14.0953436 6.67386623,14.0953436 C7.10844124,14.0953436 7.26360546,13.773301 7.41569711,13.3627304 C7.60369929,12.8542219 7.78613246,12.2107129 7.78613246,11.8711952 C7.78613246,11.2568755 7.28799389,10.758929 6.67386623,10.758929" id="Fill-4" fill="#F95714"></path>
                        </g>
                    </g>
                </g>
            </g>
        </g>
    </g>
</svg>