<?xml version="1.0" encoding="UTF-8"?>
<svg width="96px" height="96px" viewBox="0 0 96 96" version="1.1" xmlns="http://www.w3.org/2000/svg" xmlns:xlink="http://www.w3.org/1999/xlink">
    <!-- Generator: Sketch 49 (51002) - http://www.bohemiancoding.com/sketch -->
    <title>faqi/ic_6</title>
    <desc>Created with Sketch.</desc>
    <defs>
        <polygon id="path-1" points="0.00140116864 0.0012815534 33.9474524 0.0012815534 33.9474524 40.6905379 0.00140116864 40.6905379"></polygon>
        <polygon id="path-3" points="0 0 27.8413256 0 27.8413256 40.184088 0 40.184088"></polygon>
    </defs>
    <g id="Symbols" stroke="none" stroke-width="1" fill="none" fill-rule="evenodd">
        <g id="faqi/ic_6">
            <g id="Group-19">
                <g transform="translate(4.000000, 10.000000)">
                    <circle id="Oval-11" stroke="#97A2B3" stroke-width="2" fill="#FFFFFF" cx="49.5533981" cy="38.4466019" r="38.4466019"></circle>
                    <path d="M74.3672251,51.8440499 C76.523394,47.8589487 77.7475728,43.2957364 77.7475728,38.4466019 C77.7475728,22.8753892 65.1246108,10.2524272 49.5533981,10.2524272 C33.9821853,10.2524272 21.3592233,22.8753892 21.3592233,38.4466019 C21.3592233,46.6908952 24.8977564,54.1087198 30.5389002,59.2641533" id="Oval-3" stroke="#97A2B3" stroke-width="1.6"></path>
                    <path d="M65.6116478,39.0489849 C65.6116478,29.6118862 57.9613678,21.9616062 48.5242691,21.9616062 C39.0871705,21.9616062 31.4368905,29.6118862 31.4368905,39.0489849" id="Oval-3-Copy" stroke="#97A2B3" stroke-width="1.2" transform="translate(48.524269, 30.505296) rotate(-5.000000) translate(-48.524269, -30.505296) "></path>
                    <g id="Page-1" transform="translate(32.466019, 30.757282)">
                        <mask id="mask-2" fill="white">
                            <use xlink:href="#path-1"></use>
                        </mask>
                        <g id="Clip-2"></g>
                    </g>
                    <g id="Page-1" transform="translate(39.300971, 34.174757)">
                        <path d="M17.7029385,18.3392104 L16.6151456,18.3392104 L16.6151456,15.6201424 C16.6151456,14.3927508 15.6172427,13.3902913 14.3857087,13.3902913 C13.1541748,13.3902913 12.1562718,14.3881942 12.1562718,15.6201424 L12.1562718,18.3392104 L11.068479,18.3392104 L11.068479,15.6201424 C11.068479,13.7904466 12.5564272,12.3029126 14.3857087,12.3029126 C16.2149903,12.3029126 17.7029385,13.7904466 17.7029385,15.6201424 L17.7029385,18.3392104 Z M4.78446602,22.7446472 L5.87184466,22.7446472 L5.87184466,16.6536699 L4.78446602,16.6536699 L4.78446602,22.7446472 Z" id="Fill-1" fill="#F95714"></path>
                        <path d="M23.038343,19.0550162 L21.9505502,19.0550162 L21.9505502,16.9871327 C21.9505502,15.7601553 20.9526472,14.7576958 19.7211133,14.7576958 C18.4937217,14.7576958 17.4916764,15.7560129 17.4916764,16.9871327 L17.4916764,17.5310291 L16.4038835,17.5310291 L16.4038835,16.9871327 C16.4038835,15.1578511 17.8918317,13.6699029 19.7211133,13.6699029 C21.5503948,13.6699029 23.038343,15.1578511 23.038343,16.9871327 L23.038343,19.0550162 Z" id="Fill-3" fill="#F95714"></path>
                        <g id="Group-7" transform="translate(0.000000, 0.003065)">
                            <mask id="mask-4" fill="white">
                                <use xlink:href="#path-3"></use>
                            </mask>
                            <g id="Clip-6"></g>
                            <path d="M13.1744725,40.1841294 C12.4864207,40.1841294 11.8393786,40.1617605 11.2147055,40.121165 C10.9943301,40.112466 10.7474434,40.1079094 10.4997282,40.1079094 C9.37175405,40.0987961 8.09506796,40.0855405 7.07935275,39.3705631 C6.66138511,39.1187055 6.36893204,38.7007379 6.11748867,38.3279223 C5.99155987,38.1435858 5.8701877,37.9683625 5.73514563,37.8155081 C5.21817476,37.1862783 3.37563754,34.3901618 3.2944466,34.2733463 C3.04300324,33.8731909 2.7687767,33.4734498 2.4991068,33.0732945 C1.32598058,31.3517152 0,29.4010615 0,27.1268867 L0,19.7907055 C0,18.0827961 1.33467961,16.7477023 3.04300324,16.7477023 L4.94436246,16.7477023 L4.94436246,3.31681553 C4.94436246,1.48753398 6.43231068,0 8.26159223,0 C10.0908738,0 11.5784078,1.48753398 11.5784078,3.31681553 L11.5784078,17.8354951 L10.4906149,17.8354951 L10.4906149,3.31681553 C10.4906149,2.08983819 9.49312621,1.08779288 8.26159223,1.08779288 C7.03420065,1.08779288 6.0317411,2.08569579 6.0317411,3.31681553 L6.0317411,17.8354951 L3.04300324,17.8354951 C1.92828479,17.8354951 1.08737864,18.6759871 1.08737864,19.7907055 L1.08737864,27.1310291 C1.08737864,29.0729838 2.26050485,30.7987055 3.39800647,32.4664337 C3.68134628,32.8798447 3.95515858,33.2845566 4.21157282,33.6892686 C4.85902913,34.668945 6.19370874,36.6601942 6.56693851,37.1142006 C6.72890615,37.2985372 6.87678964,37.5097994 7.01638835,37.7119482 C7.22765049,38.017657 7.42565696,38.31011 7.67710032,38.4579935 C8.4500712,38.9973333 9.50223948,39.0064466 10.5179547,39.0201165 C10.7785113,39.0246731 11.0345113,39.0246731 11.2822265,39.0379288 C12.729165,39.1323754 14.266822,39.1141489 16.2804401,38.9840777 C18.2940583,38.8540065 19.7728932,38.5930356 21.0856181,38.1435858 C21.5441812,38.017657 21.8453333,37.6311715 22.1912233,37.1817217 C22.842822,36.3143042 23.3510939,35.3702524 23.8900194,34.3677929 L24.1866149,33.819754 C24.9691133,31.4954563 26.753657,25.4500453 26.753657,18.5413592 C26.753657,17.3143819 26.0208673,16.5861489 24.7980324,16.5861489 C22.9057864,16.5861489 22.842822,18.4738382 22.842822,18.5546149 L22.8295663,19.0989256 L21.7417735,19.0761424 L21.7550291,18.532246 C21.7778123,17.4850485 22.4430809,15.498356 24.7980324,15.498356 C26.6186149,15.498356 27.8414498,16.7207767 27.8414498,18.5413592 C27.8414498,25.6521942 25.9984984,31.8686861 25.2027443,34.2103819 L25.1671197,34.2957152 L24.8431845,34.8847638 C24.3084013,35.87811 23.7599482,36.9029385 23.0495275,37.8424337 C22.6361165,38.3772168 22.173411,38.970822 21.4000259,39.1816699 C20.0288932,39.6580453 18.4601683,39.9326861 16.3429903,40.0718706 C15.1520518,40.1480906 14.1185243,40.1841294 13.1744725,40.1841294" id="Fill-5" fill="#F95714" mask="url(#mask-4)"></path>
                        </g>
                    </g>
                    <path d="M54.3099561,34.282487 C52.9410409,32.16146 50.5568323,30.7572816 47.8446602,30.7572816 C44.6833298,30.7572816 41.9675847,32.6650585 40.7859116,35.3921254" id="Oval-12" stroke="#F95714"></path>
                    <g id="Group-18-Copy" transform="translate(0.000000, 25.631068)">
                        <circle id="Oval-8" stroke="#97A2B3" fill="#FFFFFF" cx="7.68932039" cy="7.68932039" r="7.68932039"></circle>
                        <polygon id="Page-1" fill="#F95714" points="9.76563298 0.854368932 3.41747573 7.68926163 8.85712479 8.08362134 6.09742944 14.5242718 12.1054948 6.87345236 6.39997169 6.65735075"></polygon>
                    </g>
                    <g id="Page-1-Copy-3" transform="translate(70.912621, 5.980583)">
                        <circle id="Oval-13" stroke="#97A2B3" fill="#FFFFFF" cx="6.40776699" cy="6.40776699" r="6.40776699"></circle>
                        <path d="M6.11532871,6.79045453 C5.13444343,6.79045453 4.33921775,6.00220329 4.33921775,5.02912938 C4.33921775,4.05633446 5.13444343,3.26766475 6.11532871,3.26766475 C7.09621399,3.26766475 7.89143967,4.05591599 7.89143967,5.02912938 C7.89143967,6.00178482 7.09621399,6.79045453 6.11532871,6.79045453 M7.50896136,7.07194294 C8.16846443,6.62864751 8.60185615,5.87931365 8.60185615,5.02954785 C8.60185615,3.66730018 7.48831702,2.5631068 6.11532871,2.5631068 C4.7423404,2.5631068 3.62921973,3.66730018 3.62921973,5.02954785 C3.62921973,5.87917416 4.06247196,6.62850802 4.72183555,7.07194294 C3.45262691,7.60925381 2.5631068,8.85823658 2.5631068,10.3135233 L3.27352328,10.3135233 C3.27352328,8.75738617 4.54594016,7.49543095 6.11532871,7.49543095 C7.68471726,7.49543095 8.95699465,8.75738617 8.95699465,10.3135233 L9.66741114,10.3135233 C9.66741114,8.85823658 8.77803051,7.6093933 7.50896136,7.07194294" id="Fill-4" fill="#F95714"></path>
                    </g>
                </g>
            </g>
        </g>
    </g>
</svg>