<?xml version="1.0" encoding="UTF-8"?>
<svg width="14px" height="14px" viewBox="0 0 14 14" version="1.1" xmlns="http://www.w3.org/2000/svg" xmlns:xlink="http://www.w3.org/1999/xlink">
    <!-- Generator: Sketch 49 (51002) - http://www.bohemiancoding.com/sketch -->
    <title>qianyue/ic_chakanhetong</title>
    <desc>Created with Sketch.</desc>
    <defs>
        <polygon id="path-1" points="0.276958956 0.296145481 10.3098171 0.296145481 10.3098171 10.3229389 0.276958956 10.3229389"></polygon>
    </defs>
    <g id="Symbols" stroke="none" stroke-width="1" fill="none" fill-rule="evenodd">
        <g id="qianyue/ic_chakanhetong">
            <g id="Page-1">
                <g transform="translate(2.000000, 1.000000)">
                    <g id="Group-3" transform="translate(0.000000, 0.122973)">
                        <mask id="mask-2" fill="white">
                            <use xlink:href="#path-1"></use>
                        </mask>
                        <g id="Clip-2"></g>
                        <path d="M4.4069388,7.53308468 C2.69202959,7.53308468 1.30187992,6.14293501 1.30187992,4.42788606 C1.30187992,2.71297686 2.69202959,1.32282719 4.4069388,1.32282719 C6.121848,1.32282719 7.51213741,2.71297686 7.51213741,4.42788606 C7.51213741,6.14293501 6.121848,7.53308468 4.4069388,7.53308468 M10.1540925,9.38801499 L7.70973207,6.94295581 C8.24005153,6.24704252 8.55544837,5.37868807 8.55544837,4.43627056 C8.55544837,2.14981812 6.70177574,0.296145481 4.41532329,0.296145481 C2.12873111,0.296145481 0.275198212,2.14981812 0.275198212,4.43627056 C0.275198212,6.72286275 2.12873111,8.57653539 4.41532329,8.57653539 C5.36221253,8.57653539 6.23420027,8.25792448 6.93165071,7.72313329 L9.37489325,10.1670745 C9.58268905,10.3748703 9.92254068,10.3748703 10.1304762,10.1672143 L10.1539528,10.143598 C10.3617486,9.93580216 10.3617486,9.59595053 10.1540925,9.38801499" id="Fill-1" fill="#F95714" mask="url(#mask-2)"></path>
                    </g>
                    <path d="M6.0767394,4.33302945 C5.96704223,4.22333228 5.83275053,4.22850272 5.83275053,4.22850272 L4.78818189,4.22738478 L4.78706396,3.18267641 C4.78706396,3.18267641 4.79209466,3.04852445 4.68253723,2.93882727 C4.68253723,2.93882727 4.59743458,2.85582075 4.4602083,2.85582075 C4.4602083,2.85582075 4.34743681,2.84352349 4.24808052,2.94287978 C4.24808052,2.94287978 4.13950128,3.01875948 4.13950128,3.18058028 L4.13950128,4.22654633 L3.10625171,4.2254284 C2.97615226,4.2120132 2.86030645,4.32785901 2.86030645,4.32785901 C2.77017311,4.41799236 2.76821672,4.56150701 2.76821672,4.56150701 C2.76821672,4.68755395 2.86254232,4.77056047 2.86254232,4.77056047 C2.97824838,4.88626654 3.09507238,4.8760654 3.09507238,4.8760654 L4.13950128,4.8760654 L4.13950128,5.92049429 C4.13950128,5.92049429 4.1291604,6.03731829 4.2450062,6.15302436 C4.2450062,6.15302436 4.32801273,6.24734995 4.45405967,6.24734995 C4.45405967,6.24734995 4.59743458,6.24525383 4.68770767,6.15512048 C4.68770767,6.15512048 4.80341373,6.03927467 4.78999853,5.90917522 L4.78902034,4.8760654 L5.83498639,4.8760654 C5.9968072,4.8760654 6.07254715,4.76748616 6.07254715,4.76748616 C6.17204319,4.66799012 6.15974593,4.55535837 6.15974593,4.55535837 C6.15974593,4.41799236 6.0767394,4.33302945 6.0767394,4.33302945" id="Fill-4" fill="#F95714"></path>
                </g>
            </g>
        </g>
    </g>
</svg>