<?xml version="1.0" encoding="UTF-8"?>
<svg width="60px" height="57px" viewBox="0 0 60 57" version="1.1" xmlns="http://www.w3.org/2000/svg" xmlns:xlink="http://www.w3.org/1999/xlink">
    <!-- Generator: Sketch 49 (51002) - http://www.bohemiancoding.com/sketch -->
    <title>faqi/ic_daiwoqian</title>
    <desc>Created with Sketch.</desc>
    <defs></defs>
    <g id="Symbols" stroke="none" stroke-width="1" fill="none" fill-rule="evenodd">
        <g id="faqi/ic_daiwoqian" fill="#F9C04D">
            <g>
                <path d="M15.4285714,56.2297676 C6.2257363,51.1063687 0,41.2802337 0,30 C0,13.4314575 13.4314575,0 30,0 C46.5685425,0 60,13.4314575 60,30 C60,41.2802337 53.7742637,51.1063687 44.5714286,56.2297676 L44.5714286,55.2440617 C53.2822522,50.2051186 59.1428571,40.7869681 59.1428571,30 C59.1428571,13.9048444 46.0951556,0.857142857 30,0.857142857 C13.9048444,0.857142857 0.857142857,13.9048444 0.857142857,30 C0.857142857,40.7869681 6.71774782,50.2051186 15.4285633,55.244057 L15.4285714,56.2297676 Z" id="Combined-Shape"></path>
                <path d="M20.9587934,38.9259784 C29.7099204,23.6696871 38.2288399,38.9259784 38.2288399,38.9259784 L20.9587934,38.9259784 Z M29.6712192,19.6426929 C32.0665686,19.6426929 34.0080814,21.5842057 34.0080814,23.9792971 C34.0080814,26.3749046 32.0665686,28.3161594 29.6712192,28.3161594 C27.2758697,28.3161594 25.3343569,26.3749046 25.3343569,23.9792971 C25.3343569,21.5842057 27.2758697,19.6426929 29.6712192,19.6426929 Z M29.7487507,12.75 C20.3605299,12.75 12.75,20.3605299 12.75,29.7490087 C12.75,39.1369715 20.3605299,46.7475014 29.7487507,46.7475014 C39.1369715,46.7475014 46.7475014,39.1369715 46.7475014,29.7490087 C46.7475014,20.3605299 39.1369715,12.75 29.7487507,12.75 Z" id="Page-1"></path>
            </g>
        </g>
    </g>
</svg>