<?xml version="1.0" encoding="UTF-8"?>
<svg width="60px" height="56px" viewBox="0 0 60 56" version="1.1" xmlns="http://www.w3.org/2000/svg" xmlns:xlink="http://www.w3.org/1999/xlink">
    <!-- Generator: Sketch 49 (51002) - http://www.bohemiancoding.com/sketch -->
    <title>faqi/ic_daitarenqian</title>
    <desc>Created with Sketch.</desc>
    <defs></defs>
    <g id="Symbols" stroke="none" stroke-width="1" fill="none" fill-rule="evenodd">
        <g id="faqi/ic_daitarenqian" fill="#FC8E00">
            <g>
                <path d="M15.4285714,55.4899023 C6.2257363,50.4339165 0,40.7370727 0,29.6052632 C0,13.2547278 13.4314575,0 30,0 C46.5685425,0 60,13.2547278 60,29.6052632 C60,40.7370727 53.7742637,50.4339165 44.5714286,55.4899023 L44.5714286,54.5171662 C53.2822522,49.544525 59.1428571,40.2502975 59.1428571,29.6052632 C59.1428571,13.721886 46.0951556,0.845864662 30,0.845864662 C13.9048444,0.845864662 0.857142857,13.721886 0.857142857,29.6052632 C0.857142857,40.2502975 6.71774782,49.544525 15.4285633,54.5171616 L15.4285714,55.4899023 Z" id="Combined-Shape"></path>
                <path d="M38.9956593,31.5733649 C38.9956593,32.1154492 38.5492458,32.5568348 37.9930584,32.5568348 L27.9987624,32.5568348 C27.4431849,32.5568348 26.9961615,32.1154492 26.9961615,31.5733649 L26.9961615,21.7055018 C26.9961615,21.1628145 27.4431849,20.7220319 27.9987624,20.7220319 L29.9960359,20.7220319 C30.5522233,20.7220319 30.9992467,21.1628145 30.9992467,21.7055018 L30.9992467,28.6145134 L38.0003767,28.6145134 C38.556564,28.6145134 39.0029775,29.0552961 39.0029775,29.5979833 L39.0029775,31.5733649 L38.9956593,31.5733649 Z M29.9960359,12.8289474 C20.609155,12.8289474 13,20.3385329 13,29.6052192 C13,38.8652726 20.609155,46.381491 29.9960359,46.381491 C39.3835268,46.381491 47,38.8652726 47,29.6052192 C47,20.3385329 39.3835268,12.8289474 29.9960359,12.8289474 Z" id="Fill-4"></path>
            </g>
        </g>
    </g>
</svg>