<?xml version="1.0" encoding="UTF-8"?>
<svg width="9px" height="16px" viewBox="0 0 9 16" version="1.1" xmlns="http://www.w3.org/2000/svg" xmlns:xlink="http://www.w3.org/1999/xlink">
    <!-- Generator: Sketch 49 (51002) - http://www.bohemiancoding.com/sketch -->
    <title>faqi/ic_fanhui</title>
    <desc>Created with Sketch.</desc>
    <defs>
        <polygon id="path-1" points="0.00518942308 0.00223589744 8.89854808 0.00223589744 8.89854808 15.8516718 0.00518942308 15.8516718"></polygon>
    </defs>
    <g id="Symbols" stroke="none" stroke-width="1" fill="none" fill-rule="evenodd">
        <g id="faqi/ic_fanhui">
            <g>
                <mask id="mask-2" fill="white">
                    <use xlink:href="#path-1"></use>
                </mask>
                <g id="Clip-2"></g>
                <path d="M0.00518942308,7.85433846 C0.00518942308,7.87915897 0.0104394231,7.90192821 0.0122567308,7.92490256 C0.0104394231,7.94951795 0.00518942308,7.97269744 0.00518942308,7.99731282 C0.00518942308,8.29885128 0.118064423,8.60059487 0.345631731,8.83177436 L6.91540096,15.5058256 C7.14296827,15.7370051 7.43999712,15.8516718 7.73682404,15.8516718 C8.03385288,15.8516718 8.33249712,15.7370051 8.55824712,15.5058256 C8.78581442,15.2746462 8.89868942,14.9731077 8.89868942,14.6713641 C8.89868942,14.3696205 8.78581442,14.0680821 8.55824712,13.8369026 L2.74043942,7.92674872 L8.55824712,2.01659487 C8.78581442,1.78541538 8.89868942,1.48367179 8.89868942,1.18213333 C8.89868942,0.880389744 8.78581442,0.578646154 8.55824712,0.347466667 C8.10513173,-0.112841026 7.36871827,-0.112841026 6.91540096,0.347466667 L0.345631731,7.01987692 C0.118064423,7.25105641 0.00518942308,7.55259487 0.00518942308,7.85433846" id="Fill-1" fill="#FFFFFF" mask="url(#mask-2)"></path>
            </g>
        </g>
    </g>
</svg>