<?xml version="1.0" encoding="UTF-8"?>
<svg width="34px" height="34px" viewBox="0 0 34 34" version="1.1" xmlns="http://www.w3.org/2000/svg" xmlns:xlink="http://www.w3.org/1999/xlink">
    <!-- Generator: Sketch 49 (51002) - http://www.bohemiancoding.com/sketch -->
    <title>faqi/ic_faqiqianyue</title>
    <desc>Created with Sketch.</desc>
    <defs>
        <linearGradient x1="50%" y1="0%" x2="50%" y2="100%" id="linearGradient-1">
            <stop stop-color="#FD902D" offset="0%"></stop>
            <stop stop-color="#F95714" offset="100%"></stop>
        </linearGradient>
        <polygon id="path-2" points="0.00443373494 0.0725863509 20.6874334 0.0725863509 20.6874334 22.1997665 0.00443373494 22.1997665"></polygon>
    </defs>
    <g id="Symbols" stroke="none" stroke-width="1" fill="none" fill-rule="evenodd">
        <g id="faqi/ic_faqiqianyue">
            <g>
                <path d="M18.5333783,31.5969349 C17.8879807,31.588453 17.2520289,31.4415614 16.6681253,31.1664771 L14.6854747,30.2274892 C11.3329928,28.6097542 8.07207711,26.7182843 5.03284819,24.9054651 L4.92855904,24.8138988 C4.74292048,24.6812723 4.63169157,24.4682602 4.62860723,24.2400193 C4.62533012,24.0239229 4.7274988,23.8193928 4.90253494,23.6921639 C6.9034988,22.5118265 8.76335422,21.1071036 10.4462458,19.5051759 C10.706294,19.2852241 11.0920289,19.302959 11.3316434,19.5454651 C11.5706795,19.7881639 11.5826313,20.1742843 11.3592096,20.431441 C9.87217349,21.860453 8.24190843,23.1323566 6.49386024,24.2271036 C9.32451084,25.9227181 12.2592578,27.6056096 15.259547,29.040212 L17.2288964,29.9664771 C18.231306,30.4262361 19.3952578,30.3676337 20.3463904,29.8097542 C22.4572337,28.6643084 24.2914506,27.0704771 25.7204627,25.1400675 C27.8646554,22.4312482 29.5078361,19.3611759 30.5728964,16.0748145 C31.0581012,14.6292241 31.3989205,13.1392964 31.5901494,11.6266217 C31.5901494,11.1832482 31.6686072,10.7396819 31.6946313,10.3223325 L31.6946313,9.99616386 L18.6505831,5.82209157 C18.5491855,7.36348916 18.2644627,8.88734458 17.8027759,10.3614651 C17.3412819,11.8353928 17.2288964,12.0570795 16.498294,12.1615614 C16.2347759,12.192212 15.9751133,12.0773205 15.8203181,11.8616096 C15.6211855,11.5655133 15.696559,11.1645494 15.9899566,10.9613687 L16.1071614,10.896212 C16.2856675,10.598959 16.4425831,10.2895614 16.5769446,9.97013976 C17.0259084,8.51741687 17.2930892,7.01457349 17.3725108,5.49611566 C17.3418602,5.12753735 17.4929928,4.76744096 17.7767518,4.53091084 C18.0876916,4.37071807 18.457041,4.37071807 18.7681735,4.53091084 L32.0599325,8.76994699 C32.3668241,8.83279036 32.6359325,9.01553735 32.8074988,9.27751325 C32.9788723,9.53968193 33.0384386,9.85948916 32.9728964,10.1658024 L32.9728964,10.4268145 C32.9728964,10.896212 32.9728964,11.3658024 32.8556916,11.8353928 C32.6532819,13.4319229 32.2951133,15.0045494 31.785812,16.5312964 C30.6719807,19.9647422 28.9536193,23.1716819 26.7118843,26.0009831 C25.1554506,28.052453 23.1701012,29.7395855 20.8942458,30.9447904 C20.1713542,31.3492241 19.3613301,31.5728386 18.5333783,31.5969349" id="Fill-1" fill="url(#linearGradient-1)"></path>
                <g id="Group-5" transform="translate(1.000000, 2.138795)">
                    <mask id="mask-3" fill="white">
                        <use xlink:href="#path-2"></use>
                    </mask>
                    <g id="Clip-4"></g>
                    <path d="M15.9029205,9.35743614 C16.4683181,10.3868337 16.9398361,11.465388 17.3116916,12.5792193 C17.7228723,13.8023518 18.0453783,15.0534361 18.2768964,16.3228337 L18.2768964,16.5447133 C18.2510651,16.4859181 18.2204145,16.4290506 18.1855229,16.3750747 C16.5637398,14.3099181 14.7985349,12.3615807 12.9028241,10.5445205 C11.3903422,9.02876145 9.68933012,7.71367711 7.84181205,6.63126747 C7.51564337,6.44871325 7.17655904,6.30529157 6.83728193,6.14856867 C6.77231807,6.14182169 6.7067759,6.14182169 6.64181205,6.14856867 C6.68692048,6.21912289 6.73935422,6.28485783 6.79834217,6.34423133 C7.64595663,7.04861687 8.51998072,7.72697831 9.40711325,8.47049639 C10.9323181,9.82683373 12.3578602,11.2915084 13.6723663,12.853147 C15.9418602,15.4619181 18.1594988,18.2272193 20.4029687,20.9273639 C20.4783422,21.0204723 20.5438843,21.120906 20.5986313,21.2273157 C20.7447518,21.4842795 20.7079325,21.8060145 20.5074506,22.0230747 C20.3426313,22.2239422 20.0488482,22.2584482 19.8421976,22.1013398 C19.7494747,22.0342554 19.6661976,21.955412 19.594294,21.8667373 C19.190053,21.3838458 18.7854265,20.9013398 18.4074024,20.418641 C18.1350169,20.0693398 17.793041,19.7803759 17.4028723,19.5708337 C15.041812,18.370641 12.824559,17.0663518 10.6593542,15.7620627 C8.6934747,14.5071229 6.81106506,13.1261108 5.02426988,11.6271229 C4.50243855,11.1837494 4.01993253,10.7008578 3.52431807,10.2314602 L3.52431807,10.1663036 L5.06340241,10.1663036 C5.11969157,10.1749783 5.17675181,10.1749783 5.23284819,10.1663036 C5.28913735,10.1574361 5.23284819,10.0357976 5.12855904,10.0097735 C4.39043855,9.54249639 3.58561928,9.19068916 2.74166747,8.96611084 C2.32528193,8.86085783 1.96557108,8.59926747 1.73713735,8.2357012 C1.03834217,7.3104 0.520751807,6.26153253 0.211161446,5.1444241 C-0.0702843373,4.14644819 -0.0702843373,3.09006265 0.211161446,2.09208675 L0.302342169,1.84418313 C0.302342169,1.67473735 0.485089157,1.62249639 0.628510843,1.68765301 L0.88933012,1.81815904 L3.09386024,3.12244819 L3.1981494,3.12244819 C3.17540241,3.01449639 3.14031807,2.90943614 3.09386024,2.80938795 C2.6948241,2.10827952 2.22735422,1.44861687 1.69800482,0.839845783 C1.42407711,0.552809639 1.45029398,0.474544578 1.81540241,0.344231325 C2.49106506,0.0982554217 3.21569157,0.0176771084 3.92855904,0.109243373 C4.77790843,0.246303614 5.60933012,0.478207229 6.4068241,0.800713253 C6.90918554,0.99753253 7.32846265,1.36148434 7.59390843,1.83126747 C8.35689639,3.01064096 9.04104096,4.23955663 9.64190843,5.50953253 L9.71998072,5.66606265 C9.71766747,4.52813494 9.58176386,3.39425542 9.31573976,2.2877494 L9.39381205,2.2877494 C10.4104867,3.00196627 11.3857157,3.77285783 12.3158361,4.5963759 C12.9849446,5.20919518 13.5374265,5.93844819 13.9464867,6.74866506 L14.024559,6.87917108 L15.9029205,9.35743614 Z" id="Fill-3" fill="url(#linearGradient-1)" mask="url(#mask-3)"></path>
                </g>
            </g>
        </g>
    </g>
</svg>