<?xml version="1.0" encoding="UTF-8"?>
<svg width="24px" height="24px" viewBox="0 0 24 24" version="1.1" xmlns="http://www.w3.org/2000/svg" xmlns:xlink="http://www.w3.org/1999/xlink">
    <!-- Generator: Sketch 49 (51002) - http://www.bohemiancoding.com/sketch -->
    <title>daohang/ic_hetong2</title>
    <desc>Created with Sketch.</desc>
    <defs>
        <linearGradient x1="50%" y1="0%" x2="50%" y2="100%" id="linearGradient-1">
            <stop stop-color="#FD902D" offset="0%"></stop>
            <stop stop-color="#F95714" offset="100%"></stop>
        </linearGradient>
    </defs>
    <g id="Symbols" stroke="none" stroke-width="1" fill="none" fill-rule="evenodd">
        <g id="daohang/ic_hetong2" fill="url(#linearGradient-1)">
            <g id="Fill-1">
                <path d="M15.7674603,18.1146032 C15.848127,17.9532698 16.0101587,17.7915873 16.1721905,17.7915873 L17.3046667,17.630254 L17.8710794,16.5805397 C18.0327619,16.257873 18.5181587,16.257873 18.6801905,16.5805397 L19.2466032,17.630254 L20.3790794,17.7915873 C20.5407619,17.872254 20.6217778,17.9529206 20.7838095,18.1146032 C20.7838095,18.2759365 20.7838095,18.5182857 20.7027937,18.679619 L19.8126667,19.4869841 L19.8936825,20.6170159 C19.8936825,20.7786984 19.8936825,20.8593651 19.732,21.0206984 C19.6509841,21.0206984 19.6509841,21.1013651 19.4893016,21.1013651 C19.4893016,21.1013651 19.4082857,21.1013651 19.3272698,21.0206984 L18.2754603,20.4556825 L17.2236508,21.0206984 C17.0619683,21.1013651 16.8192698,21.0206984 16.738254,20.9400317 C16.6572381,20.8593651 16.5765714,20.6976825 16.5765714,20.5363492 L16.8192698,19.3256508 L15.9291429,18.5182857 C15.7674603,18.437619 15.6864444,18.2759365 15.7674603,18.1146032 Z M18.1947937,21.9087302 C19.9746984,21.9087302 21.4308889,20.5363492 21.4308889,18.679619 C21.4308889,16.9035556 19.9746984,15.4505079 18.1947937,15.4505079 C16.4148889,15.4505079 14.9583492,16.9035556 14.9583492,18.679619 C14.9583492,20.4556825 16.4148889,21.9087302 18.1947937,21.9087302 Z M18.1947937,14.7241587 C20.4600952,14.7241587 22.24,16.499873 22.24,18.7602857 C22.24,21.0206984 20.4600952,22.7967619 18.1947937,22.7967619 C15.9291429,22.7967619 14.1492381,21.0206984 14.1492381,18.7602857 C14.1492381,16.499873 15.9291429,14.7241587 18.1947937,14.7241587 Z M18.2754603,8.18492063 L5.0744127,8.18492063 C4.75104762,8.18492063 4.50834921,8.42692063 4.50834921,8.74993651 C4.50834921,9.07295238 4.75104762,9.31495238 5.0744127,9.31495238 L18.2754603,9.31495238 C18.5991746,9.31495238 18.841873,9.07295238 18.841873,8.74993651 C18.841873,8.42692063 18.5991746,8.18492063 18.2754603,8.18492063 Z M19.4893016,6.40885714 L15.848127,2.77606349 C15.5247619,2.45304762 15.2820635,2.53371429 15.2820635,3.0184127 L15.2820635,5.35914286 C15.2820635,6.24752381 16.0101587,6.97387302 16.9002857,6.97387302 L19.2466032,6.97387302 C19.732,6.97387302 19.8126667,6.73152381 19.4893016,6.40885714 Z M5.0744127,4.95546032 C4.75104762,4.95546032 4.50834921,5.19780952 4.50834921,5.5208254 C4.50834921,5.84349206 4.75104762,6.08584127 5.0744127,6.08584127 L12.2883175,6.08584127 C12.6120317,6.08584127 12.8547302,5.84349206 12.8547302,5.5208254 C12.8547302,5.19780952 12.6120317,4.95546032 12.2883175,4.95546032 L5.0744127,4.95546032 Z M14.7156508,12.5440635 C15.0393651,12.5440635 15.2820635,12.3020635 15.2820635,11.9793968 C15.2820635,11.6560317 15.0393651,11.4140317 14.7156508,11.4140317 L5.0744127,11.4140317 C4.75104762,11.4140317 4.50834921,11.656381 4.50834921,11.9793968 C4.50834921,12.3020635 4.75104762,12.5440635 5.0744127,12.5440635 L14.7156508,12.5440635 Z M14.553619,21.8280635 L3.61822222,21.8280635 C2.72809524,21.8280635 2,21.1013651 2,20.2136825 L2,2.61438095 C2,1.72634921 2.72809524,1 3.61822222,1 L15.6864444,1 C16.1718413,1 16.738254,1.24234921 17.0619683,1.56501587 L20.6217778,5.19780952 C20.9454921,5.5208254 21.1881905,6.16685714 21.1881905,6.57019048 L21.1881905,14.9661587 C20.3790794,14.320127 19.3272698,13.9167937 18.1947937,13.9167937 C15.5247619,13.9167937 13.340127,16.0965397 13.340127,18.679619 C13.340127,19.8906667 13.8255238,21.0206984 14.553619,21.8280635 Z"></path>
            </g>
        </g>
    </g>
</svg>