<?xml version="1.0" encoding="UTF-8"?>
<svg width="60px" height="57px" viewBox="0 0 60 57" version="1.1" xmlns="http://www.w3.org/2000/svg" xmlns:xlink="http://www.w3.org/1999/xlink">
    <!-- Generator: Sketch 49 (51002) - http://www.bohemiancoding.com/sketch -->
    <title>faqi/ic_jijiangjiezhi</title>
    <desc>Created with Sketch.</desc>
    <defs></defs>
    <g id="Symbols" stroke="none" stroke-width="1" fill="none" fill-rule="evenodd">
        <g id="faqi/ic_jijiangjiezhi" fill="#F95714">
            <g>
                <path d="M15.4285714,56.2297676 C6.2257363,51.1063687 0,41.2802337 0,30 C0,13.4314575 13.4314575,0 30,0 C46.5685425,0 60,13.4314575 60,30 C60,41.2802337 53.7742637,51.1063687 44.5714286,56.2297676 L44.5714286,55.2440617 C53.2822522,50.2051186 59.1428571,40.7869681 59.1428571,30 C59.1428571,13.9048444 46.0951556,0.857142857 30,0.857142857 C13.9048444,0.857142857 0.857142857,13.9048444 0.857142857,30 C0.857142857,40.7869681 6.71774782,50.2051186 15.4285633,55.244057 L15.4285714,56.2297676 Z" id="Combined-Shape-Copy"></path>
                <path d="M32.412612,32.8085204 C32.412612,33.9890627 31.4555867,34.946088 30.2750444,34.946088 L29.7997008,34.946088 C28.6195809,34.946088 27.6625557,33.9890627 27.6625557,32.8085204 L27.6625557,19.6662193 C27.6625557,18.4860995 28.6195809,17.5290743 29.7997008,17.5290743 L30.2750444,17.5290743 C31.4555867,17.5290743 32.412612,18.4860995 32.412612,19.6662193 L32.412612,32.8085204 Z M30.0375838,40.7190837 C28.803803,40.7190837 27.80368,39.7189607 27.80368,38.4856024 C27.80368,37.2518215 28.803803,36.2516985 30.0375838,36.2516985 C31.2709421,36.2516985 32.2714877,37.2518215 32.2714877,38.4856024 C32.2714877,39.7189607 31.2709421,40.7190837 30.0375838,40.7190837 Z M29.9999789,13.0004225 C20.6109912,13.0004225 13,20.6114137 13,30.0004014 C13,39.3889666 20.6109912,46.9999577 29.9999789,46.9999577 C39.3889666,46.9999577 46.9995352,39.3889666 46.9995352,30.0004014 C46.9995352,20.6114137 39.3889666,13.0004225 29.9999789,13.0004225 Z" id="Page-1"></path>
            </g>
        </g>
    </g>
</svg>