<?xml version="1.0" encoding="UTF-8"?>
<svg width="14px" height="14px" viewBox="0 0 14 14" version="1.1" xmlns="http://www.w3.org/2000/svg" xmlns:xlink="http://www.w3.org/1999/xlink">
    <!-- Generator: Sketch 49 (51002) - http://www.bohemiancoding.com/sketch -->
    <title>faqi/ic_prompt</title>
    <desc>Created with Sketch.</desc>
    <defs></defs>
    <g id="Symbols" stroke="none" stroke-width="1" fill="none" fill-rule="evenodd">
        <g id="faqi/ic_prompt" fill="#F95714">
            <g>
                <path d="M11.8900895,9.22257368 C11.6027211,9.90231053 11.1911947,10.5124158 10.6669316,11.0370474 C10.1467211,11.5579947 9.53072105,11.9735737 8.85245789,12.2602053 C8.14877368,12.5578895 7.40124737,12.7085737 6.63051053,12.7085737 C5.86014211,12.7085737 5.11261579,12.5578895 4.40893158,12.2602053 C3.72919474,11.9728368 3.11872105,11.5613105 2.59482632,11.0370474 C2.07351053,10.5168368 1.65793158,9.90083684 1.3713,9.22257368 C1.07361579,8.51888947 0.922931579,7.77173158 0.922931579,7.00099474 C0.922931579,6.23025789 1.07361579,5.48273158 1.3713,4.77904737 C1.65793158,4.10115263 2.07314211,3.48478421 2.59482632,2.96494211 C3.11466842,2.44362632 3.73103684,2.02804737 4.40893158,1.74141579 C5.11261579,1.4441 5.86014211,1.29304737 6.63051053,1.29304737 C7.40124737,1.29304737 8.14877368,1.44373158 8.85208947,1.74141579 C9.53219474,2.02915263 10.1423,2.44067895 10.6665632,2.96494211 C11.1878789,3.48478421 11.6034579,4.10115263 11.8900895,4.77904737 C12.1877737,5.48273158 12.3384579,6.23025789 12.3384579,7.00099474 C12.3384579,7.77173158 12.1877737,8.51888947 11.8900895,9.22257368 M12.7404053,4.41983684 C12.4062474,3.63031053 11.9284053,2.9211 11.3190368,2.31246842 C10.7104053,1.70346842 10.0011947,1.22525789 9.21166842,0.891468421 C8.39414211,0.545521053 7.52577368,0.370152632 6.63087895,0.370152632 C5.73561579,0.370152632 4.86724737,0.545521053 4.04972105,0.891468421 C3.26056316,1.22525789 2.55098421,1.70346842 1.94235263,2.31246842 C1.33335263,2.9211 0.855142105,3.63031053 0.521352632,4.41983684 C0.175405263,5.23736316 3.68421053e-05,6.1061 3.68421053e-05,7.00099474 C3.68421053e-05,7.89588947 0.175405263,8.76425789 0.521352632,9.58178421 C0.855142105,10.3713105 1.33335263,11.0805211 1.94235263,11.6891526 C2.55098421,12.2981526 3.26019474,12.7763632 4.04972105,13.1101526 C4.86724737,13.4561 5.73561579,13.6314684 6.63087895,13.6314684 C7.52577368,13.6314684 8.39414211,13.4561 9.21166842,13.1101526 C10.0011947,12.7763632 10.7104053,12.2981526 11.3194053,11.6891526 C11.9284053,11.0805211 12.4062474,10.3713105 12.7404053,9.58178421 C13.0859842,8.76425789 13.2613526,7.89588947 13.2613526,7.00099474 C13.2613526,6.1061 13.0859842,5.23736316 12.7404053,4.41983684" id="Fill-1"></path>
                <path d="M6.63076842,9.14524211 C6.22292632,9.14524211 5.89171579,9.47571579 5.89171579,9.88392632 C5.89171579,10.2925053 6.22255789,10.6237158 6.63076842,10.6237158 C7.03897895,10.6237158 7.36945263,10.2925053 7.36945263,9.88392632 C7.36945263,9.47645263 7.03861053,9.14524211 6.63076842,9.14524211 Z M7.19297895,8.02008421 C7.15466316,8.43603158 6.89050526,8.63055789 6.62929474,8.63055789 C6.43513684,8.63055789 6.62929474,8.63055789 6.62929474,8.63055789 C6.38097895,8.58413684 6.18866316,8.47803158 6.10392632,8.05729474 L5.76276842,4.12366316 C5.76276842,3.72834737 6.24355789,3.37834737 6.6514,3.37834737 C7.05924211,3.37834737 7.4984,3.74418947 7.4984,4.13913684 L7.19297895,8.02008421 Z" id="Fill-4"></path>
            </g>
        </g>
    </g>
</svg>