<?xml version="1.0" encoding="UTF-8"?>
<svg width="16px" height="16px" viewBox="0 0 16 16" version="1.1" xmlns="http://www.w3.org/2000/svg" xmlns:xlink="http://www.w3.org/1999/xlink">
    <!-- Generator: Sketch 49 (51002) - http://www.bohemiancoding.com/sketch -->
    <title>faqi/ic_replace</title>
    <desc>Created with Sketch.</desc>
    <defs></defs>
    <g id="Symbols" stroke="none" stroke-width="1" fill="none" fill-rule="evenodd">
        <g id="faqi/ic_replace">
            <g>
                <path d="M8.00017383,0 C3.58151359,0 0,3.58178342 0,8.00034764 C0,12.4182166 3.58151359,16 8.00017383,16 C12.4184864,16 16,12.4182166 16,8.00034764 C16,3.58178342 12.4184864,0 8.00017383,0 Z" id="Fill-3" fill="#5EC860"></path>
                <g id="Group-6" transform="translate(4.000000, 4.000000)" fill="#FFFFFF" stroke="#FFFFFF" stroke-width="0.3">
                    <path d="M7.58982809,4.33037333 C7.55469617,4.66984 7.14455149,7.70397333 3.82744511,7.70397333 C2.52184511,7.70397333 1.3287217,7.05490667 0.636977021,5.98904 L0.636977021,6.60877333 C0.636977021,6.76984 0.503802553,6.90050667 0.339308936,6.90050667 C0.174815319,6.90077333 0.0416408511,6.77010667 0.0413685106,6.60930667 L0.0413685106,5.20237333 C0.0413685106,5.12504 0.0724153191,5.05090667 0.128517447,4.99650667 C0.184074894,4.94157333 0.259785532,4.91064 0.338764255,4.91090667 L1.77536,4.91090667 C1.93958128,4.91090667 2.07275574,5.04104 2.07330043,5.20184 C2.07330043,5.36290667 1.9403983,5.49357333 1.77590468,5.49384 L1.03296,5.49384 C1.59370894,6.50130667 2.65120681,7.12077333 3.82744511,7.12077333 C5.46720681,7.12077333 6.86621957,5.87064 7.01219404,4.27464 L7.01981957,4.19197333 L7.02962383,4.19197333 C7.04405787,4.15064 7.06775149,4.11277333 7.09934298,4.08184 C7.20882383,3.97464 7.40000681,3.97490667 7.50921532,4.08157333 C7.57593872,4.14664 7.60616851,4.23970667 7.58982809,4.33037333 Z" id="Path"></path>
                    <path d="M0.0835812766,3.46770667 L0.0901174468,3.44690667 C0.360551489,1.64957333 1.96763234,0.289573333 3.82744511,0.289573333 C5.0023217,0.289573333 6.09794723,0.82264 6.81284085,1.72850667 L6.81284085,1.18424 C6.81638128,1.02557333 6.94846638,0.898906667 7.1102366,0.898906667 C7.27200681,0.89864 7.40436426,1.02530667 7.40817702,1.18370667 L7.40817702,2.59064 C7.40817702,2.62397333 7.40136851,2.65704 7.38802383,2.68957333 C7.38475574,2.69890667 7.38067064,2.70824 7.37604085,2.71704 L7.37658553,2.71890667 L7.32429617,2.79997333 L7.31095149,2.80024 L7.29379404,2.81650667 C7.26901106,2.83597333 7.24123234,2.85197333 7.21154723,2.86290667 C7.18104511,2.87490667 7.14591319,2.88184 7.11050894,2.88184 L6.87466213,2.88184 C6.86894298,2.88237333 6.86431319,2.88237333 6.86104511,2.88237333 L6.8299983,2.88184 L5.67418553,2.88184 C5.50996426,2.88184 5.37651745,2.75117333 5.37651745,2.59037333 C5.37651745,2.42957333 5.5102366,2.29890667 5.67418553,2.29890667 L6.50264511,2.29890667 C5.91684085,1.41517333 4.90645787,0.872773333 3.82744511,0.872773333 C2.27810043,0.872773333 0.925113191,2.01144 0.677828085,3.52237333 C0.673470638,3.68024 0.541385532,3.80584 0.37988766,3.80610667 C0.294645106,3.80610667 0.21348766,3.76984 0.157113191,3.70717333 C0.100466383,3.64450667 0.0740493617,3.56104 0.0846706383,3.47810667 L0.0835812766,3.46770667 Z" id="Path"></path>
                </g>
            </g>
        </g>
    </g>
</svg>