<?xml version="1.0" encoding="UTF-8"?>
<svg width="16px" height="16px" viewBox="0 0 16 16" version="1.1" xmlns="http://www.w3.org/2000/svg" xmlns:xlink="http://www.w3.org/1999/xlink">
    <!-- Generator: Sketch 49 (51002) - http://www.bohemiancoding.com/sketch -->
    <title>faqi/ic_shimingrenzheng</title>
    <desc>Created with Sketch.</desc>
    <defs></defs>
    <g id="Symbols" stroke="none" stroke-width="1" fill="none" fill-rule="evenodd">
        <g id="faqi/ic_shimingrenzheng" fill="#FC8E00">
            <g>
                <path d="M12.8173565,13.7134706 C12.4547478,14.4491765 11.9175304,14.572 10.8832696,14.4629412 C9.84935652,14.3538824 8.98970435,11.6012941 8.81509565,10.729 C8.64066087,9.85688235 9.33909565,9.76141176 9.67474783,9.77517647 C10.0104,9.78876471 10.0373565,9.89782353 10.4401391,10.7154118 C10.8430957,11.5331765 11.2862261,12.5552941 11.6354435,12.5552941 C11.6354435,12.5552941 12.3740522,10.9471176 12.5486609,10.3612353 C12.7230957,9.77517647 13.072313,9.63894118 13.3679652,9.70705882 C13.6634435,9.77517647 14.0528348,10.1976471 14.0528348,10.4838824 C14.0528348,10.7699412 13.1799652,12.9775882 12.8173565,13.7134706 M11.5011826,6.89994118 C9.03874783,6.89994118 7.04257391,8.92547059 7.04257391,11.4241176 C7.04257391,13.9227647 9.03874783,15.9482941 11.5011826,15.9482941 C13.9636174,15.9482941 15.9597913,13.9227647 15.9597913,11.4241176 C15.9597913,8.92547059 13.9636174,6.89994118 11.5011826,6.89994118" id="Fill-1"></path>
                <path d="M5.20890435,11.3332 L4.2669913,8.74490588 C4.64942609,8.87178824 5.0576,8.94061176 5.48177391,8.94061176 C5.69133913,8.94061176 5.89690435,8.92367059 6.09742609,8.89155294 L5.20890435,11.3332 Z M9.3896,4.97531765 C9.3896,2.78531765 7.64003478,1.01002353 5.48177391,1.01002353 C3.32368696,1.01002353 1.57394783,2.78531765 1.57394783,4.97531765 C1.57394783,6.43843529 2.35481739,7.71625882 3.51690435,8.40325882 C2.40316522,8.78549412 0.0233391304,9.79525882 0.0233391304,11.4445529 C0.0233391304,13.5976706 -0.245356522,14.3879059 1.04386087,14.6333765 C1.8736,14.7911412 3.88229565,14.8135529 5.20890435,14.8094941 C5.95186087,14.8116118 6.90855652,14.8056118 7.75255652,14.7722588 C6.98212174,13.8622 6.51638261,12.6789647 6.51638261,11.3850824 C6.51638261,10.3970235 6.87412174,9.26425882 7.35429565,8.45655294 C8.56716522,7.78349412 9.3896,6.47690588 9.3896,4.97531765 Z" id="Fill-3"></path>
            </g>
        </g>
    </g>
</svg>