<?xml version="1.0" encoding="UTF-8"?>
<svg width="60px" height="60px" viewBox="0 0 60 60" version="1.1" xmlns="http://www.w3.org/2000/svg" xmlns:xlink="http://www.w3.org/1999/xlink">
    <!-- Generator: Sketch 49 (51002) - http://www.bohemiancoding.com/sketch -->
    <title>faqi/ic_shiyongmoban２</title>
    <desc>Created with Sketch.</desc>
    <defs></defs>
    <g id="Symbols" stroke="none" stroke-width="1" fill="none" fill-rule="evenodd">
        <g id="faqi/ic_shiyongmoban２" fill="#97A2B3">
            <g id="Page-1">
                <path d="M11.9999011,44.9998352 L47.9998022,44.9998352 L47.9998022,38.9999011 L11.9999011,38.9999011 L11.9999011,44.9998352 Z M11.9999011,32.999967 L47.9998022,32.999967 L47.9998022,27.000033 L11.9999011,27.000033 L11.9999011,32.999967 Z M11.9999011,21.0000989 L32.999967,21.0000989 L32.999967,15.0001648 L11.9999011,15.0001648 L11.9999011,21.0000989 Z M41.9998681,3 L50.9852308,3 C54.3062308,3 57,5.6821978 57,9.01506593 L57,17.9998352 L41.9998681,17.9998352 L41.9998681,3 Z M3,8.9850989 C3,5.67893407 5.71186813,3 8.99993407,3 L39.0779341,3 L38.9999011,21.0000989 L57,21.0538022 L57,50.9822637 L57,51.0000659 C57,54.3083077 54.3222527,56.9913956 51.0157912,57 L8.9850989,57 C5.67952747,57 3,54.3204725 3,51.0149011 L3,8.9850989 Z"></path>
            </g>
        </g>
    </g>
</svg>