<?xml version="1.0" encoding="UTF-8"?>
<svg width="60px" height="60px" viewBox="0 0 60 60" version="1.1" xmlns="http://www.w3.org/2000/svg" xmlns:xlink="http://www.w3.org/1999/xlink">
    <!-- Generator: Sketch 49 (51002) - http://www.bohemiancoding.com/sketch -->
    <title>faqi/ic_shangchuang bendi</title>
    <desc>Created with Sketch.</desc>
    <defs></defs>
    <g id="Symbols" stroke="none" stroke-width="1" fill="none" fill-rule="evenodd">
        <g id="faqi/ic_shangchuang-bendi" fill="#97A2B3">
            <g id="Fill-1">
                <path d="M9.96576495,16.6059166 C7.97046137,16.6059166 6.34166218,18.1335095 6.33740431,20.0059899 L1,48.0866452 L1,7.38729967 C1.00425787,5.51940468 2.46012202,4 4.26185625,4 L20.5711375,4 L25.461793,9.08881018 L49.9108123,9.08881018 C51.7125466,9.08881018 53.1726686,10.6059222 53.1726686,12.4803677 L53.1726686,16.6141048 L9.96576495,16.6141048 L9.96576495,16.6059166 Z M40.9060715,40.7064456 C41.6066549,40.7064456 42.3019979,39.8666626 42.5391286,39.0278621 C42.5391286,38.1884066 42.3019979,37.0702243 41.8385451,36.5134259 L33.9218539,25.8900392 C32.9936382,24.7734946 31.5937814,24.7734946 30.6642555,25.8900392 L22.7488745,36.5134259 C22.048291,37.0702243 22.048291,38.1884066 22.048291,39.0278621 C22.048291,39.8666626 22.7488745,40.7064456 23.6770902,40.7064456 L29.2673465,40.7064456 L29.2673465,47.6926284 C29.2673465,48.8114657 29.9636721,49.6502662 30.8961457,49.6502662 L34.1537441,49.6502662 C35.0872003,49.6502662 35.7825433,48.8114657 35.7825433,47.6926284 L35.7825433,40.7074282 L40.9103294,40.7074282 L40.9060715,40.7074282 L40.9060715,40.7064456 Z M7.31278416,54.5713818 C5.85069697,54.5988942 4.63130839,53.45844 4.5612173,51.9976629 L9.96281719,22.8453344 L9.96281719,22.7650899 C9.96281719,21.3059505 11.1953069,20.1206249 12.7176593,20.1206249 L57.2363146,20.1206249 C58.7291895,20.1206249 59.953491,21.2679572 60,22.6933612 L54.5980726,51.8456897 L54.5980726,51.9259342 C54.5653197,53.4174989 53.3305373,54.6008593 51.8389726,54.5703992 L7.31278416,54.5703992 L7.31278416,54.5713818 Z"></path>
            </g>
        </g>
    </g>
</svg>