<?xml version="1.0" encoding="UTF-8"?>
<svg width="16px" height="16px" viewBox="0 0 16 16" version="1.1" xmlns="http://www.w3.org/2000/svg" xmlns:xlink="http://www.w3.org/1999/xlink">
    <!-- Generator: Sketch 49 (51002) - http://www.bohemiancoding.com/sketch -->
    <title>faqi/ic_tianjiayuangong</title>
    <desc>Created with Sketch.</desc>
    <defs>
        <polygon id="path-1" points="4.84848485e-05 2.42424242e-05 15.8833939 2.42424242e-05 15.8833939 15.9066182 4.84848485e-05 15.9066182"></polygon>
    </defs>
    <g id="Symbols" stroke="none" stroke-width="1" fill="none" fill-rule="evenodd">
        <g id="faqi/ic_tianjiayuangong">
            <g>
                <mask id="mask-2" fill="white">
                    <use xlink:href="#path-1"></use>
                </mask>
                <g id="Clip-2"></g>
                <path d="M14.1365333,11.4460121 L12.524897,11.4460121 L12.524897,9.84552727 L11.4393212,9.84552727 L11.4393212,11.4460121 L9.82841212,11.4460121 L9.82841212,12.5531636 L11.4393212,12.5531636 L11.4393212,14.1543758 L12.524897,14.1543758 L12.524897,12.5531636 L14.1365333,12.5531636 L14.1365333,11.4460121 Z M15.8834424,11.998497 C15.8834424,14.1512242 14.1382303,15.8966788 11.9850182,15.8966788 C9.83204848,15.8966788 8.08707879,14.1517091 8.08707879,11.998497 C8.08707879,9.84552727 9.83204848,8.10055758 11.9850182,8.10055758 C14.1382303,8.10055758 15.8834424,9.84552727 15.8834424,11.998497 Z M9.17507879,15.6898909 C8.29944242,15.8256485 7.35374545,15.9066182 6.43471515,15.9066182 C3.3862303,15.9066182 4.84848485e-05,15.5948606 4.84848485e-05,14.1405576 L4.84848485e-05,13.1027394 C4.84848485e-05,11.7628606 2.05071515,10.5240727 4.28150303,10.0949818 C4.28150303,10.0949818 4.9552,9.73692121 4.79229091,9.05813333 C4.08392727,8.20237576 3.93459394,7.29546667 3.93459394,7.29546667 C3.81289697,7.24213333 3.63883636,7.13789091 3.53071515,6.99534545 C3.28053333,6.65619394 3.05144242,5.92625455 3.10162424,5.41692121 C3.15350303,4.88843636 3.29556364,5.05692121 3.31156364,4.9718303 C2.86332121,3.82807273 3.07689697,2.4278303 3.6512,1.40140606 C4.8022303,-0.656533333 7.27204848,-0.0507151515 7.66671515,0.721648485 C10.0303515,0.281890909 9.92659394,3.9648 9.60610909,4.94589091 C9.60610909,4.94589091 9.82089697,4.9878303 9.77338182,5.88746667 C9.72950303,6.7897697 8.96562424,7.39025455 8.96562424,7.39025455 C8.94162424,7.63728485 8.64029091,8.39243636 8.14453333,9.05813333 C8.05071515,9.25595152 8.02913939,9.41522424 8.04562424,9.54734545 C7.60053333,10.2595879 7.33871515,11.0983758 7.33871515,11.998497 C7.33871515,13.5039515 8.06113939,14.8404364 9.17507879,15.6898909 Z" id="Fill-1" fill="#7A8699" mask="url(#mask-2)"></path>
            </g>
        </g>
    </g>
</svg>