<?xml version="1.0" encoding="UTF-8"?>
<svg width="14px" height="14px" viewBox="0 0 14 14" version="1.1" xmlns="http://www.w3.org/2000/svg" xmlns:xlink="http://www.w3.org/1999/xlink">
    <!-- Generator: Sketch 49 (51002) - http://www.bohemiancoding.com/sketch -->
    <title>hetong/ic_xiugai</title>
    <desc>Created with Sketch.</desc>
    <defs></defs>
    <g id="Symbols" stroke="none" stroke-width="1" fill="none" fill-rule="evenodd">
        <g id="hetong/ic_xiugai" fill="#507BE6">
            <path d="M10.7092513,5.65665645 L9.80572728,6.55966686 C9.34163747,6.0960907 8.2629561,5.01663884 7.43057365,4.18605419 L8.33563868,3.28201647 C8.65975675,2.95815523 9.18933793,2.95764158 9.51294234,3.28201647 L10.7095082,4.47909596 C11.0336262,4.8029572 11.0328558,5.33125424 10.7092513,5.65665645 Z M6.6498138,9.7142962 L6.64621819,9.70967328 C6.6266992,9.72611033 6.6053824,9.7410064 6.58072683,9.74999541 L3.35624002,10.9265286 C3.27225698,10.9563207 3.17748711,10.9365449 3.11533452,10.8715672 C3.05164095,10.8091578 3.03109464,10.7143879 3.06217094,10.6309185 L4.2376768,7.40771587 C4.24615215,7.38357396 4.26002091,7.36302765 4.27671479,7.34273816 L4.2741465,7.33991305 L7.16963549,4.44519455 C7.48373723,4.7585258 7.74236393,5.01663884 7.74236393,5.01663884 L5.47379428,7.28135606 C5.43732458,7.31679844 5.42088753,7.3635413 5.42088753,7.41079782 C5.42088753,7.45779751 5.43732458,7.50428354 5.47379428,7.54049641 C5.5094935,7.57542514 5.55623636,7.59494414 5.60477702,7.59494414 C5.65331768,7.59494414 5.69954688,7.57542514 5.73498927,7.54049641 L8.00227477,5.27706335 L8.7144613,5.98822256 L6.45719213,8.24292345 C6.38630735,8.31457871 6.38630735,8.43117903 6.45719213,8.50283429 C6.49212086,8.53699253 6.5396342,8.5562547 6.58817486,8.5562547 C6.63748601,8.5562547 6.68345838,8.53699253 6.71838711,8.50334795 C6.71838711,8.50283429 8.9748858,6.24864706 8.9748858,6.24864706 C8.9748858,6.24864706 9.30645191,6.58021317 9.54478913,6.81932087 L6.6498138,9.7142962 Z M7.00012841,0 C3.13356937,0 0,3.1338262 0,6.99987159 C0,10.8656601 3.13356937,14 7.00012841,14 C10.8656601,14 14,10.8656601 14,6.99987159 C14,3.1338262 10.8656601,0 7.00012841,0 Z M4.0430005,9.28102585 L4.70484856,9.94467172 L6.29898553,9.36346792 L4.62317697,7.68945717 L4.0430005,9.28102585 Z"></path>
        </g>
    </g>
</svg>