<?xml version="1.0" encoding="UTF-8"?>
<svg width="60px" height="57px" viewBox="0 0 60 57" version="1.1" xmlns="http://www.w3.org/2000/svg" xmlns:xlink="http://www.w3.org/1999/xlink">
    <!-- Generator: Sketch 49 (51002) - http://www.bohemiancoding.com/sketch -->
    <title>faqi/ic_yiqianyue</title>
    <desc>Created with Sketch.</desc>
    <defs></defs>
    <g id="Symbols" stroke="none" stroke-width="1" fill="none" fill-rule="evenodd">
        <g id="faqi/ic_yiqianyue" fill="#5EC860">
            <g>
                <path d="M15.4285714,56.2297676 C6.2257363,51.1063687 0,41.2802337 0,30 C0,13.4314575 13.4314575,0 30,0 C46.5685425,0 60,13.4314575 60,30 C60,41.2802337 53.7742637,51.1063687 44.5714286,56.2297676 L44.5714286,55.2440617 C53.2822522,50.2051186 59.1428571,40.7869681 59.1428571,30 C59.1428571,13.9048444 46.0951556,0.857142857 30,0.857142857 C13.9048444,0.857142857 0.857142857,13.9048444 0.857142857,30 C0.857142857,40.7869681 6.71774782,50.2051186 15.4285633,55.244057 L15.4285714,56.2297676 Z" id="Combined-Shape-Copy-2"></path>
                <path d="M39.7440859,25.9803836 L29.6370056,38.0735738 C29.2856475,38.4987229 28.6550193,38.5566203 28.2304379,38.2052622 L26.6984257,36.9224361 L20.5635653,31.7854555 C20.1384163,31.4329622 20.0799513,30.7955225 20.4392561,30.3703735 L21.7215145,28.8383612 C22.0734403,28.421159 22.71088,28.3621262 23.1292175,28.7214311 L28.4938146,33.2141605 L36.6806291,23.4221106 C37.0393663,22.9975292 37.6699945,22.9458756 38.0951435,23.2978013 L39.6271557,24.5800598 C40.044358,24.925174 40.1033907,25.5552346 39.7440859,25.9803836 M30.0036895,13 C20.615219,13 13,20.6078399 13,30.0036895 C13,39.384781 20.615219,47 30.0036895,47 C39.384781,47 46.9994324,39.3927278 46.9994324,30.0036895 C46.9994324,20.6078399 39.384781,13 30.0036895,13" id="Fill-1"></path>
            </g>
        </g>
    </g>
</svg>