<?xml version="1.0" encoding="UTF-8"?>
<svg width="14px" height="14px" viewBox="0 0 14 14" version="1.1" xmlns="http://www.w3.org/2000/svg" xmlns:xlink="http://www.w3.org/1999/xlink">
    <!-- Generator: Sketch 52.5 (67469) - http://www.bohemiancoding.com/sketch -->
    <title>曝光</title>
    <desc>Created with Sketch.</desc>
    <g id="1.5.1" stroke="none" stroke-width="1" fill="none" fill-rule="evenodd">
        <g id="猎聘曝光/上传记录" transform="translate(-433.000000, -129.000000)">
            <rect fill="#F9F9F9" x="0" y="0" width="1920" height="1080"></rect>
            <rect id="矩形" fill="#FFFFFF" x="260" y="106" width="1650" height="964"></rect>
            <g id="曝光" transform="translate(433.000000, 129.000000)">
                <g>
                    <circle id="椭圆形" fill="#FF001F" cx="7" cy="7" r="7"></circle>
                    <rect id="矩形" fill="#000000" opacity="0" x="1" y="1" width="12" height="12"></rect>
                    <path d="M7,3.71875 C7.18164062,3.71875 7.328125,3.57226562 7.328125,3.390625 L7.328125,2.078125 C7.328125,1.89648438 7.18164062,1.75 7,1.75 C6.81835938,1.75 6.671875,1.89648438 6.671875,2.078125 L6.671875,3.390625 C6.671875,3.57226562 6.81835938,3.71875 7,3.71875 Z M7,10.28125 C6.81835938,10.28125 6.671875,10.4277344 6.671875,10.609375 L6.671875,11.921875 C6.671875,12.1035156 6.81835938,12.25 7,12.25 C7.18164062,12.25 7.328125,12.1035156 7.328125,11.921875 L7.328125,10.609375 C7.328125,10.4277344 7.18164062,10.28125 7,10.28125 Z M11.921875,6.671875 L10.609375,6.671875 C10.4277344,6.671875 10.28125,6.81835938 10.28125,7 C10.28125,7.18164062 10.4277344,7.328125 10.609375,7.328125 L11.921875,7.328125 C12.1035156,7.328125 12.25,7.18164062 12.25,7 C12.25,6.81835938 12.1035156,6.671875 11.921875,6.671875 Z M3.71875,7 C3.71875,6.81835938 3.57226562,6.671875 3.390625,6.671875 L2.078125,6.671875 C1.89648438,6.671875 1.75,6.81835938 1.75,7 C1.75,7.18164062 1.89648438,7.328125 2.078125,7.328125 L3.390625,7.328125 C3.57226562,7.328125 3.71875,7.18164062 3.71875,7 Z M4.215625,4.6796875 C4.34335937,4.80742188 4.55195312,4.80742188 4.6796875,4.6796875 C4.80742188,4.55195313 4.80742188,4.34335938 4.6796875,4.215625 L3.7515625,3.2875 C3.62382813,3.15976562 3.41523438,3.15976562 3.2875,3.2875 C3.15976563,3.41523437 3.15976563,3.62382813 3.2875,3.7515625 L4.215625,4.6796875 Z M9.784375,9.3203125 C9.65664062,9.19257813 9.44804687,9.19257813 9.3203125,9.3203125 C9.19257813,9.44804687 9.19257813,9.65664062 9.3203125,9.784375 L10.2484375,10.7125 C10.3761719,10.8402344 10.5847656,10.8402344 10.7125,10.7125 C10.8402344,10.5847656 10.8402344,10.3761719 10.7125,10.2484375 L9.784375,9.3203125 Z M9.784375,4.6796875 L10.7125,3.7515625 C10.8402344,3.62382813 10.8402344,3.41523438 10.7125,3.2875 C10.5847656,3.15976563 10.3761719,3.15976563 10.2484375,3.2875 L9.3203125,4.215625 C9.19257813,4.34335937 9.19257813,4.55195312 9.3203125,4.6796875 C9.44804687,4.80742188 9.65664062,4.80742188 9.784375,4.6796875 Z M4.215625,9.3203125 L3.2875,10.2484375 C3.15976562,10.3761719 3.15976562,10.5847656 3.2875,10.7125 C3.41523437,10.8402344 3.62382813,10.8402344 3.7515625,10.7125 L4.6796875,9.784375 C4.80742188,9.65664062 4.80742188,9.44804687 4.6796875,9.3203125 C4.55195313,9.19257813 4.34335938,9.19257813 4.215625,9.3203125 Z M7,4.375 C5.55039063,4.375 4.375,5.55039063 4.375,7 C4.375,8.44960938 5.55039063,9.625 7,9.625 C8.44960938,9.625 9.625,8.44960938 9.625,7 C9.625,5.55039062 8.44960938,4.375 7,4.375 Z M7,8.96875 C5.91484375,8.96875 5.03125,8.08515625 5.03125,7 C5.03125,5.91484375 5.91484375,5.03125 7,5.03125 C8.08515625,5.03125 8.96875,5.91484375 8.96875,7 C8.96875,8.08515625 8.08515625,8.96875 7,8.96875 Z" id="形状" fill="#FFFFFF" fill-rule="nonzero"></path>
                </g>
            </g>
            <g id="曝光" transform="translate(433.000000, 129.000000)">
                <g>
                    <circle id="椭圆形" fill="#FF001F" cx="7" cy="7" r="7"></circle>
                    <rect id="矩形" fill="#000000" opacity="0" x="1" y="1" width="12" height="12"></rect>
                    <path d="M7,3.71875 C7.18164062,3.71875 7.328125,3.57226562 7.328125,3.390625 L7.328125,2.078125 C7.328125,1.89648438 7.18164062,1.75 7,1.75 C6.81835938,1.75 6.671875,1.89648438 6.671875,2.078125 L6.671875,3.390625 C6.671875,3.57226562 6.81835938,3.71875 7,3.71875 Z M7,10.28125 C6.81835938,10.28125 6.671875,10.4277344 6.671875,10.609375 L6.671875,11.921875 C6.671875,12.1035156 6.81835938,12.25 7,12.25 C7.18164062,12.25 7.328125,12.1035156 7.328125,11.921875 L7.328125,10.609375 C7.328125,10.4277344 7.18164062,10.28125 7,10.28125 Z M11.921875,6.671875 L10.609375,6.671875 C10.4277344,6.671875 10.28125,6.81835938 10.28125,7 C10.28125,7.18164062 10.4277344,7.328125 10.609375,7.328125 L11.921875,7.328125 C12.1035156,7.328125 12.25,7.18164062 12.25,7 C12.25,6.81835938 12.1035156,6.671875 11.921875,6.671875 Z M3.71875,7 C3.71875,6.81835938 3.57226562,6.671875 3.390625,6.671875 L2.078125,6.671875 C1.89648438,6.671875 1.75,6.81835938 1.75,7 C1.75,7.18164062 1.89648438,7.328125 2.078125,7.328125 L3.390625,7.328125 C3.57226562,7.328125 3.71875,7.18164062 3.71875,7 Z M4.215625,4.6796875 C4.34335937,4.80742188 4.55195312,4.80742188 4.6796875,4.6796875 C4.80742188,4.55195313 4.80742188,4.34335938 4.6796875,4.215625 L3.7515625,3.2875 C3.62382813,3.15976562 3.41523438,3.15976562 3.2875,3.2875 C3.15976563,3.41523437 3.15976563,3.62382813 3.2875,3.7515625 L4.215625,4.6796875 Z M9.784375,9.3203125 C9.65664062,9.19257813 9.44804687,9.19257813 9.3203125,9.3203125 C9.19257813,9.44804687 9.19257813,9.65664062 9.3203125,9.784375 L10.2484375,10.7125 C10.3761719,10.8402344 10.5847656,10.8402344 10.7125,10.7125 C10.8402344,10.5847656 10.8402344,10.3761719 10.7125,10.2484375 L9.784375,9.3203125 Z M9.784375,4.6796875 L10.7125,3.7515625 C10.8402344,3.62382813 10.8402344,3.41523438 10.7125,3.2875 C10.5847656,3.15976563 10.3761719,3.15976563 10.2484375,3.2875 L9.3203125,4.215625 C9.19257813,4.34335937 9.19257813,4.55195312 9.3203125,4.6796875 C9.44804687,4.80742188 9.65664062,4.80742188 9.784375,4.6796875 Z M4.215625,9.3203125 L3.2875,10.2484375 C3.15976562,10.3761719 3.15976562,10.5847656 3.2875,10.7125 C3.41523437,10.8402344 3.62382813,10.8402344 3.7515625,10.7125 L4.6796875,9.784375 C4.80742188,9.65664062 4.80742188,9.44804687 4.6796875,9.3203125 C4.55195313,9.19257813 4.34335938,9.19257813 4.215625,9.3203125 Z M7,4.375 C5.55039063,4.375 4.375,5.55039063 4.375,7 C4.375,8.44960938 5.55039063,9.625 7,9.625 C8.44960938,9.625 9.625,8.44960938 9.625,7 C9.625,5.55039062 8.44960938,4.375 7,4.375 Z M7,8.96875 C5.91484375,8.96875 5.03125,8.08515625 5.03125,7 C5.03125,5.91484375 5.91484375,5.03125 7,5.03125 C8.08515625,5.03125 8.96875,5.91484375 8.96875,7 C8.96875,8.08515625 8.08515625,8.96875 7,8.96875 Z" id="形状" fill="#FFFFFF" fill-rule="nonzero"></path>
                </g>
            </g>
        </g>
    </g>
</svg>