<?xml version="1.0" encoding="UTF-8"?>
<svg width="22px" height="22px" viewBox="0 0 22 22" version="1.1" xmlns="http://www.w3.org/2000/svg" xmlns:xlink="http://www.w3.org/1999/xlink">
    <!-- Generator: Sketch 49 (51002) - http://www.bohemiancoding.com/sketch -->
    <title>ic_account number</title>
    <desc>Created with Sketch.</desc>
    <defs>
        <polygon id="path-1" points="0.00378125 0.072084375 10.8541453 0.072084375 10.8541453 7.99931034 0.00378125 7.99931034"></polygon>
    </defs>
    <g id="Symbols" stroke="none" stroke-width="1" fill="none" fill-rule="evenodd">
        <g id="ic_account-number">
            <g>
                <g id="Group-6" transform="translate(0.000000, 0.099687)">
                    <path d="M8.8694375,10.3377484 C11.3562969,10.3377484 13.8883594,7.89196719 13.8883594,5.30318594 C13.8883594,2.71526406 11.4785,0.0805921875 8.99060937,0.0805921875 C6.50495313,0.0805921875 4.03184375,2.77885781 4.03184375,5.36626406 C4.03184375,7.95504531 6.38275,10.3377484 8.8694375,10.3377484" id="Fill-1" fill="#748093"></path>
                    <g id="Group-5" transform="translate(0.000000, 11.343750)">
                        <mask id="mask-2" fill="white">
                            <use xlink:href="#path-1"></use>
                        </mask>
                        <g id="Clip-4"></g>
                        <path d="M9.96354219,0.072084375 L4.98982344,0.072084375 C3.74562031,0.072084375 1.88060469,0.720225 1.25893281,2.66086562 C0.637432812,4.60236562 0.637432812,4.60236562 0.0150734375,6.54300625 C-0.296535937,7.51839687 4.25797969,8.01442813 8.78808906,7.99895937 C10.2913078,7.99380312 9.26796406,6.7599125 9.26796406,5.19292812 C9.26796406,1.62411562 12.3142766,0.072084375 9.96354219,0.072084375" id="Fill-3" fill="#748093" mask="url(#mask-2)"></path>
                    </g>
                </g>
                <g id="Group-11" transform="translate(10.484375, 10.068437)" fill="#748093">
                    <path d="M8.70653437,6.50615625 C8.63984687,6.74609375 8.54600312,6.975375 8.4272375,7.18609375 L8.00390937,7.93478125 L7.25505,8.35810937 C7.04450312,8.476875 6.8171125,8.57071875 6.57528437,8.63757812 L5.7473625,8.86909375 L4.91944062,8.63757812 C4.679675,8.57071875 4.45005,8.476875 4.239675,8.35810937 L3.49081562,7.93478125 L3.0674875,7.18609375 C2.94855,6.975375 2.85487812,6.74815625 2.78801875,6.50615625 L2.5587375,5.67823437 L2.79025312,4.8503125 C2.85694062,4.610375 2.95078437,4.38109375 3.06955,4.170375 L3.49305,3.4216875 L4.2417375,2.99835937 C4.45228438,2.87942187 4.679675,2.78557812 4.92150312,2.71889062 L5.749425,2.487375 L6.57734687,2.71889062 C6.8171125,2.78557812 7.04656562,2.87942187 7.25728437,2.99835937 L8.0058,3.4216875 L8.4293,4.170375 C8.5482375,4.38109375 8.64208125,4.6083125 8.70876875,4.8503125 L8.9401125,5.67823437 L8.70653437,6.50615625 Z M11.0340656,4.4914375 L9.9913,4.4914375 C9.89539375,4.14751562 9.75978437,3.82009375 9.58876875,3.51570312 L10.3250813,2.77939062 C10.4605187,2.64395312 10.4605187,2.4248125 10.3250813,2.289375 L9.13622187,1.10051562 C9.06953437,1.034 8.97981562,1.00048437 8.89215937,1.00048437 C8.8026125,1.00048437 8.71495625,1.034 8.64826875,1.10051562 L7.91195625,1.83682812 C7.60756562,1.6658125 7.28014375,1.53020312 6.93605,1.43429687 L6.93605,0.39153125 C6.93605,0.20178125 6.77964375,0.045375 6.58989375,0.045375 L4.90878437,0.045375 C4.71920625,0.045375 4.5628,0.20178125 4.5628,0.39153125 L4.5628,1.43429687 C4.21870625,1.53020312 3.89128437,1.6658125 3.58672187,1.83682812 L2.85075312,1.10275 C2.78389375,1.03589063 2.694175,1.00254687 2.60651875,1.00254687 C2.51903437,1.00254687 2.42931562,1.03589063 2.36262812,1.10275 L1.17394062,2.2914375 C1.04039375,2.42704687 1.04039375,2.64601562 1.17394062,2.78145312 L1.91008125,3.51759375 C1.73906563,3.82215625 1.60345625,4.14957812 1.50772187,4.49367187 L0.464784375,4.49367187 C0.275034375,4.49367187 0.1188,4.65007812 0.1188,4.83982812 L0.1188,6.52076562 C0.1188,6.71051562 0.275034375,6.86692188 0.464784375,6.86692188 L1.50772187,6.86692188 C1.60345625,7.21101562 1.73906563,7.5384375 1.91008125,7.843 L1.17394062,8.57914063 C1.04039375,8.71475 1.04039375,8.93371875 1.17394062,9.06915625 L2.36262812,10.2580156 C2.42931562,10.3247031 2.51903437,10.3580469 2.60651875,10.3580469 C2.694175,10.3580469 2.78389375,10.3247031 2.85075312,10.2580156 L3.58672187,9.52170313 C3.89128437,9.69289063 4.21870625,9.8285 4.5628,9.92440625 L4.5628,10.967 C4.5628,11.15675 4.71920625,11.3131563 4.90878437,11.3131563 L6.58989375,11.3131563 C6.77964375,11.3131563 6.93605,11.15675 6.93605,10.967 L6.93605,9.92440625 C7.28014375,9.8285 7.60756562,9.69289063 7.91195625,9.52170313 L8.64826875,10.2580156 C8.71495625,10.3247031 8.804675,10.3580469 8.89215937,10.3580469 C8.98187812,10.3580469 9.06953437,10.3247031 9.13622187,10.2580156 L10.3250813,9.06915625 C10.4605187,8.93371875 10.4605187,8.71475 10.3250813,8.57914063 L9.58876875,7.843 C9.75978437,7.5384375 9.89539375,7.21101562 9.9913,6.86692188 L11.0340656,6.86692188 C11.2238156,6.86692188 11.3802219,6.71051562 11.3802219,6.52076562 L11.3802219,4.83982812 C11.3802219,4.64801562 11.2238156,4.4914375 11.0340656,4.4914375 Z" id="Fill-7"></path>
                    <path d="M5.74739688,6.45612344 C5.31770938,6.45612344 4.96949063,6.10790469 4.96949063,5.67821719 C4.96949063,5.24870156 5.31770938,4.90031094 5.74739688,4.90031094 C6.1769125,4.90031094 6.52513125,5.24870156 6.52513125,5.67821719 C6.52513125,6.10790469 6.1769125,6.45612344 5.74739688,6.45612344 M5.74739688,3.56776406 C4.58139688,3.56776406 3.63470938,4.51238906 3.63470938,5.68027969 C3.63470938,6.84610781 4.57950625,7.79279531 5.74739688,7.79279531 C6.91305313,7.79279531 7.8599125,6.84817031 7.8599125,5.68027969 C7.8599125,4.51238906 6.91511563,3.56776406 5.74739688,3.56776406" id="Fill-9"></path>
                </g>
            </g>
        </g>
    </g>
</svg>