<?xml version="1.0" encoding="UTF-8"?>
<svg width="16px" height="16px" viewBox="0 0 16 16" version="1.1" xmlns="http://www.w3.org/2000/svg" xmlns:xlink="http://www.w3.org/1999/xlink">
    <!-- Generator: Sketch 49 (51002) - http://www.bohemiancoding.com/sketch -->
    <title>ic_broadcast</title>
    <desc>Created with Sketch.</desc>
    <defs></defs>
    <g id="Symbols" stroke="none" stroke-width="1" fill="none" fill-rule="evenodd">
        <g id="ic_broadcast" fill="#F95714">
            <g id="Page-1">
                <path d="M12.0455175,11.0111208 C11.8248805,10.8242196 11.5195346,10.8916912 11.366123,11.1618238 L11.2785823,11.3133886 C11.1243087,11.5838906 11.1810686,11.9533837 11.4026906,12.1401618 L13.7793403,14.1364836 C14.0015779,14.3237542 14.3065544,14.2564057 14.4603355,13.9865194 L14.5462756,13.8343389 C14.7005491,13.5646988 14.6453899,13.1940976 14.4232754,13.0085507 L12.0455175,11.0111208 Z M11.3666154,5.19809883 C11.519904,5.46761581 11.824388,5.53434866 12.0461331,5.3483093 L14.4237679,3.35186442 C14.6460055,3.16570194 14.7005491,2.7951007 14.5483687,2.52546059 L14.4613205,2.37291078 C14.3070469,2.10277818 14.0030554,2.03444473 13.7804484,2.22109971 L11.4037987,4.21852957 C11.1821767,4.40518455 11.1248012,4.77443143 11.2796904,5.04591839 L11.3666154,5.19809883 Z M15.4076464,7.48831598 L12.5122781,7.48831598 C12.1840313,7.48831598 11.9198086,7.75401614 11.9198086,8.08177046 L11.9198086,8.26682483 C11.9198086,8.59519477 12.1840313,8.86138742 12.5122781,8.86138742 L15.4076464,8.86138742 C15.7360164,8.86138742 15.9999928,8.59519477 15.9999928,8.26682483 L15.9999928,8.08287857 C16.0015934,7.75401614 15.7365089,7.48831598 15.4076464,7.48831598 Z M8.69459283,2.39088679 C7.79419188,3.1021703 5.90966611,4.10131616 4.55506318,5.0613088 L4.55346257,5.06241691 C4.53757966,5.07128179 4.52218925,5.12484044 4.50679883,5.13345908 C4.34612288,5.22407785 4.2739726,5.471802 3.40459873,5.471802 L1.70537359,5.471802 C1.27099446,5.471802 1,5.67433989 1,6.13272807 L1,10.2065099 C1,10.6631743 1.24821664,10.8902137 1.70537359,10.8902137 L3.41100115,10.8902137 C4.27717381,10.8921837 4.34809285,11.1389229 4.50630634,11.227941 C4.52108114,11.2370522 4.53757966,11.2890102 4.55235446,11.2991063 L4.55444756,11.3002144 C5.86718856,12.2610689 7.76390354,13.338275 8.69311535,14.0203783 C8.97309781,14.2273486 9.88273301,14.8748542 9.88273301,13.6031133 L9.88273301,2.74252703 C9.88211739,1.46807739 8.96768038,2.17394347 8.69459283,2.39088679 Z"></path>
            </g>
        </g>
    </g>
</svg>