<?xml version="1.0" encoding="UTF-8"?>
<svg width="18px" height="18px" viewBox="0 0 18 18" version="1.1" xmlns="http://www.w3.org/2000/svg" xmlns:xlink="http://www.w3.org/1999/xlink">
    <!-- Generator: Sketch 49 (51002) - http://www.bohemiancoding.com/sketch -->
    <title>ic_content</title>
    <desc>Created with Sketch.</desc>
    <defs></defs>
    <g id="Symbols" stroke="none" stroke-width="1" fill="none" fill-rule="evenodd">
        <g id="ic_content" fill="#5EC860">
            <g id="Fill-1">
                <path d="M13.3951858,6.77867257 C11.9878407,8.67679646 10.5806549,10.577469 9.17330973,12.4757522 C8.87973451,12.8723894 8.19573451,13.1583186 7.71132743,12.8230088 C6.69870796,12.1238761 5.68704425,11.4245841 4.67553982,10.7262478 C4.21279646,10.4063894 3.96971681,9.89569912 4.2919646,9.39695575 C4.55925664,8.98168142 5.28929204,8.72729204 5.75506195,9.04842478 C6.76672566,9.74660177 7.99295575,10.5949912 7.99295575,10.5949912 C9.17761062,8.99585841 10.361469,7.39672566 11.5472389,5.79886726 C12.3121593,4.76649558 14.1667965,5.73753982 13.3951858,6.77867257 M8.97817699,0 C4.0200531,0 0,4.01909735 0,8.97833628 C0,13.9375752 4.0200531,17.9565133 8.97817699,17.9565133 C13.9364602,17.9565133 17.9565133,13.9366195 17.9565133,8.97833628 C17.9565133,4.0200531 13.9364602,0 8.97817699,0"></path>
            </g>
        </g>
    </g>
</svg>