<?xml version="1.0" encoding="UTF-8"?>
<svg width="20px" height="20px" viewBox="0 0 20 20" version="1.1" xmlns="http://www.w3.org/2000/svg" xmlns:xlink="http://www.w3.org/1999/xlink">
    <!-- Generator: Sketch 49 (51002) - http://www.bohemiancoding.com/sketch -->
    <title>ic_date</title>
    <desc>Created with Sketch.</desc>
    <defs></defs>
    <g id="Symbols" stroke="none" stroke-width="1" fill="none" fill-rule="evenodd">
        <g id="ic_date" fill="#97A2B3">
            <g id="日历">
                <path d="M13.3338053,11.6662252 L16.6662313,11.6662252 L16.6662313,10.4162237 L13.3338053,10.4162237 L13.3338053,11.6662252 Z M8.33379924,15.4162542 L11.6662252,15.4162542 L11.6662252,14.1662771 L8.33379924,14.1662771 L8.33379924,15.4162542 Z M8.33379924,11.6662252 L11.6662252,11.6662252 L11.6662252,10.4162237 L8.33379924,10.4162237 L8.33379924,11.6662252 Z M3.33376872,11.6662252 L6.66629232,11.6662252 L6.66629232,10.4162237 L3.33376872,10.4162237 L3.33376872,11.6662252 Z M3.33376872,15.4162542 L6.66629232,15.4162542 L6.66629232,14.1662771 L3.33376872,14.1662771 L3.33376872,15.4162542 Z M17.5000458,2.08379161 L15.4162542,2.08379161 L15.4162542,0.625049591 C15.4162542,0.279809912 15.1364443,0 14.791229,0 C14.446087,0 14.1662771,0.279809912 14.1662771,0.625049591 L14.1662771,2.08379161 L5.83372294,2.08379161 L5.83372294,0.625049591 C5.83372294,0.279809912 5.55391303,0 5.20879542,0 C4.86355574,0 4.58374583,0.279809912 4.58374583,0.625049591 L4.58374583,2.08379161 L2.49995422,2.08379161 C1.1193373,2.08379161 0,3.20300684 0,4.58374583 L0,17.5000458 C0,18.8807604 1.1193373,20 2.49995422,20 L17.5000458,20 C18.8807604,20 20,18.8807604 20,17.5000458 L20,4.58374583 C20,3.20300684 18.8807604,2.08379161 17.5000458,2.08379161 Z M18.7500229,17.5000458 C18.7500229,18.1904031 18.1904031,18.7500229 17.5000458,18.7500229 L2.49995422,18.7500229 C1.80959694,18.7500229 1.24997711,18.1904031 1.24997711,17.5000458 L1.24997711,7.08379771 L18.7500229,7.08379771 L18.7500229,17.5000458 Z M18.7500229,5.83372294 L1.24997711,5.83372294 L1.24997711,4.58374583 C1.24997711,3.89338854 1.80959694,3.33376872 2.49995422,3.33376872 L4.58374583,3.33376872 L4.58374583,3.52878849 C4.58374583,3.87393051 4.86355574,4.15374042 5.20879542,4.15374042 C5.55391303,4.15374042 5.83372294,3.87393051 5.83372294,3.52878849 L5.83372294,3.33376872 L14.1662771,3.33376872 L14.1662771,3.52878849 C14.1662771,3.87393051 14.446087,4.15374042 14.791229,4.15374042 C15.1364443,4.15374042 15.4162542,3.87393051 15.4162542,3.52878849 L15.4162542,3.33376872 L17.5000458,3.33376872 C18.1904031,3.33376872 18.7500229,3.89338854 18.7500229,4.58374583 L18.7500229,5.83372294 Z M13.3338053,15.4162542 L16.6662313,15.4162542 L16.6662313,14.1662771 L13.3338053,14.1662771 L13.3338053,15.4162542 Z"></path>
            </g>
        </g>
    </g>
</svg>