<?xml version="1.0" encoding="UTF-8"?>
<svg width="18px" height="16px" viewBox="0 0 18 16" version="1.1" xmlns="http://www.w3.org/2000/svg" xmlns:xlink="http://www.w3.org/1999/xlink">
    <!-- Generator: Sketch 49 (51002) - http://www.bohemiancoding.com/sketch -->
    <title>警示</title>
    <desc>Created with Sketch.</desc>
    <defs></defs>
    <g id="Symbols" stroke="none" stroke-width="1" fill="none" fill-rule="evenodd">
        <g id="警示" fill="#F95714">
            <path d="M15.9153676,16 L2.08447073,16 C1.23369017,16 0.55306573,15.6698711 0.218334558,15.0945659 C-0.116396613,14.5191299 -0.0642335699,13.7694276 0.360980926,13.0377364 L7.27634148,1.15091568 C7.70208332,0.419268058 8.33001738,0 9.00000707,0 C9.66999675,0 10.297755,0.419268058 10.7234969,1.15091568 L17.6390332,13.0377364 C18.0642038,13.7694276 18.1164107,14.5191299 17.7816796,15.0945659 C17.4469484,15.6698711 16.76628,16 15.9153676,16 Z M9.00000707,1.1935228 C8.77153557,1.1935228 8.52311293,1.39552505 8.31815216,1.74767708 L1.4027916,13.6344978 C1.19783083,13.9867807 1.14544806,14.301428 1.26014523,14.4974992 C1.3739635,14.6939194 1.67468102,14.8065208 2.08447073,14.8065208 L15.9153676,14.8065208 C16.3252892,14.8065208 16.6258749,14.6939194 16.7398689,14.4974992 C16.8543463,14.301428 16.8021833,13.9867807 16.5972225,13.6344978 L9.68164225,1.74767708 C9.47685726,1.39552505 9.22847856,1.1935228 9.00000707,1.1935228 Z M8.3986599,10.0782203 L9.60131029,10.0782203 L9.60131029,4.70736766 L8.3986599,4.70736766 L8.3986599,10.0782203 Z M8.09789843,12.7634721 C8.09789843,13.2578369 8.50184341,13.6587015 9.00000707,13.6587015 C9.49817072,13.6587015 9.90189598,13.2578369 9.90189598,12.7634721 C9.90189598,12.2691074 9.49817072,11.8684609 9.00000707,11.8684609 C8.50184341,11.8684609 8.09789843,12.2691074 8.09789843,12.7634721 Z"></path>
        </g>
    </g>
</svg>