<?xml version="1.0" encoding="utf-8"?>
<!-- Generator: Adobe Illustrator 21.0.0, SVG Export Plug-In . SVG Version: 6.00 Build 0)  -->
<svg version="1.1" id="图层_1" xmlns="http://www.w3.org/2000/svg" xmlns:xlink="http://www.w3.org/1999/xlink" x="0px" y="0px"
	 viewBox="0 0 8 5" style="enable-background:new 0 0 8 5;" xml:space="preserve">
<style type="text/css">
	.st0{fill:#FFFFFF;}
</style>
<title>ic_down</title>
<desc>Created with Sketch.</desc>
<g id="Symbols">
	<g id="ic_down">
		<path class="st0" d="M3.8,4.6C3.8,4.6,3.8,4.6,3.8,4.6C4,4.7,4.2,4.7,4.4,4.5l3.5-3.7C8,0.7,8,0.3,7.8,0.1C7.6,0,7.3,0,7.1,0.2
			L4,3.5L0.9,0.2C0.7,0,0.3,0,0.2,0.2C0.1,0.3,0,0.4,0,0.5c0,0.1,0,0.3,0.1,0.3l3.5,3.6c0,0,0,0,0,0C3.7,4.5,3.7,4.5,3.8,4.6
			C3.7,4.6,3.7,4.6,3.8,4.6z"/>
	</g>
</g>
</svg>
