<?xml version="1.0" encoding="UTF-8"?>
<svg width="18px" height="18px" viewBox="0 0 18 18" version="1.1" xmlns="http://www.w3.org/2000/svg" xmlns:xlink="http://www.w3.org/1999/xlink">
    <!-- Generator: Sketch 49 (51002) - http://www.bohemiancoding.com/sketch -->
    <title>ic_danger</title>
    <desc>Created with Sketch.</desc>
    <defs></defs>
    <g id="Symbols" stroke="none" stroke-width="1" fill="none" fill-rule="evenodd">
        <g id="ic_danger" fill="#F95714">
            <g id="Fill-1">
                <path d="M10.1644737,10.263958 C10.1644737,11.1195768 9.69052276,11.8130334 9.10561878,11.8130334 L8.8938478,11.8130334 C8.30921053,11.8130334 7.8352596,11.1195768 7.8352596,10.263958 L7.19994666,4.06845661 C7.19994666,3.21310455 7.67389758,2.51991465 8.25853485,2.51991465 L9.74093172,2.51991465 C10.3258357,2.51991465 10.8000533,3.21310455 10.8000533,4.06845661 L10.1644737,10.263958 Z M9,15.8398826 C8.17131935,15.8398826 7.5,15.146426 7.5,14.291074 C7.5,13.4357219 8.17131935,12.7422653 9,12.7422653 C9.82814723,12.7422653 10.5,13.4357219 10.5,14.291074 C10.5,15.146426 9.82814723,15.8398826 9,15.8398826 Z M9,0 C4.02924964,0 0,4.02924964 0,9 C0,13.9702169 4.02924964,18 9,18 C13.9704836,18 18,13.9702169 18,9 C18,4.02924964 13.9704836,0 9,0 Z"></path>
            </g>
        </g>
    </g>
</svg>