<?xml version="1.0" encoding="UTF-8"?>
<svg width="16px" height="16px" viewBox="0 0 16 16" version="1.1" xmlns="http://www.w3.org/2000/svg" xmlns:xlink="http://www.w3.org/1999/xlink">
    <!-- Generator: Sketch 49 (51002) - http://www.bohemiancoding.com/sketch -->
    <title>ic_editor</title>
    <desc>Created with Sketch.</desc>
    <defs></defs>
    <g id="Symbols" stroke="none" stroke-width="1" fill="none" fill-rule="evenodd">
        <g id="ic_editor" fill="#507BE6">
            <g id="编辑">
                <path d="M12.2391444,6.46475023 L11.2065455,7.49676212 C10.6761571,6.9669608 9.4433784,5.73330154 8.49208417,4.78406193 L9.5264442,3.75087597 C9.89686485,3.38074884 10.5021005,3.3801618 10.8719341,3.75087597 L12.2394379,5.11896681 C12.6098586,5.48909394 12.608978,6.09286199 12.2391444,6.46475023 Z M7.5997872,11.1020528 L7.59567794,11.0967695 C7.57337051,11.1155547 7.54900846,11.1325787 7.52083066,11.1428519 L3.83570289,12.4874612 C3.73972226,12.5215094 3.63141384,12.4989085 3.56038231,12.4246482 C3.48758966,12.3533232 3.46410816,12.2450148 3.49962393,12.1496212 L4.8430592,8.465961 C4.85274532,8.43837024 4.86859533,8.41488874 4.88767405,8.39170076 L4.88473886,8.38847205 L8.19386913,5.08022234 C8.55284255,5.4383152 8.84841592,5.73330154 8.84841592,5.73330154 L6.25576489,8.32154978 C6.21408523,8.36205536 6.19530003,8.41547578 6.19530003,8.46948322 C6.19530003,8.52319715 6.21408523,8.57632404 6.25576489,8.61771019 C6.296564,8.65762874 6.34998441,8.67993616 6.40545945,8.67993616 C6.46093449,8.67993616 6.51376786,8.65762874 6.55427345,8.61771019 L9.14545688,6.03092954 L9.95938434,6.84368293 L7.37964814,9.42048394 C7.29863697,9.50237567 7.29863697,9.63563317 7.37964814,9.7175249 C7.41956669,9.7565629 7.47386766,9.7785768 7.5293427,9.7785768 C7.5856983,9.7785768 7.63823815,9.7565629 7.6781567,9.71811194 C7.6781567,9.7175249 10.2570123,7.14131093 10.2570123,7.14131093 C10.2570123,7.14131093 10.635945,7.52024362 10.9083304,7.79350957 L7.5997872,11.1020528 Z M8.00014676,0 C3.58122214,0 0,3.58151566 0,7.99985324 C0,12.4178973 3.58122214,16 8.00014676,16 C12.4178973,16 16,12.4178973 16,7.99985324 C16,3.58151566 12.4178973,0 8.00014676,0 Z M4.62057199,10.6068867 L5.37696979,11.3653391 L7.1988406,10.7011062 L5.28363083,8.78795106 L4.62057199,10.6068867 Z"></path>
            </g>
        </g>
    </g>
</svg>