<?xml version="1.0" encoding="UTF-8"?>
<svg width="17px" height="20px" viewBox="0 0 17 20" version="1.1" xmlns="http://www.w3.org/2000/svg" xmlns:xlink="http://www.w3.org/1999/xlink">
    <!-- Generator: Sketch 49 (51002) - http://www.bohemiancoding.com/sketch -->
    <title>ic_evaluate2</title>
    <desc>Created with Sketch.</desc>
    <defs></defs>
    <g id="Symbols" stroke="none" stroke-width="1" fill="none" fill-rule="evenodd">
        <g id="ic_evaluate2" fill="#5EC860">
            <g id="Fill-1">
                <path d="M8.17122115,2.09064423 C8.17122115,2.09064423 7.83122115,2.20400962 7.60468269,1.75064423 C7.37795192,1.297375 6.24477885,0.0509326923 4.31843269,0.0509326923 C2.278625,0.164201923 0.692086538,1.75064423 0.805451923,3.79045192 C0.918817308,5.71679808 2.05199038,9.11641346 7.15141346,11.8362212 C7.37795192,12.0627596 7.37795192,12.2893942 7.37795192,12.2893942 L7.37795192,15.5756442 C7.37795192,15.5756442 7.49141346,16.0289135 7.03804808,16.0289135 C6.58477885,15.9156442 6.47150962,15.2356442 6.47150962,15.2356442 C6.47150962,15.2356442 5.90497115,13.5359327 4.65833654,12.7426635 C3.52525962,11.9493942 2.278625,11.0429519 0.0122788462,10.5896827 C-0.101086538,12.6293942 0.578817308,15.4622788 1.71208654,16.8221827 C3.63852885,19.3151635 6.24477885,19.8817981 7.94468269,19.9950673 C10.2110288,19.9950673 13.1572788,18.8618942 14.6304519,16.4821827 C16.3302596,14.2159327 16.2168942,10.4762212 16.2168942,10.4762212 C16.2168942,10.4762212 13.497375,10.9295865 11.4574712,12.7426635 C10.2110288,13.7626635 9.87102885,14.782375 9.75766346,15.0091058 C9.41775962,15.4622788 9.531125,15.6889135 9.191125,16.142375 C8.73795192,16.4821827 8.851125,16.142375 8.73795192,15.6889135 L8.73795192,12.5160288 C8.73795192,12.5160288 8.62449038,11.9493942 9.30439423,11.7227596 C12.0241058,10.2496827 13.9505481,7.98324038 14.8570865,5.71679808 C15.9902596,3.45054808 15.3103558,0.617567308 12.3641058,0.0509326923 C10.0976635,-0.289067308 8.73795192,1.75064423 8.73795192,1.75064423 C8.73795192,1.75064423 8.51122115,2.09064423 8.17122115,2.09064423"></path>
            </g>
        </g>
    </g>
</svg>