<?xml version="1.0" encoding="UTF-8"?>
<svg width="16px" height="16px" viewBox="0 0 16 16" version="1.1" xmlns="http://www.w3.org/2000/svg" xmlns:xlink="http://www.w3.org/1999/xlink">
    <!-- Generator: Sketch 49 (51002) - http://www.bohemiancoding.com/sketch -->
    <title>ic_exposure</title>
    <desc>Created with Sketch.</desc>
    <defs>
        <polygon id="path-1" points="1.66666667e-05 0 14.9191667 0 14.9191667 14.9169833 1.66666667e-05 14.9169833"></polygon>
    </defs>
    <g id="Symbols" stroke="none" stroke-width="1" fill="none" fill-rule="evenodd">
        <g id="ic_exposure">
            <g id="Page-1">
                <g transform="translate(1.000000, 1.000000)">
                    <mask id="mask-2" fill="white">
                        <use xlink:href="#path-1"></use>
                    </mask>
                    <g id="Clip-2"></g>
                    <path d="M3.17351667,3.83381667 C3.35618333,4.01648333 3.65118333,4.01648333 3.83368333,3.83381667 C4.01651667,3.65115 4.01651667,3.35631667 3.83368333,3.17348333 L2.84568333,2.18548333 C2.66301667,2.00281667 2.36801667,2.00281667 2.18551667,2.18548333 C2.00268333,2.36815 2.00268333,2.66298333 2.18551667,2.84565 L3.17351667,3.83381667 Z M11.94385,3.62698333 L12.9230167,2.64748333 C13.1035167,2.46715 13.1035167,2.17431667 12.9230167,1.99398333 C12.7426833,1.81348333 12.44985,1.81348333 12.2695167,1.99398333 L11.2900167,2.97315 C11.1096833,3.15381667 11.1096833,3.44631667 11.2900167,3.62698333 C11.4706833,3.80748333 11.76335,3.80748333 11.94385,3.62698333 Z M7.45851667,2.33048333 C7.71601667,2.33048333 7.92518333,2.12165 7.92518333,1.86415 L7.92518333,0.466483333 C7.92518333,0.20915 7.71601667,-1.66666667e-05 7.45851667,-1.66666667e-05 C7.20101667,-1.66666667e-05 6.99185,0.20915 6.99185,0.466483333 L6.99185,1.86415 C6.99185,2.12165 7.20101667,2.33048333 7.45851667,2.33048333 Z M1.86401667,6.99181667 L0.466516667,6.99181667 C0.209183333,6.99181667 1.66666667e-05,7.20098333 1.66666667e-05,7.45865 C1.66666667e-05,7.71598333 0.209183333,7.92515 0.466516667,7.92515 L1.86401667,7.92515 C2.12151667,7.92515 2.33051667,7.71598333 2.33051667,7.45865 C2.33051667,7.20098333 2.12151667,6.99181667 1.86401667,6.99181667 Z M7.45851667,3.26148333 C5.13885,3.26148333 3.25935,5.14098333 3.25935,7.46065 C3.25935,9.78031667 5.13885,11.6598167 7.45851667,11.6598167 C9.77818333,11.6598167 11.6576833,9.78031667 11.6576833,7.46065 C11.6576833,5.14098333 9.77818333,3.26148333 7.45851667,3.26148333 Z M14.4526833,6.99181667 L13.0551833,6.99181667 C12.7976833,6.99181667 12.5886833,7.20098333 12.5886833,7.45865 C12.5886833,7.71598333 12.7976833,7.92515 13.0551833,7.92515 L14.4526833,7.92515 C14.7101833,7.92515 14.9191833,7.71598333 14.9191833,7.45865 C14.9170167,7.20098333 14.7101833,6.99181667 14.4526833,6.99181667 Z M11.7435167,11.0854833 C11.56085,10.90265 11.26585,10.90265 11.0831833,11.0854833 C10.9005167,11.2678167 10.9005167,11.56315 11.0831833,11.74565 L12.07135,12.7338167 C12.2540167,12.9164833 12.54885,12.9164833 12.7315167,12.7338167 C12.91435,12.5513167 12.91435,12.2563167 12.7315167,12.0734833 L11.7435167,11.0854833 Z M3.45518333,10.8103167 L2.47585,11.78965 C2.29535,11.97015 2.29535,12.2628167 2.47585,12.44315 C2.65635,12.6238167 2.94901667,12.6238167 3.12951667,12.44315 L4.10885,11.4638167 C4.28935,11.2834833 4.28935,10.9908167 4.10885,10.8103167 C3.92618333,10.62965 3.63351667,10.62965 3.45518333,10.8103167 Z M7.45851667,12.5863167 C7.20101667,12.5863167 6.99185,12.7954833 6.99185,13.0528167 L6.99185,14.4503167 C6.99185,14.7078167 7.20101667,14.9169833 7.45851667,14.9169833 C7.71601667,14.9169833 7.92518333,14.7078167 7.92518333,14.4503167 L7.92518333,13.0528167 C7.92518333,12.7954833 7.71601667,12.5863167 7.45851667,12.5863167 Z" id="Fill-1" fill="#E72420" mask="url(#mask-2)"></path>
                </g>
            </g>
        </g>
    </g>
</svg>