<?xml version="1.0" encoding="UTF-8"?>
<svg width="60px" height="60px" viewBox="0 0 60 60" version="1.1" xmlns="http://www.w3.org/2000/svg" xmlns:xlink="http://www.w3.org/1999/xlink">
    <!-- Generator: Sketch 49 (51002) - http://www.bohemiancoding.com/sketch -->
    <title>ic_error</title>
    <desc>Created with Sketch.</desc>
    <defs></defs>
    <g id="Symbols" stroke="none" stroke-width="1" fill="none" fill-rule="evenodd">
        <g id="ic_error" fill="#F95714">
            <g id="Fill-1">
                <path d="M43.7212987,38.4218182 C44.1787013,38.8792208 44.1779221,39.621039 43.7212987,40.0776623 L40.0784416,43.7212987 C39.621039,44.1787013 38.88,44.1787013 38.4225974,43.7212987 L29.9766234,35.2753247 L21.5306494,43.7212987 C21.074026,44.1787013 20.3322078,44.1787013 19.8748052,43.7212987 L16.2319481,40.0776623 C15.7745455,39.621039 15.7745455,38.8792208 16.2319481,38.4218182 L24.6779221,29.9766234 L16.2319481,21.5306494 C15.7745455,21.0732468 15.7745455,20.3322078 16.2319481,19.8748052 L19.8748052,16.2319481 C20.3322078,15.7745455 21.074026,15.7745455 21.5314286,16.2319481 L29.9766234,24.6771429 L38.4225974,16.2319481 C38.8792208,15.7745455 39.621039,15.7745455 40.0784416,16.2319481 L43.7212987,19.8748052 C44.1779221,20.3322078 44.1787013,21.0732468 43.7212987,21.5306494 L35.2761039,29.9766234 L43.7212987,38.4218182 Z M29.9766234,0 C13.4212987,0 0,13.4205195 0,29.9766234 C0,46.5319481 13.4212987,59.9524675 29.9766234,59.9524675 C46.5319481,59.9524675 59.9532468,46.5319481 59.9532468,29.9766234 C59.9532468,13.4205195 46.5319481,0 29.9766234,0 Z"></path>
            </g>
        </g>
    </g>
</svg>