<?xml version="1.0" encoding="UTF-8"?>
<svg width="60px" height="60px" viewBox="0 0 60 60" version="1.1" xmlns="http://www.w3.org/2000/svg" xmlns:xlink="http://www.w3.org/1999/xlink">
    <!-- Generator: Sketch 49 (51002) - http://www.bohemiancoding.com/sketch -->
    <title>ic_illustrate</title>
    <desc>Created with Sketch.</desc>
    <defs></defs>
    <g id="Symbols" stroke="none" stroke-width="1" fill="none" fill-rule="evenodd">
        <g id="ic_illustrate" fill="#4A90E2">
            <g id="Fill-1">
                <path d="M37.7517073,47.375122 C35.9019512,48.1156098 34.7853659,48.4917073 33.6819512,48.8560976 C32.5653659,49.2263415 31.4604878,49.2263415 29.9795122,49.2263415 C27.7595122,49.2263415 26.2785366,48.8560976 25.1619512,47.7453659 C24.0468293,46.6287805 23.3121951,45.5239024 23.3121951,44.0443902 L23.3121951,42.1931707 C23.3121951,41.4541463 23.682439,40.7121951 23.682439,39.9731707 L25.902439,32.5712195 C26.2726829,31.8307317 26.2726829,31.0902439 26.2726829,30.72 C26.2726829,29.9795122 26.6429268,29.6034146 26.6429268,28.8687805 C26.6429268,27.7536585 26.2726829,27.3892683 25.902439,27.0190244 L24.0585366,27.0190244 C23.6882927,27.0190244 22.9419512,27.0190244 22.2073171,27.3892683 C21.4668293,27.395122 21.0907317,27.7653659 20.7263415,27.7653659 L21.4726829,25.5380488 C22.9478049,25.1678049 24.0629268,24.4331707 25.5439024,24.0629268 C26.6604878,23.6926829 28.1356098,23.322439 29.2463415,23.322439 C31.4663415,23.322439 32.9473171,23.6926829 34.062439,24.8034146 C35.1790244,25.92 35.9136585,27.024878 35.9136585,28.5043902 L35.9136585,30.3556098 C35.9136585,31.0960976 35.5434146,31.8365854 35.5434146,32.5770732 L33.3117073,39.9731707 C33.3117073,40.7121951 32.9414634,41.0882927 32.9414634,41.8229268 C32.9414634,42.557561 32.5712195,43.3039024 32.5712195,43.6741463 C32.5712195,44.7907317 32.9414634,45.1536585 33.3117073,45.5239024 C33.6819512,45.8941463 34.4268293,45.8941463 35.5302439,45.8941463 C35.9019512,45.8941463 36.6482927,45.8941463 37.3814634,45.5239024 C38.1219512,45.5239024 38.4980488,45.1536585 38.862439,45.1536585 L37.7517073,47.375122 Z M27.395122,11.1043902 C28.5117073,10.3639024 29.615122,9.62341463 31.0960976,9.62341463 C32.5770732,9.62341463 33.6878049,9.99365854 34.7970732,11.1043902 C35.9136585,11.844878 36.2780488,12.9541463 36.2780488,14.435122 C36.2780488,15.5517073 35.9063415,16.655122 34.7970732,17.7673171 C33.6819512,18.504878 32.5770732,19.2453659 31.0960976,19.2453659 C29.615122,19.2453659 28.5058537,18.504878 27.395122,17.7673171 C26.2785366,17.0268293 25.9141463,15.9160976 25.9141463,14.435122 C25.9082927,13.3243902 26.2785366,12.2092683 27.395122,11.1043902 Z M29.6107317,0 C13.3243902,0 0,13.3243902 0,29.6092683 C0,45.8941463 13.3243902,59.22 29.6107317,59.22 C45.8941463,59.22 59.2185366,45.8941463 59.2185366,29.6092683 C59.2185366,13.3243902 45.9,0 29.6107317,0 Z"></path>
            </g>
        </g>
    </g>
</svg>