<?xml version="1.0" encoding="UTF-8"?>
<svg width="18px" height="18px" viewBox="0 0 18 18" version="1.1" xmlns="http://www.w3.org/2000/svg" xmlns:xlink="http://www.w3.org/1999/xlink">
    <!-- Generator: Sketch 49 (51002) - http://www.bohemiancoding.com/sketch -->
    <title>ic_inanition</title>
    <desc>Created with Sketch.</desc>
    <defs></defs>
    <g id="Symbols" stroke="none" stroke-width="1" fill="none" fill-rule="evenodd">
        <g id="ic_inanition" fill="#748093">
            <path d="M13.5001288,7.88651444 L4.51544448,7.88651444 C4.08385367,7.83607663 3.66136147,8.03802566 3.42954459,8.40592496 C3.19772771,8.77342867 3.19772771,9.2420058 3.42954459,9.60950951 C3.66136147,9.97721102 4.08385367,10.1793578 4.51544448,10.1287222 L13.5001288,10.1287222 C13.9319174,10.1793578 14.354014,9.97721102 14.5858309,9.60950951 C14.8176477,9.2420058 14.8176477,8.77342867 14.5858309,8.40592496 C14.354014,8.03802566 13.9319174,7.83607663 13.5001288,7.88651444 M9.01530287,17.9999872 C5.37249443,18.0061188 2.08512536,15.8157334 0.688290192,12.4512349 C-0.708742767,9.08673647 0.0604857732,5.21212386 2.63618494,2.63623536 C5.21227969,0.0605446464 9.08690501,-0.708681369 12.4512167,0.68814921 C15.8155284,2.08517758 18.0061188,5.37253587 17.9999872,9.01533236 C17.9914819,13.9736655 13.9740479,17.991482 9.01530287,17.9999872"></path>
        </g>
    </g>
</svg>