<?xml version="1.0" encoding="UTF-8"?>
<svg width="44px" height="44px" viewBox="0 0 44 44" version="1.1" xmlns="http://www.w3.org/2000/svg" xmlns:xlink="http://www.w3.org/1999/xlink">
    <!-- Generator: Sketch 49 (51002) - http://www.bohemiancoding.com/sketch -->
    <title>ic_multidimensional</title>
    <desc>Created with Sketch.</desc>
    <defs>
        <polygon id="path-1" points="0.00638655462 0.009522624 37.8001504 0.009522624 37.8001504 36.7790273 0.00638655462 36.7790273"></polygon>
    </defs>
    <g id="Symbols" stroke="none" stroke-width="1" fill="none" fill-rule="evenodd">
        <g id="ic_multidimensional">
            <g id="Page-1">
                <g transform="translate(3.000000, 3.000000)">
                    <mask id="mask-2" fill="white">
                        <use xlink:href="#path-1"></use>
                    </mask>
                    <g id="Clip-2"></g>
                    <path d="M13.2341866,6.30841513 C12.8187412,4.26216303 13.6544218,2.16417983 15.3631445,0.964146218 C17.0715479,-0.235887395 19.3285563,-0.310610084 21.1126403,0.774465546 C22.896405,1.85922185 23.868758,3.89781008 23.5890269,5.96705378 C31.2433126,8.35307059 35.8888924,16.1031546 34.3851782,23.9787345 C36.3394639,24.709037 37.6768084,26.5266504 37.7920857,28.6099445 C37.907363,30.693558 36.7788588,32.6475244 34.9165395,33.5885832 C33.0542202,34.5299613 30.8115815,34.2802471 29.2021697,32.9518437 C26.3403546,35.4282303 22.6795815,36.7876084 18.8949092,36.7789866 C14.957279,36.7789866 11.3559008,35.3343479 8.59786723,32.9464151 C6.98877479,34.2748185 4.74581681,34.5248521 2.88381681,33.5837933 C1.02149748,32.6420958 -0.107006723,30.6881294 0.00827058824,28.6048353 C0.123228571,26.5212218 1.46057311,24.7036084 3.41517815,23.9736252 C1.98714454,16.4860286 6.12116134,9.04888571 13.2341866,6.30841513 Z M9.19660672,25.0583815 L17.1561697,20.2777261 L17.1561697,10.6528689 C13.9957832,11.1848689 11.2511613,13.1292555 9.70114454,15.9339109 C8.15112773,18.7385664 7.96527899,22.0972555 9.19660672,25.0555076 L9.19660672,25.0583815 Z M28.4012958,25.505121 C29.8714807,22.391995 29.7233126,18.7561294 28.0050101,15.7729697 C26.2867076,12.7898101 23.2157328,10.8377597 19.7855143,10.5481294 L19.7855143,20.3275412 L28.4012958,25.505121 Z M26.9908252,27.7218941 L18.4274134,22.5788017 L10.5048924,27.3383815 C12.488237,29.9766672 15.5972118,31.527642 18.8974639,31.5254067 C22.0268756,31.5282807 24.9937496,30.1334571 26.9879513,27.7218941 L26.9908252,27.7218941 Z" id="Fill-1" fill="#FA9145" mask="url(#mask-2)"></path>
                </g>
            </g>
        </g>
    </g>
</svg>