<?xml version="1.0" encoding="UTF-8"?>
<svg width="120px" height="120px" viewBox="0 0 120 120" version="1.1" xmlns="http://www.w3.org/2000/svg" xmlns:xlink="http://www.w3.org/1999/xlink">
    <!-- Generator: Sketch 49 (51002) - http://www.bohemiancoding.com/sketch -->
    <title>ic_man</title>
    <desc>Created with Sketch.</desc>
    <defs>
        <circle id="path-1" cx="60" cy="60" r="60"></circle>
        <path d="M102.800882,26.0006251 C89.3043946,38.3776721 71.1769475,45.953161 51.2464638,45.953161 C31.9144183,45.953161 14.2788369,38.8254378 0.920562602,27.1016541 L0.920562602,0.0759280813 L102.800882,0.0759280813 L102.800882,26.0006251 Z" id="path-3"></path>
    </defs>
    <g id="Symbols" stroke="none" stroke-width="1" fill="none" fill-rule="evenodd">
        <g id="ic_man">
            <g id="Page-1-Copy">
                <g>
                    <g id="Page-1">
                        <mask id="mask-2" fill="white">
                            <use xlink:href="#path-1"></use>
                        </mask>
                        <g id="Mask">
                            <use fill="#FFFFFF" fill-rule="evenodd" xlink:href="#path-1"></use>
                            <circle stroke="#E5E5E5" stroke-width="1" cx="60" cy="60" r="59.5"></circle>
                        </g>
                        <g mask="url(#mask-2)">
                            <g transform="translate(8.000000, 9.000000)">
                                <path d="M23.0258507,37.1778856 C20.6098327,37.6230697 19.5030152,41.293665 20.5560926,45.3688852 C21.6080266,49.4450712 24.4196632,52.3894661 26.8368246,51.9404193 C29.2539859,51.4913725 30.3608034,47.82464 29.307726,43.7474883 C28.2557921,39.6713024 25.4441554,36.7288389 23.0258507,37.1778856" id="Fill-1" fill="#EACB9F"></path>
                                <path d="M82.0075687,37.1778856 C79.5890267,36.7288389 76.7771142,39.6713024 75.725077,43.7474883 C74.6707528,47.82464 75.7788224,51.4913725 78.1950774,51.9404193 C80.6136194,52.3894661 83.4243883,49.4450712 84.4764255,45.3688852 C85.5284627,41.293665 84.4238236,37.6230697 82.0075687,37.1778856" id="Fill-3" fill="#EACB9F"></path>
                                <g id="Group-7" stroke-width="1" fill="none" transform="translate(0.000000, 51.985663)">
                                    <path d="M83.222665,40.777312 C71.8267951,38.2256085 68.774434,34.8337218 68.0919245,31.1692381 L68.0909536,31.1692381 C65.0279131,18.0164285 65.7172186,0.795107299 65.7172186,0.795107299 L52.453428,0.795107299 L51.2680167,0.795107299 L38.0051969,0.795107299 C38.0051969,0.795107299 38.6945024,18.0164285 35.6314619,31.1692381 L35.6295202,31.1692381 C33.9237319,35.0771121 31.8965913,38.2256085 20.4997505,40.777312 C0.918620897,45.1661251 0.920562602,64.1807458 0.920562602,64.1807458 L0.920562602,76.0572169 L51.2680167,94.4351286 L52.453428,94.4351286 L102.800882,76.0572169 L102.800882,64.1807458 C102.800882,64.1807458 102.802824,45.1661251 83.222665,40.777312" id="Fill-5" fill="#F6D8AA"></path>
                                </g>
                                <path d="M67.8996416,83.3728815 C67.8794419,83.2752262 67.8592422,83.1765744 67.8400044,83.0749332 C64.8042784,69.6124491 65.4872206,51.9856631 65.4872206,51.9856631 L52.3468363,51.9856631 L51.1723682,51.9856631 L38.031984,51.9856631 C38.031984,51.9856631 38.4581014,63.0207147 37.1326165,74.2959188 C41.8449174,82.4969731 48.6445203,88.0573477 56.2049786,88.0573477 C60.4170965,88.0573477 64.3897036,86.3214745 67.8996416,83.3728815" id="Fill-10" fill="#DBBA8C"></path>
                                <g id="Group-14" stroke-width="1" fill="none" transform="translate(0.000000, 85.935484)">
                                    <mask id="mask-4" fill="white">
                                        <use xlink:href="#path-3"></use>
                                    </mask>
                                    <g id="Clip-13"></g>
                                    <path d="M83.222665,5.606198 C76.27233,4.08192033 72.4306655,2.25469247 70.3316818,0.247409319 L51.8612078,18.3701181 L33.2159802,0.0759280813 C31.2218486,2.18419463 27.7675544,4.01332783 20.4997505,5.606198 C0.918620897,9.90085033 0.920562602,28.5075173 0.920562602,28.5075173 L0.920562602,40.1291818 L51.2680167,58.1128003 L52.453428,58.1128003 L102.800882,40.1291818 L102.800882,28.5075173 C102.800882,28.5075173 102.802824,9.90085033 83.222665,5.606198" id="Fill-12" fill="#394A66" mask="url(#mask-4)"></path>
                                </g>
                                <path d="M51.4943034,109.275986 L72.1433692,86.891373 C71.1103913,86.296449 70.2901134,85.6805164 69.6396139,85.0464401 L51.4943034,103.212153 L33.1753992,84.874552 C32.5468374,85.5516003 31.7675734,86.2009556 30.7670251,86.8235727 L51.4943034,109.275986 Z" id="Fill-15" fill="#DBE4EF"></path>
                                <path d="M78.5089606,42.7787085 C78.5089606,61.8190657 66.872886,80.6308244 52.5166144,80.6308244 C38.1603429,80.6308244 26.5232975,61.8190657 26.5232975,42.7787085 C26.5232975,23.7345413 38.1603429,11.6702509 52.5166144,11.6702509 C66.872886,11.6702509 78.5089606,23.7345413 78.5089606,42.7787085" id="Fill-17" fill="#F6D8AA"></path>
                                <path d="M26.3577664,49.8637993 C26.3577664,49.8637993 16.3662388,21.2206332 32.7471407,0 C32.7471407,0 32.8026173,7.21468658 46.638291,5.23386214 C60.4739647,3.2530377 82.3939186,10.6204672 76.4474006,47.4643819 C76.4474006,47.4643819 76.4961817,32.7594914 67.6562719,25.887993 C60.1076278,20.0199577 58.3534193,24.9028978 51.401627,24.9028978 C46.3331697,24.9028978 38.8160899,19.7367066 32.7471407,25.887993 C25.4644018,33.2670233 26.3577664,49.8637993 26.3577664,49.8637993" id="Fill-21" fill="#525252"></path>
                            </g>
                        </g>
                    </g>
                </g>
            </g>
        </g>
    </g>
</svg>