<?xml version="1.0" encoding="UTF-8"?>
<svg width="160px" height="145px" viewBox="0 0 160 145" version="1.1" xmlns="http://www.w3.org/2000/svg" xmlns:xlink="http://www.w3.org/1999/xlink">
    <!-- Generator: Sketch 49 (51002) - http://www.bohemiancoding.com/sketch -->
    <title>ic_metadata</title>
    <desc>Created with Sketch.</desc>
    <defs>
        <polygon id="path-1" points="0 28.6773765 0 0.186364372 93.365247 0.186364372 93.365247 28.6773765"></polygon>
        <polygon id="path-3" points="25.1280972 24.6153846 0.582672065 24.6153846 0.582672065 0.0697004049 25.1280972 0.0697004049 25.1280972 24.6153846"></polygon>
        <polygon id="path-5" points="0.265091506 0.243562753 10.1572513 0.243562753 10.1572513 10.1534632 0.265091506 10.1534632 0.265091506 0.243562753"></polygon>
        <polygon id="path-7" points="0 143.157895 159.682591 143.157895 159.682591 0.243562753 0 0.243562753"></polygon>
    </defs>
    <g id="Symbols" stroke="none" stroke-width="1" fill="none" fill-rule="evenodd">
        <g id="ic_metadata">
            <g>
                <polygon id="Fill-1" fill="#BAECFF" points="80.4242915 66.0016194 83.4584615 66.0016194 83.4584615 37.4678543 80.4242915 37.4678543"></polygon>
                <polygon id="Fill-2" fill="#BBECFF" points="83.4584615 66.0016194 86.4706073 66.0016194 86.4706073 37.4678543 83.4584615 37.4678543"></polygon>
                <polygon id="Fill-3" fill="#BDECFF" points="86.4498785 66.0016194 89.4620243 66.0016194 89.4620243 37.4678543 86.4498785 37.4678543"></polygon>
                <polygon id="Fill-4" fill="#C0EDFF" points="89.4620243 66.0016194 92.4961943 66.0016194 92.4961943 37.4678543 89.4620243 37.4678543"></polygon>
                <polygon id="Fill-5" fill="#C1EDFF" points="92.4961943 66.0016194 95.5083401 66.0016194 95.5083401 37.4678543 92.4961943 37.4678543"></polygon>
                <polygon id="Fill-6" fill="#C2EDFF" points="95.4869636 66.0016194 98.4991093 66.0016194 98.4991093 37.4678543 95.4869636 37.4678543"></polygon>
                <polygon id="Fill-7" fill="#C3EDFF" points="98.4991093 66.0016194 101.533279 66.0016194 101.533279 37.4678543 98.4991093 37.4678543"></polygon>
                <polygon id="Fill-8" fill="#C4EDFF" points="101.533279 66.0016194 104.545425 66.0016194 104.545425 37.4678543 101.533279 37.4678543"></polygon>
                <polygon id="Fill-9" fill="#C5EDFF" points="104.524049 66.0016194 107.536842 66.0016194 107.536842 37.4678543 104.524049 37.4678543"></polygon>
                <polygon id="Fill-10" fill="#C5EEFF" points="107.536842 66.0016194 110.570364 66.0016194 110.570364 37.4678543 107.536842 37.4678543"></polygon>
                <polygon id="Fill-11" fill="#C5EEFF" points="110.570364 66.0016194 113.58251 66.0016194 113.58251 37.4678543 110.570364 37.4678543"></polygon>
                <polygon id="Fill-12" fill="#C6EEFF" points="113.561781 66.0016194 116.574575 66.0016194 116.574575 37.4678543 113.561781 37.4678543"></polygon>
                <polygon id="Fill-13" fill="#C7EEFF" points="116.574575 66.0016194 119.608097 66.0016194 119.608097 37.4678543 116.574575 37.4678543"></polygon>
                <polygon id="Fill-14" fill="#C8EEFF" points="119.565992 66.0016194 122.599514 66.0016194 122.599514 37.4678543 119.565992 37.4678543"></polygon>
                <polygon id="Fill-15" fill="#C9EEFF" points="122.599514 66.0016194 125.61166 66.0016194 125.61166 37.4678543 122.599514 37.4678543"></polygon>
                <polygon id="Fill-16" fill="#CDEFFF" points="125.61166 66.0016194 128.64583 66.0016194 128.64583 37.4678543 125.61166 37.4678543"></polygon>
                <polygon id="Fill-17" fill="#CEEFFF" points="131.636858 66.0014251 128.602688 66.0014251 128.602688 37.4676599"></polygon>
                <g id="Group-87" transform="translate(0.000000, 0.404211)">
                    <g id="Group-20" transform="translate(0.000000, 109.473684)">
                        <mask id="mask-2" fill="white">
                            <use xlink:href="#path-1"></use>
                        </mask>
                        <g id="Clip-19"></g>
                        <path d="M88.1888907,0.186364372 L30.6549636,0.186364372 C27.8118866,0.186364372 25.4786073,2.5202915 25.4786073,5.36272065 C25.4786073,6.61421862 25.9663806,7.76012955 26.688,8.67219433 L5.17609717,8.67219433 C2.33366802,8.67219433 -0.000259109312,11.0054737 -0.000259109312,13.8485506 C-0.000259109312,16.6909798 2.33366802,19.0249069 5.17609717,19.0249069 L13.6833036,19.0249069 C12.113749,19.9369717 11.0740729,21.5920324 11.0740729,23.5010202 C11.0740729,26.3440972 13.408,28.6773765 16.2504291,28.6773765 L73.7843563,28.6773765 C76.6274332,28.6773765 78.9607126,26.3440972 78.9607126,23.5010202 C78.9607126,20.6585911 76.6274332,18.324664 73.7843563,18.324664 L65.2771498,18.324664 C66.8473522,17.4125992 67.8870283,15.7581862 67.8870283,13.8485506 C67.8870283,12.5970526 67.3986073,11.4511417 66.6776356,10.5390769 L88.1888907,10.5390769 C91.0319676,10.5390769 93.365247,8.2051498 93.365247,5.36272065 C93.365247,2.5202915 91.0319676,0.186364372 88.1888907,0.186364372" id="Fill-18" fill="#FAFAFA" mask="url(#mask-2)"></path>
                    </g>
                    <path d="M130.300178,142.860955 L48.6237409,142.860955 C48.0083563,142.860955 47.520583,142.373182 47.520583,141.757798 L47.520583,37.7208745 C47.520583,37.1061377 48.0083563,36.6177166 48.6237409,36.6177166 L130.300178,36.6177166 C130.915563,36.6177166 131.403336,37.1061377 131.403336,37.7208745 L131.403336,141.757798 C131.424713,142.351806 130.936291,142.860955 130.300178,142.860955" id="Fill-21" fill="#F5F5F5"></path>
                    <path d="M85.4311255,80.4684696 L56.7276437,80.4684696 C56.3882105,80.4684696 56.1129069,80.193166 56.1129069,79.8537328 L56.1129069,75.9288745 C56.1129069,75.5894413 56.3882105,75.3134899 56.7276437,75.3134899 L85.4311255,75.3134899 C85.7705587,75.3134899 86.0465101,75.5894413 86.0465101,75.9288745 L86.0465101,79.8537328 C86.0886154,80.150413 85.7919352,80.4684696 85.4311255,80.4684696 M85.4311255,95.7643401 L56.7276437,95.7643401 C56.3882105,95.7643401 56.1129069,95.4883887 56.1129069,95.1496032 L56.1129069,91.2247449 C56.1129069,90.8853117 56.3882105,90.6093603 56.7276437,90.6093603 L85.4311255,90.6093603 C85.7705587,90.6093603 86.0465101,90.8853117 86.0465101,91.2247449 L86.0465101,95.1496032 C86.0886154,95.4462834 85.7919352,95.7643401 85.4311255,95.7643401" id="Fill-23" fill="#FFFFFF"></path>
                    <path d="M128.560583,84.2235466 C127.796858,84.2235466 127.139368,83.6088097 127.139368,82.802332 L127.139368,35.0057328 C127.139368,33.3085668 125.738883,31.9087287 124.041717,31.9087287 L74.7604211,31.9087287 C73.9966964,31.9087287 73.3385587,31.2933441 73.3385587,30.4868664 C73.3385587,29.7231417 73.9753198,29.0656518 74.7604211,29.0656518 L124.041717,29.0656518 C127.309085,29.0656518 129.981798,31.7390121 129.981798,35.0057328 L129.981798,82.802332 C130.003174,83.6088097 129.367061,84.2235466 128.560583,84.2235466 M124.041717,140.081684 L113.646899,140.081684 C112.883174,140.081684 112.225684,139.4663 112.225684,138.66047 C112.225684,137.896097 112.840421,137.239255 113.646899,137.239255 L124.041717,137.239255 C125.738883,137.239255 127.139368,135.838769 127.139368,134.142251 L127.139368,119.185166 C127.139368,118.421441 127.754105,117.763951 128.560583,117.763951 C129.324308,117.763951 129.981798,118.379336 129.981798,119.185166 L129.981798,134.142251 C130.003174,137.430348 127.309085,140.081684 124.041717,140.081684 M106.370462,140.081684 L103.06034,140.081684 C102.297263,140.081684 101.639126,139.4663 101.639126,138.66047 C101.639126,137.896097 102.25451,137.239255 103.06034,137.239255 L106.370462,137.239255 C107.133538,137.239255 107.791676,137.853992 107.791676,138.66047 C107.791676,139.4663 107.133538,140.081684 106.370462,140.081684 M98.5421215,140.081684 L47.1600972,140.081684 C43.8927287,140.081684 41.2200162,137.408324 41.2200162,134.142251 L41.2200162,75.0167449 C41.2200162,74.2530202 41.8354008,73.5955304 42.6412308,73.5955304 C43.4470607,73.5955304 44.0630931,74.2102672 44.0630931,75.0167449 L44.0630931,134.142251 C44.0630931,135.838769 45.4629312,137.239255 47.1600972,137.239255 L98.5421215,137.239255 C99.3058462,137.239255 99.963336,137.853992 99.963336,138.66047 C99.963336,139.4663 99.3479514,140.081684 98.5421215,140.081684 M42.6412308,70.77383 C41.8775061,70.77383 41.2200162,70.1584453 41.2200162,69.3519676 L41.2200162,66.8910769 C41.2200162,66.1273522 41.8354008,65.4698623 42.6412308,65.4698623 C43.4470607,65.4698623 44.0630931,66.085247 44.0630931,66.8910769 L44.0630931,69.3519676 C44.0630931,70.1584453 43.4056032,70.77383 42.6412308,70.77383 M42.6412308,62.288 C41.8775061,62.288 41.2200162,61.6726154 41.2200162,60.8661377 L41.2200162,34.9636275 C41.2200162,31.6962591 43.8927287,29.0235466 47.1600972,29.0235466 L59.2313522,29.0235466 C59.9950769,29.0235466 60.6525668,29.6382834 60.6525668,30.4447611 C60.6525668,31.2084858 60.0371822,31.8659757 59.2313522,31.8659757 L47.1600972,31.8659757 C45.4629312,31.8659757 44.0630931,33.2658138 44.0630931,34.9636275 L44.0630931,60.9088907 C44.0630931,61.6726154 43.4056032,62.288 42.6412308,62.288 M68.9900567,31.8873522 L64.4077085,31.8873522 C63.6439838,31.8873522 62.9864939,31.2719676 62.9864939,30.4661377 C62.9864939,29.702413 63.6012308,29.0442753 64.4077085,29.0442753 L68.9900567,29.0442753 C69.7537814,29.0442753 70.4112713,29.6596599 70.4112713,30.4661377 C70.4112713,31.2512389 69.7537814,31.8873522 68.9900567,31.8873522" id="Fill-25" fill="#EDEDED"></path>
                    <path d="M112.98902,127.353004 L56.7700729,127.353004 C56.4306397,127.353004 56.155336,127.077053 56.155336,126.737619 L56.155336,122.812761 C56.155336,122.473328 56.4306397,122.198024 56.7700729,122.198024 L113.010397,122.198024 C113.34983,122.198024 113.625134,122.473328 113.625134,122.812761 L113.625134,126.737619 C113.625134,127.056324 113.34983,127.353004 112.98902,127.353004 M111.33396,110.848389 L56.7700729,110.848389 C56.4306397,110.848389 56.155336,110.572437 56.155336,110.233004 L56.155336,106.308146 C56.155336,105.968713 56.4306397,105.692761 56.7700729,105.692761 L111.376713,105.692761 C111.716146,105.692761 111.992097,105.968713 111.992097,106.308146 L111.992097,110.233004 C111.992097,110.572437 111.673393,110.848389 111.33396,110.848389" id="Fill-27" fill="#FFFFFF"></path>
                    <path d="M117.019919,115.918251 C108.958381,115.918251 102.381538,109.384162 102.381538,101.27987 C102.381538,93.2189798 108.915628,86.6421377 117.019919,86.6421377 C125.081457,86.6421377 131.657652,93.1762267 131.657652,101.27987 C131.636923,109.384162 125.102834,115.918251 117.019919,115.918251" id="Fill-29" fill="#EEF8F9"></path>
                    <path d="M117.019919,80.829668 C105.691012,80.829668 96.505587,90.0150931 96.505587,101.344 C96.505587,112.672259 105.691012,121.858332 117.019919,121.858332 C128.348826,121.858332 137.534251,112.672259 137.534251,101.344 C137.534251,89.9937166 128.369555,80.829668 117.019919,80.829668" id="Path" fill="#FFFFFF"></path>
                    <path d="M117.019919,82.2084534 C106.49749,82.2084534 97.9481781,90.7577652 97.9481781,101.280194 C97.9481781,111.802623 106.49749,120.351935 117.019919,120.351935 C127.542348,120.351935 136.09166,111.802623 136.09166,101.280194 C136.113036,90.8005182 127.563725,82.2084534 117.019919,82.2084534 M117.019919,123.258494 C104.927935,123.258494 95.0837247,113.414931 95.0837247,101.3223 C95.0837247,89.2303158 104.927935,79.386753 117.019919,79.386753 C129.111903,79.386753 138.955466,89.2303158 138.955466,101.3223 C138.955466,113.414931 129.133279,123.258494 117.019919,123.258494" id="Fill-31" fill="#EDEDED"></path>
                    <polygon id="Fill-33" fill="#FFFFFF" points="129.133409 117.021474 131.806121 114.36949 137.577134 120.139854 134.924502 122.791838"></polygon>
                    <path d="M106.667206,102.022802 C106.28502,102.022802 105.966964,101.704745 105.966964,101.322559 C105.966964,100.622316 106.031093,99.9013441 106.179433,99.2011012 C106.327773,98.4801296 106.518866,97.7798866 106.79417,97.0796437 C107.176356,96.1675789 107.66413,95.2976194 108.279514,94.5338947 C108.512713,94.2158381 108.979109,94.1944615 109.297814,94.3855547 C109.61587,94.618753 109.637247,95.0857976 109.446154,95.4038543 C108.915628,96.1040972 108.470607,96.8250688 108.151903,97.6315466 C107.918704,98.2255547 107.727611,98.8402915 107.600648,99.4770526 C107.494413,100.071061 107.430931,100.686445 107.430931,101.322559 C107.367449,101.704745 107.048745,102.022802 106.667206,102.022802 M110.783158,93.7494413 C110.570688,93.7494413 110.358219,93.6425587 110.231255,93.4734899 C109.998057,93.1554332 110.061538,92.7097652 110.379595,92.4551903 C110.99498,92.0095223 111.673846,91.5852308 112.352713,91.2671741 C112.692146,91.0974575 113.116437,91.2671741 113.286154,91.6059595 C113.45587,91.9460405 113.286154,92.370332 112.946721,92.5394008 C112.331336,92.816 111.758704,93.1554332 111.206802,93.5790769 C111.058462,93.7066883 110.910121,93.7494413 110.783158,93.7494413" id="Fill-35" fill="#FFFFFF"></path>
                    <path d="M133.163919,116.194073 L136.325053,119.355206 L136.982543,118.697717 L133.822057,115.536583 L133.163919,116.194073 Z M136.325053,123.407028 L129.133474,116.215449 L133.80068,111.548243 L140.992259,118.739822 L136.325053,123.407028 Z M117.020113,88.1273522 C109.764405,88.1273522 103.802947,94.0460567 103.802947,101.34387 C103.802947,108.641684 109.7223,114.560389 117.020113,114.560389 C124.317927,114.560389 130.236632,108.641684 130.236632,101.34387 C130.236632,94.0246802 124.296551,88.1273522 117.020113,88.1273522 Z M117.020113,117.360713 C108.19485,117.360713 101.002623,110.169134 101.002623,101.34387 C101.002623,92.5186073 108.19485,85.3270283 117.020113,85.3270283 C125.845377,85.3270283 133.036955,92.5186073 133.036955,101.34387 C133.057684,110.148405 125.866105,117.360713 117.020113,117.360713 Z" id="Fill-37" fill="#EDEDED"></path>
                    <g id="Group-41" transform="translate(132.793522, 118.542510)">
                        <mask id="mask-4" fill="white">
                            <use xlink:href="#path-3"></use>
                        </mask>
                        <g id="Clip-40"></g>
                        <path d="M24.8735223,19.4601457 L19.9731174,24.3605506 C19.6336842,24.7006316 19.0604049,24.7006316 18.7637247,24.3605506 L0.582672065,6.18014575 L6.69246964,0.0697004049 L24.8735223,18.2514008 C25.2129555,18.5901862 25.2129555,19.099336 24.8735223,19.4601457" id="Fill-39" fill="#FFFFFF" mask="url(#mask-4)"></path>
                    </g>
                    <path d="M136.770656,123.300923 L152.066526,138.596794 C152.893733,139.424 154.251466,139.424 155.100049,138.596794 L156.203206,137.493636 C156.627498,137.069344 156.818591,136.560194 156.818591,136.008939 C156.818591,135.457036 156.606121,134.905781 156.203206,134.523595 L140.907336,119.227725 L136.770656,123.300923 Z M153.551223,142.033231 C152.256972,142.033231 151.005474,141.546105 150.050656,140.569911 L132.782316,123.300923 L140.907336,115.175903 L158.218429,132.486996 C159.15187,133.420437 159.682397,134.671935 159.682397,135.986915 C159.682397,137.302543 159.15187,138.55404 158.218429,139.48813 L157.115271,140.591287 C156.096972,141.566834 154.845474,142.033231 153.551223,142.033231 Z" id="Fill-42" fill="#EDEDED"></path>
                    <path d="M71.2810364,61.5027692 L55.1152065,61.5027692 C54.5004696,61.5027692 54.0126964,61.014996 54.0126964,60.3996113 L54.0126964,44.2337814 C54.0126964,43.6190445 54.5004696,43.1312713 55.1152065,43.1312713 L71.2810364,43.1312713 C71.8964211,43.1312713 72.3841943,43.6190445 72.3841943,44.2337814 L72.3841943,60.3996113 C72.4055709,60.9722429 71.9171498,61.5027692 71.2810364,61.5027692" id="Fill-44" fill="#FFFFFF"></path>
                    <g id="Group-48" transform="translate(84.858300, 0.000000)">
                        <mask id="mask-6" fill="white">
                            <use xlink:href="#path-5"></use>
                        </mask>
                        <g id="Clip-47"></g>
                        <path d="M5.24042105,7.40547368 C3.9882753,7.40547368 2.94924696,6.38717409 2.94924696,5.1142996 C2.94924696,3.86280162 3.96754656,2.82312551 5.24042105,2.82312551 C6.49191903,2.82312551 7.53159514,3.8414251 7.53159514,5.1142996 C7.48884211,6.40855061 6.49191903,7.40547368 5.24042105,7.40547368 M9.78001619,5.36887449 C10.3105425,5.22053441 10.2677895,4.45680972 9.73791093,4.39332794 C9.29224291,4.32919838 9.14325506,3.77794332 9.50471255,3.48061538 C9.92835628,3.14118219 9.56819433,2.44093927 9.05904453,2.61130364 C8.63475304,2.71689069 8.2525668,2.29259919 8.46503644,1.88968421 C8.69823482,1.40191093 8.12560324,0.914137652 7.70131174,1.27494737 C7.36123077,1.55025101 6.83135223,1.31705263 6.87345749,0.850008097 C6.91621053,0.298753036 6.17386235,0.0869311741 5.89791093,0.616809717 C5.6854413,0.998348178 5.13418623,0.998348178 4.96446964,0.574704453 C4.75264777,0.0441781377 4.03102834,0.192518219 3.9882753,0.723044534 C3.94617004,1.16871255 3.43702024,1.38053441 3.11896356,1.06247773 C2.73677733,0.680939271 2.07928745,1.104583 2.29110931,1.61438057 C2.46082591,2.03802429 2.05791093,2.44093927 1.63361943,2.27187045 C1.10309312,2.05940081 0.700178138,2.71689069 1.08236437,3.09907692 C1.40042105,3.4171336 1.18859919,3.9262834 0.742931174,3.96903644 C0.19102834,4.0111417 0.0854412955,4.7748664 0.59394332,4.944583 C1.01823482,5.09292308 1.03961134,5.66555466 0.636696356,5.87802429 C0.148923077,6.11122267 0.360744939,6.89632389 0.869894737,6.85357085 C1.31556275,6.81146559 1.57013765,7.3419919 1.29418623,7.6814251 C0.954753036,8.1057166 1.44252632,8.6997247 1.90957085,8.4451498 C2.29110931,8.23268016 2.73677733,8.6148664 2.63054251,9.03915789 C2.48220243,9.56968421 3.18244534,9.90911741 3.50050202,9.48417814 C3.77645344,9.14539271 4.3277085,9.27235628 4.41321457,9.71802429 C4.47669636,10.2692794 5.28252632,10.3120324 5.38876113,9.76077733 C5.49499595,9.33583806 6.08900405,9.23025101 6.30082591,9.61178947 C6.61888259,10.0574575 7.31912551,9.78150607 7.23426721,9.27235628 C7.17078543,8.82668826 7.6585587,8.50863158 7.9979919,8.74182996 C8.44365992,9.06053441 9.0162915,8.50863158 8.69823482,8.04158704 C8.46503644,7.66004858 8.7617166,7.21502834 9.22876113,7.27851012 C9.78001619,7.38409717 10.0559676,6.66312551 9.56819433,6.34506883 C9.2708664,6.04774089 9.37710121,5.49648583 9.78001619,5.36887449" id="Fill-46" fill="#EDEDED" mask="url(#mask-6)"></path>
                    </g>
                    <path d="M42.7261538,7.99980567 C41.8140891,7.99980567 41.0931174,7.27818623 41.0931174,6.36612146 C41.0931174,5.45340891 41.8140891,4.73243725 42.7261538,4.73243725 C43.6382186,4.73243725 44.3598381,5.45340891 44.3598381,6.36612146 C44.3598381,7.27818623 43.6168421,7.99980567 42.7261538,7.99980567 M45.9935223,6.53583806 C46.3750607,6.42960324 46.3323077,5.87834818 45.9507692,5.81421862 C45.6327126,5.77211336 45.5264777,5.36919838 45.7810526,5.15672874 C46.0997571,4.92353036 45.8445344,4.43575709 45.462996,4.5419919 C45.1442915,4.60547368 44.9110931,4.30814575 45.0387045,4.01146559 C45.2084211,3.67203239 44.8048583,3.31122267 44.4868016,3.56579757 C44.2536032,3.77761943 43.8720648,3.56579757 43.8927935,3.24774089 C43.9355466,2.86555466 43.362915,2.69583806 43.1931984,3.07802429 C43.0442105,3.35332794 42.6412955,3.35332794 42.5357085,3.03527126 C42.3867206,2.65373279 41.8354656,2.75931984 41.8354656,3.14150607 C41.8354656,3.45956275 41.4111741,3.58717409 41.220081,3.37470445 C40.9441296,3.09875304 40.4991093,3.41745749 40.6260729,3.75689069 C40.7323077,4.07494737 40.4563563,4.35089879 40.1382996,4.24466397 C39.7561134,4.09632389 39.4801619,4.56272065 39.7561134,4.83867206 C39.9893117,5.05049393 39.8195951,5.45340891 39.522915,5.45340891 C39.1407287,5.45340891 39.0351417,6.00531174 39.4166802,6.15365182 C39.7347368,6.25988664 39.7347368,6.68417814 39.4594332,6.81178947 C39.12,6.98150607 39.2469636,7.53276113 39.6291498,7.51203239 C39.9472065,7.46927935 40.1590283,7.85146559 39.9472065,8.10604049 C39.7140081,8.42409717 40.0534413,8.82701215 40.3922267,8.65729555 C40.6681781,8.50895547 40.9862348,8.76353036 40.922753,9.08158704 C40.817166,9.46377328 41.3049393,9.69697166 41.5381377,9.39964372 C41.7506073,9.16644534 42.1321457,9.25130364 42.1962753,9.56936032 C42.2597571,9.95154656 42.8110121,9.99365182 42.917247,9.61211336 C42.9807287,9.29405668 43.4050202,9.22992713 43.5747368,9.50587854 C43.7872065,9.84531174 44.2963563,9.65421862 44.2322267,9.27268016 C44.1687449,8.95397571 44.5081781,8.72077733 44.7841296,8.93324696 C45.1235628,9.14506883 45.505749,8.76353036 45.3146559,8.40272065 C45.1442915,8.12676923 45.3567611,7.78733603 45.6540891,7.85146559 C46.0356275,7.91494737 46.2480972,7.40579757 45.8872874,7.19332794 C45.6327126,7.02361134 45.7175709,6.62069636 45.9935223,6.53583806" id="Fill-49" fill="#EDEDED"></path>
                    <path d="M149.159968,78.4533765 C147.993328,79.6200162 147.335838,80.8715142 147.717377,81.2323239 C148.078186,81.5931336 149.329684,80.9563725 150.496324,79.7897328 C151.663611,78.6230931 152.321101,77.3715951 151.939563,77.0107854 C151.578105,76.629247 150.347984,77.2867368 149.159968,78.4533765 M148.078186,82.1657652 C148.078186,82.5051984 148.650818,82.8025263 149.562883,82.9722429 C150.496324,83.1419595 151.620858,83.1419595 152.5543,82.9722429 C153.487741,82.8025263 154.039644,82.4844696 154.039644,82.1657652 C154.039644,81.826332 153.466364,81.5296518 152.5543,81.3599352 C151.620858,81.1902186 150.496324,81.1902186 149.562883,81.3599352 C148.629441,81.5296518 148.078186,81.8477085 148.078186,82.1657652 M150.432842,84.5631741 C149.669117,83.7994494 148.863287,83.2268178 148.269279,83.0564534 C147.696,82.8873846 147.441425,83.1419595 147.611142,83.7145911 C147.781506,84.2872227 148.35349,85.1144291 149.117862,85.8781538 C149.881587,86.6425263 150.687417,87.2145101 151.281425,87.3848745 C151.854057,87.5545911 152.108632,87.3000162 151.939563,86.7267368 C151.74847,86.1541053 151.17519,85.3268988 150.432842,84.5631741 M145.744907,86.4514332 C145.744907,88.1058462 146.168551,89.4422024 146.6777,89.4422024 C147.18685,89.4422024 147.611142,88.1058462 147.611142,86.4514332 C147.611142,84.7963725 147.18685,83.4600162 146.6777,83.4600162 C146.168551,83.4600162 145.744907,84.7963725 145.744907,86.4514332 M144.280939,85.8146721 C145.447579,84.6480324 146.105069,83.3958866 145.722883,83.0357247 C145.362721,82.674915 144.111223,83.3116761 142.943935,84.4783158 C141.777296,85.6449555 141.119806,86.8971012 141.501344,87.2572632 C141.88353,87.6180729 143.1143,86.9819595 144.280939,85.8146721 M139.42264,82.0809069 C139.42264,82.4203401 139.995271,82.717668 140.907336,82.8873846 C141.840777,83.0564534 142.965312,83.0564534 143.898753,82.8873846 C144.832194,82.717668 145.383449,82.3989636 145.383449,82.0809069 C145.383449,81.7414737 144.810818,81.4447935 143.898753,81.2750769 C142.965312,81.1053603 141.840777,81.1053603 140.907336,81.2750769 C139.973895,81.423417 139.42264,81.7414737 139.42264,82.0809069 M143.028794,79.683498 C144.195433,80.8507854 145.447579,81.5082753 145.808389,81.1260891 C146.168551,80.7652794 145.531789,79.5144291 144.365798,78.3471417 C143.19851,77.180502 141.947012,76.5230121 141.58685,76.9045506 C141.204664,77.2867368 141.862154,78.5168583 143.028794,79.683498 M145.850494,77.7958866 C145.850494,79.4502996 146.274785,80.7873036 146.783935,80.7873036 C147.293085,80.7873036 147.717377,79.4502996 147.717377,77.7958866 C147.717377,76.1408259 147.293085,74.8044696 146.783935,74.8044696 C146.274785,74.8044696 145.850494,76.1408259 145.850494,77.7958866 M28.7453927,34.4754008 C27.9823158,35.2391255 27.4090364,36.0456032 27.2399676,36.6396113 C27.0696032,37.2122429 27.3248259,37.4668178 27.8974575,37.2971012 C28.4700891,37.1273846 29.2972955,36.5541053 30.0610202,35.7910283 C30.8247449,35.0266559 31.3980243,34.2208259 31.5670931,33.6268178 C31.7374575,33.0541862 31.4822348,32.7989636 30.9096032,32.9693279 C30.3369717,33.1390445 29.5097652,33.7116761 28.7453927,34.4754008 M27.6636113,38.2512713 C27.6636113,38.5907045 28.2368907,38.8880324 29.1489555,39.057749 C30.0823968,39.2274656 31.2069312,39.2274656 32.1403725,39.057749 C33.0738138,38.8880324 33.6250688,38.5699757 33.6250688,38.2512713 C33.6250688,37.9332146 33.0524372,37.6151579 32.1403725,37.4454413 C31.2069312,37.2757247 30.0823968,37.2757247 29.1489555,37.4454413 C28.2368907,37.5937814 27.6636113,37.9124858 27.6636113,38.2512713 M29.9975385,40.6273036 C29.2338138,39.8642267 28.4279838,39.2909474 27.8339757,39.1212308 C27.2399676,38.9515142 27.0061215,39.2067368 27.1758381,39.7787206 C27.3455547,40.352 27.9181862,41.1792065 28.6819109,41.9429312 C29.4456356,42.7066559 30.2521134,43.2792874 30.8461215,43.449004 C31.418753,43.6187206 31.6733279,43.3647935 31.5036113,42.7915142 C31.3338947,42.2188826 30.7612632,41.3916761 29.9975385,40.6273036 M25.3089555,42.5155628 C25.3089555,44.1706235 25.733247,45.5069798 26.2423968,45.5069798 C26.7515466,45.5069798 27.1758381,44.1706235 27.1758381,42.5155628 C27.1758381,40.8611498 26.7515466,39.5241457 26.2423968,39.5241457 C25.733247,39.5241457 25.3089555,40.8611498 25.3089555,42.5155628 M23.8663644,41.8366964 C24.6300891,41.0729717 25.2033684,40.2671417 25.3724372,39.6731336 C25.5428016,39.100502 25.2875789,38.8452794 24.7149474,39.0156437 C24.1423158,39.1847126 23.3151093,39.7579919 22.5513846,40.5217166 C21.7876599,41.2854413 21.2143806,42.0912713 21.0453117,42.6852794 C20.8749474,43.2579109 21.1295223,43.5131336 21.7028016,43.3427692 C22.2754332,43.1737004 23.1026397,42.6004211 23.8663644,41.8366964 M18.987336,38.1029312 C18.987336,38.612081 20.3236923,39.0363725 21.978753,39.0363725 C23.633166,39.0363725 24.9695223,38.612081 24.9695223,38.1029312 C24.9695223,37.5937814 23.633166,37.1701377 21.978753,37.1701377 C20.3236923,37.1701377 18.987336,37.5937814 18.987336,38.1029312 M22.6362429,35.7482753 C23.3999676,36.512 24.2057976,37.0846316 24.8004534,37.2543482 C25.3724372,37.4240648 25.6270121,37.1701377 25.4572955,36.5968583 C25.2875789,36.0242267 24.7149474,35.1970202 23.9512227,34.4326478 C23.187498,33.6689231 22.381668,33.0962915 21.7876599,32.9265749 C21.2143806,32.7568583 20.9598057,33.012081 21.1295223,33.5840648 C21.2992389,34.1573441 21.8725182,34.9845506 22.6362429,35.7482753 M25.4365668,33.8179109 C25.4365668,35.4723239 25.8608583,36.8086802 26.3700081,36.8086802 C26.8791579,36.8086802 27.3034494,35.4723239 27.3034494,33.8179109 C27.3034494,32.1628502 26.8791579,30.8264939 26.3700081,30.8264939 C25.8608583,30.8478704 25.4365668,32.1842267 25.4365668,33.8179109" id="Fill-51" fill="#EDEDED"></path>
                    <path d="M62.7315304,15.5731822 C62.7315304,15.9126154 63.6435951,16.1885668 64.746753,16.1885668 C65.8499109,16.1885668 66.7626235,15.9126154 66.7626235,15.5731822 C66.7626235,15.233749 65.8499109,14.9577976 64.746753,14.9577976 C63.6435951,14.9577976 62.7315304,15.233749 62.7315304,15.5731822 M61.1405992,18.4583644 C61.1405992,19.179336 61.2675628,19.8374737 61.4586559,20.1982834 C61.649749,20.5584453 61.8829474,20.5584453 62.0740405,20.1982834 C62.2651336,19.8374737 62.3920972,19.179336 62.3920972,18.4583644 C62.3920972,17.7367449 62.2651336,17.0792551 62.0740405,16.7190931 C61.8829474,16.3582834 61.649749,16.3582834 61.4586559,16.7190931 C61.2675628,17.0792551 61.1405992,17.7367449 61.1405992,18.4583644 M56.8549312,15.5097004 C56.8549312,15.8491336 57.7676437,16.125085 58.8708016,16.125085 C59.9739595,16.125085 60.8860243,15.8491336 60.8860243,15.5097004 C60.8860243,15.1696194 59.9739595,14.8729393 58.8708016,14.8729393 C57.7676437,14.8729393 56.8549312,15.1696194 56.8549312,15.5097004 M61.246834,12.5817652 C61.246834,13.3033846 61.3737976,13.9608745 61.5648907,14.3216842 C61.7559838,14.6824939 61.9891822,14.6824939 62.1796275,14.3216842 C62.3707206,13.9608745 62.498332,13.3033846 62.498332,12.5817652 C62.498332,11.8607935 62.3707206,11.2026559 62.1796275,10.8424939 C61.9891822,10.4816842 61.7559838,10.4816842 61.5648907,10.8424939 C61.3530688,11.2026559 61.246834,11.8607935 61.246834,12.5817652" id="Fill-53" fill="#EDEDED"></path>
                    <mask id="mask-8" fill="white">
                        <use xlink:href="#path-7"></use>
                    </mask>
                    <g id="Clip-56"></g>
                    <polygon id="Fill-55" fill="#E6E6E6" mask="url(#mask-8)" points="130.002915 34.3054251 130.40583 34.3054251 130.40583 26.1804049 130.002915 26.1804049"></polygon>
                    <polygon id="Fill-57" fill="#E6E6E6" mask="url(#mask-8)" points="130.40583 34.3054251 130.830121 34.3054251 130.830121 26.1804049 130.40583 26.1804049"></polygon>
                    <polygon id="Fill-58" fill="#E6E6E6" mask="url(#mask-8)" points="130.830121 34.3054251 131.254413 34.3054251 131.254413 26.1804049 130.830121 26.1804049"></polygon>
                    <polygon id="Fill-59" fill="#E6E6E6" mask="url(#mask-8)" points="131.212308 34.3054251 131.636599 34.3054251 131.636599 26.1804049 131.212308 26.1804049"></polygon>
                    <polygon id="Fill-60" fill="#E6E6E6" mask="url(#mask-8)" points="131.636599 34.3054251 132.039514 34.3054251 132.039514 26.1804049 131.636599 26.1804049"></polygon>
                    <polygon id="Fill-61" fill="#E6E6E6" mask="url(#mask-8)" points="132.039514 34.3054251 132.463806 34.3054251 132.463806 26.1804049 132.039514 26.1804049"></polygon>
                    <polygon id="Fill-62" fill="#E6E6E6" mask="url(#mask-8)" points="132.463806 34.3054251 132.888097 34.3054251 132.888097 26.1804049 132.463806 26.1804049"></polygon>
                    <polygon id="Fill-63" fill="#E6E6E6" mask="url(#mask-8)" points="132.888745 34.3054251 133.29166 34.3054251 133.29166 26.1804049 132.888745 26.1804049"></polygon>
                    <polygon id="Fill-64" fill="#E6E6E6" mask="url(#mask-8)" points="133.270283 34.3054251 133.673846 34.3054251 133.673846 26.1804049 133.270283 26.1804049"></polygon>
                    <polygon id="Fill-65" fill="#E6E6E6" mask="url(#mask-8)" points="133.673198 34.3054251 134.09749 34.3054251 134.09749 26.1804049 133.673198 26.1804049"></polygon>
                    <polygon id="Fill-66" fill="#E6E6E6" mask="url(#mask-8)" points="134.09749 34.3054251 134.521781 34.3054251 134.521781 26.1804049 134.09749 26.1804049"></polygon>
                    <polygon id="Fill-67" fill="#E6E6E6" mask="url(#mask-8)" points="134.521781 34.3054251 134.924696 34.3054251 134.924696 26.1804049 134.521781 26.1804049"></polygon>
                    <polygon id="Fill-68" fill="#E6E6E6" mask="url(#mask-8)" points="134.924696 34.3054251 135.348988 34.3054251 135.348988 26.1804049 134.924696 26.1804049"></polygon>
                    <polygon id="Fill-69" fill="#E6E6E6" mask="url(#mask-8)" points="135.348988 34.3054251 135.773279 34.3054251 135.773279 26.1804049 135.348988 26.1804049"></polygon>
                    <polygon id="Fill-70" fill="#E6E6E6" mask="url(#mask-8)" points="135.731174 34.3054251 136.155466 34.3054251 136.155466 26.1804049 135.731174 26.1804049"></polygon>
                    <polygon id="Fill-71" fill="#E6E6E6" mask="url(#mask-8)" points="136.155466 34.3054251 136.558381 34.3054251 136.558381 26.1804049 136.155466 26.1804049"></polygon>
                    <polygon id="Fill-72" fill="#E6E6E6" mask="url(#mask-8)" points="136.558381 34.3054251 136.982672 34.3054251 136.982672 26.1804049 136.558381 26.1804049"></polygon>
                    <polygon id="Fill-73" fill="#E6E6E6" mask="url(#mask-8)" points="136.982672 34.3054251 137.406964 34.3054251 137.406964 26.1804049 136.982672 26.1804049"></polygon>
                    <polygon id="Fill-74" fill="#E6E6E6" mask="url(#mask-8)" points="137.406964 34.3054251 137.809879 34.3054251 137.809879 26.1804049 137.406964 26.1804049"></polygon>
                    <polygon id="Fill-75" fill="#E6E6E6" mask="url(#mask-8)" points="137.788502 34.3054251 138.192065 34.3054251 138.192065 26.1804049 137.788502 26.1804049"></polygon>
                    <polygon id="Fill-76" fill="#E6E6E6" mask="url(#mask-8)" points="138.192065 34.3054251 138.616356 34.3054251 138.616356 26.1804049 138.192065 26.1804049"></polygon>
                    <polygon id="Fill-77" fill="#E6E6E6" mask="url(#mask-8)" points="138.616356 34.3054251 139.040648 34.3054251 139.040648 26.1804049 138.616356 26.1804049"></polygon>
                    <polygon id="Fill-78" fill="#E6E6E6" mask="url(#mask-8)" points="139.040648 34.3054251 139.443563 34.3054251 139.443563 26.1804049 139.040648 26.1804049"></polygon>
                    <polygon id="Fill-79" fill="#EDEDED" mask="url(#mask-8)" points="139.443563 34.3054251 139.867854 34.3054251 139.867854 26.1804049 139.443563 26.1804049"></polygon>
                    <polygon id="Fill-80" fill="#EDEDED" mask="url(#mask-8)" points="139.867854 34.3054251 140.292146 34.3054251 140.292146 26.1804049 139.867854 26.1804049"></polygon>
                    <polygon id="Fill-81" fill="#EDEDED" mask="url(#mask-8)" points="140.25004 34.3054251 140.674332 34.3054251 140.674332 26.1804049 140.25004 26.1804049"></polygon>
                    <polygon id="Fill-82" fill="#EDEDED" mask="url(#mask-8)" points="140.674332 34.3054251 141.077247 34.3054251 141.077247 26.1804049 140.674332 26.1804049"></polygon>
                    <polygon id="Fill-83" fill="#EDEDED" mask="url(#mask-8)" points="141.077247 34.3054251 141.501538 34.3054251 141.501538 26.1804049 141.077247 26.1804049"></polygon>
                    <polygon id="Fill-84" fill="#EDEDED" mask="url(#mask-8)" points="141.501538 34.3054251 141.92583 34.3054251 141.92583 26.1804049 141.501538 26.1804049"></polygon>
                    <polygon id="Fill-85" fill="#EDEDED" mask="url(#mask-8)" points="141.92583 34.3054251 142.328745 34.3054251 142.328745 26.1804049 141.92583 26.1804049"></polygon>
                    <polygon id="Fill-86" fill="#EDEDED" mask="url(#mask-8)" points="142.307368 34.3054251 142.710931 34.3054251 142.710931 26.1804049 142.307368 26.1804049"></polygon>
                </g>
            </g>
        </g>
    </g>
</svg>