<?xml version="1.0" encoding="UTF-8"?>
<svg width="111px" height="36px" viewBox="0 0 111 36" version="1.1" xmlns="http://www.w3.org/2000/svg" xmlns:xlink="http://www.w3.org/1999/xlink">
    <!-- Generator: Sketch 49 (51002) - http://www.bohemiancoding.com/sketch -->
    <title>ic_navigation_logo</title>
    <desc>Created with Sketch.</desc>
    <defs>
        <polygon id="path-1" points="3.37782857 1.81672997 3.37782857 0.170870362 0.287434286 0.170870362 0.287434286 1.81672997 3.37782857 1.81672997"></polygon>
        <polygon id="path-3" points="0 35.5516457 108.292114 35.5516457 108.292114 0.000102857143 0 0.000102857143"></polygon>
    </defs>
    <g id="Symbols" stroke="none" stroke-width="1" fill="none" fill-rule="evenodd">
        <g id="ic_navigation_logo">
            <g transform="translate(0.818182, 0.000000)">
                <path d="M57.6516109,7.21949143 C57.6516109,7.21949143 63.4090395,6.73452 67.2692681,5.35880571 C67.2692681,5.35880571 71.5728109,7.40566286 69.5763538,7.40566286 C67.5798966,7.40566286 61.0782966,8.28149143 57.6516109,7.21949143 Z" id="Fill-1" fill="#FFFFFF"></path>
                <path d="M65.3171938,11.5093543 C65.3171938,11.5093543 67.0914795,10.1506114 67.9791366,9.21872571 C68.8662795,8.28735429 68.3946795,7.79364 66.2567938,7.21969714 C66.2567938,7.21969714 65.5388509,11.0824971 65.1392509,11.3704971 L65.3171938,11.5093543 Z" id="Fill-3" fill="#FFFFFF"></path>
                <path d="M62.4108109,7.59193714 C62.4108109,7.59193714 63.7417823,7.91028 64.2519538,8.86428 C64.7621252,9.81776571 64.3409252,10.7054229 63.3313823,10.8381086 C62.3223538,10.9713086 62.2333823,9.68456571 62.2554966,9.06382286 C62.2776109,8.44256571 61.8342966,7.43353714 61.6121252,7.40576571 C61.3904681,7.37748 62.4108109,7.59193714 62.4108109,7.59193714" id="Fill-5" fill="#FFFFFF"></path>
                <path d="M58.4622281,7.99873714 C58.4622281,7.99873714 60.2370281,8.04605143 60.9467423,9.36468 C61.6564566,10.6833086 60.2812566,11.48148 59.9263995,11.3487943 C59.5710281,11.2155943 58.9055423,10.7640514 59.0387423,9.68096571 C59.1719423,8.59788 58.7944566,8.19879429 58.4622281,7.99873714" id="Fill-7" fill="#FFFFFF"></path>
                <path d="M56.6210338,10.3059771 C56.6210338,10.3059771 57.5956052,11.05992 57.6516623,12.5024914 C57.7077195,13.9440343 56.6431481,14.6316343 55.7997195,14.2546629 C54.9573195,13.8776914 54.8904623,13.1895771 55.5785766,12.5909486 C56.2661766,11.9918057 56.8426909,11.4374057 56.6210338,10.3059771" id="Fill-9" fill="#FFFFFF"></path>
                <path d="M61.3737023,11.3355771 C61.3737023,11.3355771 61.1695309,17.2884343 55.1374738,21.3482057 C55.1374738,21.3482057 58.8002166,20.6606057 60.8635309,17.6438057 C62.9268452,14.6264914 63.3701595,12.6742629 63.3701595,12.6742629 C63.3701595,12.6742629 63.9312452,12.1862057 63.9055309,12.0977486 C63.8803309,12.0087771 63.5702166,11.5983771 62.7936452,11.4821486 C62.0170738,11.3654057 61.3737023,11.3355771 61.3737023,11.3355771" id="Fill-11" fill="#FFFFFF"></path>
                <path d="M68.5611023,10.9880229 C68.5611023,10.9880229 68.7112738,10.1394514 69.4096738,10.52208 C70.1085881,10.9047086 71.0404738,11.7275657 71.3896738,12.3313371 C71.7393881,12.9345943 71.4565309,12.9345943 70.5745309,12.8682514 C69.6925309,12.8013943 68.6608738,12.7931657 68.5611023,12.8970514 C68.5611023,12.8970514 70.0088166,11.9769943 68.5611023,11.54088 L68.0288166,11.5095086 C68.0288166,11.5095086 68.4783023,11.2343657 68.5611023,10.9880229" id="Fill-13" fill="#FFFFFF"></path>
                <path d="M66.2568966,13.8331543 C66.2568966,13.8331543 66.6647252,13.7333829 66.9640395,13.2509829 C67.2638681,12.7685829 67.2803252,12.3859543 68.0286109,12.8179543 C68.7774109,13.2509829 69.4274681,13.6222971 69.3266681,13.8331543 C69.2099252,14.07744 66.1159823,14.01624 66.1159823,14.01624 L66.2568966,13.8331543 Z" id="Fill-15" fill="#FFFFFF"></path>
                <path d="M65.3443481,16.2182571 C65.3443481,16.2182571 65.5773195,14.9207143 66.2592623,15.2030571 C66.9412052,15.4864286 68.1734338,15.9184286 68.4310909,16.8174 C68.4310909,16.8174 67.4992052,17.1331714 66.8877195,17.7822 C66.2762338,18.4312286 65.2615481,19.8120857 64.1301195,20.4611143 C62.9981766,21.1096286 59.7705195,22.5907714 57.0756623,22.3408286 C57.0756623,22.3408286 63.4368623,21.0047143 65.3443481,16.2182571" id="Fill-17" fill="#FFFFFF"></path>
                <path d="M61.7980395,16.1718171 C61.7980395,16.1718171 62.1503252,16.1126743 62.4604395,16.5343886 C62.7710681,16.9555886 64.0799252,20.06136 71.3339252,20.3941029 C71.3339252,20.3941029 70.3799252,20.8158171 70.0250681,21.3481029 C69.6702109,21.8803886 69.8028966,22.7464457 68.7722681,22.36896 C67.7406109,21.9914743 63.1963823,20.9191886 61.6082681,16.3420457 L61.7980395,16.1718171 Z" id="Fill-19" fill="#FFFFFF"></path>
                <path d="M68.9398223,11.6275886 L57.2917652,11.6275886 C57.2043366,11.6275886 57.1318223,11.5555886 57.1318223,11.4676457 C57.1318223,11.3802171 57.2043366,11.3082171 57.2917652,11.3082171 L68.9398223,11.3082171 C69.0277652,11.3082171 69.0997652,11.3802171 69.0997652,11.4676457 C69.0997652,11.5555886 69.0277652,11.6275886 68.9398223,11.6275886" id="Fill-21" fill="#FFFFFF"></path>
                <path d="M67.1277366,13.9930971 L57.9878509,13.9930971 C57.8999081,13.9930971 57.8279081,13.9210971 57.8279081,13.8331543 C57.8279081,13.7457257 57.8999081,13.6737257 57.9878509,13.6737257 L67.1277366,13.6737257 C67.2156795,13.6737257 67.2876795,13.7457257 67.2876795,13.8331543 C67.2876795,13.9210971 67.2156795,13.9930971 67.1277366,13.9930971" id="Fill-23" fill="#FFFFFF"></path>
                <path d="M65.9831423,16.2448971 L61.7680566,16.2448971 C61.6801138,16.2448971 61.6081138,16.1728971 61.6081138,16.0849543 C61.6081138,15.9975257 61.6801138,15.9255257 61.7680566,15.9255257 L65.9831423,15.9255257 C66.0710852,15.9255257 66.1430852,15.9975257 66.1430852,16.0849543 C66.1430852,16.1728971 66.0710852,16.2448971 65.9831423,16.2448971" id="Fill-25" fill="#FFFFFF"></path>
                <path d="M81.4323366,22.2043886 L81.4323366,15.1998171 C81.4323366,15.1998171 81.3155938,14.6675314 82.0643938,14.8840457 C82.8137081,15.10056 83.3789081,15.44976 83.7615366,15.44976 L86.3735938,15.44976 C86.3735938,15.44976 86.8565081,14.3512457 87.1887366,14.4679886 C87.5219938,14.5847314 88.3371366,14.8007314 89.0694795,15.3664457 C89.8007938,15.93216 89.7010223,15.9486171 89.5349081,16.1651314 C89.3687938,16.3811314 89.2021652,16.4978743 89.2021652,16.4978743 L89.2021652,21.9719314 C89.2021652,21.9719314 89.3353652,22.4538171 88.8195366,22.7706171 C88.3037081,23.0863886 86.9321081,23.1697029 86.9321081,22.62096 L86.9321081,21.3059314 L83.6118795,21.3059314 L83.9111938,20.9068457 L86.5402223,20.9068457 C86.5402223,20.9068457 86.9321081,20.7571886 86.9321081,20.4907886 L86.9321081,18.85176 C86.9321081,18.85176 86.8148509,18.4110171 86.5402223,18.4110171 L83.6823366,18.4110171 L83.9111938,18.1117029 L86.3998223,18.1117029 C86.3998223,18.1117029 86.9321081,18.1687886 86.9321081,17.6118171 L86.9321081,16.1317029 C86.9321081,16.1317029 86.7983938,15.7238743 86.4738795,15.7238743 L83.9862795,15.7238743 C83.9862795,15.7238743 83.4539938,15.6410743 83.4539938,16.41456 L83.4539938,22.1462743 C83.4539938,22.1462743 83.4869081,22.46256 83.2292509,22.5870171 C82.9710795,22.7119886 82.3724509,22.8616457 81.9980509,22.8616457 C81.6236509,22.8616457 81.4323366,22.6955314 81.4323366,22.2043886" id="Fill-27" fill="#FFFFFF"></path>
                <g id="Group-31" transform="translate(105.323377, 6.237360)">
                    <mask id="mask-2" fill="white">
                        <use xlink:href="#path-1"></use>
                    </mask>
                    <g id="Clip-30"></g>
                    <path d="M0.287434286,1.52028 C0.287434286,1.52028 0.553834286,1.27599429 0.797605714,0.854794286 C1.04137714,0.43308 1.20800571,0.0283371429 1.60709143,0.219651429 C2.00669143,0.410965714 2.67217714,0.83268 3.03834857,1.20965143 C3.40452,1.58662286 3.57063429,1.71982286 3.03834857,1.77536571 C2.50554857,1.83090857 1.74029143,1.81445143 1.74029143,1.81445143 L0.287434286,1.52028 Z" id="Fill-29" fill="#FFFFFF" mask="url(#mask-2)"></path>
                </g>
                <path d="M88.4515138,13.1704457 C88.4515138,13.1704457 88.6957995,13.0043314 88.9616852,12.64896 C89.2280852,12.2941029 89.6564852,11.6173029 90.3687709,12.37176 C91.0800281,13.1262171 91.1911138,13.4311886 90.9802566,13.4311886 L90.2149995,13.4311886 L88.4515138,13.1704457 Z" id="Fill-32" fill="#FFFFFF"></path>
                <path d="M97.5695423,8.30458286 C97.4553709,9.24881143 96.4365709,9.95492571 95.2933138,9.88189714 C94.1505709,9.80886857 93.3158852,8.98395429 93.4300566,8.03972571 C93.5442281,7.09549714 94.5630281,6.38886857 95.7062852,6.46189714 C96.8500566,6.53544 97.6842281,7.36035429 97.5695423,8.30458286" id="Fill-34" fill="#FFFFFF"></path>
                <path d="M96.7890623,9.06397714 C96.7890623,9.06397714 96.4568338,9.56180571 96.7669481,10.5749486 C96.8353481,10.7986629 96.6100909,10.0467771 94.8239766,9.05574857" id="Fill-36" fill="#FFFFFF"></path>
                <path d="M90.0023938,9.93708 L80.3348509,9.93708 C80.2474223,9.93708 80.1769652,9.86610857 80.1769652,9.77919429 C80.1769652,9.69176571 80.2474223,9.62079429 80.3348509,9.62079429 L90.0023938,9.62079429 L90.0023938,9.93708 Z" id="Fill-38" fill="#FFFFFF"></path>
                <path d="M90.3705709,13.4311371 L80.3347995,13.4311371 C80.2473709,13.4311371 80.1769138,13.3601657 80.1769138,13.2732514 C80.1769138,13.1858229 80.2473709,13.1148514 80.3347995,13.1148514 L90.3705709,13.1148514 L90.3705709,13.4311371 Z" id="Fill-40" fill="#FFFFFF"></path>
                <path d="M96.7890623,12.5491886 L92.6536909,12.5491886 C92.5662623,12.5491886 92.4952909,12.4782171 92.4952909,12.3913029 C92.4952909,12.3038743 92.5662623,12.2329029 92.6536909,12.2329029 L96.7890623,12.2329029 L96.7890623,12.5491886 Z" id="Fill-42" fill="#FFFFFF"></path>
                <path d="M107.296794,8.05196571 L98.6331366,8.05196571 C98.5328509,8.05196571 98.4521081,7.97070857 98.4521081,7.87093714 C98.4521081,7.77065143 98.5328509,7.68939429 98.6331366,7.68939429 L107.296794,7.68939429 L107.296794,8.05196571 Z" id="Fill-44" fill="#FFFFFF"></path>
                <path d="M74.4643823,7.57712571 C74.4643823,7.57712571 78.0582109,7.18472571 79.2559823,11.8024971 C80.4537538,16.4202686 79.5223823,20.6836971 79.5223823,20.6836971 C79.5223823,20.6836971 79.3670681,21.3558686 78.9787823,21.8002114 C78.5904966,22.2435257 78.1471823,22.39164 77.4369538,22.5505543 C76.7272395,22.7094686 76.3173538,22.7428971 76.2170681,22.13244 C76.1172966,21.5230114 76.0062109,21.1861543 74.7307823,20.6836971 C74.7307823,20.6836971 75.1746109,20.7315257 75.7290109,20.6836971 C76.2834109,20.6353543 77.1931823,20.5134686 77.5151252,19.8366686 C77.8365538,19.1603829 77.9363252,16.0319829 77.7702109,15.3556971 C77.7702109,15.3556971 76.2504966,17.6293543 74.2092966,18.3503829 C74.2092966,18.3503829 77.5151252,13.9691829 77.6256966,12.2607257 C77.6256966,12.2607257 77.6035823,9.32672571 74.4643823,7.57712571" id="Fill-46" fill="#FFFFFF"></path>
                <path d="M74.2092452,12.7505829 C74.2092452,12.7505829 77.3818738,11.50704 79.0677023,9.66538286 C79.0677023,9.66538286 80.0659309,8.77824 80.2433595,8.53395429 C80.4207881,8.29018286 81.3305595,8.29018286 81.3305595,8.02378286 C81.3305595,7.75789714 80.5539881,6.69281143 78.8902738,6.38218286 C78.8902738,6.38218286 78.0694738,9.40258286 74.2092452,12.7505829" id="Fill-48" fill="#FFFFFF"></path>
                <path d="M88.0853938,9.67669714 C88.0853938,9.67669714 88.3296795,9.51006857 88.5955652,9.15521143 C88.8619652,8.80035429 89.2903652,8.12355429 90.0026509,8.87801143 C90.7139081,9.63246857 90.8249938,9.93692571 90.6141366,9.93692571 L89.8493938,9.93692571 L88.0853938,9.67669714 Z" id="Fill-50" fill="#FFFFFF"></path>
                <path d="M82.4006338,6.60404571 L82.4006338,13.2095314 L84.3472052,13.2095314 L84.3472052,7.41918857 C84.3472052,7.41918857 84.8794909,7.05353143 84.5138338,6.80358857 C84.1476623,6.55416 83.8653195,6.50427429 83.6488052,6.48781714 C83.4322909,6.47084571 82.8172052,6.48781714 82.8172052,6.48781714 C82.8172052,6.48781714 82.4006338,6.49604571 82.4006338,6.60404571" id="Fill-52" fill="#FFFFFF"></path>
                <path d="M85.9503881,6.60404571 L85.9503881,13.2095314 L87.8969595,13.2095314 L87.8969595,7.41918857 C87.8969595,7.41918857 88.4292452,7.05353143 88.0630738,6.80358857 C87.6969023,6.55416 87.4145595,6.50427429 87.1980452,6.48781714 C86.9815309,6.47084571 86.3664452,6.48781714 86.3664452,6.48781714 C86.3664452,6.48781714 85.9503881,6.49604571 85.9503881,6.60404571" id="Fill-54" fill="#FFFFFF"></path>
                <path d="M102.050462,8.68952571 L102.050462,21.2787257 C102.050462,21.2787257 101.902348,22.4713543 102.791548,22.3525543 C103.681777,22.2327257 104.250062,21.7559829 104.250062,21.0395829 L104.250062,7.69181143 C104.250062,7.69181143 102.544691,7.71598286 102.273148,7.91501143 C102.000577,8.11352571 102.050462,7.72061143 102.050462,8.68952571" id="Fill-56" fill="#FFFFFF"></path>
                <g id="Clip-59" transform="translate(0.409091, 0.000000)">
                    <mask id="mask-4" fill="white">
                        <use xlink:href="#path-3"></use>
                    </mask>
                    <g></g>
                </g>
                <polygon id="Fill-58" fill="#FFFFFF" points="94.8237195 19.0060457 96.8813766 19.0060457 96.8813766 12.3913029 94.8237195 12.3913029"></polygon>
                <path d="M94.6425366,12.2330571 C94.6425366,12.2330571 95.1614509,10.9298571 95.4998509,11.0851714 C95.8387652,11.2404857 96.8817366,11.5989429 97.3471652,12.0294 C97.8131081,12.4603714 97.8131081,12.483 97.3471652,12.9263143 C96.8817366,13.3701429 96.3931652,13.6586571 96.3931652,13.6586571 L94.6425366,12.2330571 Z" id="Fill-60" fill="#FFFFFF"></path>
                <path d="M99.1219652,17.4075429 C99.1219652,17.4075429 97.1249938,18.2952 96.3263081,18.5832 C95.5281366,18.8717143 94.2861366,18.9606857 94.2635081,19.3597714 C94.2413938,19.7588571 94.2671081,20.2098857 94.6425366,20.6835429 C95.0179652,21.1566857 95.6222509,21.7779429 95.8526509,21.6226286 C96.0825366,21.4673143 97.7241366,19.4708571 98.0795081,18.8717143 C98.4338509,18.2730857 99.1219652,17.4075429 99.1219652,17.4075429" id="Fill-61" fill="#FFFFFF"></path>
                <path d="M107.812057,15.4624114 L98.0452566,15.4624114 C97.9321138,15.4624114 97.8405709,15.3708686 97.8405709,15.25824 C97.8405709,15.1450971 97.9321138,15.0535543 98.0452566,15.0535543 L107.812057,15.0535543 L107.812057,15.4624114 Z" id="Fill-62" fill="#FFFFFF"></path>
                <path d="M98.4519538,9.77914286 C98.4519538,9.77914286 100.086868,10.3309714 100.885039,11.3626286 C101.683725,12.3937714 101.517611,13.7581714 100.419611,13.9577143 C99.3210966,14.1577714 98.7224681,13.2531429 99.1220681,12.3912 C99.5211538,11.5287429 100.114639,10.4945143 98.4519538,9.77914286" id="Fill-63" fill="#FFFFFF"></path>
                <path d="M105.843319,9.23646857 C105.843319,9.23646857 109.480862,9.69881143 108.144748,10.83024 C106.808634,11.9616686 104.778748,14.6986971 104.778748,14.6986971 C104.778748,14.6986971 105.677205,11.3959543 105.610862,10.3308686 C105.544005,9.26629714 105.843319,9.23646857 105.843319,9.23646857" id="Fill-64" fill="#FFFFFF"></path>
                <path d="M76.1674395,24.3945771 C76.1674395,24.3945771 77.5570395,23.5830343 77.5570395,23.9502343 L77.5570395,28.3736057 C77.5570395,28.3736057 77.5200109,28.6646914 77.9257823,28.7418343 C77.9257823,28.7418343 78.1767538,28.9871486 77.9257823,28.9871486 L76.1674395,28.9871486 C76.1674395,28.9871486 76.1478966,28.7418343 76.2636109,28.7418343 C76.3798395,28.7418343 76.6308109,28.7202343 76.6308109,28.3736057 L76.6308109,24.8111486 C76.6308109,24.8111486 76.5922395,24.4712057 76.1674395,24.3945771" id="Fill-65" fill="#FFFFFF"></path>
                <path d="M75.2217195,28.4205086 C75.2217195,28.7331943 74.9681766,28.9872514 74.6549766,28.9872514 C74.3422909,28.9872514 74.0882338,28.7331943 74.0882338,28.4205086 C74.0882338,28.1073086 74.3422909,27.8532514 74.6549766,27.8532514 C74.9681766,27.8532514 75.2217195,28.1073086 75.2217195,28.4205086" id="Fill-66" fill="#FFFFFF"></path>
                <path d="M92.2780052,28.4205086 C92.2780052,28.7331943 92.0244623,28.9872514 91.7107481,28.9872514 C91.3980623,28.9872514 91.1445195,28.7331943 91.1445195,28.4205086 C91.1445195,28.1073086 91.3980623,27.8532514 91.7107481,27.8532514 C92.0244623,27.8532514 92.2780052,28.1073086 92.2780052,28.4205086" id="Fill-67" fill="#FFFFFF"></path>
                <path d="M87.5138681,26.2493486 C87.5138681,26.2493486 88.9039823,25.4378057 88.9039823,25.8050057 L88.9039823,28.3738629 C88.9039823,28.3738629 88.8669538,28.6644343 89.2727252,28.7420914 C89.2727252,28.7420914 89.5236966,28.9868914 89.2727252,28.9868914 L87.5138681,28.9868914 C87.5138681,28.9868914 87.4948395,28.7420914 87.6105538,28.7420914 C87.7267823,28.7420914 87.9777538,28.7204914 87.9777538,28.3738629 L87.9777538,26.6664343 C87.9777538,26.6664343 87.9391823,26.3264914 87.5138681,26.2493486" id="Fill-68" fill="#FFFFFF"></path>
                <path d="M101.619542,26.2493486 C101.619542,26.2493486 103.009657,25.4378057 103.009657,25.8050057 L103.009657,28.3738629 C103.009657,28.3738629 102.972114,28.6644343 103.377885,28.7420914 C103.377885,28.7420914 103.628857,28.9868914 103.377885,28.9868914 L101.619542,28.9868914 C101.619542,28.9868914 101.599999,28.7420914 101.715714,28.7420914 C101.831942,28.7420914 102.082914,28.7204914 102.082914,28.3738629 L102.082914,26.6664343 C102.082914,26.6664343 102.044342,26.3264914 101.619542,26.2493486" id="Fill-69" fill="#FFFFFF"></path>
                <path d="M78.5078509,26.0273314 C78.5078509,26.0273314 79.8979652,25.2157886 79.8979652,25.5829886 L79.8979652,30.00636 C79.8979652,30.00636 79.8604223,30.2974457 80.2661938,30.3745886 C80.2661938,30.3745886 80.5171652,30.6199029 80.2661938,30.6199029 L78.5078509,30.6199029 C78.5078509,30.6199029 78.4888223,30.3745886 78.6040223,30.3745886 C78.7202509,30.3745886 78.9712223,30.3529886 78.9712223,30.00636 L78.9712223,26.4439029 C78.9712223,26.4439029 78.9326509,26.10396 78.5078509,26.0273314" id="Fill-70" fill="#FFFFFF"></path>
                <path d="M83.0108338,24.3945771 C83.0108338,24.3945771 84.4009481,23.5830343 84.4009481,23.9502343 L84.4009481,28.3736057 C84.4009481,28.3736057 84.3634052,28.6646914 84.7691766,28.7418343 C84.7691766,28.7418343 85.0201481,28.9871486 84.7691766,28.9871486 L83.0108338,28.9871486 C83.0108338,28.9871486 82.9918052,28.7418343 83.1075195,28.7418343 C83.2232338,28.7418343 83.4747195,28.7202343 83.4747195,28.3736057 L83.4747195,24.8111486 C83.4747195,24.8111486 83.4361481,24.4712057 83.0108338,24.3945771" id="Fill-71" fill="#FFFFFF"></path>
                <path d="M79.8543023,26.5391486 C79.8543023,26.5391486 80.3181881,26.0562343 80.7239595,25.9497771 C81.1297309,25.84332 81.7000738,25.9112057 82.0477309,26.3750914 C82.3953881,26.8384629 82.4015595,27.2411486 82.2920166,27.6983486 C82.1824738,28.1560629 81.9068166,28.5716057 81.3709309,28.8899486 C80.8216738,29.2170343 79.8892738,28.8719486 79.5544738,28.7948057 C79.5544738,28.7948057 79.5030452,28.3334914 79.5544738,28.3720629 C79.6064166,28.4111486 80.4863595,28.8976629 80.8216738,28.7948057 C81.1564738,28.6919486 81.4357309,28.53612 81.4161881,27.5178343 C81.3971595,26.5005771 80.7460738,26.45532 80.6241881,26.45532 C80.5017881,26.45532 79.9957309,26.6486914 79.8980166,26.8420629 C79.7997881,27.0354343 79.8543023,26.5391486 79.8543023,26.5391486" id="Fill-72" fill="#FFFFFF"></path>
                <path d="M84.3297195,26.5004743 C84.3297195,26.5004743 85.0348052,25.9393886 85.6046338,25.8869314 C86.1749766,25.83396 86.4259481,26.01756 86.5324052,26.5776171 C86.6388623,27.1381886 86.5709766,28.3740171 86.5709766,28.3740171 C86.5709766,28.3740171 86.5421766,28.6352743 86.7165195,28.70316 C86.8903481,28.7710457 86.9479481,28.7808171 86.9674909,28.8481886 C86.9865195,28.91556 86.9674909,28.9870457 86.9674909,28.9870457 L85.2574909,28.9870457 C85.2574909,28.9870457 85.2189195,28.7900743 85.3248623,28.7417314 C85.4313195,28.6939029 85.6426909,28.65996 85.6524623,28.0340743 C85.6632623,27.4087029 85.6915481,26.8980171 85.5470338,26.66556 C85.4020052,26.4325886 85.2348623,26.3364171 84.8594338,26.5004743 C84.4845195,26.6645314 84.3297195,26.7997886 84.3297195,26.7997886 L84.3297195,26.5004743 Z" id="Fill-73" fill="#FFFFFF"></path>
                <path d="M102.945937,26.6199943 C102.945937,26.6199943 103.985308,25.8588514 104.555137,25.8053657 C105.124965,25.7523943 105.298279,26.0172514 105.404737,26.5778229 C105.510679,27.1383943 105.443308,28.3737086 105.443308,28.3737086 C105.443308,28.3737086 105.414508,28.63548 105.588337,28.7033657 C105.762679,28.7712514 105.820279,28.7805086 105.839822,28.8483943 C105.858851,28.9157657 105.839822,28.9872514 105.839822,28.9872514 L104.129822,28.9872514 C104.129822,28.9872514 104.091251,28.79028 104.197194,28.7419371 C104.303651,28.6935943 104.515022,28.6601657 104.524794,28.03428 C104.535594,27.4083943 104.563879,26.8982229 104.419365,26.6657657 C104.274337,26.4327943 104.107194,26.3361086 103.731765,26.50068 C103.356851,26.6647371 103.009708,26.8781657 103.009708,26.8781657 L102.945937,26.6199943 Z" id="Fill-74" fill="#FFFFFF"></path>
                <path d="M105.369714,26.6199943 C105.369714,26.6199943 106.409085,25.8588514 106.978914,25.8053657 C107.548742,25.7523943 107.722057,26.0172514 107.828514,26.5778229 C107.934457,27.1383943 107.867085,28.3737086 107.867085,28.3737086 C107.867085,28.3737086 107.838285,28.63548 108.012114,28.7033657 C108.186457,28.7712514 108.244057,28.7805086 108.263085,28.8483943 C108.282628,28.9157657 108.263085,28.9872514 108.263085,28.9872514 L106.553599,28.9872514 C106.553599,28.9872514 106.515028,28.79028 106.620971,28.7419371 C106.727428,28.6935943 106.938799,28.6601657 106.948571,28.03428 C106.958857,27.4083943 106.987657,26.8982229 106.843142,26.6657657 C106.698114,26.4327943 106.530971,26.3361086 106.155542,26.50068 C105.780628,26.6647371 105.433485,26.8781657 105.433485,26.8781657 L105.369714,26.6199943 Z" id="Fill-75" fill="#FFFFFF"></path>
                <path d="M88.7709366,26.6134629 C88.7709366,26.6134629 89.0095652,25.8579771 89.6184795,25.8780343 C90.2279081,25.8980914 90.2808795,26.0631771 90.2808795,26.2452343 C90.2808795,26.42832 90.1744223,26.9045486 89.8833366,26.8253486 C89.5922509,26.7461486 89.1962509,26.42832 88.9041366,26.9580343 C88.6120223,27.4872343 88.7709366,26.6134629 88.7709366,26.6134629" id="Fill-76" fill="#FFFFFF"></path>
                <path d="M96.3204966,28.1367257 C96.3204966,28.1367257 95.3670109,29.3283257 94.6120395,28.2025543 C93.8570681,27.0767829 94.6248966,26.1366686 95.0090681,26.1762686 C95.3932395,26.2163829 95.5387823,26.9975829 96.1749538,26.7985543 C96.8100966,26.6005543 96.4660395,25.6995257 95.4194681,25.7987829 C94.3734109,25.89804 93.3669538,26.4143829 93.4065538,27.6733543 C93.4461538,28.9312971 94.9694681,29.2357543 95.5917538,28.91844 C96.2145538,28.6000971 96.3204966,28.1367257 96.3204966,28.1367257" id="Fill-77" fill="#FFFFFF"></path>
                <path d="M99.4027138,28.7278457 C98.9280281,28.83636 98.4101423,28.3411029 98.2465995,27.6216171 C98.0830566,26.9021314 98.3345423,26.2315029 98.8097423,26.1235029 C99.2844281,26.0155029 99.8017995,26.5102457 99.9658566,27.2297314 C100.129399,27.9487029 99.8779138,28.6198457 99.4027138,28.7278457 M100.969742,27.30636 C100.913685,26.4274457 100.033742,25.7681314 99.0046566,25.83396 C97.9750566,25.8997886 97.1861423,26.66556 97.2427138,27.5449886 C97.2987709,28.4239029 98.1787138,29.0832171 99.2077995,29.0173886 C100.236885,28.9520743 101.025799,28.1857886 100.969742,27.30636" id="Fill-78" fill="#FFFFFF"></path>
                <path d="M55.3418509,25.8982971 C55.3418509,25.8982971 55.8983081,26.5396114 56.8517938,28.9870971 L57.2755652,28.9870971 L58.1760795,27.0502971 L59.0236223,28.9870971 L59.4211652,28.9870971 C59.4211652,28.9870971 60.7454509,25.8982971 60.9573366,25.8982971 L59.9508795,25.8982971 C59.9508795,25.8982971 60.2419652,26.1893829 59.9904795,26.8116686 C59.7389938,27.4344686 59.5137366,27.9646971 59.5137366,27.9646971 L58.9176795,26.4943543 C58.9176795,26.4943543 58.7325366,25.8982971 58.9840223,25.8982971 L57.5666509,25.8982971 C57.5666509,25.8982971 57.6566509,25.8977829 57.9775652,26.6136686 L57.3948795,27.9646971 L56.7592223,26.4280114 C56.7592223,26.4280114 56.5869366,25.8982971 56.8651652,25.8982971 L55.3418509,25.8982971 Z" id="Fill-79" fill="#FFFFFF"></path>
                <path d="M61.4721366,25.8982971 C61.4721366,25.8982971 62.0285938,26.5396114 62.9820795,28.9870971 L63.4058509,28.9870971 L64.3068795,27.0502971 L65.1539081,28.9870971 L65.5519652,28.9870971 C65.5519652,28.9870971 66.8762509,25.8982971 67.0881366,25.8982971 L66.0811652,25.8982971 C66.0811652,25.8982971 66.3727652,26.1893829 66.1207652,26.8116686 C65.8692795,27.4344686 65.6440223,27.9646971 65.6440223,27.9646971 L65.0479652,26.4943543 C65.0479652,26.4943543 64.8628223,25.8982971 65.1143081,25.8982971 L63.6974509,25.8982971 C63.6974509,25.8982971 63.7874509,25.8977829 64.1078509,26.6136686 L63.5251652,27.9646971 L62.8895081,26.4280114 C62.8895081,26.4280114 62.7172223,25.8982971 62.9954509,25.8982971 L61.4721366,25.8982971 Z" id="Fill-80" fill="#FFFFFF"></path>
                <path d="M67.6023709,25.8982971 C67.6023709,25.8982971 68.1588281,26.5396114 69.1128281,28.9870971 L69.5365995,28.9870971 L70.4371138,27.0502971 L71.2846566,28.9870971 L71.6821995,28.9870971 C71.6821995,28.9870971 73.0064852,25.8982971 73.2183709,25.8982971 L72.2119138,25.8982971 C72.2119138,25.8982971 72.5029995,26.1893829 72.2515138,26.8116686 C72.0000281,27.4344686 71.7742566,27.9646971 71.7742566,27.9646971 L71.1787138,26.4943543 C71.1787138,26.4943543 70.9930566,25.8982971 71.2445423,25.8982971 L69.8276852,25.8982971 C69.8276852,25.8982971 69.9176852,25.8977829 70.2380852,26.6136686 L69.6553995,27.9646971 L69.0197423,26.4280114 C69.0197423,26.4280114 68.8474566,25.8982971 69.1256852,25.8982971 L67.6023709,25.8982971 Z" id="Fill-81" fill="#FFFFFF"></path>
                <path d="M6.51822124,23.2922916 C3.28745319,21.1792245 1.02303167,18.0223631 0.515188052,14.3572629 C-0.478411948,7.18863429 5.62204519,0.791434286 14.1401595,0.06732 C22.4605855,-0.640534143 30.0105327,4.32714594 31.2818039,11.2392639 C27.4594819,12.8683617 24.6471122,16.1132774 24.1893538,20.0008286 C24.025827,21.3892286 24.1774083,22.7355361 24.5940887,23.9881491 C22.6065871,25.0852444 20.2792671,25.8071415 17.7365595,26.02332 C15.4090185,26.2213219 13.1418012,25.9752088 11.055463,25.3666834 C6.97187915,30.0282637 6.64983215,32.4158425 6.81986805,31.2125657 C7.31218686,27.7281001 7.0119603,25.1219455 6.51822124,23.2922916 Z M5.36222805,13.6397829 C5.24342805,17.2150971 9.17359948,22.2473829 17.6397709,19.9217829 C22.5733138,18.5676686 26.2000566,12.3617829 26.2000566,12.3617829 C15.2529709,21.8333829 5.36222805,13.6397829 5.36222805,13.6397829 Z" id="Combined-Shape" fill="#FFFFFF"></path>
                <path d="M44.2679279,29.3840635 C44.1354844,30.8425186 44.2473068,32.8170527 45.0108795,35.3146114 C45.3028453,36.2710385 44.6972127,34.2446729 40.4209995,30.8437353 C39.0753896,31.1430404 37.650771,31.2617454 36.1924223,31.16844 C29.3519081,30.7302686 24.3602509,25.7951829 25.0432223,20.1447257 C25.7261938,14.4947829 31.8245938,10.2673543 38.6651081,10.7050114 C45.5056223,11.1426686 50.4972795,16.0782686 49.8148223,21.72924 C49.4267058,24.9375532 47.292538,27.6870076 44.2679279,29.3840635 Z M32.0435766,21.5263543 C32.0163195,24.6187543 34.9513481,28.6872686 41.0548909,26.0849829 C44.6111766,24.5693829 47.1394052,18.95904 47.1394052,18.95904 C39.3546623,27.9019543 32.0435766,21.5263543 32.0435766,21.5263543 Z" id="Combined-Shape" fill="#FFFFFF"></path>
            </g>
        </g>
    </g>
</svg>