<?xml version="1.0" encoding="UTF-8"?>
<svg width="24px" height="24px" viewBox="0 0 24 24" version="1.1" xmlns="http://www.w3.org/2000/svg" xmlns:xlink="http://www.w3.org/1999/xlink">
    <!-- Generator: Sketch 52.2 (67145) - http://www.bohemiancoding.com/sketch -->
    <title>ic_personnel_process</title>
    <desc>Created with Sketch.</desc>
    <defs>
        <linearGradient x1="50%" y1="0%" x2="50%" y2="100%" id="linearGradient-1">
            <stop stop-color="#FD902D" offset="0%"></stop>
            <stop stop-color="#F95714" offset="100%"></stop>
        </linearGradient>
    </defs>
    <g id="Symbols" stroke="none" stroke-width="1" fill="none" fill-rule="evenodd">
        <g id="ic_personnel_process" fill="url(#linearGradient-1)">
            <g id="Combined-Shape">
                <path d="M10.2413531,23.695107 C5.91055493,23.695107 1.00001033,23.2405437 1.00001033,21.1716141 L1.00001033,19.7052573 C1.00001033,17.7728723 3.94408545,16.0337362 7.16093991,15.3744592 C7.69513709,15.112938 7.99063944,14.5446563 7.92247042,13.9536516 C7.29727793,13.2033793 6.86533427,12.316769 6.66072394,11.3619897 C6.4334939,11.2596329 6.24024507,11.1231915 6.05825446,10.9414075 C5.6263108,10.2933887 5.42180376,9.53185822 5.45578498,8.75886291 C5.54678028,7.97460939 5.72866761,8.24738873 5.77411362,8.12230892 C5.19447042,6.42861878 5.38771925,4.5645061 6.28569108,3.01851549 C7.93383192,0.0744403756 11.4803765,0.949689202 12.0259352,2.05227136 C15.4360385,1.41571737 15.2997005,6.70150141 14.833569,8.11094742 C14.833569,8.11094742 15.1518977,8.11094742 15.0723671,9.4409662 C14.9814751,10.2820272 14.5722545,11.0550225 13.924339,11.6005812 C13.6970056,12.4645718 13.287785,13.2715484 12.7307615,13.9649099 C12.605785,14.1695202 12.5602357,14.4195765 12.5943202,14.6583746 C11.9236817,15.7154075 11.5712685,16.9431728 11.5827333,18.204816 C11.5827333,20.2736423 12.5375127,22.2288535 14.1743953,23.4906 C12.9240103,23.5813887 11.5827333,23.71783 10.21863,23.71783 L10.2413531,23.695107 Z M21.4946732,20.4669014 L19.9828704,21.4330423 L17.6867108,18.7733146 L19.4827577,18.9550986 C19.5054808,18.7277653 19.5054808,18.4890704 19.4827577,18.2616338 C19.4827577,16.3861596 17.7549831,14.794723 16.129462,14.2605258 C18.3232648,13.7148638 21.4605887,15.0448826 21.6424761,17.8070704 C21.6879221,18.3299061 21.6538376,18.8527418 21.5514808,19.375784 L22.9269455,19.5574648 L21.4946732,20.4669014 Z M13.3218282,18.8754648 C13.3218282,18.3526291 13.3672742,17.8296901 13.4582695,17.3068545 L12.0714432,17.0795211 L15.1064103,15.2493897 L16.2089925,16.6248545 L17.3115746,18.0003192 L15.515631,17.7616244 C15.4700817,17.9889577 15.4588235,18.2275493 15.4588235,18.4549859 C15.4588235,20.3419249 17.0729831,21.9217934 18.7212272,22.5356244 C16.5273211,23.0472019 13.4468047,21.6376526 13.3218282,18.8754648 Z"></path>
            </g>
        </g>
    </g>
</svg>