<?xml version="1.0" encoding="UTF-8"?>
<svg width="44px" height="44px" viewBox="0 0 44 44" version="1.1" xmlns="http://www.w3.org/2000/svg" xmlns:xlink="http://www.w3.org/1999/xlink">
    <!-- Generator: Sketch 49 (51002) - http://www.bohemiancoding.com/sketch -->
    <title>ic_rapid</title>
    <desc>Created with Sketch.</desc>
    <defs>
        <polygon id="path-1" points="0 0.0328483539 30.5567044 0.0328483539 30.5567044 41.9933669 0 41.9933669"></polygon>
    </defs>
    <g id="Symbols" stroke="none" stroke-width="1" fill="none" fill-rule="evenodd">
        <g id="ic_rapid">
            <g id="Page-1">
                <g transform="translate(6.416667, 0.916667)">
                    <mask id="mask-2" fill="white">
                        <use xlink:href="#path-1"></use>
                    </mask>
                    <g id="Clip-2"></g>
                    <path d="M9.29254424,31.5860088 L9.29254424,31.5922558 C9.87506893,31.4688792 10.4820607,31.5953792 10.9672377,31.93948 C11.639822,32.2476611 12.0953261,32.8931755 12.159357,33.6303113 C12.1905916,34.3081014 11.8954249,35.5189615 10.3113117,37.4013648 C8.8026821,39.1088545 7.11393313,40.6487187 5.27525823,41.9933669 C5.50170885,39.5232331 6.02644959,37.0895397 6.83802778,34.7453854 C7.54028498,32.9228484 8.38882407,31.8317208 9.29254424,31.5860088 M21.1189928,18.0963195 C19.9914249,18.4201179 18.7800442,18.0291652 18.0538405,17.1077455 C17.3271163,16.1868463 17.2302891,14.9176817 17.807608,13.8968319 C18.384927,12.8759821 19.5229064,12.3054307 20.6869146,12.4532743 C21.8504023,12.6011179 22.8087829,13.4382043 23.1127994,14.570978 C23.3163447,15.3034286 23.2205586,16.0863751 22.846785,16.7469862 C22.4724907,17.4086385 21.8509228,17.8938154 21.1189928,18.0963195 M24.9384599,14.0795541 C24.2190237,11.5823504 21.6192665,10.133587 19.1173776,10.8368854 C16.6149681,11.5396632 15.1495463,14.1305706 15.8361862,16.6366241 C16.5233467,19.1437187 19.1043632,20.6252784 21.6151019,19.9547763 C22.8358529,19.6179636 23.8717994,18.8089883 24.4954496,17.706408 C25.1190998,16.6043484 25.2783961,15.299264 24.9384599,14.0795541 M30.2847767,14.379406 C29.8230257,17.6350891 28.6621409,20.7517784 26.8817706,23.5160377 C26.5621368,24.0074615 26.2222006,24.4817064 25.8624825,24.9429368 C26.1680607,26.7535006 25.9744064,28.612478 25.3023426,30.3204883 C24.6011265,32.1758216 23.6479516,33.9244368 22.4693673,35.5189615 C21.0955669,37.4206261 19.5416471,39.1853792 17.8289516,40.7887537 C17.7206718,40.886622 17.5900072,40.9568998 17.4484105,40.992299 C17.1532438,41.0719471 16.8382953,41.0027105 16.6035154,40.8064533 C16.2437973,40.5045191 16.1485319,39.9886282 16.378106,39.5778936 C16.8466245,38.6684471 17.2032191,37.7064224 17.4411224,36.712122 C17.9408755,34.7651673 18.0038652,32.7323175 17.6254064,30.7582928 C15.9876739,30.5729677 13.7668961,29.3621076 12.7564578,28.7618833 C11.7460195,28.1627002 9.60853395,26.8133669 8.62776852,25.4583072 C6.75994136,26.1157949 5.06546605,27.1881817 3.67136317,28.5942578 C2.94307716,29.3084883 2.30380967,30.1075726 1.76605453,30.9743319 C1.64059568,31.1914121 1.43496811,31.3507084 1.19342078,31.4183833 C1.00080761,31.4688792 0.79674177,31.4563854 0.611937243,31.381943 C0.176215021,31.2091117 -0.0731409465,30.7504842 0.0190010288,30.291336 C0.517712963,27.9825809 1.23766975,25.7279656 2.16898045,23.5582043 C2.92641872,21.7278586 3.93321296,20.0115191 5.16073148,18.4560377 C6.26279115,17.0156035 7.74747428,15.9130233 9.44455247,15.2727146 C9.65798868,14.7271508 9.89276852,14.1873134 10.148892,13.6599698 C11.5888056,10.7228792 13.6534105,8.13613642 16.1990278,6.081943 C19.7113549,3.32861584 23.7671636,1.35042654 28.0988776,0.278039712 L29.0119681,0.0328483539 L29.2602829,0.962076749 C30.515392,5.31721667 30.864178,9.88423107 30.2847767,14.379406" id="Fill-1" fill="#F95714" mask="url(#mask-2)"></path>
                </g>
            </g>
        </g>
    </g>
</svg>