<?xml version="1.0" encoding="UTF-8"?>
<svg width="5px" height="8px" viewBox="0 0 5 8" version="1.1" xmlns="http://www.w3.org/2000/svg" xmlns:xlink="http://www.w3.org/1999/xlink">
    <!-- Generator: Sketch 49 (51002) - http://www.bohemiancoding.com/sketch -->
    <title>Page 1</title>
    <desc>Created with Sketch.</desc>
    <defs></defs>
    <g id="Symbols" stroke="none" stroke-width="1" fill="none" fill-rule="evenodd">
        <g id="页面-1" fill="#748093">
            <path d="M4.59333652,4.21991789 C4.59788028,4.21066809 4.60696779,4.20158058 4.61151155,4.19249306 C4.70303582,4.00051929 4.67106724,3.76732713 4.51106204,3.61657173 L0.840679232,0.142706457 C0.63961794,-0.044723561 0.323989035,-0.035636045 0.136721294,0.160881489 C-0.0507087238,0.362105058 -0.0461649658,0.677409409 0.154896326,0.864839427 L3.45058138,3.98218198 L0.168689877,7.14528666 C-0.0279899337,7.33726044 -0.0369151727,7.65256479 0.154896326,7.8492446 C0.250964353,7.94969411 0.383544721,8 0.516125088,8 C0.63961794,8 0.767492273,7.95440014 0.863560299,7.85833212 L4.50197453,4.35233598 C4.51106204,4.34341074 4.51106204,4.33416095 4.52031184,4.32961719 C4.52469332,4.32491115 4.52923708,4.32052967 4.53848687,4.31598591 C4.56136794,4.28856109 4.57516149,4.25659251 4.59333652,4.21991789 Z" id="Page-1"></path>
        </g>
    </g>
</svg>