<?xml version="1.0" encoding="UTF-8"?>
<svg width="60px" height="60px" viewBox="0 0 60 60" version="1.1" xmlns="http://www.w3.org/2000/svg" xmlns:xlink="http://www.w3.org/1999/xlink">
    <!-- Generator: Sketch 49 (51002) - http://www.bohemiancoding.com/sketch -->
    <title>ic_unpromising</title>
    <desc>Created with Sketch.</desc>
    <defs>
        <circle id="path-1" cx="30" cy="30" r="27.2727273"></circle>
        <path d="M30,60 C46.5685425,60 60,46.5685425 60,30 C60,13.4314575 46.5685425,0 30,0 C13.4314575,0 0,13.4314575 0,30 C0,46.5685425 13.4314575,60 30,60 Z" id="path-3"></path>
        <mask id="mask-4" maskContentUnits="userSpaceOnUse" maskUnits="objectBoundingBox" x="0" y="0" width="60" height="60" fill="white">
            <use xlink:href="#path-3"></use>
        </mask>
        <mask id="mask-6" maskContentUnits="userSpaceOnUse" maskUnits="objectBoundingBox" x="0" y="0" width="60" height="60" fill="white">
            <use xlink:href="#path-3"></use>
        </mask>
    </defs>
    <g id="Symbols" stroke="none" stroke-width="1" fill="none" fill-rule="evenodd">
        <g id="ic_unpromising">
            <g>
                <mask id="mask-2" fill="white">
                    <use xlink:href="#path-1"></use>
                </mask>
                <use id="Mask" fill="#F95714" xlink:href="#path-1"></use>
                <path d="M21.3136364,55.6690227 L22.6970455,55.6690227 L22.6970455,46.2640227 L21.3136364,46.2640227 L21.3136364,55.6690227 Z M23.4163636,55.6690227 L24.8543182,55.6690227 L24.8543182,49.1958409 L23.4163636,49.1958409 L23.4163636,55.6690227 Z M25.8504545,55.6690227 L27.8420455,55.6690227 L27.8420455,47.0385682 L25.8504545,47.0385682 L25.8504545,55.6690227 Z M18.3259091,55.6690227 L20.3181818,55.6690227 L20.3181818,44.8806136 L18.3259091,44.8806136 L18.3259091,55.6690227 Z M16.2238636,55.6690227 L17.6065909,55.6690227 L17.6065909,49.1958409 L16.2238636,49.1958409 L16.2238636,55.6690227 Z M13.2361364,55.6690227 L15.2277273,55.6690227 L15.2277273,47.0385682 L13.2361364,47.0385682 L13.2361364,55.6690227 Z M8.97613636,57.05175 L32.8220455,57.05175 L32.8220455,41.9481136 L8.97613636,41.9481136 L8.97613636,57.05175 Z M30.24,60.6401591 C30.24,61.1208409 26.3420455,61.5087955 21.4554545,61.5087955 C16.5695455,61.5087955 12.6061364,61.1208409 12.6061364,60.6401591 C12.6061364,60.2972045 14.73,60.0012955 17.6065909,59.8601591 L17.6065909,58.5456136 L6.81818182,58.5456136 L6.81818182,40.5647045 L34.98,40.5647045 L34.98,58.5456136 L24.0804545,58.5456136 L24.0804545,59.8185682 C27.7322727,59.9337955 30.24,60.2569773 30.24,60.6401591 Z M39.9995455,36.9135682 L31.9827273,36.9135682 C28.6943182,36.9135682 25.7127273,37.6322045 23.5295455,39.7901591 L36.3627273,39.7901591 L36.3627273,59.2097045 L30.1118182,59.2097045 C31.6820455,59.98425 31.6820455,60.0837955 31.6820455,60.5419773 C31.6820455,60.7137955 31.6820455,60.9558409 31.5327273,61.1515227 C33.4990909,61.3697045 35.3359091,61.4890227 37.035,61.4890227 C45.9272727,61.4890227 51.0831818,58.9894773 51.4009091,58.8278864 L52.0336364,58.5449318 L52.1863636,58.5449318 L52.1863636,48.6878864 C52.1863636,42.0183409 46.6772727,36.9135682 40.005,36.9135682 L39.9995455,36.9135682 Z M26.5425,26.49675 C26.5425,21.2760682 30.7731818,17.0453864 35.9911364,17.0453864 C41.2097727,17.0453864 45.4431818,21.2760682 45.4431818,26.49675 C45.4431818,31.7147045 41.2097727,35.9453864 35.9911364,35.9453864 C30.7731818,35.9453864 26.5425,31.7147045 26.5425,26.49675 Z" id="Page-1" fill="#FFFFFF" mask="url(#mask-2)"></path>
                <mask id="mask-5" fill="white">
                    <use xlink:href="#path-3"></use>
                </mask>
                <g id="Mask-Copy" stroke="#F95714" mask="url(#mask-4)" stroke-width="2" opacity="0.4" stroke-dasharray="1,1">
                    <use mask="url(#mask-6)" xlink:href="#path-3"></use>
                </g>
            </g>
        </g>
    </g>
</svg>