<?xml version="1.0" encoding="UTF-8"?>
<svg width="60px" height="60px" viewBox="0 0 60 60" version="1.1" xmlns="http://www.w3.org/2000/svg" xmlns:xlink="http://www.w3.org/1999/xlink">
    <!-- Generator: Sketch 49 (51002) - http://www.bohemiancoding.com/sketch -->
    <title>ic_remind</title>
    <desc>Created with Sketch.</desc>
    <defs></defs>
    <g id="Symbols" stroke="none" stroke-width="1" fill="none" fill-rule="evenodd">
        <g id="ic_remind" fill="#F5A623">
            <g id="提醒">
                <path d="M33.8822849,34.2139007 C33.8822849,37.0654558 32.3020934,39.3769025 30.3532133,39.3769025 L29.6471268,39.3769025 C27.6979066,39.3769025 26.1177151,37.0654558 26.1177151,34.2139007 L24.000136,13.5625733 C24.000136,10.7113583 25.5799874,8.40025169 27.5292077,8.40025169 L32.4704522,8.40025169 C34.4200126,8.40025169 36.0002041,10.7113583 36.0002041,13.5625733 L33.8822849,34.2139007 Z M29.9998299,52.8000272 C27.2387463,52.8000272 25.000085,50.4889206 25.000085,47.6373654 C25.000085,44.7858102 27.2387463,42.4740234 29.9998299,42.4740234 C32.7612537,42.4740234 34.999915,44.7858102 34.999915,47.6373654 C34.999915,50.4889206 32.7615938,52.8000272 29.9998299,52.8000272 Z M29.9998299,0 C13.4316276,0 0,13.4316276 0,30.0001701 C0,46.5683724 13.4316276,60 29.9998299,60 C46.5683724,60 60.0003401,46.5683724 60.0003401,30.0001701 C60.0003401,13.4316276 46.5683724,0 29.9998299,0 Z"></path>
            </g>
        </g>
    </g>
</svg>