<?xml version="1.0" encoding="UTF-8"?>
<svg width="60px" height="60px" viewBox="0 0 60 60" version="1.1" xmlns="http://www.w3.org/2000/svg" xmlns:xlink="http://www.w3.org/1999/xlink">
    <!-- Generator: Sketch 49 (51002) - http://www.bohemiancoding.com/sketch -->
    <title>ic_work</title>
    <desc>Created with Sketch.</desc>
    <defs>
        <path d="M30,60 C46.5685425,60 60,46.5685425 60,30 C60,13.4314575 46.5685425,0 30,0 C13.4314575,0 0,13.4314575 0,30 C0,46.5685425 13.4314575,60 30,60 Z" id="path-1"></path>
        <mask id="mask-2" maskContentUnits="userSpaceOnUse" maskUnits="objectBoundingBox" x="0" y="0" width="60" height="60" fill="white">
            <use xlink:href="#path-1"></use>
        </mask>
        <mask id="mask-4" maskContentUnits="userSpaceOnUse" maskUnits="objectBoundingBox" x="0" y="0" width="60" height="60" fill="white">
            <use xlink:href="#path-1"></use>
        </mask>
        <circle id="path-5" cx="30" cy="30" r="27.2727273"></circle>
    </defs>
    <g id="Symbols" stroke="none" stroke-width="1" fill="none" fill-rule="evenodd">
        <g id="ic_work">
            <g>
                <mask id="mask-3" fill="white">
                    <use xlink:href="#path-1"></use>
                </mask>
                <g id="Mask-Copy" stroke="#F9C04D" mask="url(#mask-2)" stroke-width="2" fill="#FFFFFF" opacity="0.4" stroke-dasharray="1,1">
                    <use mask="url(#mask-4)" xlink:href="#path-1"></use>
                </g>
                <mask id="mask-6" fill="white">
                    <use xlink:href="#path-5"></use>
                </mask>
                <use id="Mask" fill="#F9C04D" xlink:href="#path-5"></use>
                <path d="M52.3370692,41.3099344 L35.6906552,41.3099344 L35.6906552,42.0077868 C35.6906552,42.478753 35.2851009,42.8600114 34.7838583,42.8600114 L25.3970525,42.8600114 C24.8954361,42.8600114 24.4902556,42.478753 24.4902556,42.0077868 L24.4902556,41.3099344 L7.225605,41.3099344 L7.225605,39.7127608 L24.4902556,39.7127608 L24.4902556,39.0205152 C24.4902556,38.5473062 24.8954361,38.1664216 25.3970525,38.1664216 L34.7838583,38.1664216 C35.2851009,38.1664216 35.6906552,38.5473062 35.6906552,39.0205152 L35.6906552,39.7127608 L52.3370692,39.7127608 L52.3370692,41.3099344 Z M23.443664,19.6084827 C23.443664,19.1876034 23.8073546,18.8463398 24.2543987,18.8463398 L35.7470964,18.8463398 C36.1922716,18.8463398 36.556336,19.1876034 36.556336,19.6084827 L36.556336,22.9986921 L23.443664,22.9986921 L23.443664,19.6084827 Z M49.5086553,23.0928854 L38.4719725,23.0928854 L38.4719725,19.608109 C38.4719725,18.1959578 37.2482079,17.0454545 35.7470964,17.0454545 L24.2543987,17.0454545 C22.7514184,17.0454545 21.5276537,18.1959578 21.5276537,19.608109 L21.5276537,23.0928854 L10.4913447,23.0928854 C8.46245206,23.0928854 6.81818182,24.6541758 6.81818182,26.5791569 L6.81818182,53.8226852 C6.81818182,55.74804 8.46245206,57.3115732 10.4913447,57.3115732 L49.5086553,57.3115732 C51.5394169,57.3115732 53.1818182,55.74804 53.1818182,53.8226852 L53.1818182,26.5791569 C53.1818182,24.6541758 51.5394169,23.0928854 49.5086553,23.0928854 Z" id="Fill-1" fill="#FFFFFF" mask="url(#mask-6)"></path>
            </g>
        </g>
    </g>
</svg>