<?xml version="1.0" encoding="UTF-8"?>
<svg width="16px" height="20px" viewBox="0 0 16 20" version="1.1" xmlns="http://www.w3.org/2000/svg" xmlns:xlink="http://www.w3.org/1999/xlink">
    <!-- Generator: Sketch 49 (51002) - http://www.bohemiancoding.com/sketch -->
    <title>eadingin</title>
    <desc>Created with Sketch.</desc>
    <defs></defs>
    <g id="Symbols" stroke="none" stroke-width="1" fill="none" fill-rule="evenodd">
        <g id="eadingin" fill="#F95714">
            <g>
                <g id="Group-5" transform="translate(0.000000, 0.125498)">
                    <path d="M1.31831579,0.242674923 C8.28772755,3.29357276 6.70159752,8.76923839 6.70159752,8.76923839 L4.56933746,8.76923839 L8.28376471,11.2160495 L11.8850031,8.76923839 L9.86717028,8.76923839 C9.86717028,8.76923839 10.7543529,1.11648297 2.17503406,0.130724458 C1.96054489,0.105708978 1.12091641,0.155739938 1.31831579,0.242674923" id="Fill-1"></path>
                    <path d="M13.1509845,11.984644 C13.0707368,11.7411765 12.7403344,11.5437771 12.411418,11.5437771 L8.57983901,11.5437771 L8.28757895,11.7424149 L7.9861548,11.5437771 L0.469374613,11.5437771 C0.141696594,11.5437771 -0.0611517028,11.7411765 0.016619195,11.984644 L2.01067492,18.1117028 C2.08968421,18.3549226 2.42008669,18.5510836 2.7490031,18.5510836 L14.6922848,18.5510836 C15.0226873,18.5510836 15.2240495,18.3549226 15.1450402,18.1117028 L13.1509845,11.984644 Z" id="Fill-3"></path>
                </g>
                <g id="Group-10" transform="translate(1.981424, 7.803517)">
                    <path d="M12.3160372,0.0538947368 L9.18736842,0.0538947368 C8.85572755,0.0340804954 8.59244582,0.286712074 8.38712074,0.652780186 L11.331517,0.652780186 L7.47616099,3.27073684 L10.429969,3.27073684 C10.7143034,3.27197523 10.9721362,3.35098452 11.1985139,3.48398762 C11.4209288,3.61946749 11.6289783,3.81166563 11.7354799,4.12225387 L13.2386378,8.73946749 L13.2386378,1.39507121 C13.2386378,1.39507121 13.1779567,0.0538947368 12.3160372,0.0538947368" id="Fill-6"></path>
                    <path d="M0.104247678,2.59284211 L0.104247678,3.26925077 L5.09917028,3.26925077 L3.16703406,1.9979195 L0.700408669,1.9979195 C0.370006192,1.9979195 0.104247678,2.26516409 0.104247678,2.59284211" id="Fill-8"></path>
                </g>
            </g>
        </g>
    </g>
</svg>