<?xml version="1.0" encoding="UTF-8"?>
<svg width="140px" height="140px" viewBox="0 0 140 140" version="1.1" xmlns="http://www.w3.org/2000/svg" xmlns:xlink="http://www.w3.org/1999/xlink">
    <!-- Generator: Sketch 49 (51002) - http://www.bohemiancoding.com/sketch -->
    <title>men_60+</title>
    <desc>Created with Sketch.</desc>
    <defs>
        <circle id="path-1" cx="70" cy="70" r="70"></circle>
        <polygon id="path-3" points="0.26025974 0.440883117 28.9168831 0.440883117 28.9168831 90.4408831 0.26025974 90.4408831"></polygon>
        <polygon id="path-5" points="0.076597754 0.484 56.4488831 0.484 56.4488831 162.597403 0.076597754 162.597403"></polygon>
        <polygon id="path-7" points="0.157268866 0.102857143 43.2542338 0.102857143 43.2542338 24.6502857 0.157268866 24.6502857"></polygon>
    </defs>
    <g id="Symbols" stroke="none" stroke-width="1" fill="none" fill-rule="evenodd">
        <g id="men_60+">
            <g>
                <mask id="mask-2" fill="white">
                    <use xlink:href="#path-1"></use>
                </mask>
                <g id="Mask">
                    <use fill="#FFFFFF" fill-rule="evenodd" xlink:href="#path-1"></use>
                    <circle stroke="#E5E5E5" stroke-width="0.8" cx="70" cy="70" r="69.6"></circle>
                </g>
                <g id="Page-1" mask="url(#mask-2)">
                    <g transform="translate(13.000000, 7.000000)">
                        <path d="M8.91641558,91.2902338 C8.91641558,91.2902338 -4.59007792,138.389974 1.64368831,151.549974 C1.64368831,151.549974 3.72161039,177.524 18.6135584,180.640883 L28.6566753,140.467896 L15.1501818,91.2902338 L8.91641558,91.2902338 Z" id="Fill-1" fill="#464E56"></path>
                        <g id="Group-5" stroke-width="1" fill="none" transform="translate(84.155844, 90.806234)">
                            <mask id="mask-4" fill="white">
                                <use xlink:href="#path-3"></use>
                            </mask>
                            <g id="Clip-4"></g>
                            <path d="M20.0005195,3.55776623 C20.0005195,3.55776623 33.507013,50.6575065 27.2732468,63.8175065 C27.2732468,63.8175065 20.7776623,87.324 5.88623377,90.4408831 L0.26025974,52.7354286 L12.9428571,0.440883117 L20.0005195,3.55776623 Z" id="Fill-3" fill="#394147" mask="url(#mask-4)"></path>
                        </g>
                        <path d="M8.91641558,91.2902338 C8.91641558,91.2902338 14.370961,114.147377 13.8514805,124.017506 C13.8514805,124.017506 14.1112208,129.731792 16.7086234,130.251273 C16.7086234,130.251273 16.1891429,141.160364 21.6436883,146.095429 C21.6436883,146.095429 14.8904416,178.303221 15.6696623,191.549974 C16.4488831,204.796727 10.9943377,215.705818 20.6047273,228.692831 C30.2151169,241.679844 49.4358961,240.121403 51.7735584,227.39413 C54.1112208,214.666857 56.9683636,211.030494 56.9683636,211.030494 L55.6696623,139.861662 L35.4099221,103.757766 L40.6047273,78.8227013 C40.6047273,78.8227013 15.6696623,83.2382857 8.91641558,91.2902338" id="Fill-6" fill="#32393F"></path>
                        <g id="Group-10" stroke-width="1" fill="none" transform="translate(47.792208, 77.299740)">
                            <mask id="mask-6" fill="white">
                                <use xlink:href="#path-5"></use>
                            </mask>
                            <g id="Clip-9"></g>
                            <path d="M0.0852467532,71.9125714 C0.0852467532,71.9125714 -0.434233766,134.769714 6.57875325,158.406078 C8.45615584,164.73439 22.5813506,162.646597 28.6566753,160.22426 C34.5195325,157.886597 43.4618701,153.211273 47.8774545,147.496987 C47.8774545,147.496987 48.6566753,107.756727 40.0852468,76.5878961 C40.0852468,76.5878961 43.7216104,69.0554286 41.1242078,65.9385455 C41.1242078,65.9385455 49.4358961,24.8995844 56.4488831,17.1073766 C56.4488831,17.1073766 44.7605714,3.86062338 26.319013,0.484 L0.0852467532,71.9125714 Z" id="Fill-8" fill="#32393F" mask="url(#mask-6)"></path>
                        </g>
                        <polygon id="Fill-11" fill="#D9DADB" points="42.7694026 104.017506 49.3496623 95.7925714 63.4618701 97.696987 68.8301818 104.883481 54.8904416 137.26426 48.3969351 132.934909"></polygon>
                        <path d="M49,124.575584 C49,124.575584 49,109.077403 53.4155844,107.086234 L56.185974,107 C56.185974,107 60.1683117,110.462857 60.8612987,121.805195 L54.5412987,135.311688 L51.1646753,135.138182 L49,124.575584 Z" id="Fill-13" fill="#464E56"></path>
                        <path d="M59.6368831,102.122078 C59.6368831,104.421299 55.5023377,108.461299 53.2031169,108.461299 C50.9044156,108.461299 48,103.948052 48,101.648831 C48,99.3501299 51.8509091,99 54.1496104,99 C56.4483117,99 59.6368831,99.8228571 59.6368831,102.122078" id="Fill-15" fill="#32393F"></path>
                        <path d="M55.6696623,98.822961 C55.6696623,98.822961 62.7688831,105.576208 63.8078442,108.779844 L68.1371948,86.7881558 L55.6696623,98.822961 Z" id="Fill-17" fill="#ECEDED"></path>
                        <path d="M46.1891429,108.303221 C46.1891429,108.303221 50.344987,101.030494 53.5917403,98.562961 L44.5875844,88.8658182 L41.5138182,92.4590649 L46.1891429,108.303221 Z" id="Fill-19" fill="#ECEDED"></path>
                        <g id="Group-8" stroke-width="1" fill="none" transform="translate(27.000000, 78.000000)">
                            <path d="M10.3148571,2.90062338 L3.7345974,17.4460779 L7.19797403,20.562961 L0.964207792,25.7577662 C0.964207792,25.7577662 13.4312208,56.5801039 24.5138182,66.6237403 L27.2847273,56.5801039 C27.2847273,56.5801039 15.8992727,22.7707532 17.6307013,10.3032208 L17.5875844,10.8658182 L10.3148571,2.90062338 Z" id="Fill-21" fill="#4B3F4A"></path>
                            <path d="M20.8774545,71.2123117 C20.8774545,71.2123117 40.4878442,15.6278961 39.4488831,8.61490909 L46.8514805,0.822701299 L55.1631688,15.8876364 L47.370961,20.0434805 C47.370961,20.0434805 55.9423896,27.0564675 56.4618701,29.9136104 C56.4618701,29.9136104 36.4618701,60.8227013 20.8774545,71.2123117" id="Fill-23" fill="#4B3F4A"></path>
                        </g>
                        <g id="Group-75" stroke-width="1" fill="none" transform="translate(31.688312, 0.416623)">
                            <mask id="mask-8" fill="white">
                                <use xlink:href="#path-7"></use>
                            </mask>
                            <g id="Clip-74"></g>
                            <path d="M0.532675325,24.6502857 C0.532675325,24.6502857 -1.31511688,20.2627532 3.18825974,15.8747013 C7.69163636,11.4876883 10.5783896,4.44405195 10.5783896,4.44405195 C10.5783896,4.44405195 14.0422857,-2.94555844 25.3576104,1.5572987 C36.6724156,6.06067532 37.2505974,9.40924675 39.675013,14.3739221 C42.0999481,19.3391169 43.2542338,21.5328831 43.2542338,21.5328831 L0.532675325,24.6502857 Z" id="Fill-73" fill="#464E56" mask="url(#mask-8)"></path>
                        </g>
                        <path d="M32.7982857,24.4512727 C32.7982857,24.4512727 55.8149091,-0.412103896 74.6730909,21.5260779 L32.7982857,24.4512727 Z" id="Fill-76" fill="#101F28"></path>
                        <path d="M29.758026,24.7013506 C29.758026,24.7013506 57.5076364,8.82498701 84.8338701,22.2961558 L61.4333506,23.4504416 L29.758026,24.7013506 Z" id="Fill-78" fill="#828590"></path>
                        <path d="M29.2187532,52.8936104 C29.2187532,52.8936104 5.4332987,31.8790649 33.7221299,23.2193247 C33.7221299,23.2193247 46.4229091,20.2177662 53.813039,20.3325714 C61.2026494,20.4484156 73.210961,20.5637403 80.9470649,21.0255584 C88.6831688,21.4873766 98.7283636,35.1123117 82.2166753,47.5824416 L29.2187532,52.8936104 Z" id="Fill-80" fill="#464E56"></path>
                        <path d="M39.7961039,75.2421818 C39.7961039,75.2421818 44.301039,90.1652987 45.167013,93.0645195 C46.1477922,96.3481558 57.8574026,106.000623 65.6075325,92.5273766 C65.6075325,92.5273766 69.7638961,77.3902338 70.4568831,75.6717922 L39.7961039,75.2421818 Z" id="Fill-82" fill="#E5B5A1"></path>
                        <path d="M57.8962078,81.461974 C57.8962078,81.461974 64.302961,88.8837922 58.4130909,99.0661299 C58.4130909,99.0661299 54.7278961,100.332623 51.4328312,98.5627532 C51.4328312,98.5627532 44.8198442,82.757039 52.6260779,81.1653506 L57.8962078,81.461974 Z" id="Fill-84" fill="#D39E8C"></path>
                        <path d="M32.2767792,38.9477922 C31.6606753,46.7992208 34.816,53.285974 35.3354805,58.9311688 C35.854961,64.5774026 35.8414545,66.3415584 35.9713247,68.8142857 C36.2144416,73.4412987 37.374961,86.8683117 47.056,83.6703896 L50.0165195,85.0283117 C50.0165195,85.0283117 54.3141818,87.6906494 62.7588571,85.0558442 C62.7588571,85.0558442 63.4518442,85.1306494 65.5302857,82.7467532 C65.5302857,82.7467532 69.4856104,82.5441558 70.4565195,81.7457143 C74.0191169,78.8174026 73.0669091,75.4646753 75.2295065,63.8875325 C75.7572987,61.06 77.7328831,52.658961 77.7328831,52.658961 C77.7328831,52.658961 78.8539221,46.0844156 79.0778182,43.874026 C79.4367792,40.3264935 79.5391169,34.6371429 75.6908052,30.0184416 C73.2248312,27.0594805 66.5853506,24.3971429 60.8565195,23.874026 C52.4269091,23.1041558 43.5723636,24.9109091 40.590026,26.6319481 C36.5869091,28.9405195 32.5271688,35.7441558 32.2767792,38.9477922" id="Fill-86" fill="#F4CAB5"></path>
                        <path d="M57.0322597,70.6627013 C57.0322597,70.9052987 56.2327792,71.1011429 55.2462857,71.1011429 C54.2592727,71.1011429 53.4597922,70.9052987 53.4597922,70.6627013 C53.4597922,70.4195844 54.4223896,65.4554286 55.4083636,65.4554286 C56.3953766,65.4554286 57.0322597,70.4195844 57.0322597,70.6627013" id="Fill-88" fill="#F4CAB5"></path>
                        <g id="Group-4" stroke-width="1" fill="none" transform="translate(25.000000, 50.000000)">
                            <path d="M11.9019221,17.594026 C11.9019221,17.594026 10.2120519,23.0397403 6.92062338,17.7716883 C5.20218182,15.0225974 3.12062338,15.3109091 1.08062338,10.3212987 C-2.18379221,2.34051948 8.79542857,-5.20025974 11.0421818,7.83922078 C12.6307532,17.0620779 11.9019221,17.594026 11.9019221,17.594026" id="Fill-90" fill="#F4CAB5"></path>
                            <path d="M9.62815584,14.1504416 C9.62815584,14.1504416 8.75023377,16.9810909 7.03906494,14.2434286 C6.14607792,12.8138182 5.06296104,12.9623896 4.00374026,10.3707013 C2.30815584,6.22212987 8.01412987,2.30264935 9.1814026,9.07979221 C10.0078961,13.8745974 9.62815584,14.1504416 9.62815584,14.1504416" id="Fill-92" fill="#E5AF98"></path>
                            <path d="M9.62815584,14.1504416 C9.62815584,14.1504416 9.1465974,15.7218701 7.43490909,12.9821299 C6.54244156,11.5540779 7.67854545,2.40654545 9.14503896,8.91096104 C10.2151688,13.6610909 9.62815584,14.1504416 9.62815584,14.1504416" id="Fill-94" fill="#CC9785"></path>
                        </g>
                        <g id="Group-4-Copy" stroke-width="1" fill="none" transform="translate(79.411133, 62.024902) scale(-1, 1) rotate(-3.000000) translate(-79.411133, -62.024902) translate(72.911133, 51.524902)">
                            <path d="M11.9019221,17.594026 C11.9019221,17.594026 10.2120519,23.0397403 6.92062338,17.7716883 C5.20218182,15.0225974 3.12062338,15.3109091 1.08062338,10.3212987 C-2.18379221,2.34051948 8.79542857,-5.20025974 11.0421818,7.83922078 C12.6307532,17.0620779 11.9019221,17.594026 11.9019221,17.594026" id="Fill-90" fill="#F4CAB5"></path>
                            <path d="M9.62815584,14.1504416 C9.62815584,14.1504416 8.75023377,16.9810909 7.03906494,14.2434286 C6.14607792,12.8138182 5.06296104,12.9623896 4.00374026,10.3707013 C2.30815584,6.22212987 8.01412987,2.30264935 9.1814026,9.07979221 C10.0078961,13.8745974 9.62815584,14.1504416 9.62815584,14.1504416" id="Fill-92" fill="#E5AF98"></path>
                            <path d="M9.62815584,14.1504416 C9.62815584,14.1504416 9.1465974,15.7218701 7.43490909,12.9821299 C6.54244156,11.5540779 7.67854545,2.40654545 9.14503896,8.91096104 C10.2151688,13.6610909 9.62815584,14.1504416 9.62815584,14.1504416" id="Fill-94" fill="#CC9785"></path>
                        </g>
                        <path d="M33.6627532,52.4184935 L35.3557403,73.3556364 C35.3557403,73.3556364 33.5463896,86.2491429 47.5178182,92.4839481 C61.4882078,98.7192727 75.8061299,79.8984935 75.8061299,79.8984935 L76.0372987,61.6553766 C76.0372987,61.6553766 77.0762597,55.8823896 78.9240519,51.7255065 L77.3079481,44.5665455 C77.3079481,44.5665455 73.2663896,67.8907013 72.5728831,69.737974 C71.8804156,71.5852468 68.1858701,75.8574545 61.2580779,76.6657662 C54.3302857,77.4735584 44.5157403,75.7421299 43.7074286,72.7400519 C42.8991169,69.737974 35.7406753,49.9935584 35.7406753,49.9935584" id="Fill-96" fill="#ECEDED"></path>
                        <path d="M56.870961,67.6513247 C57.0226494,69.2378182 55.859013,70.6476883 54.2714805,70.7988571 C42.5473247,71.9167792 37.7686234,68.2398961 39.3582338,68.1214545 C44.8865455,67.710026 51.164987,64.8087273 52.752,64.6575584 C54.339013,64.5063896 56.7192727,66.0643117 56.870961,67.6513247" id="Fill-98" fill="#F6F6F6"></path>
                        <path d="M56.3702338,67.0603636 C56.1094545,68.6328312 57.1728312,70.1195844 58.7458182,70.3803636 C70.364,72.3076364 75.5754286,68.1190649 73.9977662,67.8904935 C68.511013,67.0977662 61.6377662,64.6104935 60.0647792,64.3497143 C58.4923117,64.0889351 56.631013,65.4878961 56.3702338,67.0603636" id="Fill-100" fill="#F6F6F6"></path>
                        <path d="M28.9417662,41.2714805 C28.6212468,42.6777143 29.1485195,45.113039 24.6846234,45.164987 C24.6846234,45.164987 26.2415065,47.1894026 29.666961,46.4107013 C29.666961,46.4107013 29.5111169,48.1234286 26.8643636,49.057974 C26.8643636,49.057974 27.7994286,49.8366753 29.9796883,49.524987 C29.9796883,49.524987 31.0087792,54.5099221 29.7963117,56.9348571 C29.7963117,56.9348571 32.0030649,54.8200519 33.2492987,54.1971948 C33.2492987,54.1971948 35.0394286,57.1561558 36.442026,58.7135584 C36.442026,58.7135584 35.6461818,48.5442078 35.2612468,42.2325195 C35.2612468,42.2325195 35.2612468,36.7675844 33.0934545,36.5992727 C31.535013,36.4782338 29.2887792,39.7473247 28.9417662,41.2714805" id="Fill-102" fill="#ECEDED"></path>
                        <path d="M82.0632208,39.9233247 C82.3832208,41.3295584 82.6014026,42.7716364 83.1873766,46.4105974 C83.1873766,46.4105974 83.3432208,48.1238442 85.9904935,49.0578701 C85.9904935,49.0578701 85.0554286,49.8365714 82.8746494,49.5248831 C82.8746494,49.5248831 81.8455584,54.5103377 83.058026,56.9347532 C83.058026,56.9347532 80.8512727,54.8199481 79.605039,54.1976104 C79.605039,54.1976104 77.8138701,57.1560519 76.4123117,58.7134545 C76.4123117,58.7134545 76.444,44.0033247 76.8014026,39.7144935 C76.8014026,39.7144935 77.0788052,36.0937143 79.3016623,36.4978701 C80.8393247,36.7773506 81.7162078,38.3991688 82.0632208,39.9233247" id="Fill-104" fill="#ECEDED"></path>
                        <path d="M48.8839481,32.5564675 C48.8839481,32.6759481 48.6356364,33.0432208 48.3971948,33.0432208 C48.1582338,33.0432208 47.9639481,32.7517922 47.9639481,32.6323117 C47.9639481,32.5128312 48.1582338,32.4156883 48.3971948,32.4156883 C48.6356364,32.4156883 48.8839481,32.436987 48.8839481,32.5564675" id="Fill-106" fill="#E5AF98"></path>
                        <path d="M52.0930946,39.129619 C51.9450426,39.2288398 51.280627,39.2252035 51.082705,38.9275411 C50.8842634,38.6303983 51.0863413,38.1467619 51.2354322,38.0475411 C51.3840037,37.9483203 51.7434842,37.9929957 51.9419257,38.290658 C52.1408868,38.5878009 52.241666,39.0303983 52.0930946,39.129619" id="Fill-108" fill="#E5AF98"></path>
                        <path d="M43.0930946,59.129619 C42.9450426,59.2288398 42.280627,59.2252035 42.082705,58.9275411 C41.8842634,58.6303983 42.0863413,58.1467619 42.2354322,58.0475411 C42.3840037,57.9483203 42.7434842,57.9929957 42.9419257,58.290658 C43.1408868,58.5878009 43.241666,59.0303983 43.0930946,59.129619" id="Fill-108-Copy" fill="#E5AF98"></path>
                        <path d="M44.0930946,53.129619 C43.9450426,53.2288398 43.280627,53.2252035 43.082705,52.9275411 C42.8842634,52.6303983 43.0863413,52.1467619 43.2354322,52.0475411 C43.3840037,51.9483203 43.7434842,51.9929957 43.9419257,52.290658 C44.1408868,52.5878009 44.241666,53.0303983 44.0930946,53.129619" id="Fill-108-Copy-2" fill="#E5AF98"></path>
                        <path d="M65.0930946,57.129619 C64.9450426,57.2288398 64.280627,57.2252035 64.082705,56.9275411 C63.8842634,56.6303983 64.0863413,56.1467619 64.2354322,56.0475411 C64.3840037,55.9483203 64.7434842,55.9929957 64.9419257,56.290658 C65.1408868,56.5878009 65.241666,57.0303983 65.0930946,57.129619" id="Fill-108-Copy-3" fill="#E5AF98"></path>
                        <path d="M74.0930946,51.129619 C73.9450426,51.2288398 73.280627,51.2252035 73.082705,50.9275411 C72.8842634,50.6303983 73.0863413,50.1467619 73.2354322,50.0475411 C73.3840037,49.9483203 73.7434842,49.9929957 73.9419257,50.290658 C74.1408868,50.5878009 74.241666,51.0303983 74.0930946,51.129619" id="Fill-108-Copy-4" fill="#E5AF98"></path>
                    </g>
                </g>
            </g>
        </g>
    </g>
</svg>