<?xml version="1.0" encoding="UTF-8"?>
<svg width="140px" height="140px" viewBox="0 0 140 140" version="1.1" xmlns="http://www.w3.org/2000/svg" xmlns:xlink="http://www.w3.org/1999/xlink">
    <!-- Generator: Sketch 49 (51002) - http://www.bohemiancoding.com/sketch -->
    <title>men_0_18</title>
    <desc>Created with Sketch.</desc>
    <defs>
        <circle id="path-1" cx="70" cy="70" r="70"></circle>
    </defs>
    <g id="Symbols" stroke="none" stroke-width="1" fill="none" fill-rule="evenodd">
        <g id="men_0_18">
            <g>
                <mask id="mask-2" fill="white">
                    <use xlink:href="#path-1"></use>
                </mask>
                <g id="Mask">
                    <use fill="#FFFFFF" fill-rule="evenodd" xlink:href="#path-1"></use>
                    <circle stroke="#E5E5E5" stroke-width="0.8" cx="70" cy="70" r="69.6"></circle>
                </g>
                <g id="Page-1" mask="url(#mask-2)">
                    <g transform="translate(-4.000000, 14.000000)">
                        <path d="M83,80 L73,86.1121121 L63,80 C67.386289,89.0950951 63,100 63,100 L73,100 L83,100 C83,100 78.613711,89.0950951 83,80" id="Fill-1" fill="#FEE5CA"></path>
                        <path d="M73.252922,86.1704469 L64.9923134,80.9398159 L64,81.1783068 C66.4487733,87.5629912 65.1403601,94.5459241 64.1960619,98 C67.0769717,91.0554682 75.5216384,87.5609701 81.3194693,85.9339771 C81.5795514,83.955311 82.0977151,81.9362228 83,80 L73.252922,86.1704469 Z" id="Fill-3" fill="#FFD4AC"></path>
                        <g id="Group-2" stroke-width="1" fill="none" transform="translate(35.000000, 0.000000)">
                            <path d="M76.0785948,63.3002624 C74.1979557,68.3032039 70.0574697,71.374983 66.8313169,70.1651214 C63.6032392,68.9533362 62.513739,63.9157723 64.3943781,58.9128309 C66.2750173,53.9098894 70.4155033,50.8381102 73.6416561,52.0498954 C76.8697337,53.259757 77.959234,58.2973209 76.0785948,63.3002624" id="Fill-5" fill="#FDDBBC"></path>
                            <path d="M0.921405152,63.3002624 C2.80204432,68.3032039 6.94253034,71.374983 10.1686831,70.1651214 C13.3967608,68.9533362 14.486261,63.9157723 12.6056219,58.9128309 C10.7249827,53.9098894 6.58449668,50.8381102 3.35834393,52.0498954 C0.13026626,53.259757 -0.959234014,58.2973209 0.921405152,63.3002624" id="Fill-9" fill="#FDDBBC"></path>
                            <path d="M71.6160715,47.2896336 C69.4609414,68.3272665 56.633954,87 38.1530525,87 C19.672151,87 8.77572241,68.5756091 4.69003347,47.2896336 C0.73833249,26.6941259 19.672151,9.32142857 38.1530525,9.32142857 C56.633954,9.32142857 73.7542173,26.4288508 71.6160715,47.2896336" id="Fill-13" fill="#FEE5CA"></path>
                            <path d="M46.9843204,6.41228989 C49.0666902,5.12886415 51.4441097,3.90772232 53.5851111,3.40756376 C53.5851111,3.40756376 43.1656967,-0.520096458 40.742885,4.72496253 C40.742885,4.72496253 36.2452688,-3.08694792 28.3999736,1.37861867 C28.3999736,1.37861867 32.5212123,2.95836475 34.7964992,5.93289263 C-17.0849597,7.92597729 6.17857225,61.8770428 6.60601601,57.77763 C7.04102514,53.6008342 6.01969935,48.4312709 10.2033524,44.8357914 C14.4437458,41.1912398 33.5160593,40.8118743 37.4387069,40.7722391 C41.3613545,40.8118743 60.4317766,41.1912398 64.6740614,44.8357914 C68.8558231,48.4312709 67.8363886,53.6008342 68.2713978,57.77763 C68.6799281,61.7147272 92.64704,12.1424083 46.9843204,6.41228989" id="Fill-23" fill="#6F514E"></path>
                            <path d="M38.5,8.0023861 C36.8159192,2.71131413 29.8167517,1.05258274 29.7322661,1.03571429 C29.2347394,1.23063865 28.725948,1.47054556 28.198382,1.7704292 C28.198382,1.7704292 32.2893654,3.34106977 34.5479486,6.29304935 C-16.9526314,8.27415565 6.14199272,61.8502422 6.56442102,57.7793218 C6.59821528,57.4625697 6.62262225,57.1383205 6.64139684,56.8103228 C5.68952508,54.5480756 4.4823189,51.513628 4.06552298,49.7536859 C3.34082377,46.6948728 0.318114651,31.4832751 8.26915386,19.9077666 C15.9817558,8.67899856 38.5,8.0023861 38.5,8.0023861" id="Fill-25" fill="#5C494D"></path>
                        </g>
                        <path d="M145,126 C140.580062,116.831469 124.700351,101.026581 109.302688,98.7357497 C95.6565144,96.7000338 81.1706561,95.8930364 72.9077412,99.4854763 C64.6448262,95.8930364 50.1641194,96.7000338 36.5127948,98.7357497 C21.115131,101.026581 4.41993828,116.831469 0,126 L145,126 Z" id="Fill-27" fill="#FEE5CA"></path>
                        <g id="Group" stroke-width="1" fill="none" transform="translate(5.000000, 90.000000)">
                            <path d="M67.8015624,36.6202646 L135.767578,36.6202646 C135.767578,42.8414907 135.767578,5.32292534 84.5247142,5.32292534 L67.8015624,36.6202646 Z" id="Fill-29" fill="#4A90E2"></path>
                            <path d="M87.0930225,0.633073079 C87.0930225,0.633073079 72.2110898,24.4626636 71.5556618,29.8711931 L93.1602838,11.7661476 L87.0930225,6.65809203 L93.1602838,0.669337165 L87.0930225,0.633073079 Z" id="Fill-32" fill="#0F70E2"></path>
                            <path d="M68.8369579,37.3574219 L3.54583726,37.3574219 C-8.4602696,31.7735152 16.9837223,3.36755646 51.7431103,5.17601202 L68.8369579,37.3574219 Z" id="Fill-34" fill="#4A90E2"></path>
                            <path d="M48.3856862,0.633073079 C48.3856862,0.633073079 63.7695009,24.267569 64.424929,29.6760985 L42.3184248,11.7661476 L48.3856862,6.65809203 L42.3184248,0.669337165 L48.3856862,0.633073079 Z" id="Fill-37" fill="#0F70E2"></path>
                        </g>
                    </g>
                </g>
            </g>
        </g>
    </g>
</svg>