<?xml version="1.0" encoding="UTF-8"?>
<svg width="140px" height="140px" viewBox="0 0 140 140" version="1.1" xmlns="http://www.w3.org/2000/svg" xmlns:xlink="http://www.w3.org/1999/xlink">
    <!-- Generator: Sketch 49 (51002) - http://www.bohemiancoding.com/sketch -->
    <title>men_33_45</title>
    <desc>Created with Sketch.</desc>
    <defs>
        <circle id="path-1" cx="70" cy="70" r="70"></circle>
        <polygon id="path-3" points="0.733522936 1.25100917 55.706 1.25100917 55.706 37.5694495 0.733522936 37.5694495"></polygon>
    </defs>
    <g id="Symbols" stroke="none" stroke-width="1" fill="none" fill-rule="evenodd">
        <g id="men_33_45">
            <g>
                <mask id="mask-2" fill="white">
                    <use xlink:href="#path-1"></use>
                </mask>
                <g id="Mask">
                    <use fill="#FFFFFF" fill-rule="evenodd" xlink:href="#path-1"></use>
                    <circle stroke="#E5E5E5" stroke-width="0.8" cx="70" cy="70" r="69.6"></circle>
                </g>
                <g id="Page-1" mask="url(#mask-2)">
                    <g transform="translate(8.000000, 8.000000)">
                        <polygon id="Fill-1" fill="#394A66" points="49.6822385 63.6102202 49.6822385 63.625633 46.5328807 71.2986606 34.6148991 77.6089358 10.2433394 86.2234312 9.09122936 87.5579266 0.999486239 138.742697 124.23545 138.742697 116.143706 87.5579266 114.992881 86.2234312 90.6200367 77.6089358 78.7123303 71.2986606 75.5591193 63.625633 75.5668257 63.6102202"></polygon>
                        <polygon id="Fill-2" fill="#B3CFF2" points="52.7247339 70.4257798 44.1115229 79.2111009 62.7405138 137.795321 81.1228991 79.2111009 72.5084037 70.4257798 62.617211 70.0430275"></polygon>
                        <polygon id="Fill-3" fill="#DBE4EF" points="60.810055 133.011817 62.4373945 136.91255 64.0634495 133.011817 64.0634495 109.317138 64.0634495 81.7114495 62.4373945 81.7114495 60.810055 81.7114495 60.810055 109.317138"></polygon>
                        <polygon id="Fill-4" fill="#394A66" points="62.6174679 138.410294 46.3081101 71.3220367 41.7548991 74.5368991 39.6600367 83.5110275 43.6558165 87.8407523 39.5380183 94.5389174 62.5596697 138.726257 62.6174679 138.726257 62.6842569 138.749376 85.6969174 94.5389174 81.5881101 87.8407523 85.5697615 83.5110275 83.4864587 74.5368991 78.9268257 71.3220367"></polygon>
                        <polygon id="Fill-5" fill="#394A66" points="77.8345688 69.4489908 62.6169541 137.137064 47.3993394 69.4489908 46.2228257 68.3379817 43.1505321 72.6869725 39.8971376 83.099633 44.9217248 86.0486239 41.0839266 94.1493578 62.559156 137.925688 62.6169541 137.982202 62.6850275 137.925688 84.1602569 94.1493578 80.3070459 86.0486239 85.338055 83.099633 82.092367 72.6869725 79.0213578 68.3379817"></polygon>
                        <polygon id="Fill-6" fill="#DBE4EF" points="82.4392844 73.3886422 77.7435046 65.5409358 63.7255229 72.904422 61.5124954 72.904422 47.4945138 65.5409358 42.7961651 73.3886422 52.4792844 91.4666239 62.5824037 79.5730459 72.7497431 91.4666239"></polygon>
                        <polygon id="Fill-7" fill="#E7B088" points="71.6422018 72.0365505 63.7957798 68.4286606 63.8330275 67.9328807 62.6179817 68.1859083 61.4016514 67.9328807 61.4478899 68.4286606 53.5847706 72.0365505 62.6179817 80.7139817"></polygon>
                        <g id="Group-51" stroke-width="1" fill="none" transform="translate(34.394495, 0.033394)">
                            <path d="M3.95853211,38.2549358 C3.22770642,38.4578716 2.54055046,38.6479633 2.26568807,38.7044771 C1.58752294,38.8342018 1.58752294,47.4628257 2.8012844,50.0264954 C3.56550459,51.6409908 4.96165138,52.9831927 5.90183486,53.7564037 C5.9866055,53.9657615 6.08807339,54.2136514 6.19853211,54.485945 C8.94330275,54.3279633 13.3809174,37.619156 3.95853211,38.2549358" id="Fill-8" fill="#E7B088"></path>
                            <path d="M52.4874128,38.2549358 C53.2182385,38.4578716 53.9053945,38.6479633 54.1866789,38.7044771 C54.852,38.8342018 54.852,47.4628257 53.6446606,50.0264954 C52.8804404,51.6409908 51.4778716,52.9831927 50.5518165,53.7564037 C50.4721835,53.9657615 50.3642936,54.2136514 50.2499817,54.485945 C47.5026422,54.3279633 43.0663119,37.619156 52.4874128,38.2549358" id="Fill-10" fill="#E7B088"></path>
                            <path d="M52.453633,38.2549358 C52.7914312,4.79108257 32.7483119,3.15218349 32.7483119,3.15218349 L31.5910642,3.15218349 L24.8055596,3.15218349 L23.6495963,3.15218349 C23.6495963,3.15218349 3.60390826,4.79108257 3.94941284,38.2549358 C3.21473394,38.4578716 6.07510092,54.2136514 6.18299083,54.485945 C7.17968807,57.9345688 8.88537615,62.8551193 10.0721651,64.3142018 C11.827945,66.4694312 20.3242752,74.6986055 21.6626239,75.2406239 C22.5295963,75.5861284 25.9101468,75.7094312 28.1938165,75.6169541 C30.4851927,75.7094312 33.8593211,75.5861284 34.7262936,75.2406239 C36.0710642,74.6986055 44.5699633,66.4694312 46.3180367,64.3142018 C47.5099633,62.8551193 49.2156514,57.9345688 50.2123486,54.485945 C50.3202385,54.2136514 50.4217064,53.9657615 50.500055,53.7564037 C51.4402385,52.9831927 53.1831743,38.4578716 52.453633,38.2549358" id="Fill-12" fill="#F2C4A5"></path>
                            <path d="M29.068367,17.6455229 C31.4380917,25.7835046 30.1023119,41.6163486 30.1023119,41.6163486 C30.1023119,41.6163486 29.2199266,42.944422 29.2199266,43.8280917 C29.2199266,44.7168991 30.4067156,56.104422 30.9911193,56.5539633 C31.5832294,56.9945138 29.9571743,61.5759817 29.9571743,61.5759817 L30.1023119,63.2007523 L29.9571743,65.4189174 C29.9571743,65.4189174 28.9257982,67.6370826 28.9257982,68.0802018 C28.9257982,68.5258899 28.0357064,74.5895596 28.0357064,74.5895596 L34.8366239,73.8523119 L46.0224954,64.3143303 L50.2186422,52.8458899 L51.9911193,45.0148807 L50.8043303,33.3280917 L49.1872661,15.7253394 L29.068367,17.6455229 Z" id="Fill-16" fill="#F2C4A5"></path>
                            <g id="Group-20">
                                <mask id="mask-4" fill="white">
                                    <use xlink:href="#path-3"></use>
                                </mask>
                                <g id="Clip-19"></g>
                                <path d="M55.706,30.2136697 C55.706,30.2136697 55.3926055,18.4844954 51.8951743,12.8999083 C50.0751743,9.98816514 47.9494862,6.94669725 42.5896697,4.71311927 C41.1498532,3.33238532 35.3546239,1.25036697 30.3839817,1.25036697 C29.7250826,1.25036697 28.9891193,1.32357798 28.2236147,1.40963303 C27.4568257,1.32357798 26.7272844,1.25036697 26.0555413,1.25036697 C21.0836147,1.25036697 15.2960917,3.33238532 13.8562752,4.71311927 C8.50288073,6.94669725 6.37077064,9.98816514 4.55077064,12.8999083 C1.05333945,18.4844954 0.733522936,30.2136697 0.733522936,30.2136697 L2.45462385,37.3472477 L6.17554128,37.5694495 C6.17554128,37.5694495 6.41444037,31.983578 7.57040367,28.5002752 C7.57040367,28.5002752 7.47022018,22.3505505 9.4366422,21.5914679 C22.3115046,16.6362385 25.6278349,21.3320183 45.0544404,20.8066972 C47.1621468,20.7540367 48.8678349,28.5002752 48.8678349,28.5002752 C50.032789,31.983578 50.2704037,37.5694495 50.2704037,37.5694495 L53.9913211,37.3472477 L55.706,30.2136697 Z" id="Fill-18" fill="#564953" mask="url(#mask-4)"></path>
                            </g>
                            <path d="M8.4226055,21.6140734 C7.0213211,19.2944404 5.43893578,16.5342569 4.03765138,13.7098532 C1.04499083,19.3830642 0.684073394,30.213156 0.684073394,30.213156 L2.39875229,37.3467339 L3.32866055,39.4351743 L5.46077064,46.8911376 L6.89801835,37.5689358 C6.89801835,37.5689358 6.3572844,31.9830642 7.52095413,28.4997615 C7.52095413,28.4997615 7.36040367,23.5946239 8.4226055,21.6140734" id="Fill-21" fill="#4B3F4A"></path>
                            <path d="M46.0642385,21.6140734 C47.4822202,19.2944404 51.0014862,16.5342569 52.4079083,13.7098532 C55.4018532,19.3830642 55.7627706,30.213156 55.7627706,30.213156 L54.0506606,37.3467339 L53.1233211,39.4351743 L51.2763486,46.8911376 L49.5488257,37.5689358 C49.5488257,37.5689358 50.0985505,31.9830642 48.9335963,28.4997615 C48.9335963,28.4997615 47.1277248,23.5946239 46.0642385,21.6140734" id="Fill-23" fill="#4B3F4A"></path>
                            <path d="M39.988367,62.7313028 C36.9443303,62.5437798 32.0520367,59.3867156 28.368367,59.4149725 L28.2232294,59.4149725 L28.0780917,59.4149725 C24.3995596,59.3867156 19.5021284,62.5437798 16.4580917,62.7313028 C13.3305688,62.9342385 12.1604771,61.561211 12.1604771,61.561211 C12.1604771,61.561211 14.1102018,66.2505688 18.994789,65.6648807 C23.8716697,65.0791927 27.1969908,64.300844 27.9753394,62.9342385 C28.0857982,62.754422 28.1654312,62.5733211 28.2232294,62.3716697 C28.2900183,62.5733211 28.368367,62.754422 28.4698349,62.9342385 C29.2494679,64.300844 32.574789,65.0791927 37.4503853,65.6648807 C42.3362569,66.2505688 44.2885505,61.561211 44.2885505,61.561211 C44.2885505,61.561211 43.1184587,62.9342385 39.988367,62.7313028" id="Fill-25" fill="#4B3F4A"></path>
                            <path d="M37.1687156,64.6028073 C40.0175229,64.8776697 41.8362385,63.6433578 42.8419266,62.594 C42.1701835,62.8328991 41.2377064,62.9985872 39.9879817,62.934367 C36.943945,62.7391376 32.0529358,59.5897798 28.3679817,59.6090459 L28.2292661,59.6090459 L28.222844,59.6090459 L28.0866972,59.6090459 L28.0777064,59.6090459 C24.4004587,59.5897798 19.5017431,62.7391376 16.4577064,62.934367 C15.2169725,62.9985872 14.2844954,62.8328991 13.6127523,62.594 C14.6094495,63.6433578 16.4230275,64.8776697 19.2769725,64.6028073 C24.0112844,64.127578 27.2261468,63.5046422 27.9865138,62.4128991 C28.0866972,62.2754679 28.1650459,62.1239083 28.222844,61.9723486 C28.289633,62.1239083 28.3679817,62.2754679 28.4604587,62.4128991 C29.2208257,63.5046422 32.4344037,64.127578 37.1687156,64.6028073" id="Fill-27" fill="#564953"></path>
                            <path d="M40.3207706,75.8764037 C38.3119633,75.8764037 33.5134312,78.3475963 32.2136147,79.0411743 C32.1750826,78.7431927 29.2350826,77.7837431 28.2229725,77.8646606 C27.2108624,77.7837431 24.2708624,78.7431927 24.2361835,79.0411743 C22.9260917,78.3475963 18.1352661,75.8764037 16.1251743,75.8764037 C13.8004037,75.8764037 14.6660917,88.2464954 17.5868257,90.9206239 L25.4473761,84.5756697 L25.4987523,84.5756697 C26.2860917,84.6989725 27.2917798,84.7285138 28.2229725,84.7220917 C29.1477431,84.7285138 30.1534312,84.6989725 30.9407706,84.5756697 L30.9972844,84.5756697 L38.8604037,90.9206239 C41.7798532,88.2464954 42.6468257,75.8764037 40.3207706,75.8764037" id="Fill-29" fill="#4B3F4A"></path>
                            <path d="M38.4844587,77.5534495 C36.8442752,77.5534495 32.9782202,79.1923486 31.7284954,79.7497798 C31.6848257,80.2917982 31.5615229,81.0945505 31.3817064,82.0039083 C31.2237248,82.7694128 31.0644587,83.4655596 30.9180367,83.9703303 L37.247578,88.2461101 C39.720055,86.3477615 40.4650092,77.5534495 38.4844587,77.5534495" id="Fill-31" fill="#564953"></path>
                            <path d="M25.0709174,82.0036514 C24.8782569,81.0942936 24.770367,80.2915413 24.7202752,79.7495229 C23.4692661,79.1933761 19.603211,77.5531927 17.9707339,77.5531927 C15.9824771,77.5531927 16.7261468,86.3475046 19.1986239,88.2458532 L25.5268807,83.9700734 C25.3753211,83.4653028 25.216055,82.769156 25.0709174,82.0036514" id="Fill-33" fill="#564953"></path>
                            <path d="M30.5798532,83.7246239 L30.5862752,83.7374679 C30.6504954,83.2249908 30.7519633,82.5815046 30.8906789,81.8737982 C31.1051743,80.8257248 31.329945,79.9240734 31.5046239,79.4462752 C31.3171009,79.4462752 30.9908624,79.3730642 30.5708624,79.2947156 C29.9350826,78.9748991 29.0835229,78.9119633 28.2229725,78.962055 C27.3714128,78.9119633 26.5172844,78.9748991 25.8815046,79.2947156 C25.456367,79.3730642 25.1314128,79.4462752 24.9413211,79.4462752 C25.122422,79.9240734 25.3471927,80.8257248 25.548844,81.8737982 C25.6875596,82.5815046 25.8018716,83.2249908 25.8519633,83.7374679 L25.8686606,83.7246239 C25.8686606,83.7246239 25.8815046,83.7246239 25.9097615,83.7374679 C26.5840734,83.8248073 27.435633,83.8389358 28.2229725,83.8325138 C29.0103119,83.8389358 29.8567339,83.8248073 30.5361835,83.7374679 C30.5580183,83.7246239 30.5798532,83.7246239 30.5798532,83.7246239" id="Fill-35" fill="#564953"></path>
                            <path d="M20.8239083,80.5147706 L24.9635413,80.8487156 C24.2763853,80.4351376 20.8239083,80.5147706 20.8239083,80.5147706" id="Fill-37" fill="#4B3F4A"></path>
                            <path d="M20.9028991,84.3228991 L24.8781284,82.964 C24.1190459,82.8484037 20.9028991,84.3228991 20.9028991,84.3228991" id="Fill-39" fill="#4B3F4A"></path>
                            <path d="M19.884367,82.5179266 L25.2673028,81.9810459 C24.3142752,81.6072844 19.884367,82.5179266 19.884367,82.5179266" id="Fill-41" fill="#4B3F4A"></path>
                            <path d="M35.5355963,80.5147706 L31.3959633,80.8487156 C32.0741284,80.4351376 35.5355963,80.5147706 35.5355963,80.5147706" id="Fill-43" fill="#4B3F4A"></path>
                            <path d="M35.4566055,84.3228991 L31.4749541,82.964 C32.2481651,82.8484037 35.4566055,84.3228991 35.4566055,84.3228991" id="Fill-45" fill="#4B3F4A"></path>
                            <path d="M36.4762936,82.5179266 L31.0984954,81.9810459 C32.0451009,81.6072844 36.4762936,82.5179266 36.4762936,82.5179266" id="Fill-47" fill="#4B3F4A"></path>
                            <polygon id="Fill-49" fill="#DBE4EF" points="48.0221835 121.522954 56.3541101 113.697083 59.7436514 121.522954"></polygon>
                        </g>
                    </g>
                </g>
            </g>
        </g>
    </g>
</svg>