<?xml version="1.0" encoding="UTF-8"?>
<svg width="140px" height="140px" viewBox="0 0 140 140" version="1.1" xmlns="http://www.w3.org/2000/svg" xmlns:xlink="http://www.w3.org/1999/xlink">
    <!-- Generator: Sketch 49 (51002) - http://www.bohemiancoding.com/sketch -->
    <title>men_19_32</title>
    <desc>Created with Sketch.</desc>
    <defs>
        <rect id="path-1" x="0" y="0" width="140" height="140" rx="70"></rect>
        <path d="M113.04624,28.5919036 C98.2046636,42.2024739 78.2705959,50.5329524 56.3537972,50.5329524 C35.0950782,50.5329524 15.7018967,42.6948649 1.01230786,29.8026636 L1.01230786,0.0834952381 L113.04624,0.0834952381 L113.04624,28.5919036 Z" id="path-3"></path>
    </defs>
    <g id="Symbols" stroke="none" stroke-width="1" fill="none" fill-rule="evenodd">
        <g id="men_19_32">
            <g>
                <mask id="mask-2" fill="white">
                    <use xlink:href="#path-1"></use>
                </mask>
                <g id="Mask">
                    <use fill="#FFFFFF" fill-rule="evenodd" xlink:href="#path-1"></use>
                    <rect stroke="#E5E5E5" stroke-width="0.8" x="0.4" y="0.4" width="139.2" height="139.2" rx="69.6"></rect>
                </g>
                <g id="Page-1" mask="url(#mask-2)">
                    <g transform="translate(14.000000, 8.166667)">
                        <path d="M25.3206567,40.8831141 C22.6638532,41.3726661 21.4467279,45.4090809 22.6047572,49.8904464 C23.7615292,54.3728739 26.8533796,57.6107135 29.5114405,57.1169138 C32.1695014,56.623114 33.3866268,52.590947 32.2285974,48.1074576 C31.0718254,43.6250302 27.979975,40.3893143 25.3206567,40.8831141" id="Fill-1" fill="#EACB9F"></path>
                        <path d="M90.1806203,40.8831141 C87.5210411,40.3893143 84.4288874,43.6250302 83.272002,48.1074576 C82.1126015,52.590947 83.3311037,56.623114 85.9881679,57.1169138 C88.647747,57.6107135 91.7386432,54.3728739 92.8955287,49.8904464 C94.0524142,45.4090809 92.8376844,41.3726661 90.1806203,40.8831141" id="Fill-3" fill="#EACB9F"></path>
                        <g id="Group-7" stroke-width="1" fill="none" transform="translate(0.000000, 57.166667)">
                            <path d="M91.5168157,44.8412671 C78.9852088,42.0352553 75.6286428,38.3053259 74.8781129,34.2756318 L74.8770453,34.2756318 C71.5087355,19.8119847 72.2667387,0.874349412 72.2667387,0.874349412 L57.68105,0.874349412 L56.3774981,0.874349412 L41.792877,0.874349412 C41.792877,0.874349412 42.5508802,19.8119847 39.1825704,34.2756318 L39.1804352,34.2756318 C37.3046443,38.5729729 35.0754745,42.0352553 22.5428,44.8412671 C1.01017264,49.6674788 1.01230786,70.5771376 1.01230786,70.5771376 L1.01230786,83.6372435 L56.3774981,103.846738 L57.68105,103.846738 L113.04624,83.6372435 L113.04624,70.5771376 C113.04624,70.5771376 113.048375,49.6674788 91.5168157,44.8412671" id="Fill-5" fill="#F6D8AA"></path>
                        </g>
                        <path d="M38.5925568,94.5 C37.9733137,95.3400527 37.2029085,96.1386725 36.1666667,96.9031102 L57.8078586,120.166667 L79.3333333,97.0087641 C78.2397541,96.2743654 77.4151391,95.5099278 76.7969385,94.7247737 L57.8078586,113.592296 L38.5925568,94.5 Z" id="Fill-8" fill="#DBBA8C"></path>
                        <path d="M74.6666667,91.6820032 C74.6444538,91.5746153 74.622241,91.4661317 74.6010859,91.3543606 C71.2628129,76.5501763 72.0138185,57.1666667 72.0138185,57.1666667 L57.5638352,57.1666667 L56.2723171,57.1666667 L41.8223337,57.1666667 C41.8223337,57.1666667 42.2909189,69.3014954 40.8333333,81.7004107 C46.0152723,90.7187998 53.4925384,96.8333333 61.8064883,96.8333333 C66.4383949,96.8333333 70.8069207,94.9244592 74.6666667,91.6820032" id="Fill-10" fill="#DBBA8C"></path>
                        <g id="Group-14" stroke-width="1" fill="none" transform="translate(0.000000, 94.500000)">
                            <mask id="mask-4" fill="white">
                                <use xlink:href="#path-3"></use>
                            </mask>
                            <g id="Clip-13"></g>
                            <path d="M91.5168157,6.16492381 C83.8737953,4.48873333 79.6492623,2.4794 77.3410893,0.272066667 L57.0298079,20.2009238 L36.5263566,0.0834952381 C34.3334855,2.40187619 30.5349289,4.41330476 22.5428,6.16492381 C1.01017264,10.8875905 1.01230786,31.3486381 1.01230786,31.3486381 L1.01230786,44.1285429 L56.3774981,63.9044476 L57.68105,63.9044476 L113.04624,44.1285429 L113.04624,31.3486381 C113.04624,31.3486381 113.048375,10.8875905 91.5168157,6.16492381" id="Fill-12" fill="#394A66" mask="url(#mask-4)"></path>
                        </g>
                        <path d="M56.626337,120.166667 L79.3333333,95.5511551 C78.1974066,94.8969397 77.2953781,94.219622 76.5800484,93.5223522 L56.626337,113.4985 L36.4817312,93.3333333 C35.7905256,94.0778578 34.9335984,94.7919292 33.8333333,95.4765977 L56.626337,120.166667 Z" id="Fill-15" fill="#DBE4EF"></path>
                        <path d="M86.3333333,47.0421271 C86.3333333,67.9800875 73.5375824,88.6666667 57.7505338,88.6666667 C41.9634852,88.6666667 29.1666667,67.9800875 29.1666667,47.0421271 C29.1666667,26.099977 41.9634852,12.8333333 57.7505338,12.8333333 C73.5375824,12.8333333 86.3333333,26.099977 86.3333333,47.0421271" id="Fill-17" fill="#F6D8AA"></path>
                        <path d="M28.9846384,54.8333333 C28.9846384,54.8333333 17.9973335,23.3355273 36.0107916,0 C36.0107916,0 36.0717971,7.93371785 51.2863639,5.75548016 C66.5009307,3.57724247 90.6054746,11.6789259 84.0663138,52.1947848 C84.0663138,52.1947848 84.1199566,36.0243731 74.3990422,28.4680464 C66.0980839,22.01519 64.1690472,27.3847745 56.5244243,27.3847745 C50.9508335,27.3847745 42.6845853,21.7037094 36.0107916,28.4680464 C28.0022391,36.5824868 28.9846384,54.8333333 28.9846384,54.8333333" id="Fill-21" fill="#525252"></path>
                    </g>
                </g>
            </g>
        </g>
    </g>
</svg>