<?xml version="1.0" encoding="UTF-8"?>
<svg width="140px" height="140px" viewBox="0 0 140 140" version="1.1" xmlns="http://www.w3.org/2000/svg" xmlns:xlink="http://www.w3.org/1999/xlink">
    <!-- Generator: Sketch 49 (51002) - http://www.bohemiancoding.com/sketch -->
    <title>men_46_60</title>
    <desc>Created with Sketch.</desc>
    <defs>
        <circle id="path-1" cx="70" cy="70" r="70"></circle>
        <polygon id="path-3" points="0 70.3689231 71.23092 70.3689231 71.23092 239.360571 0 239.360571"></polygon>
        <polygon id="path-5" points="1.01058863 0.673846154 55.7621958 0.673846154 55.7621958 47.5656264 1.01058863 47.5656264"></polygon>
    </defs>
    <g id="Symbols" stroke="none" stroke-width="1" fill="none" fill-rule="evenodd">
        <g id="men_46_60">
            <g>
                <mask id="mask-2" fill="white">
                    <use xlink:href="#path-1"></use>
                </mask>
                <g id="Mask">
                    <use fill="#FFFFFF" fill-rule="evenodd" xlink:href="#path-1"></use>
                    <circle stroke="#E5E5E5" stroke-width="0.8" cx="70" cy="70" r="69.6"></circle>
                </g>
                <g id="Group-63" mask="url(#mask-2)">
                    <g transform="translate(0.000000, 10.000000)">
                        <mask id="mask-4" fill="white">
                            <use xlink:href="#path-3"></use>
                        </mask>
                        <g id="Clip-4" stroke="none" fill="none"></g>
                        <path d="M70.8,80.490328 L70.8,80.0703297 C75.0156,79.5059341 86.3028,77.3037363 87.5532,69.8901099 C87.5532,69.8901099 125.5776,90.7964835 126.0972,91.6971429 C133.1484,103.851429 133.7568,163.418901 133.7568,163.418901 C135.0516,166.111648 136.8144,171.741099 138.8628,178.243516 C144.3852,195.797802 151.2876,227.125714 152.19,227.132308 C152.22,227.285275 134.85,231.334945 134.85,231.334945 C134.85,231.334945 126.9576,216.982418 126.18,215.322198 C120.2568,202.666813 112.44,190.091868 108.7188,176.374945 C104.8116,166.223736 106.0464,148.327912 106.0464,148.327912 L102.1572,201.483956 L102.1572,206.825934 L71.23092,207.074341 L71.23092,207.556615 L39.87252,207.306066 L39.87252,201.962769 L35.73852,142.26211 C35.73852,142.26211 30.15012,163.230462 26.23932,173.38167 C26.95092,177.387824 28.92972,236.688923 28.92972,236.688923 C28.92972,236.688923 10.45692,239.360571 11.18772,239.360571 C11.91612,239.360571 -0.28308,165.586945 0.00492,164.566286 C4.18092,149.774637 11.76492,98.0282637 17.14332,90.9733187 C14.95452,91.9082637 54.47652,70.3689231 54.47652,70.3689231 C55.6841619,77.544082 66.2922027,79.8369496 70.8,80.490328 Z" id="Combined-Shape" stroke="none" fill="#4B3F4A" fill-rule="evenodd"></path>
                        <polygon id="Path" stroke="none" fill="#B3CFF2" fill-rule="evenodd" points="51.7529297 76.1254883 70.6582031 128.608398 74.3666992 128.608398 90.5742188 79.3154297 87.8603516 77.3935547 71.1635742 81.6689453"></polygon>
                        <g id="Group-6" stroke="none" stroke-width="1" fill="none" fill-rule="evenodd" transform="translate(66.000000, 82.000000)">
                            <path d="M5.36547476,9 C2.99504486,9 0,4.70680283 0,2.51968374 C0,0.333058804 3.97107272,0 6.34150261,0 C8.7119325,0 12,0.782737605 12,2.9698567 C12,5.15697579 7.73644034,9 5.36547476,9 Z" id="Fill-15-Copy" fill="#9B5C8F"></path>
                        </g>
                        <path d="M49.77732,72.541978 L61.59492,92.4435165 L71.23092,82.3767033 L71.23092,79.443956 C67.77732,76.6496703 58.99932,68.3868132 56.88972,67.1327473 L49.77732,72.541978 Z" id="Fill-6" stroke="none" fill="#DBE4EF" fill-rule="evenodd"></path>
                        <path d="M71.2308,79.4444835 L71.2308,82.3772308 L80.862,92.444044 L92.4384,72.5425055 L84.9624,67.5341538 C82.8516,68.7882198 74.6796,76.6488791 71.2308,79.4444835" id="Fill-14" stroke="none" fill="#DBE4EF" fill-rule="evenodd"></path>
                        <g id="Group-18" stroke="none" stroke-width="1" fill="none" fill-rule="evenodd" transform="translate(42.000000, 0.000000)">
                            <mask id="mask-6" fill="white">
                                <use xlink:href="#path-5"></use>
                            </mask>
                            <g id="Clip-17"></g>
                            <path d="M38.76864,1.82320879 C26.96304,-1.44975824 16.62024,2.95727473 12.73104,6.42936264 C8.23464,8.03156044 6.53424,10.6768352 2.64264,17.8913407 C-1.24776,25.1018901 3.03864,43.6926593 3.03864,43.6926593 L23.88024,47.5656264 L52.32024,47.5656264 L55.72464,39.0192527 C55.72464,39.0192527 55.62264,27.4135385 55.72464,25.7348571 C56.43384,14.3071648 46.96344,4.09265934 38.76864,1.82320879" id="Fill-16" fill="#90A4AE" mask="url(#mask-6)"></path>
                        </g>
                        <path d="M48.49992,32.6080879 C46.60872,20.3166593 59.56152,5.91138462 70.74312,11.9034725 L70.74312,78.5535824 L68.48472,78.5535824 L63.12552,76.5017143 C62.06472,76.0955604 61.12272,75.3847912 60.39312,74.4445714 L54.33432,67.0665495 L50.28792,58.5425934 C50.28792,58.5425934 44.97672,56.648967 41.40072,46.4990769 C39.76632,33.6775385 47.05392,37.4568791 47.05392,37.4568791 L48.49992,32.6080879 Z M95.89056,37.4566154 C95.89056,37.4566154 103.17456,33.6772747 101.54376,46.4988132 C97.96656,56.650022 92.65296,58.5436484 92.65296,58.5436484 L87.88056,67.0676044 L82.54896,74.4443077 C81.82176,75.3858462 80.87736,76.0952967 79.81776,76.5014505 L74.45976,78.5533187 L71.47176,78.5533187 L70.74336,78.5533187 L70.74336,11.9032088 C70.98456,12.0324396 71.23056,12.1155165 71.47176,12.2645275 C81.28896,14.3889231 96.37416,20.0487033 94.44456,32.6078242 L95.89056,37.4566154 Z" id="Combined-Shape" stroke="none" fill="#F2C4A5" fill-rule="evenodd"></path>
                        <path d="M76.94016,7.76637363 C76.57656,7.49868132 55.46136,5.58791209 54.73056,12.2657143 C54.47976,14.5628571 62.45136,22.8296703 69.99816,25.7136264 L69.99816,21.3896703 C71.39016,22.6846154 73.05216,24.0626374 74.99856,25.3971429 C77.78136,27.303956 80.41776,28.6186813 82.65456,29.5364835 C82.08576,27.8881319 81.51936,26.2424176 80.95416,24.5940659 L85.45056,31.2731868 C87.10296,32.8793407 89.91456,34.7043956 90.89736,36.9171429 C91.87536,39.121978 91.81656,42.7892308 91.76856,45.1918681 C92.27376,45.1035165 93.28536,44.9254945 93.28536,44.9254945 C93.28536,44.9254945 94.31496,40.3285714 94.80816,39.0784615 C95.35296,37.6951648 96.45096,37.4630769 96.99576,36.0810989 C96.99576,36.0810989 94.75056,18.3079121 94.26576,17.4679121 C93.78456,16.6265934 77.30736,8.03274725 76.94016,7.76637363" id="Fill-23" stroke="none" fill="#90A4AE" fill-rule="evenodd"></path>
                        <path d="M43.76088,25.714022 C43.76088,25.714022 45.59808,33.8252308 45.94848,35.5461099 C46.54248,38.4709451 47.88288,40.9777582 48.05208,44.0845714 C48.52128,44.0819341 48.99288,44.0806154 49.46208,44.0792967 C49.47528,41.9311648 49.72248,40.2261099 50.16168,38.1716044 C50.41008,37.0045714 50.64528,35.8335824 50.87928,34.6612747 C51.10608,33.5074286 51.13848,30.8225934 51.78168,29.9377582 C55.89048,24.4942418 56.15088,12.2647912 56.15088,12.2647912 L46.43568,21.6564396 L43.76088,25.714022 Z" id="Fill-25" stroke="none" fill="#90A4AE" fill-rule="evenodd"></path>
                        <path d="M70.74324,57.9978462 C74.29524,57.716967 78.07764,59.004 80.34564,61.9921319 C82.77444,65.1965275 82.10004,70.2338901 81.22284,73.793011 C80.34564,77.3508132 78.58044,77.3508132 77.66964,78.5534505 C77.58804,78.6615824 74.11164,80.331033 71.35164,80.7266374 C71.15124,80.6976264 70.94604,80.6501538 70.74324,80.6092747 L70.74324,69.0721319 C70.75884,69.0694945 70.77324,69.0668571 70.79124,69.0668571 C71.43324,69.0088352 72.10524,68.9811429 72.70164,69.2501538 C73.20084,69.4756484 73.60644,69.8936703 74.02044,70.2774066 C74.53524,70.7534505 75.08844,71.1952088 75.72324,71.4325714 C76.36044,71.6712527 77.09244,71.6804835 77.67564,71.3191648 C78.64764,70.7152088 78.79284,68.8993846 78.58044,67.8154286 C77.91564,64.3947692 75.09444,61.8576264 71.16924,61.8576264 C71.00964,61.8576264 70.89684,61.9077363 70.74324,61.9143297 L70.74324,57.9978462 Z M62.96556,61.8573626 C64.12836,60.3237363 65.83836,59.3676923 67.52316,58.7136264 C68.53716,58.3193407 69.63036,58.0859341 70.74276,57.9975824 L70.74276,61.9140659 C67.11156,62.0564835 65.02956,63.841978 63.92196,67.1228571 C63.64596,67.9404396 63.61596,69.7404396 64.27236,70.3945055 C64.99596,71.1158242 66.56316,70.8428571 67.47756,70.4393407 C67.57116,70.3971429 67.65876,70.3536264 67.73796,70.3114286 C68.25156,70.0265934 68.71236,69.6243956 69.24756,69.3896703 C69.72036,69.183956 70.23516,69.1193407 70.74276,69.0718681 L70.74276,80.6103297 C68.11596,80.0828571 65.19276,78.6257143 65.09076,78.5531868 C64.90836,78.42 62.35716,77.3518681 61.47636,73.7927473 C60.59916,70.2349451 60.53316,65.0630769 62.96556,61.8573626 Z" id="Combined-Shape" stroke="none" fill="#879AA3" fill-rule="evenodd"></path>
                        <path d="M42.54096,42.202022 C42.38736,42.5831209 42.29376,43.0024615 42.28176,43.4257582 C42.30576,42.5171868 44.11776,41.7853187 44.73576,42.2231209 C45.60456,42.8363077 45.50136,45.1980659 45.51936,46.1396044 C44.61216,49.7053187 46.31256,51.5145495 48.74496,52.0486154 C49.35096,49.6446593 47.40816,43.9018022 45.82776,41.5466374 C44.66016,39.8099341 43.14096,40.7185055 42.54096,42.202022" id="Fill-47" stroke="none" fill="#E7B088" fill-rule="evenodd"></path>
                        <path d="M96.73788,41.5465055 C95.15868,43.9016703 93.21228,49.6445275 93.82068,52.0484835 C96.25188,51.5157363 97.95588,49.7051868 97.04748,46.1394725 C97.06308,45.1979341 96.96228,42.8374945 97.82748,42.222989 C98.44908,41.7851868 100.26108,42.5170549 100.28508,43.4256264 C100.27308,43.0023297 100.17948,42.582989 100.02468,42.2018901 C99.42228,40.7183736 97.90668,39.8098022 96.73788,41.5465055" id="Fill-49" stroke="none" fill="#E7B088" fill-rule="evenodd"></path>
                        <path d="M90.24444,12.8407912 C91.85724,15.8948571 94.80804,19.4526593 95.17044,23.0592527 C93.71604,21.4557363 91.82604,17.0473846 88.21404,15.8447473 C90.25044,18.4504615 92.96964,21.3054066 93.70644,26.9585934 C92.07084,24.4623297 88.21404,20.4548571 88.21404,20.4548571 C88.21404,20.4548571 92.96964,27.9330989 93.70644,30.2698022 C91.16124,28.4684835 88.21404,25.3999121 88.21404,25.3999121 L91.89084,31.4724396 C91.89084,31.4724396 86.78484,30.4451868 84.78084,26.2504615 C84.34284,25.3352967 84.17004,29.0698022 88.21404,31.4724396 C92.25684,33.8763956 92.80164,41.0724396 92.80164,41.0724396 C92.80164,41.0724396 94.98924,37.2838681 96.99564,36.0812308 C96.06684,28.9603516 100.08204,19.0504615 90.24444,12.8407912" id="Fill-51" stroke="none" fill="#78909C" fill-rule="evenodd"></path>
                        <path d="M55.155,7.31037363 C53.0574,7.28795604 50.5062,10.0360879 50.5062,10.0360879 C50.5062,10.0360879 53.1486,9.13410989 53.8782,9.93586813 C51.6018,9.95564835 49.9554,14.5433407 49.9554,14.5433407 C49.9554,14.5433407 52.8762,11.6382857 54.3342,12.2646593 C52.0566,13.8932308 50.5974,19.0505934 50.8698,21.6563077 C51.1446,17.8492747 54.7974,14.2426813 54.7974,14.2426813 C54.7974,14.2426813 53.3322,22.8576264 53.5146,24.4611429 C54.6978,21.6563077 55.3362,15.8448791 56.0778,13.764 C54.0858,10.9815824 55.155,7.31037363 55.155,7.31037363" id="Fill-53" stroke="none" fill="#78909C" fill-rule="evenodd"></path>
                        <path d="M69.1616211,89.1240234 C69.2175157,89.9065561 69.2175157,90.5092579 69.1616211,90.9321289 C68.1825983,98.338926 67.4082995,103.559715 67.3623047,106.302246 C67.2004041,115.955887 69.2668918,123.925502 72.559082,129.619873 L73.7536621,129.22876 C75.0575857,120.172255 75.7656749,113.492771 75.8779297,109.190308 C76.0449552,102.788613 74.9394854,95.4089429 73.7536621,90.9321289 C73.6077599,90.3813074 74.5234757,89.6015907 74.376709,89.1240234 L71.9957961,88.7607422 L69.1616211,89.1240234 Z" id="Path-3" stroke="none" fill="#9B5C8F" fill-rule="evenodd"></path>
                        <g id="Group-8-Copy" stroke="none" stroke-width="1" fill="none" fill-rule="evenodd" transform="translate(39.000000, 72.000000)">
                            <path d="M10.8017578,0.654785156 L2.77038961,15.5454545 L6.23376623,18.6623377 L0,23.8571429 C0,23.8571429 17.2928909,50.2390785 28.3754883,60.2827148 L34.4208984,58 C34.4208984,58 18.0683594,21.9199219 16.1381836,9.65283203 L10.8017578,0.654785156 Z" id="Fill-21" fill="#6F546D"></path>
                            <path d="M47.9804688,9.84521484 L53.4960938,0.630859375 L63.2857143,16.0649351 L55.4935065,20.2207792 C55.4935065,20.2207792 64.0649351,27.2337662 64.5844156,30.0909091 C64.5844156,30.0909091 45.2326078,59.9982484 29.767297,70.8641574 C29.5104236,71.0446363 29.2546225,71.2198621 29,71.3896104 C33.1157227,58 49.0194298,16.8582019 47.9804688,9.84521484 Z" id="Fill-23" fill="#6F546D"></path>
                        </g>
                    </g>
                </g>
            </g>
        </g>
    </g>
</svg>