<?xml version="1.0" encoding="UTF-8"?>
<svg width="14px" height="14px" viewBox="0 0 14 14" version="1.1" xmlns="http://www.w3.org/2000/svg" xmlns:xlink="http://www.w3.org/1999/xlink">
    <!-- Generator: Sketch 52.5 (67469) - http://www.bohemiancoding.com/sketch -->
    <title>快速评价</title>
    <desc>Created with Sketch.</desc>
    <g id="1.5.1" stroke="none" stroke-width="1" fill="none" fill-rule="evenodd">
        <g id="猎聘曝光/上传记录" transform="translate(-539.000000, -129.000000)">
            <rect fill="#F9F9F9" x="0" y="0" width="1920" height="1080"></rect>
            <rect id="矩形" fill="#FFFFFF" x="260" y="106" width="1650" height="964"></rect>
            <g id="快速评价" transform="translate(539.000000, 129.000000)">
                <g>
                    <g id="曝光-copy">
                        <circle id="椭圆形" fill="#FFC53D" cx="7" cy="7" r="7"></circle>
                        <rect id="矩形" fill="#000000" opacity="0" x="1" y="1" width="12" height="12"></rect>
                    </g>
                    <g id="评价" transform="translate(2.000000, 2.000000)">
                        <rect id="矩形" fill="#000000" opacity="0" x="0" y="0" width="10" height="10"></rect>
                        <path d="M8.0078125,5 C8.0078125,4.83819336 8.13897461,4.70703125 8.30078125,4.70703125 C8.46258789,4.70703125 8.59375,4.83819336 8.59375,5 L8.59375,7.54963867 C8.59375,7.83200195 8.56469727,7.98243164 8.48085938,8.13918945 C8.40249023,8.28573242 8.28574219,8.40249023 8.13918945,8.48085938 C7.98243164,8.56469727 7.83200195,8.59375 7.54963867,8.59375 L2.45036133,8.59375 C2.16799805,8.59375 2.01756836,8.56469727 1.86081055,8.48085938 C1.71426758,8.40249023 1.59750977,8.28574219 1.51914062,8.13918945 C1.43530273,7.98243164 1.40625,7.83200195 1.40625,7.54963867 L1.40625,2.45036133 C1.40625,2.16799805 1.43530273,2.01756836 1.51914062,1.86081055 C1.59750977,1.71426758 1.71425781,1.59750977 1.86081055,1.51914062 C2.01756836,1.43530273 2.16799805,1.40625 2.45036133,1.40625 L5,1.40625 C5.16180664,1.40625 5.29296875,1.53741211 5.29296875,1.69921875 C5.29296875,1.86102539 5.16180664,1.9921875 5,1.9921875 L2.45036133,1.9921875 C2.25645508,1.9921875 2.19740234,2.00359375 2.13713867,2.03582031 C2.09270508,2.05958984 2.05958984,2.09270508 2.03582031,2.13713867 C2.00359375,2.19740234 1.9921875,2.25645508 1.9921875,2.45036133 L1.9921875,7.54963867 C1.9921875,7.74354492 2.00359375,7.80259766 2.03582031,7.86286133 C2.05958984,7.90729492 2.09270508,7.94041016 2.13713867,7.96417969 C2.19740234,7.99640625 2.25645508,8.0078125 2.45036133,8.0078125 L7.54963867,8.0078125 C7.74354492,8.0078125 7.80259766,7.99640625 7.86286133,7.96417969 C7.90729492,7.94041016 7.94041016,7.90729492 7.96417969,7.86286133 C7.99640625,7.80259766 8.0078125,7.74354492 8.0078125,7.54963867 L8.0078125,5 Z M7.44479492,2.01171875 L7.99722656,2.56415039 L5.02898437,5.53238281 C4.99689453,5.56448242 4.98462891,5.57442383 4.96948242,5.58388672 C4.95474992,5.59318867 4.93853706,5.59990633 4.92154297,5.60375 C4.90415039,5.60775391 4.8884375,5.6094043 4.84305664,5.6094043 L4.49969727,5.6094043 C4.46487305,5.6094043 4.45223633,5.60577148 4.43951172,5.59896484 C4.42692982,5.59230451 4.41664081,5.58201549 4.40998047,5.56943359 C4.40317383,5.55669922 4.39954102,5.54407227 4.39954102,5.50924805 L4.39954102,5.16588867 C4.39954102,5.12049805 4.40119141,5.10479492 4.40520508,5.08740234 C4.40904467,5.07040549 4.41575905,5.05418927 4.42505859,5.03945312 C4.43453125,5.02431641 4.44446289,5.01205078 4.4765625,4.97996094 L7.44479492,2.01171875 Z M8.16268555,1.56742187 L8.43183594,1.83657227 C8.48109375,1.88582031 8.49381836,1.90880859 8.50219727,1.93644531 C8.51057617,1.96408203 8.51057617,1.99234375 8.50219727,2.0199707 C8.49381836,2.04760742 8.48109375,2.0705957 8.43183594,2.11984375 L8.22821289,2.32347656 L7.67578125,1.77104492 L7.87941406,1.56742187 C7.92866211,1.51816406 7.95165039,1.50543945 7.97928711,1.49706055 C8.00649906,1.48868532 8.03560055,1.48868532 8.0628125,1.49706055 C8.09044922,1.50543945 8.1134375,1.51816406 8.16268555,1.56742187 Z" id="形状" fill="#FFFFFF" fill-rule="nonzero"></path>
                    </g>
                </g>
            </g>
            <g id="快速评价" transform="translate(539.000000, 129.000000)">
                <g>
                    <g id="曝光-copy">
                        <circle id="椭圆形" fill="#FFC53D" cx="7" cy="7" r="7"></circle>
                        <rect id="矩形" fill="#000000" opacity="0" x="1" y="1" width="12" height="12"></rect>
                    </g>
                    <g id="评价" transform="translate(2.000000, 2.000000)">
                        <rect id="矩形" fill="#000000" opacity="0" x="0" y="0" width="10" height="10"></rect>
                        <path d="M8.0078125,5 C8.0078125,4.83819336 8.13897461,4.70703125 8.30078125,4.70703125 C8.46258789,4.70703125 8.59375,4.83819336 8.59375,5 L8.59375,7.54963867 C8.59375,7.83200195 8.56469727,7.98243164 8.48085938,8.13918945 C8.40249023,8.28573242 8.28574219,8.40249023 8.13918945,8.48085938 C7.98243164,8.56469727 7.83200195,8.59375 7.54963867,8.59375 L2.45036133,8.59375 C2.16799805,8.59375 2.01756836,8.56469727 1.86081055,8.48085938 C1.71426758,8.40249023 1.59750977,8.28574219 1.51914062,8.13918945 C1.43530273,7.98243164 1.40625,7.83200195 1.40625,7.54963867 L1.40625,2.45036133 C1.40625,2.16799805 1.43530273,2.01756836 1.51914062,1.86081055 C1.59750977,1.71426758 1.71425781,1.59750977 1.86081055,1.51914062 C2.01756836,1.43530273 2.16799805,1.40625 2.45036133,1.40625 L5,1.40625 C5.16180664,1.40625 5.29296875,1.53741211 5.29296875,1.69921875 C5.29296875,1.86102539 5.16180664,1.9921875 5,1.9921875 L2.45036133,1.9921875 C2.25645508,1.9921875 2.19740234,2.00359375 2.13713867,2.03582031 C2.09270508,2.05958984 2.05958984,2.09270508 2.03582031,2.13713867 C2.00359375,2.19740234 1.9921875,2.25645508 1.9921875,2.45036133 L1.9921875,7.54963867 C1.9921875,7.74354492 2.00359375,7.80259766 2.03582031,7.86286133 C2.05958984,7.90729492 2.09270508,7.94041016 2.13713867,7.96417969 C2.19740234,7.99640625 2.25645508,8.0078125 2.45036133,8.0078125 L7.54963867,8.0078125 C7.74354492,8.0078125 7.80259766,7.99640625 7.86286133,7.96417969 C7.90729492,7.94041016 7.94041016,7.90729492 7.96417969,7.86286133 C7.99640625,7.80259766 8.0078125,7.74354492 8.0078125,7.54963867 L8.0078125,5 Z M7.44479492,2.01171875 L7.99722656,2.56415039 L5.02898437,5.53238281 C4.99689453,5.56448242 4.98462891,5.57442383 4.96948242,5.58388672 C4.95474992,5.59318867 4.93853706,5.59990633 4.92154297,5.60375 C4.90415039,5.60775391 4.8884375,5.6094043 4.84305664,5.6094043 L4.49969727,5.6094043 C4.46487305,5.6094043 4.45223633,5.60577148 4.43951172,5.59896484 C4.42692982,5.59230451 4.41664081,5.58201549 4.40998047,5.56943359 C4.40317383,5.55669922 4.39954102,5.54407227 4.39954102,5.50924805 L4.39954102,5.16588867 C4.39954102,5.12049805 4.40119141,5.10479492 4.40520508,5.08740234 C4.40904467,5.07040549 4.41575905,5.05418927 4.42505859,5.03945312 C4.43453125,5.02431641 4.44446289,5.01205078 4.4765625,4.97996094 L7.44479492,2.01171875 Z M8.16268555,1.56742187 L8.43183594,1.83657227 C8.48109375,1.88582031 8.49381836,1.90880859 8.50219727,1.93644531 C8.51057617,1.96408203 8.51057617,1.99234375 8.50219727,2.0199707 C8.49381836,2.04760742 8.48109375,2.0705957 8.43183594,2.11984375 L8.22821289,2.32347656 L7.67578125,1.77104492 L7.87941406,1.56742187 C7.92866211,1.51816406 7.95165039,1.50543945 7.97928711,1.49706055 C8.00649906,1.48868532 8.03560055,1.48868532 8.0628125,1.49706055 C8.09044922,1.50543945 8.1134375,1.51816406 8.16268555,1.56742187 Z" id="形状" fill="#FFFFFF" fill-rule="nonzero"></path>
                    </g>
                </g>
            </g>
        </g>
    </g>
</svg>