<?xml version="1.0" encoding="UTF-8"?>
<svg width="48px" height="48px" viewBox="0 0 48 48" version="1.1" xmlns="http://www.w3.org/2000/svg" xmlns:xlink="http://www.w3.org/1999/xlink">
    <!-- Generator: Sketch 49 (51002) - http://www.bohemiancoding.com/sketch -->
    <title>ic_add</title>
    <desc>Created with Sketch.</desc>
    <defs></defs>
    <g id="Symbols" stroke="none" stroke-width="1" fill="none" fill-rule="evenodd">
        <g id="ic_add" fill="#97A2B3">
            <g id="Fill-1">
                <path d="M42.5633483,34.4628556 L37.710898,34.4628556 L37.710898,29.6441007 L34.4427656,29.6441007 L34.4427656,34.4628556 L29.5922225,34.4628556 L29.5922225,37.7964715 L34.4427656,37.7964715 L34.4427656,42.6171338 L37.710898,42.6171338 L37.710898,37.7964715 L42.5633483,37.7964715 L42.5633483,34.4628556 Z M47.823004,36.1266437 C47.823004,42.6079152 42.5690702,47.8637563 36.0862093,47.8637563 C29.6030305,47.8637563 24.3494146,42.6098225 24.3494146,36.1266437 C24.3494146,29.6441007 29.6030305,24.3901669 36.0862093,24.3901669 C42.5690702,24.3901669 47.823004,29.6441007 47.823004,36.1266437 Z M27.6251762,47.2410278 C24.9889907,47.6498225 22.1407788,47.8936371 19.3742623,47.8936371 C10.1957722,47.8936371 6.35761589e-05,46.9546172 6.35761589e-05,42.5761272 L6.35761589e-05,39.4507232 C6.35761589e-05,35.4168159 6.17426225,31.6874384 12.8910834,30.3949351 C12.8910834,30.3949351 14.9194808,29.3170013 14.4289907,27.2736636 C12.2963285,24.696604 11.8465272,21.9660079 11.8465272,21.9660079 C11.4803285,21.805796 10.9558252,21.4914119 10.6306331,21.0622728 C9.87757351,20.0412397 9.18809007,17.8440477 9.33844768,16.3102728 C9.49484503,14.7189616 9.92207682,15.2262993 9.97071258,14.9697695 C8.62099073,11.5264848 9.26406358,7.31011391 10.9933351,4.2199947 C14.4585536,-1.97677351 21.895057,-0.15277351 23.0832954,2.17316026 C30.2000106,0.849186755 29.8878517,11.9375046 28.9227656,14.8918887 C28.9227656,14.8918887 29.569653,15.0180874 29.4266066,17.7267497 C29.2946861,20.4430411 26.9948185,22.2521007 26.9948185,22.2521007 C26.9223417,22.9956238 26.0151099,25.2694252 24.5223417,27.2736636 C24.2394278,27.8684185 24.1745801,28.3481007 24.2251232,28.7460874 C22.884302,30.8914649 22.0959576,33.4160742 22.0959576,36.1266437 C22.0959576,40.659306 24.2712159,44.6827232 27.6251762,47.2410278 Z"></path>
            </g>
        </g>
    </g>
</svg>