<?xml version="1.0" encoding="UTF-8"?>
<svg width="14px" height="14px" viewBox="0 0 14 14" version="1.1" xmlns="http://www.w3.org/2000/svg" xmlns:xlink="http://www.w3.org/1999/xlink">
    <!-- Generator: Sketch 52.5 (67469) - http://www.bohemiancoding.com/sketch -->
    <title>环保评价</title>
    <desc>Created with Sketch.</desc>
    <g id="1.5.1" stroke="none" stroke-width="1" fill="none" fill-rule="evenodd">
        <g id="猎聘曝光/上传记录" transform="translate(-315.000000, -129.000000)">
            <rect fill="#F9F9F9" x="0" y="0" width="1920" height="1080"></rect>
            <rect id="矩形" fill="#FFFFFF" x="260" y="106" width="1650" height="964"></rect>
            <g id="环保评价" transform="translate(314.000000, 128.000000)">
                <g>
                    <circle id="椭圆形" fill="#66ADFF" cx="8" cy="8" r="7"></circle>
                    <rect id="矩形" fill="#000000" opacity="0" x="0" y="0" width="16" height="16"></rect>
                    <path d="M10.0213333,6.70933333 L8.41413333,3.49493333 C8.32380636,3.31420582 8.13910971,3.20003623 7.93706666,3.20003623 C7.73502362,3.20003623 7.55032697,3.31420582 7.46,3.49493333 L5.73333333,6.94906667 L6.1472,7.188 L7.69893333,4.08453333 C7.74414966,3.99431602 7.83641912,3.93735119 7.93733333,3.93735119 C8.03824754,3.93735119 8.130517,3.99431602 8.17573333,4.08453333 L9.52773333,6.78826667 L9.196,6.69946667 C9.10303671,6.67181792 9.00239171,6.69682264 8.93317719,6.76476363 C8.86396267,6.83270462 8.83709338,6.93286795 8.86301113,7.02632863 C8.88892888,7.11978931 8.96354659,7.19180909 9.05786667,7.2144 L10.0882667,7.49066667 C10.1565576,7.509135 10.2293931,7.49962459 10.2906523,7.46424039 C10.3519115,7.42885619 10.3965423,7.37051637 10.4146667,7.30213333 L10.6909333,6.27173333 C10.7291514,6.12939114 10.6447422,5.98301812 10.5024,5.94480001 C10.3600578,5.90658191 10.2136848,5.99099115 10.1754667,6.13333333 L10.0213333,6.7088 L10.0213333,6.70933333 Z M5.1032,8.2088 L3.7896,10.8354667 C3.70673381,11.0008353 3.71546801,11.1973321 3.81267954,11.3546963 C3.90989107,11.5120605 4.08169756,11.6078196 4.26666667,11.6077333 L7.46666667,11.6077334 L7.46666667,11.0744 L4.6352,11.0744 C4.54281597,11.0743507 4.45703902,11.0264886 4.40848146,10.9478948 C4.3599239,10.8693011 4.35550432,10.771174 4.3968,10.6885333 L5.5208,8.44053333 L5.64213333,8.8928 C5.6664066,8.98523334 5.7382875,9.05761034 5.83055171,9.08251878 C5.92281592,9.10742722 6.02135513,9.08105829 6.08884837,9.01339902 C6.15634161,8.94573975 6.18246837,8.84713606 6.15733333,8.75493333 L5.88106667,7.72453333 C5.86294233,7.65615029 5.81831146,7.59781047 5.75705225,7.56242628 C5.69579305,7.52704208 5.62295761,7.51753167 5.55466667,7.536 L4.52426667,7.812 C4.38199812,7.85014447 4.29758887,7.99639811 4.33573334,8.13866666 C4.3738778,8.28093522 4.52013145,8.36534447 4.6624,8.3272 L5.1032,8.20906667 L5.1032,8.2088 Z M9.09706667,11.6074667 L11.6074667,11.6074667 C11.7922822,11.6074604 11.9639209,11.5117732 12.0611003,11.3545697 C12.1582796,11.1973662 12.1671459,11.0010571 12.0845333,10.8357333 L10.6472,7.96106667 L10.2333333,8.2 L11.4773333,10.6882667 C11.518629,10.7709073 11.5142094,10.8690344 11.4656519,10.9476282 C11.4170943,11.0262219 11.3313174,11.074084 11.2389333,11.0741333 L8.9448,11.0741333 L9.32,10.6989333 C9.38932193,10.6319802 9.41712366,10.5328325 9.39271956,10.4395979 C9.36831547,10.3463633 9.29550339,10.2735512 9.20226877,10.2491471 C9.10903415,10.224743 9.00988648,10.2525447 8.94293333,10.3218667 L8.18853333,11.0762667 C8.1383442,11.1261694 8.11012404,11.1940241 8.11012404,11.2648 C8.11012404,11.3355759 8.1383442,11.4034306 8.18853333,11.4533333 L8.94293333,12.2074667 C9.04756771,12.3085259 9.21388923,12.3070806 9.31675156,12.2042182 C9.41961388,12.1013559 9.4210592,11.9350344 9.32,11.8304 L9.09706667,11.6074667 Z" id="形状" fill="#FFFFFF" fill-rule="nonzero"></path>
                </g>
            </g>
            <g id="多维度评价" transform="translate(314.000000, 128.000000)">
                <g id="环保评价">
                    <circle id="椭圆形" fill="#66ADFF" cx="8" cy="8" r="7"></circle>
                    <rect id="矩形" fill="#000000" opacity="0" x="0" y="0" width="16" height="16"></rect>
                    <path d="M10.0213333,6.70933333 L8.41413333,3.49493333 C8.32380636,3.31420582 8.13910971,3.20003623 7.93706666,3.20003623 C7.73502362,3.20003623 7.55032697,3.31420582 7.46,3.49493333 L5.73333333,6.94906667 L6.1472,7.188 L7.69893333,4.08453333 C7.74414966,3.99431602 7.83641912,3.93735119 7.93733333,3.93735119 C8.03824754,3.93735119 8.130517,3.99431602 8.17573333,4.08453333 L9.52773333,6.78826667 L9.196,6.69946667 C9.10303671,6.67181792 9.00239171,6.69682264 8.93317719,6.76476363 C8.86396267,6.83270462 8.83709338,6.93286795 8.86301113,7.02632863 C8.88892888,7.11978931 8.96354659,7.19180909 9.05786667,7.2144 L10.0882667,7.49066667 C10.1565576,7.509135 10.2293931,7.49962459 10.2906523,7.46424039 C10.3519115,7.42885619 10.3965423,7.37051637 10.4146667,7.30213333 L10.6909333,6.27173333 C10.7291514,6.12939114 10.6447422,5.98301812 10.5024,5.94480001 C10.3600578,5.90658191 10.2136848,5.99099115 10.1754667,6.13333333 L10.0213333,6.7088 L10.0213333,6.70933333 Z M5.1032,8.2088 L3.7896,10.8354667 C3.70673381,11.0008353 3.71546801,11.1973321 3.81267954,11.3546963 C3.90989107,11.5120605 4.08169756,11.6078196 4.26666667,11.6077333 L7.46666667,11.6077334 L7.46666667,11.0744 L4.6352,11.0744 C4.54281597,11.0743507 4.45703902,11.0264886 4.40848146,10.9478948 C4.3599239,10.8693011 4.35550432,10.771174 4.3968,10.6885333 L5.5208,8.44053333 L5.64213333,8.8928 C5.6664066,8.98523334 5.7382875,9.05761034 5.83055171,9.08251878 C5.92281592,9.10742722 6.02135513,9.08105829 6.08884837,9.01339902 C6.15634161,8.94573975 6.18246837,8.84713606 6.15733333,8.75493333 L5.88106667,7.72453333 C5.86294233,7.65615029 5.81831146,7.59781047 5.75705225,7.56242628 C5.69579305,7.52704208 5.62295761,7.51753167 5.55466667,7.536 L4.52426667,7.812 C4.38199812,7.85014447 4.29758887,7.99639811 4.33573334,8.13866666 C4.3738778,8.28093522 4.52013145,8.36534447 4.6624,8.3272 L5.1032,8.20906667 L5.1032,8.2088 Z M9.09706667,11.6074667 L11.6074667,11.6074667 C11.7922822,11.6074604 11.9639209,11.5117732 12.0611003,11.3545697 C12.1582796,11.1973662 12.1671459,11.0010571 12.0845333,10.8357333 L10.6472,7.96106667 L10.2333333,8.2 L11.4773333,10.6882667 C11.518629,10.7709073 11.5142094,10.8690344 11.4656519,10.9476282 C11.4170943,11.0262219 11.3313174,11.074084 11.2389333,11.0741333 L8.9448,11.0741333 L9.32,10.6989333 C9.38932193,10.6319802 9.41712366,10.5328325 9.39271956,10.4395979 C9.36831547,10.3463633 9.29550339,10.2735512 9.20226877,10.2491471 C9.10903415,10.224743 9.00988648,10.2525447 8.94293333,10.3218667 L8.18853333,11.0762667 C8.1383442,11.1261694 8.11012404,11.1940241 8.11012404,11.2648 C8.11012404,11.3355759 8.1383442,11.4034306 8.18853333,11.4533333 L8.94293333,12.2074667 C9.04756771,12.3085259 9.21388923,12.3070806 9.31675156,12.2042182 C9.41961388,12.1013559 9.4210592,11.9350344 9.32,11.8304 L9.09706667,11.6074667 Z" id="形状" fill="#FFFFFF" fill-rule="nonzero"></path>
                </g>
            </g>
        </g>
    </g>
</svg>