<?xml version="1.0" encoding="UTF-8"?>
<svg width="141px" height="141px" viewBox="0 0 141 141" version="1.1" xmlns="http://www.w3.org/2000/svg" xmlns:xlink="http://www.w3.org/1999/xlink">
    <!-- Generator: Sketch 49 (51002) - http://www.bohemiancoding.com/sketch -->
    <title>women_60＋</title>
    <desc>Created with Sketch.</desc>
    <defs>
        <circle id="path-1" cx="70.5" cy="70.5" r="70.5"></circle>
        <polygon id="path-3" points="0.00432142857 0.0937244898 33.6347449 0.0937244898 33.6347449 84.6517347 0.00432142857 84.6517347"></polygon>
        <polygon id="path-5" points="0 0.280612245 43.0311582 0.280612245 43.0311582 101.581633 0 101.581633"></polygon>
    </defs>
    <g id="Symbols" stroke="none" stroke-width="1" fill="none" fill-rule="evenodd">
        <g id="women_60＋">
            <g>
                <mask id="mask-2" fill="white">
                    <use xlink:href="#path-1"></use>
                </mask>
                <g id="Mask">
                    <use fill="#FFFFFF" fill-rule="evenodd" xlink:href="#path-1"></use>
                    <circle stroke="#E5E5E5" stroke-width="0.8" cx="70.5" cy="70.5" r="70.1"></circle>
                </g>
                <g id="Page-1" mask="url(#mask-2)">
                    <g transform="translate(12.000000, 11.000000)">
                        <path d="M40.2250357,204.744235 C40.2250357,204.744235 55.190648,208.485918 61.1772296,208.111582 L67.9119235,190.152398 L76.8915153,202.873112 C76.8915153,202.873112 91.4839133,200.254439 94.4769235,195.390306 L85.4973316,114.948316 L79.51075,86.1389796 L62.0662092,89.6932143 L61.7384541,89.3660204 L60.2888112,89.5529082 L42.890852,92.0784184 L36.2964643,149.463622 L40.2250357,204.744235 Z" id="Fill-1" fill="#844C78"></path>
                        <path d="M64.1121531,92.5519235 C64.1121531,93.5980459 62.0193469,94.0251378 60.9726633,94.0251378 C59.9265408,94.0251378 58.6750102,92.6046786 59.587,91.0961071 C60.1280204,90.2015153 60.224551,89.4124337 61.2712347,89.4124337 C62.3173571,89.4124337 64.1121531,91.505801 64.1121531,92.5519235" id="Fill-7" fill="#91342D"></path>
                        <path d="M75.8627908,145.254439 L79.2301378,166.861582 C79.2301378,166.861582 92.138301,201.376888 91.2964643,212.040153 C91.2964643,212.040153 97.7505459,211.478929 99.9954439,206.989133 C102.240342,202.499337 105.888301,171.63199 104.204628,150.024847 C102.520954,128.417704 94.1025867,94.1830102 94.1025867,94.1830102 L83.4393214,91.3768878 L75.3015663,110.45852 L75.8627908,145.254439 Z" id="Fill-9" fill="#212623"></path>
                        <path d="M50.6076888,146.6575 C50.6076888,146.6575 53.9750357,204.463622 43.3117704,219.616684 C43.3117704,219.616684 35.1740153,216.810561 27.3168724,218.494235 C19.4597296,220.177908 14.1280969,212.88199 14.1280969,212.88199 C14.1280969,212.88199 7.11279082,180.892194 11.883199,159.846276 C16.6536071,138.800357 18.8985051,104.004439 18.8985051,104.004439 L34.0515663,89.412602 L45.5566684,101.759541 L48.9941684,111.089898 L50.6076888,146.6575 Z" id="Fill-11" fill="#212623"></path>
                        <g id="Group-15" stroke-width="1" fill="none" transform="translate(82.500000, 77.065663)">
                            <mask id="mask-4" fill="white">
                                <use xlink:href="#path-3"></use>
                            </mask>
                            <g id="Clip-14"></g>
                            <path d="M0.00432142857,0.0937244898 C0.00432142857,0.0937244898 10.105801,7.38964286 16.6536071,9.82142857 C23.2014133,12.2537755 24.8850867,27.7806122 24.8850867,27.7806122 C24.8850867,27.7806122 34.6127908,50.7913776 33.3034541,57.7129592 C33.3034541,57.7129592 34.8002398,73.0529082 31.4328929,75.1109184 C31.4328929,75.1109184 24.51075,82.9680612 20.0209541,84.6517347 L7.86146429,71.9304592 C7.86146429,71.9304592 11.22825,63.1377551 16.0923827,61.4540816 C16.0923827,61.4540816 13.4737092,59.2097449 16.2798316,57.1517347 L9.54513776,36.7602041 C9.54513776,36.7602041 7.11335204,3.83540816 0.00432142857,0.0937244898" id="Fill-13" fill="#2A302C" mask="url(#mask-4)"></path>
                        </g>
                        <g id="Group-22" stroke-width="1" fill="none" transform="translate(0.000000, 75.943214)">
                            <mask id="mask-6" fill="white">
                                <use xlink:href="#path-5"></use>
                            </mask>
                            <g id="Clip-21"></g>
                            <path d="M34.3321786,0.280612245 C34.3321786,0.280612245 24.51075,7.57653061 19.1791173,10.6632653 C13.8474847,13.75 12.4444235,14.0306122 8.2352398,28.3418367 C4.02605612,42.6530612 -0.744352041,52.755102 0.0974846939,63.9795918 C0.939321429,75.2040816 -3.55047449,79.6938776 11.0413622,90.0765306 C25.633199,100.459184 33.4903418,101.581633 33.4903418,101.581633 C33.4903418,101.581633 42.4699337,85.5867347 43.0311582,82.5 C43.0311582,82.5 37.115852,76.4505612 30.7762602,72.2610204 C27.9561071,70.3971939 25.0517704,68.9015306 22.5464643,68.4693878 C22.5464643,68.4693878 28.1587092,63.6989796 24.7913622,62.8571429 C24.7913622,62.8571429 27.3168724,57.244898 24.51075,56.4030612 L27.5974847,47.9846939 L28.7199337,30.3061224 C28.7199337,30.3061224 31.2454439,1.68367347 34.3321786,0.280612245" id="Fill-20" fill="#2A302C" mask="url(#mask-6)"></path>
                        </g>
                        <path d="M74.7052653,70.8921939 C74.7052653,70.8921939 96.3825612,78.8267857 95.6849592,101.606327 C95.6849592,101.606327 84.7399592,89.0994388 80.0722551,109.897296 C80.0722551,109.897296 78.6422551,130.985306 76.4725612,149.440051 C76.4725612,149.440051 69.7350612,106.467092 73.062,98.0515306 C76.3895,89.6354082 75.2221531,72.5186224 74.7052653,70.8921939" id="Fill-23" fill="#324141"></path>
                        <path d="M41.3474847,69.7697449 C41.3474847,69.7697449 21.1434031,80.7136224 25.0719745,103.162602 C25.0719745,103.162602 39.9444235,88.8513776 47.5209541,108.774847 C47.5209541,108.774847 46.1178929,129.820765 50.888301,147.779949 C50.888301,147.779949 51.4495255,104.285051 46.9597296,96.4279082 C42.4699337,88.5707653 41.0668724,71.4534184 41.3474847,69.7697449" id="Fill-25" fill="#324141"></path>
                        <polygon id="Fill-27" fill="#9B5C8F" points="68.3038265 83.4846684 67.0410714 79.8367092 71.6711735 77.0305867 75.0385204 77.3201786 78.5461735 90.2193622 76.8625 92.8851786 72.3727041 92.8851786"></polygon>
                        <path d="M68.3832959,83.0250816 C68.3832959,83.0250816 70.3907959,80.6432449 70.8818673,79.4506429 L68.4966633,79.4506429 L68.3832959,83.0250816 Z" id="Fill-29" fill="#D39E8C"></path>
                        <polygon id="Fill-31" fill="#9B5C8F" points="52.1510561 77.9075 41.6280969 73.277398 41.2071786 88.8513776 45.4163622 94.8845408 55.0974847 82.3972959"></polygon>
                        <path d="M52.4070306,83.4646327 C52.4070306,83.4646327 50.2569796,80.2224388 50.4674388,78.7492245 L52.2212653,78.7492245 L52.4070306,83.4646327 Z" id="Fill-33" fill="#D39E8C"></path>
                        <path d="M80.7948878,68.6859082 C80.5642245,79.4148367 71.5290714,80.6119286 60.0997347,80.6119286 C48.670398,80.6119286 39.4045816,75.2724388 39.4045816,68.6859082 C39.4045816,57.8823367 48.670398,56.7598878 60.0997347,56.7598878 C71.5290714,56.7598878 81.0755,55.6374388 80.7948878,68.6859082" id="Fill-35" fill="#BDBCBC"></path>
                        <path d="M30.9396327,19.4384592 C30.9396327,19.4384592 14.2897857,60.5952959 45.1571327,64.1495306 L74.5282551,67.3294286 C74.5282551,67.3294286 90.2425408,66.7682041 89.8682041,45.4416735 C89.8682041,45.4416735 90.8037653,24.6769286 81.4498367,15.8842245 L56.5690714,7.09152041 L30.9396327,19.4384592 Z" id="Fill-37" fill="#C6C7C8"></path>
                        <path d="M80.1103622,53.1366224 C80.1103622,53.1366224 82.2867908,59.0126429 85.7484235,53.0793776 C87.5566888,49.983102 89.9228112,50.1946837 91.9853112,44.6307041 C95.2841888,35.7313673 82.5084745,28.0302449 80.6053622,42.415551 C79.2584235,52.5911122 80.1103622,53.1366224 80.1103622,53.1366224" id="Fill-39" fill="#F4CAB5"></path>
                        <path d="M82.5120102,49.252949 C82.5120102,49.252949 83.6423163,52.3065714 85.441602,49.2232041 C86.3822143,47.6141735 87.6118571,47.723051 88.6843571,44.8321837 C90.3977755,40.2060102 83.759051,36.2039184 82.7679286,43.6799898 C82.0686429,48.9700918 82.5120102,49.252949 82.5120102,49.252949" id="Fill-41" fill="#E5AF98"></path>
                        <path d="M82.5120102,49.252949 C82.5120102,49.252949 83.131602,50.9484082 84.9331327,47.8633571 C85.8720612,46.2548878 83.759051,36.2039184 82.7679286,43.6799898 C82.0686429,48.9700918 82.5120102,49.252949 82.5120102,49.252949" id="Fill-43" fill="#CC9785"></path>
                        <path d="M37.0742092,53.1366224 C37.0742092,53.1366224 34.8977806,59.0126429 31.436148,53.0793776 C29.6278827,49.983102 27.2617602,50.1946837 25.1992602,44.6307041 C21.9003827,35.7313673 34.6760969,28.0302449 36.5792092,42.415551 C37.926148,52.5911122 37.0742092,53.1366224 37.0742092,53.1366224" id="Fill-45" fill="#F4CAB5"></path>
                        <path d="M34.6725612,49.252949 C34.6725612,49.252949 33.5422551,52.3065714 31.7429694,49.2232041 C30.8023571,47.6141735 29.5727143,47.723051 28.5002143,44.8321837 C26.7867959,40.2060102 33.4255204,36.2039184 34.4166429,43.6799898 C35.1159286,48.9700918 34.6725612,49.252949 34.6725612,49.252949" id="Fill-47" fill="#E5AF98"></path>
                        <path d="M34.6725612,49.252949 C34.6725612,49.252949 34.0529694,50.9484082 32.2514388,47.8633571 C31.3125102,46.2548878 33.4255204,36.2039184 34.4166429,43.6799898 C35.1159286,48.9700918 34.6725612,49.252949 34.6725612,49.252949" id="Fill-49" fill="#CC9785"></path>
                        <path d="M48.2099133,68.8607296 C48.2099133,68.8607296 52.1300663,81.0707296 52.4073112,83.464352 C52.7350663,86.2996582 63.2002194,95.5508827 68.3831276,83.0249133 C68.3831276,83.0249133 71.6320561,70.6207296 72.1736378,69.2126173 L48.2099133,68.8607296 Z" id="Fill-51" fill="#E5B5A1"></path>
                        <path d="M62.3555765,73.9575459 C62.3555765,73.9575459 67.8039439,80.280301 63.2002194,88.6234643 C63.2002194,88.6234643 59.5146582,90.6539745 57.3421582,89.2722398 C57.3421582,89.2722398 52.1362398,75.0188214 58.2373112,73.7145357 L62.3555765,73.9575459 Z" id="Fill-53" fill="#D39E8C"></path>
                        <path d="M35.3669643,31.2403367 C35.3669643,31.2403367 32.1129847,13.2777857 42.9165561,9.37334694 C53.7195663,5.46834694 71.5047704,3.5035 76.8885969,15.620898 C78.1434949,18.4432959 79.3619133,23.9354388 79.3619133,27.725949 C79.3619133,29.2878367 80.0129337,38.6597245 80.0129337,38.6597245 C80.0129337,38.6597245 81.7050255,53.4979388 79.3619133,59.2252347 C77.0193622,64.9525306 77.5401786,70.6798265 66.9958929,72.5021224 C66.9958929,72.5021224 59.8380357,77.1877857 53.3289541,72.7625306 C53.3289541,72.7625306 42.9468622,70.7640102 41.4843112,62.4797755 C41.093699,60.2668673 38.5502296,54.7663061 38.1001276,52.0668163 C37.7100765,49.7237041 33.1540561,38.0087041 35.3669643,31.2403367" id="Fill-55" fill="#F4CAB5"></path>
                        <path d="M70.6517653,36.6769184 C70.7090102,36.768398 70.8599796,36.7554898 70.9379898,36.7021735 C71.0171224,36.6471735 71.0221735,36.5338061 70.9671735,36.443449 C70.9104898,36.3536531 70.7808469,36.3295204 70.7022755,36.3845204 C70.6237041,36.438398 70.5967653,36.5871224 70.6517653,36.6769184" id="Fill-65" fill="#FFFFFF"></path>
                        <path d="M57.9249898,3.16294898 C59.1507041,0.444377551 63.855449,-1.45929592 71.2540714,1.47927551 C77.137949,3.81621429 91.4581531,12.2828469 86.7651939,22.5762653 C85.6623878,24.9951429 80.2852959,28.963 84.0219286,32.8489184 C87.7591224,36.7342755 93.7462653,31.1321327 91.9088163,27.6014694 C91.9088163,27.6014694 96.4205,32.4555 89.8132041,37.250602 C83.2070306,42.0462653 77.0374898,35.8121837 75.4626939,31.8869796 C74.3026429,28.9905 74.5748367,20.4318265 71.6070816,17.8327959 C68.2116735,14.8571837 57.2184082,13.7442755 57.6443776,8.63488776 C57.7846837,6.95121429 57.4732041,4.16473469 57.9249898,3.16294898" id="Fill-93" fill="#D8D8D8"></path>
                        <path d="M57.7627398,3.16294898 C56.5370255,0.444377551 51.8322806,-1.45929592 44.4336582,1.47927551 C38.5497806,3.81621429 24.2295765,12.2828469 28.9225357,22.5762653 C30.0253418,24.9951429 35.4024337,28.963 31.665801,32.8489184 C27.9286071,36.7342755 21.9414643,31.1321327 23.7789133,27.6014694 C23.7789133,27.6014694 19.2672296,32.4555 25.8745255,37.250602 C32.480699,42.0462653 38.6502398,35.8121837 40.2250357,31.8869796 C41.3850867,28.9905 41.1128929,20.4318265 44.080648,17.8327959 C47.4760561,14.8571837 58.4693214,13.7442755 58.043352,8.63488776 C57.9030459,6.95121429 58.2145255,4.16473469 57.7627398,3.16294898" id="Fill-95" fill="#D8D8D8"></path>
                        <path d="M86.9606684,37.4910867 C86.9606684,37.4910867 95.1320969,37.9681276 96.8775051,34.0311378 C96.8775051,34.0311378 95.5535765,40.8719031 85.4633214,38.9311888 L86.9606684,37.4910867 Z" id="Fill-97" fill="#C6C7C8"></path>
                        <path d="M61.2709541,89.412602 C61.2709541,89.412602 53.5047296,85.6546429 52.4069745,83.4647449 L45.4163622,94.8845408 C45.4163622,94.8845408 60.7097296,105.688112 61.2709541,89.412602" id="Fill-113" fill="#9B5C8F"></path>
                        <path d="M61.2709541,89.412602 C61.2709541,89.412602 66.3416173,86.7226531 68.383352,83.0253061 L68.8474847,82.9585204 L76.8449337,92.9202551 C76.8449337,92.9202551 68.8474847,107.23148 61.2709541,89.412602" id="Fill-115" fill="#9B5C8F"></path>
                        <path d="M41.5349337,74.2592602 C41.5349337,74.2592602 43.1013112,85.6004847 46.5618214,95.7025255 L41.7212602,96.3339031 L36.950852,86.4193112 L41.5349337,74.2592602 Z" id="Fill-117" fill="#324141"></path>
                        <path d="M75.3191327,78.37225 C75.3191327,78.37225 75.3421429,86.7855663 73.352602,97.2770969 L78.2335714,97.2136786 L81.5470408,86.7215867 L75.3191327,78.37225 Z" id="Fill-119" fill="#324141"></path>
                        <path d="M64.3083571,19.3534898 C64.3083571,19.7020102 64.0883571,19.9848673 63.8172857,19.9848673 C63.5462143,19.9848673 63.1387653,19.4921122 63.1387653,19.1430306 C63.1387653,18.7945102 63.5462143,18.7221122 63.8172857,18.7221122 C64.0883571,18.7221122 64.3083571,19.0049694 64.3083571,19.3534898" id="Fill-125" fill="#D39E8C"></path>
                        <path d="M56.1695918,22.6313776 C56.1695918,22.979898 55.9495918,23.2627551 55.6785204,23.2627551 C55.407449,23.2627551 55,22.77 55,22.4209184 C55,22.072398 55.407449,22 55.6785204,22 C55.9495918,22 56.1695918,22.2828571 56.1695918,22.6313776" id="Fill-127" fill="#D39E8C"></path>
                        <path d="M44.3480806,55.6477927 C44.2090211,55.6477927 44,55.3950096 44,55.2159309 C44,55.0371401 44.2090211,55 44.3480806,55 C44.4871401,55 44.6,55.1451056 44.6,55.3238964 C44.6,55.5026872 44.4871401,55.6477927 44.3480806,55.6477927 Z" id="Fill-127-Copy" fill="#D39E8C"></path>
                        <path d="M41.1695918,45.6313776 C41.1695918,45.979898 40.9495918,46.2627551 40.6785204,46.2627551 C40.407449,46.2627551 40,45.77 40,45.4209184 C40,45.072398 40.407449,45 40.6785204,45 C40.9495918,45 41.1695918,45.2828571 41.1695918,45.6313776" id="Fill-127-Copy-2" fill="#D39E8C"></path>
                        <path d="M78.1695918,48.6313776 C78.1695918,48.979898 77.9495918,49.2627551 77.6785204,49.2627551 C77.407449,49.2627551 77,48.77 77,48.4209184 C77,48.072398 77.407449,48 77.6785204,48 C77.9495918,48 78.1695918,48.2828571 78.1695918,48.6313776" id="Fill-127-Copy-4" fill="#D39E8C"></path>
                    </g>
                </g>
            </g>
        </g>
    </g>
</svg>