<?xml version="1.0" encoding="UTF-8"?>
<svg width="140px" height="140px" viewBox="0 0 140 140" version="1.1" xmlns="http://www.w3.org/2000/svg" xmlns:xlink="http://www.w3.org/1999/xlink">
    <!-- Generator: Sketch 49 (51002) - http://www.bohemiancoding.com/sketch -->
    <title>women_19_32</title>
    <desc>Created with Sketch.</desc>
    <defs>
        <rect id="path-1" x="0" y="0" width="140" height="140" rx="70"></rect>
        <polygon id="path-3" points="0.36440122 0.443692308 93.8487183 0.443692308 93.8487183 119.75956 0.36440122 119.75956 0.36440122 0.443692308"></polygon>
        <path d="M0.750860125,6.86223439 C5.29902101,5.30390796 8.48718805,2.43627859 10.4449377,0.155009615 C15.748081,6.97543269 22.8089657,8.96197436 30.5611931,8.96197436 C38.206567,8.96197436 45.1787632,7.08536859 50.4583988,0.429849359 C52.1358676,3.22641396 54.8974073,5.89050713 60.0065143,7.18355246 L60.0065143,18.0642269 L0.750860125,18.0642269 L0.750860125,6.86223439 Z" id="path-5"></path>
        <path d="M20.5019969,7.99783654 C-2.36360125,7.99783654 0.94458567,28.5833333 0.94458567,28.5833333 L0.994806854,35.5686603 C10.0933894,43.946875 20.9935234,50.2901763 33.0273738,53.9114647 L57.3590031,56.7697981 L78.5384517,54.2742532 C91.8513396,50.4990545 103.826421,43.4037917 113.567193,33.9053301 L113.60566,28.5833333 L113.602455,28.5833333 C113.602455,28.5833333 116.91171,7.99783654 94.0471807,7.99783654 C83.9901215,7.99783654 79.5193676,4.34356731 77.1717944,0.429849359 C71.8921589,7.08536859 64.9199626,8.96197436 57.2745888,8.96197436 C49.5223614,8.96197436 42.4614766,6.97543269 37.1583333,0.155009615 C34.3213707,3.46078205 28.9006885,7.99783654 20.5019969,7.99783654 Z" id="path-7"></path>
    </defs>
    <g id="Symbols" stroke="none" stroke-width="1" fill="none" fill-rule="evenodd">
        <g id="women_19_32">
            <g id="女－选中后">
                <g>
                    <mask id="mask-2" fill="white">
                        <use xlink:href="#path-1"></use>
                    </mask>
                    <g id="Mask">
                        <use fill="#FFFFFF" fill-rule="evenodd" xlink:href="#path-1"></use>
                        <rect stroke="#E5E5E5" stroke-width="0.8" x="0.4" y="0.4" width="139.2" height="139.2" rx="69.6"></rect>
                    </g>
                    <g id="Page-1-Copy" mask="url(#mask-2)">
                        <g transform="translate(11.666667, 9.333333)">
                            <g id="Group-21" stroke-width="1" fill="none">
                                <g id="Group-3" transform="translate(11.666667, 0.000000)">
                                    <mask id="mask-4" fill="white">
                                        <use xlink:href="#path-3"></use>
                                    </mask>
                                    <g id="Clip-2"></g>
                                    <path d="M82.91745,52.5555849 C85.329889,53.462227 89.2497183,50.6190529 89.2497183,50.6190529 C74.4785232,45.0551822 82.91745,21.1219877 71.7802793,7.69798451 C60.6423402,-5.7260187 47.1065598,3.59151976 47.1065598,3.59151976 C47.1065598,3.59151976 33.570011,-5.7260187 22.4328402,7.69798451 C11.2949012,21.1219877 19.7345963,45.0551822 4.96340122,50.6190529 C4.96340122,50.6190529 8.88323049,53.462227 11.2949012,52.5555849 C11.2949012,52.5555849 22.5972549,84.7918339 0.36440122,97.0850379 C0.36440122,97.0850379 27.7517305,125.397383 47.1065598,118.748161 C66.461389,125.397383 93.8487183,97.0850379 93.8487183,97.0850379 C71.6166329,84.7918339 82.91745,52.5555849 82.91745,52.5555849" id="Fill-1" fill="#654C3F" mask="url(#mask-4)"></path>
                                </g>
                                <path d="M40.1974629,84.1475617 C40.1963944,84.1497222 40.1953259,84.1475617 40.1953259,84.1475617 L40.1899832,84.1562037 L40.1974629,84.1475617 Z" id="Fill-1" fill="#F6D8AA"></path>
                                <path d="M94.0468601,95.1863889 C80.8333461,95.1863889 77.2580252,88.9900926 75.4778445,84.1473457 C70.0934925,72.0075309 69.7964396,48.2312963 69.7964396,48.2312963 L44.6399006,48.2312963 C44.6399006,48.2312963 47.2257573,67.9879321 39.5686296,84.1473457 C39.5686296,84.1495062 39.565424,84.1473457 39.565424,84.1473457 C39.565424,84.1473457 33.7162589,95.1863889 20.5027449,95.1863889 C-2.36392181,95.1863889 0.944265109,115.414012 0.944265109,115.414012 L1.10027134,136.618179 L57.3586826,143.109383 L113.450402,136.618179 L113.606408,115.414012 L113.603203,115.414012 C113.603203,115.414012 116.91139,95.1863889 94.0468601,95.1863889" id="Fill-5" fill="#F6D8AA"></path>
                                <path d="M94.0468601,95.1863889 C80.8333461,95.1863889 77.2580252,88.9900926 75.4778445,84.1473457 C70.0934925,72.0075309 69.7964396,48.2312963 69.7964396,48.2312963 L44.6399006,48.2312963 C44.6399006,48.2312963 47.2257573,67.9879321 39.5686296,84.1473457 C39.5686296,84.1495062 39.565424,84.1473457 39.565424,84.1473457 C39.565424,84.1473457 33.7162589,95.1863889 20.5027449,95.1863889 C-2.36392181,95.1863889 0.944265109,115.414012 0.944265109,115.414012 L1.10027134,136.618179 L57.3586826,143.109383 L113.450402,136.618179 L113.606408,115.414012 L113.603203,115.414012 C113.603203,115.414012 116.91139,95.1863889 94.0468601,95.1863889" id="Fill-7" fill="#F6D8AA"></path>
                                <path d="M64.171667,91.1586883 C67.4584832,91.1586883 71.6193617,88.3716512 75.5729442,84.4006636 C75.5419567,84.3185648 75.5088321,84.2321451 75.4778445,84.1478858 C70.0934925,72.0069907 69.7964396,48.2318364 69.7964396,48.2318364 L44.6399006,48.2318364 C44.6399006,48.2318364 46.1240969,59.6057562 43.4976358,72.1528241 C48.6597324,81.2549846 57.967748,91.1586883 64.171667,91.1586883" id="Fill-9" fill="#DBBA8C"></path>
                                <path d="M94.0468601,95.1863889 C83.9898009,95.1863889 79.519047,91.5956481 77.1714738,87.7488889 C71.8918383,94.289784 64.9196421,96.1337654 57.2742682,96.1337654 C49.5220408,96.1337654 42.4622246,94.1817593 37.1590813,87.4788272 C34.3210502,90.7282099 28.9003679,95.1863889 20.5027449,95.1863889 C-2.36392181,95.1863889 0.944265109,115.414012 0.944265109,115.414012 L1.10027134,136.618179 L57.3586826,143.109383 L113.450402,136.618179 L113.606408,115.414012 L113.603203,115.414012 C113.603203,115.414012 116.91139,95.1863889 94.0468601,95.1863889" id="Fill-19" fill="#FFB000"></path>
                            </g>
                            <g id="Group-30" stroke-width="1" fill="none" transform="translate(0.000000, 87.500000)">
                                <g id="Group-24" transform="translate(26.713396, 0.000000)">
                                    <mask id="mask-6" fill="white">
                                        <use xlink:href="#path-5"></use>
                                    </mask>
                                    <g id="Clip-23"></g>
                                    <path d="M50.4580782,0.429409615 C45.1784427,7.08602821 38.2062464,8.96263397 30.5608726,8.96263397 C22.8086452,8.96263397 15.748829,6.97609231 10.4456857,0.154569872 C8.4870595,2.4368391 5.2985486,5.30396731 0.750860125,6.86065962 C8.99247695,13.8767686 19.328424,18.0642269 30.5608726,18.0642269 C41.6255611,18.0642269 51.825804,14.0042942 60.0065143,7.17397692 C54.9063928,5.87893205 52.1346109,3.22507949 50.4580782,0.429409615" id="Fill-22" fill="#FC8E00" mask="url(#mask-6)"></path>
                                </g>
                                <mask id="mask-8" fill="white">
                                    <use xlink:href="#path-7"></use>
                                </mask>
                                <g id="Clip-26"></g>
                                <polygon id="Fill-25" fill="#FC8E00" mask="url(#mask-8)" points="-18.4642991 36.2403686 133.010271 36.2403686 133.010271 29.642016 -18.4642991 29.642016"></polygon>
                                <path d="M26.6549467,8.49001955 C26.6549467,19.3934619 18.0628502,28.2356061 7.4640433,28.2356061 C-3.13476355,28.2356061 -11.7268601,19.3934619 -11.7268601,8.49001955 C-11.7268601,-2.41562147 -3.13476355,-11.255567 7.4640433,-11.255567 C18.0628502,-11.255567 26.6549467,-2.41562147 26.6549467,8.49001955" id="Fill-28" fill="#F6D8AA" mask="url(#mask-8)"></path>
                                <path d="M126.934576,8.49001955 C126.934576,19.3934619 118.34248,28.2356061 107.743673,28.2356061 C97.144866,28.2356061 88.5527695,19.3934619 88.5527695,8.49001955 C88.5527695,-2.41562147 97.144866,-11.255567 107.743673,-11.255567 C118.34248,-11.255567 126.934576,-2.41562147 126.934576,8.49001955" id="Fill-29" fill="#F6D8AA" mask="url(#mask-8)"></path>
                            </g>
                            <g id="Page-1" stroke-width="1" fill="none" transform="translate(35.000000, 4.666667)">
                                <path d="M23.3329353,68.8333333 C14.6961274,68.8333333 8.10400218,61.6023346 5.14936592,56.1798561 C2.19550475,50.7573776 0.150822056,19.5756218 6.51507135,10.989196 C12.7467806,2.58077121 23.3329353,3.5324212 23.3329353,3.5324212 C23.3329353,3.5324212 33.9190901,2.58077121 40.1523495,10.989196 C46.5158237,19.5756218 44.471141,50.7573776 41.5165047,56.1798561 C38.5618685,61.6023346 31.9697433,68.8333333 23.3329353,68.8333333" id="Fill-8" fill="#F6D8AA"></path>
                                <path d="M2.56359435,39.6666667 C29.0535566,35.9166563 35.2086669,17.4256257 35.2086669,17.4256257 C35.2086669,17.4256257 35.9780557,27.5367362 44.7204704,34.3207756 C44.7204704,34.3207756 50.9787915,16.7042319 41.0502357,7.02997834 C31.1201161,-2.64582166 14.91291,-2.3566456 5.13056935,8.04054815 C-4.65333506,18.4361955 2.56359435,39.6666667 2.56359435,39.6666667" id="Fill-10" fill="#654C3F"></path>
                            </g>
                            <path d="M40.8415,84 C40.8403333,84.0023333 40.8391667,84 40.8391667,84 L40.8333333,84.0093333 L40.8415,84 Z" id="Fill-31" fill="#F6D8AA"></path>
                        </g>
                    </g>
                </g>
            </g>
        </g>
    </g>
</svg>