<?xml version="1.0" encoding="UTF-8"?>
<svg width="140px" height="140px" viewBox="0 0 140 140" version="1.1" xmlns="http://www.w3.org/2000/svg" xmlns:xlink="http://www.w3.org/1999/xlink">
    <!-- Generator: Sketch 49 (51002) - http://www.bohemiancoding.com/sketch -->
    <title>women_0_18</title>
    <desc>Created with Sketch.</desc>
    <defs>
        <circle id="path-1" cx="70" cy="70" r="70"></circle>
    </defs>
    <g id="Symbols" stroke="none" stroke-width="1" fill="none" fill-rule="evenodd">
        <g id="women_0_18">
            <g>
                <mask id="mask-2" fill="white">
                    <use xlink:href="#path-1"></use>
                </mask>
                <g id="Mask">
                    <use fill="#FFFFFF" fill-rule="evenodd" xlink:href="#path-1"></use>
                    <circle stroke="#E5E5E5" stroke-width="0.8" cx="70" cy="70" r="69.6"></circle>
                </g>
                <g id="Page-1" mask="url(#mask-2)">
                    <g transform="translate(16.000000, 9.000000)">
                        <path d="M90.4962244,48.0549758 L53.7178348,27.0443008 L16.9394453,48.0549758 C16.9394453,48.0549758 28.7619951,91.4427825 20.5846423,104.87604 C20.5846423,104.87604 18.9941951,109.319275 21.4839823,110.175843 C29.176772,112.822648 33.2108576,104.224328 35.5154866,106.667404 C37.8201156,109.109916 38.8140045,111.74209 44.5077607,112.040369 C50.2015169,112.338648 63.5070209,105.801268 69.6673308,105.55758 C73.8331095,105.393245 81.7436993,113.9381 85.9516873,112.057253 C90.1596754,110.175843 86.8510273,104.87604 86.8510273,104.87604 C78.6742374,91.4427825 90.4962244,48.0549758 90.4962244,48.0549758" id="Fill-6" fill="#5C494D"></path>
                        <path d="M64.0777472,79.1709004 L53.7178911,85.6643826 L43.358035,79.1709004 C47.9020093,88.8317701 43.358035,100.413445 43.358035,100.413445 L53.7178911,100.413445 L64.0777472,100.413445 C64.0777472,100.413445 59.5337729,88.8317701 64.0777472,79.1709004" id="Fill-8" fill="#FEE5CA"></path>
                        <path d="M53.7177785,85.6641574 L44.9382395,80.1617502 L43.8824436,80.4116294 C46.4859146,87.1302279 45.095821,94.4763384 44.0923647,98.1108424 C47.1545103,90.8024389 56.128775,87.1262884 62.2907733,85.414841 C62.5682293,83.3325145 63.1192016,81.2091042 64.0776346,79.1706753 L53.7177785,85.6641574 Z" id="Fill-10" fill="#FFD4AC"></path>
                        <path d="M91.8080338,59.227277 C89.9221213,64.245684 85.771538,67.3292157 82.5371783,66.1135872 C79.3028186,64.8985215 78.2093158,59.8446587 80.0952283,54.8262516 C81.9811408,49.8078446 86.1317242,46.7243129 89.3660838,47.9399414 C92.6004435,49.1550071 93.6939464,54.2088699 91.8080338,59.227277" id="Fill-12" fill="#FDDBBC"></path>
                        <path d="M15.6274107,59.227277 C17.5133232,64.245684 21.6639066,67.3292157 24.8982662,66.1135872 C28.1326259,64.8985215 29.2261288,59.8446587 27.3402162,54.8262516 C25.4543037,49.8078446 21.3037204,46.7243129 18.0693607,47.9399414 C14.835001,49.1550071 13.7414982,54.2088699 15.6274107,59.227277" id="Fill-16" fill="#FDDBBC"></path>
                        <path d="M91.6185421,41.4610918 C89.1895363,65.2390101 74.7370643,86.3436712 53.9132358,86.3436712 C33.0888446,86.3436712 20.8104341,65.5204055 16.2079296,41.4610918 C11.7545647,18.1829319 33.0888446,1.54964492 53.9132358,1.54964492 C74.7370643,1.54964492 94.0272875,17.8835271 91.6185421,41.4610918" id="Fill-20" fill="#FEE5CA"></path>
                        <path d="M91.51769,43.7591361 C91.51769,43.7591361 91.3911239,61.613041 85.4379211,67.0529785 C80.3232768,72.5874649 89.8571777,82.9794922 90.8466797,83.3642578 C91.4994789,83.6180973 86.5609519,81.403983 83.4702148,77.0324707 C82.0642093,75.0438283 81.467416,73.5104335 81.1630859,72.1501465 C80.9680377,71.2783247 80.4936523,71.1164551 81.1630859,69.5341797 C82.4595801,66.4697819 84.0394861,62.9953278 84.4707031,59.0534668 C85.2530949,51.9014314 84.1710167,44.6325877 84.1710167,44.6325877 L91.51769,43.7591361 Z" id="Fill-30" fill="#6F514E"></path>
                        <path d="M75.9752045,7.04518614 C62.7687517,-1.86548321 45.4195946,-2.25718572 31.9092347,6.18580433 C12.2081742,18.4985451 14.6709474,40.2262159 17.3447673,50.8404535 C17.8450885,55.8048326 17.6413581,62.7682452 13.875161,67.9684337 C7.34847419,76.9792798 16.9395578,80.4342536 16.9395578,80.4342536 C16.9395578,80.4342536 11.1957132,77.4306382 14.4644031,72.819129 C17.7285907,68.212685 20.0360337,60.8153605 21.5189879,54.6359157 L21.7024578,54.4383761 C22.1026021,49.3563737 29.5190615,40.6398672 31.0582948,38.8800199 C28.8268286,41.625877 25.8519155,50.8556488 27.1919208,49.8583832 C28.5893308,48.8183455 34.1271939,45.688665 34.1271939,45.688665 C34.7552686,42.5933147 38.3948378,37.0593911 38.3948378,37.0593911 C37.3812512,41.6562677 38.3948378,43.8325804 38.3948378,43.8325804 C41.4845602,42.5398495 51.5545789,40.9482767 51.5545789,40.9482767 C50.7571041,35.6450974 53.9087335,30.2867646 53.9087335,30.2867646 C53.9087335,30.2867646 57.0598001,35.6450974 56.2623253,40.9482767 C56.2623253,40.9482767 66.3323441,42.5398495 69.4220665,43.8325804 C69.4220665,43.8325804 70.4350902,41.6562677 69.4220665,37.0593911 C69.4220665,37.0593911 73.0610728,42.5933147 73.6897104,45.688665 C73.6897104,45.688665 79.2275734,48.8183455 80.6249834,49.8583832 C81.9649887,50.8556488 78.9900757,41.625877 76.7586095,38.8800199 C78.2978428,40.6398672 85.7143021,49.3563737 86.1144465,54.4383761 L88.5271314,57.0266517 C88.5271314,57.0266517 101.654231,24.3718316 75.9752045,7.04518614" id="Fill-32" fill="#6F514E"></path>
                        <path d="M31.9093472,6.18586061 C12.2082867,18.4986013 14.67106,40.2262721 17.3448799,50.8405097 C17.845201,55.8048888 17.6414707,62.7683014 13.8752736,67.96849 C10.2694719,72.9458133 11.5835888,76.2251962 13.4813199,78.1662622 C12.4373427,76.6917499 11.8013889,72.6717341 12.6348823,71.5579707 C13.6006316,70.2674911 20.3237324,60.8204819 18.5408107,52.9554782 C16.7573261,45.0910372 15.556893,37.4674708 19.2476761,24.7089996 C24.250325,7.41612166 48.5128063,0.373918317 48.5128063,0.373918317 C40.9837888,1.54958864 38.7286854,1.92384463 31.9093472,6.18586061" id="Fill-34" fill="#5C494D"></path>
                        <path d="M14.0105122,78.6644448 C14.0442797,78.6931471 14.0780472,78.7218495 14.1118146,78.749989 C14.0966193,78.7207239 14.0667913,78.6914588 14.0105122,78.6644448" id="Fill-36" fill="#5C494D"></path>
                        <path d="M105.82702,127.362575 L105.82702,120.292166 C105.82702,109.334454 95.5796835,99.693849 80.9176678,97.1663318 C70.7679248,95.4165122 59.9958785,94.7229861 53.850921,97.8112517 C47.7059634,94.7229861 36.9350653,95.4165122 26.7853223,97.1663318 C12.1221584,99.693849 1.87596988,109.334454 1.87596988,120.292166 L1.87596988,127.362575 L105.82702,127.362575 Z" id="Fill-38" fill="#FEE5CA"></path>
                        <path d="M106.092783,126.005896 L106.092783,117.196337 C106.092783,114.811081 105.492294,112.496957 104.399245,110.320352 C102.667818,110.980683 100.95591,111.071968 99.8088976,109.767902 C94.8155455,104.095214 77.9054306,105.593705 73.2427489,109.392094 C67.2504968,114.276414 58.8987738,106.015748 54.1166834,106.015748 C49.3345929,106.015748 40.98287,114.276414 34.9906178,109.392094 C30.3290843,105.593705 13.4189694,104.095214 8.42561731,109.767902 C7.27745633,111.071968 5.56669648,110.980683 3.83412156,110.320352 C2.74222047,112.496957 2.14173228,114.811081 2.14173228,117.196337 L2.14173228,126.005896 L106.092783,126.005896 Z" id="Fill-40" fill="#FCC3AB"></path>
                        <path d="M64.3379817,100.31113 L64.3379817,99.6357808 C64.3379817,99.6357808 60.7400591,101.04107 56.4358338,101.402382 L62.1549156,101.402382 C63.3604138,101.402382 64.3379817,100.913879 64.3379817,100.31113" id="Fill-42" fill="#FFD4AC"></path>
                        <path d="M43.0975191,100.31113 L43.0975191,99.6357808 C43.0975191,99.6357808 46.6954417,101.04107 50.999667,101.402382 L45.2805852,101.402382 C44.075087,101.402382 43.0975191,100.913879 43.0975191,100.31113" id="Fill-44" fill="#FFD4AC"></path>
                        <path d="M108.505805,135.989214 L108.505805,118.900614 C108.505805,116.351757 107.947799,113.878774 106.952343,111.53264 C104.549242,113.175764 101.636358,114.38736 99.9439685,112.278329 C94.9506164,106.04845 78.0405016,107.693944 73.378968,111.86577 C67.3867159,117.227853 59.0349929,108.15748 54.2529025,108.15748 C49.470812,108.15748 41.1190891,117.227853 35.1268369,111.86577 C30.4641552,107.693944 13.5540403,106.04845 8.56068824,112.278329 C6.86944712,114.38736 3.95541456,113.175764 1.5534618,111.53264 C0.558006235,113.878774 0,116.351757 0,118.900614 L0,135.989214 L108.505805,135.989214 Z" id="Fill-46" fill="#F06000"></path>
                    </g>
                </g>
            </g>
        </g>
    </g>
</svg>