<?xml version="1.0" encoding="UTF-8"?>
<svg width="141px" height="141px" viewBox="0 0 141 141" version="1.1" xmlns="http://www.w3.org/2000/svg" xmlns:xlink="http://www.w3.org/1999/xlink">
    <!-- Generator: Sketch 49 (51002) - http://www.bohemiancoding.com/sketch -->
    <title>women_33_45</title>
    <desc>Created with Sketch.</desc>
    <defs>
        <circle id="path-1" cx="70.5" cy="70.5" r="70.5"></circle>
        <polygon id="path-3" points="0 138.844674 101.903721 138.844674 101.903721 0.000488372093 0 0.000488372093"></polygon>
    </defs>
    <g id="Symbols" stroke="none" stroke-width="1" fill="none" fill-rule="evenodd">
        <g id="women_33_45">
            <g>
                <mask id="mask-2" fill="white">
                    <use xlink:href="#path-1"></use>
                </mask>
                <g id="Mask">
                    <use fill="#FFFFFF" fill-rule="evenodd" xlink:href="#path-1"></use>
                    <circle stroke="#E5E5E5" stroke-width="0.8" cx="70.5" cy="70.5" r="70.1"></circle>
                </g>
                <g id="Page-1" mask="url(#mask-2)">
                    <g transform="translate(19.000000, 13.000000)">
                        <path d="M83.7165814,48.8414419 C84.2537907,46.6144651 81.5693721,44.5600465 80.8970465,43.5328372 C80.2263488,42.504 80.2263488,38.3951628 79.9577442,35.4828372 C79.6891395,32.5721395 80.2263488,33.4300465 79.0184419,32.2302791 C77.8105349,31.0305116 76.8712326,31.8884186 76.7198372,28.119814 C76.566814,24.3512093 74.2698372,18.529814 74.2698372,18.529814 C67.9079767,-0.135767442 50.9516977,0.000976744186 50.9516977,0.000976744186 C50.9516977,0.000976744186 33.9954186,-0.135767442 27.635186,18.529814 C27.635186,18.529814 25.3365814,24.3512093 25.1835581,28.119814 C25.0337907,31.8884186 24.0944884,31.0305116 22.8865814,32.2302791 C21.6754186,33.4300465 22.2126279,32.5721395 21.9472791,35.4828372 C21.6754186,38.3951628 21.6754186,42.504 21.0063488,43.5328372 C20.3356512,44.5600465 17.6512326,46.6144651 18.1884419,48.8414419 C18.7240233,51.0667907 19.5265814,49.8670233 17.3826279,53.2921395 C15.2370465,56.7172558 15.5040233,57.0607442 16.0428605,59.6295814 C16.576814,62.1967907 17.5193721,63.5674884 16.8454186,65.9653953 C16.1747209,68.3649302 18.4570465,64.4237674 18.4570465,64.4237674 C18.4570465,64.4237674 21.0063488,64.081907 20.6026279,67.6779535 C20.2005349,71.274 20.6042558,71.274 20.8712326,70.5886512 C21.1398372,69.9049302 21.406814,68.876093 22.0807674,68.1923721 C22.7498372,67.5070233 23.9577442,68.8956279 23.6891395,70.941907 C23.4205349,72.9865581 23.1780482,72.4364948 24.1157227,73.465332 C25.055025,74.4925413 24.5565473,74.6650995 25.4958496,73.465332 C25.9489595,72.8873617 25.4645692,75.9238128 26.2004395,76.2854004 C26.9900373,76.6733884 27.0182093,77.0953953 27.635186,78.466093 C28.2505349,79.8367907 28.2326279,79.1514419 28.7665814,82.4056279 C29.3037907,85.659814 32.1493391,83.3862184 31.6772461,84.7634277 C31.2035252,86.140637 32.4603023,82.7474884 33.3084419,83.7763256 C34.1565814,84.8035349 34.2916977,84.2891163 34.9623953,82.9184186 C35.633093,81.5493488 38.0082093,76.5223721 38.1823953,79.5421395 C38.3565814,82.5586512 39.5221628,83.261907 41.9396047,83.261907 C44.3554186,83.261907 46.2323953,83.261907 47.0398372,82.4056279 C47.0707674,82.3714419 47.1049535,82.1923721 47.1456512,81.9074884 C49.5956512,82.6416744 57.8312326,83.261907 59.9654186,83.261907 C62.3779767,83.261907 63.5484419,82.5586512 63.721,79.5421395 C63.896814,76.5223721 66.2719302,81.5493488 66.9426279,82.9184186 C67.6133256,84.2891163 67.745186,84.8035349 68.5949535,83.7763256 C69.4447209,82.7474884 72.3307106,85.1616744 72.8679199,81.9074884 C73.4051292,78.6533023 73.6512326,79.8367907 74.2698372,78.466093 C74.885186,77.0953953 78.0381182,77.7823721 76.9897461,75.3844651 C75.9381182,72.988186 78.4844884,72.9865581 78.2126279,70.941907 C77.9440233,68.8956279 79.1519302,67.5070233 79.8258837,68.1923721 C80.4949535,68.876093 80.7635581,69.9049302 81.0305349,70.5886512 C81.3007674,71.274 81.7044884,71.274 81.3007674,67.6779535 C80.8970465,64.081907 83.4479767,64.4237674 83.4479767,64.4237674 C83.4479767,64.4237674 85.7270465,68.3649302 85.0563488,65.9653953 C84.3872791,63.5674884 85.3265814,62.1967907 85.8637907,59.6295814 C86.401,57.0607442 86.6663488,56.7172558 84.5223953,53.2921395 C82.375186,49.8670233 83.1793721,51.0667907 83.7165814,48.8414419 Z" id="Fill-1" stroke="none" fill="#521514" fill-rule="evenodd"></path>
                        <mask id="mask-4" fill="white">
                            <use xlink:href="#path-3"></use>
                        </mask>
                        <g id="Clip-4" stroke="none" fill="none"></g>
                        <polygon id="Fill-3" stroke="none" fill="#FBC49D" fill-rule="evenodd" mask="url(#mask-4)" points="0 138.844674 101.903721 138.844674 101.903721 112.114442 0 112.114442"></polygon>
                        <path d="M86.4237907,85.5450465 C83.5228605,85.5450465 68.2107674,82.4015581 65.891,83.786907 C61.3637907,86.4892326 50.9516977,95.3743488 50.9516977,101.026442 C50.9516977,95.3743488 40.5379767,86.4892326 36.0123953,83.786907 C33.6958837,82.4015581 18.3805349,85.5450465 15.4812326,85.5450465 C6.93309302,85.5450465 -0.000162790698,92.4766744 -0.000162790698,101.026442 L-0.000162790698,109.115512 L-0.000162790698,112.114116 L18.6654186,112.114116 L18.6654186,126.975279 L18.6654186,138.844349 L50.9516977,138.844349 L83.2396047,138.844349 L83.2396047,126.975279 L83.2396047,112.114116 L101.903558,112.114116 L101.903558,109.115512 L101.903558,101.026442 C101.903558,92.4766744 94.9719302,85.5450465 86.4237907,85.5450465" id="Fill-5" stroke="none" fill="#9B5C8F" fill-rule="evenodd" mask="url(#mask-4)"></path>
                        <path d="M61.4344419,62.3258837 L40.4686279,62.3258837 C40.4686279,83.4561163 27.6342093,84.8903023 27.6342093,84.8903023 C27.6342093,104.902163 50.9523488,132.617279 50.9523488,132.617279 C50.9523488,132.617279 74.2704884,104.902163 74.2704884,84.8903023 C74.2704884,84.8903023 61.4344419,83.4561163 61.4344419,62.3258837" id="Fill-6" stroke="none" fill="#FBC49D" fill-rule="evenodd" mask="url(#mask-4)"></path>
                        <path d="M32.291,49.0307674 C32.5954186,50.5707674 31.5975116,52.0684419 30.0542558,52.3744884 C28.5142558,52.678907 27.0182093,51.6761163 26.7121628,50.1377442 L25.238907,42.7014651 C24.9328605,41.1598372 25.9340233,39.6637907 27.4740233,39.3577442 C29.0156512,39.0516977 30.5116977,40.0528605 30.8177442,41.5928605 L32.291,49.0307674 Z" id="Fill-7" stroke="none" fill="#FBC49D" fill-rule="evenodd" mask="url(#mask-4)"></path>
                        <path d="M69.1764419,49.0307674 C68.8720233,50.5707674 69.8715581,52.0684419 71.413186,52.3744884 C72.953186,52.678907 74.4524884,51.6761163 74.7552791,50.1377442 L76.2317907,42.7014651 C76.5362093,41.1598372 75.5350465,39.6637907 73.9950465,39.3577442 C72.4550465,39.0516977 70.959,40.0528605 70.6496977,41.5928605 L69.1764419,49.0307674 Z" id="Fill-8" stroke="none" fill="#FBC49D" fill-rule="evenodd" mask="url(#mask-4)"></path>
                        <path d="M50.9515349,70.0393953 C42.0810698,70.0393953 35.3089767,62.5673023 32.2713023,56.9640465 C29.2368837,51.3607907 27.1368837,19.1396279 33.676186,10.2675349 C40.0771163,1.57939535 50.9515349,2.56265116 50.9515349,2.56265116 C50.9515349,2.56265116 61.8259535,1.57939535 68.2285116,10.2675349 C74.767814,19.1396279 72.667814,51.3607907 69.6317674,56.9640465 C66.5957209,62.5673023 59.8236279,70.0393953 50.9515349,70.0393953" id="Fill-9" stroke="none" fill="#F2C4A5" fill-rule="evenodd" mask="url(#mask-4)"></path>
                        <path d="M29.5836279,34.9296744 C44.6645581,32.7710698 46.0743256,29.9613023 50.7350233,25.924093 C54.4124651,22.739907 62.8287442,17.944093 62.8287442,17.944093 C62.8287442,17.944093 64.4924651,23.4496744 66.8952558,28.2064186 C68.3392093,31.0601395 69.1759535,32.7238605 72.5147907,35.3431628 C72.5147907,35.3431628 78.8864186,17.2017674 68.7738605,7.23897674 C58.6629302,-2.72381395 42.1624651,-2.42590698 32.1964186,8.2792093 C22.2336279,18.9859535 29.5836279,34.9296744 29.5836279,34.9296744" id="Fill-10" stroke="none" fill="#521514" fill-rule="evenodd" mask="url(#mask-4)"></path>
                    </g>
                </g>
            </g>
        </g>
    </g>
</svg>