<?xml version="1.0" encoding="UTF-8"?>
<svg width="141px" height="141px" viewBox="0 0 141 141" version="1.1" xmlns="http://www.w3.org/2000/svg" xmlns:xlink="http://www.w3.org/1999/xlink">
    <!-- Generator: Sketch 49 (51002) - http://www.bohemiancoding.com/sketch -->
    <title>women_46_60</title>
    <desc>Created with Sketch.</desc>
    <defs>
        <circle id="path-1" cx="70.5" cy="70.5" r="70.5"></circle>
        <polygon id="path-3" points="0 0.0715211152 92.6247462 0.0715211152 92.6247462 96.7727459 0 96.7727459"></polygon>
    </defs>
    <g id="Symbols" stroke="none" stroke-width="1" fill="none" fill-rule="evenodd">
        <g id="women_46_60">
            <g>
                <mask id="mask-2" fill="white">
                    <use xlink:href="#path-1"></use>
                </mask>
                <g id="Mask">
                    <use fill="#FFFFFF" fill-rule="evenodd" xlink:href="#path-1"></use>
                    <circle stroke="#E5E5E5" stroke-width="0.8" cx="70.5" cy="70.5" r="70.1"></circle>
                </g>
                <g id="Page-1" mask="url(#mask-2)">
                    <g transform="translate(18.000000, 10.000000)">
                        <g id="Group-3" stroke-width="1" fill="none" transform="translate(5.600000, 0.008840)">
                            <mask id="mask-4" fill="white">
                                <use xlink:href="#path-3"></use>
                            </mask>
                            <g id="Clip-2"></g>
                            <path d="M87.0791034,54.5772166 C82.6278381,51.0302514 80.7829148,45.439711 82.0080956,40.1653904 C82.6574109,37.3710845 82.9206729,34.4453084 82.743397,31.4358767 C81.7711116,14.9209279 67.2709689,1.38744535 49.212932,0.165157524 C28.018654,-1.26904174 10.2875249,13.9516963 10.182654,33.0345745 C10.1700374,35.3360276 10.4152182,37.5836389 10.8931239,39.7550681 C12.0718562,45.1119193 9.95459008,50.6770657 5.46965363,54.286873 C1.67895416,57.3383334 -0.531530463,61.9880899 0.110150554,67.0986352 C0.729169824,72.0288508 4.09419811,76.2568738 8.74483854,78.4746713 C9.03976269,85.0018168 14.4093912,90.2071879 21.0093437,90.2071879 C22.2505966,90.2071879 23.4475708,90.0217151 24.5753543,89.6777709 C27.5704818,88.7641489 30.8126385,89.649725 33.1132075,91.7739021 C36.4738964,94.8767934 40.9652617,96.7727459 45.9001383,96.7727459 C50.8349345,96.7727459 55.3262998,94.8767934 58.6869082,91.7739021 C60.9875577,89.649725 64.2297143,88.7641489 67.2247615,89.6777709 C68.3527057,90.0217151 69.5495191,90.2071879 70.7908525,90.2071879 C77.1464277,90.2071879 82.3742194,85.383611 83.0161415,79.1977578 C88.0582194,77.1410034 91.7872018,72.7784564 92.4945376,67.6065155 C93.2045253,62.414645 90.9572354,57.6670895 87.0791034,54.5772166" id="Fill-1" fill="#90A4AE" mask="url(#mask-4)"></path>
                        </g>
                        <path d="M104.53291,116.476148 C104.616126,101.351426 92.4225969,89.0237568 77.298266,88.9405409 L27.5418504,88.6670891 C12.4175195,88.5839707 0.0893620444,100.777012 0.00624363629,115.901635 L0,117.031636 C13.1874379,130.699249 31.6499679,139.25303 52.1421676,139.365513 C72.6343672,139.478094 91.1899665,131.127913 104.526666,117.606148 L104.53291,116.476148 Z" id="Fill-4" fill="#4B3F4A"></path>
                        <path d="M41.1191296,129.62409 C44.4936405,130.231296 47.9603252,130.574758 51.5065671,130.594205 C55.268176,130.614858 58.9453256,130.272842 62.5192116,129.631965 L70.2439743,89.0464645 L33.3549902,88.8318207 L41.1191296,129.62409 Z" id="Fill-6" fill="#CFD8DC"></path>
                        <path d="M51.7039172,95.8298645 L51.7038368,95.8298645 C44.1880927,95.7884787 38.123745,96.801507 38.1477729,89.2856021 L38.2102132,69.6273405 L65.472214,69.7772938 L65.409854,89.3723918 C65.3858262,96.9128871 59.2444125,95.8713307 51.7039172,95.8298645" id="Fill-8" fill="#FBC49D"></path>
                        <path d="M34.5774147,56.3563806 C34.5547529,60.4760772 31.1967964,63.7973089 27.0770998,63.7747275 C22.9574836,63.7520658 19.6362519,60.3940289 19.6588333,56.2744126 C19.681495,52.1547964 23.0394516,48.8335647 27.1590678,48.8562265 C31.2787644,48.8788079 34.5999961,52.2367644 34.5774147,56.3563806" id="Fill-10" fill="#FBC49D"></path>
                        <path d="M84.2609155,56.6294868 C84.2382537,60.7491031 80.8802972,64.0704151 76.7606006,64.0477533 C72.6409843,64.025172 69.3196723,60.6671351 69.3423341,56.5474385 C69.3649958,52.4278222 72.7229524,49.1065102 76.8425686,49.129172 C80.9622652,49.1519141 84.2835772,52.5098706 84.2609155,56.6294868" id="Fill-12" fill="#FBC49D"></path>
                        <path d="M52.1949538,13.6762837 C38.4751949,13.6009053 27.2921051,24.661927 27.2166463,38.3817663 L27.1021322,59.2222157 C27.0461207,69.4105191 40.1962822,84.1370381 51.8073737,84.2008446 C63.5096746,84.2652136 76.7295893,69.6835047 76.7855205,59.495362 L76.9001953,38.6547519 C76.9755738,24.9350734 65.9147128,13.7516622 52.1949538,13.6762837" id="Fill-14" fill="#F2C4A5"></path>
                        <path d="M79.0503641,45.7324094 C79.0503641,45.7324094 53.3231743,48.673213 37.9824576,20.8465972 C37.9824576,20.8465972 35.8849603,29.7862544 25.0786019,46.0291015 L25.0004109,31.7810506 C24.9195679,17.071327 36.7785724,5.08125399 51.4882961,5.00041102 C66.1980197,4.91956805 78.8911694,16.7746349 78.971932,31.4843585 L79.0503641,45.7324094 Z" id="Fill-20" fill="#90A4AE"></path>
                        <path d="M52.0289364,95.2200144 L51.8567232,95.3267336 L51.6837868,95.2200144 L51.6837868,95.4337742 L49.4876868,96.7938004 L49.4876868,130.532078 C50.1593424,130.558035 50.8293907,130.590501 51.5065912,130.594197 C52.4183649,130.59926 53.3234686,130.575634 54.2257597,130.540275 L54.2257597,96.7938004 L52.0289364,95.4337742 L52.0289364,95.2200144 Z" id="Fill-34" fill="#844C78"></path>
                        <polygon id="Fill-36" fill="#844C78" points="65.4721819 83.0278501 51.8567313 95.2200305 61.2378908 104.60127 70.2440064 89.0464725"></polygon>
                        <polygon id="Fill-38" fill="#844C78" points="38.1267103 83.0278501 51.856675 95.2200305 42.4755959 104.60127 33.3549661 88.8318288"></polygon>
                        <path d="M80.8958872,115.667443 L73.0892369,115.667443 C72.3979733,115.667443 71.837537,115.106927 71.837537,114.415663 L71.837537,114.415583 C71.837537,113.724078 72.3980536,113.163481 73.0895583,113.163481 L80.8958872,113.163481 C81.5872312,113.163481 82.1476674,113.723917 82.1476674,114.415342 L82.1476674,114.415663 C82.1476674,115.106927 81.5872312,115.667443 80.8958872,115.667443" id="Fill-40" fill="#F2C61F"></path>
                        <path d="M21.2408241,90.4540365 L21.2408241,117.924979 L34.105303,121.607513 L31.9968766,127.227626 C34.940091,128.255682 37.9864084,129.060415 41.1191136,129.624066 L33.3549742,88.8317966 C29.1860164,88.4191439 25.4889323,88.8317966 21.2408241,89.6669922 L21.2408241,90.4540365 Z" id="Fill-42" fill="#6F546D"></path>
                        <path d="M82.3582288,118.139639 L82.3582288,89.780013 C77.3021484,88.1421224 74.4129561,88.6338037 70.2439984,89.0464564 L62.5192358,129.631957 C65.6147339,129.076825 68.6285855,128.289449 71.5412628,127.279796 L69.4936695,121.822253 L82.3582288,118.139639 Z" id="Fill-44" fill="#6F546D"></path>
                    </g>
                </g>
            </g>
        </g>
    </g>
</svg>