<?xml version="1.0" encoding="UTF-8"?>
<svg width="17px" height="20px" viewBox="0 0 17 20" version="1.1" xmlns="http://www.w3.org/2000/svg" xmlns:xlink="http://www.w3.org/1999/xlink">
    <!-- Generator: Sketch 46.2 (44496) - http://www.bohemiancoding.com/sketch -->
    <title>消息中心</title>
    <desc>Created with Sketch.</desc>
    <defs></defs>
    <g id="Symbols" stroke="none" stroke-width="1" fill="none" fill-rule="evenodd">
        <g id="消息中心" fill="#FFFFFF">
            <path d="M10.3895009,1.78003147 C10.3895009,0.800049805 9.54410265,-5.68434189e-14 8.5000373,-5.68434189e-14 C7.46104494,-5.68434189e-14 6.61059856,0.794971674 6.61059856,1.78003147 C6.61059856,1.87998276 6.6206948,1.98003171 6.6360381,2.07500253 C4.02844851,2.92998405 1.88943874,5.56001655 1.88943874,8.66500081 L1.88943874,11.1150038 C1.88943874,11.1150038 1.88943874,14.6400569 0.967597543,14.670013 C0.417601273,14.670013 0,15.0699891 0,15.5599799 C0,16.0550245 0.422748862,16.4500445 0.942158009,16.4500445 L16.057842,16.4500445 C16.5823987,16.4500445 17,16.0499708 17,15.5599799 C17,15.0650086 16.5773506,14.670013 16.057842,14.670013 C15.1157089,14.670013 15.1157089,11.1399794 15.1157089,11.1399794 L15.1157089,8.67005453 C15.1157089,5.55496284 13.1141422,2.92998405 10.3691095,2.07500253 C10.3793052,1.974978 10.3895009,1.8750267 10.3895009,1.78003147 Z M11.3316589,17.3300016 C11.3266108,18.8050523 10.0737075,20 8.5000373,20 C6.93651307,20 5.66834108,18.8100083 5.66834108,17.3300016 L11.3316589,17.3300016 Z"></path>
        </g>
    </g>
</svg>