<?xml version="1.0" encoding="UTF-8"?>
<svg width="21px" height="21px" viewBox="0 0 21 21" version="1.1" xmlns="http://www.w3.org/2000/svg" xmlns:xlink="http://www.w3.org/1999/xlink">
    <!-- Generator: Sketch 49 (51002) - http://www.bohemiancoding.com/sketch -->
    <title>email</title>
    <desc>Created with Sketch.</desc>
    <defs>
        <linearGradient x1="50%" y1="0%" x2="50%" y2="100%" id="linearGradient-1">
            <stop stop-color="#FD902D" offset="0%"></stop>
            <stop stop-color="#F95714" offset="100%"></stop>
        </linearGradient>
    </defs>
    <g id="Symbols" stroke="none" stroke-width="1" fill="none" fill-rule="evenodd">
        <g id="email" fill="url(#linearGradient-1)">
            <g id="Fill-1">
                <path d="M8.36111111,11.8618519 L2.11111111,16.9103704 C2.49925926,17.1659259 2.96481481,17.3188889 3.46666667,17.3188889 L18.2651852,17.3188889 C18.7674074,17.3188889 19.232963,17.1666667 19.6214815,16.9103704 L13.3707407,11.8618519 L11.9448148,13.202963 C11.337037,13.77 10.3940741,13.77 9.78666667,13.202963 L8.36037037,11.8618519 L8.36111111,11.8618519 Z M20.4085185,5.24888889 L14.0955556,11.1837037 L20.3003704,16.1933333 L20.3237037,16.2092593 C20.5792593,15.82 20.7318519,15.3551852 20.7318519,14.8522222 L20.7318519,6.4662963 C20.7318519,6.02296296 20.6118519,5.60703704 20.4085185,5.24888889 Z M1.32444444,5.24888889 C1.11259259,5.62 1.00074074,6.04 1,6.46777778 L1,14.8514815 C1,15.3544444 1.15185185,15.82 1.40814815,16.2085185 L1.43148148,16.1933333 L7.63592593,11.182963 L1.32444444,5.24888889 Z M3.46592593,4 C2.92518519,4.00074074 2.39962963,4.17962963 1.97074074,4.50888889 L10.4655556,12.4862963 C10.6559259,12.6655556 11.0759259,12.6655556 11.2666667,12.4862963 L19.7607407,4.50888889 C19.3318519,4.17925926 18.8059259,4.00037037 18.2651852,4 L3.46592593,4 Z"></path>
            </g>
        </g>
    </g>
</svg>