<?xml version="1.0" encoding="UTF-8"?>
<svg width="24px" height="24px" viewBox="0 0 24 24" version="1.1" xmlns="http://www.w3.org/2000/svg" xmlns:xlink="http://www.w3.org/1999/xlink">
    <!-- Generator: Sketch 52.2 (67145) - http://www.bohemiancoding.com/sketch -->
    <title>daohang/ic_yuangongguanli2</title>
    <desc>Created with Sketch.</desc>
    <defs>
        <linearGradient x1="50%" y1="0%" x2="50%" y2="100%" id="linearGradient-1">
            <stop stop-color="#FD902D" offset="0%"></stop>
            <stop stop-color="#F95714" offset="100%"></stop>
        </linearGradient>
    </defs>
    <g id="Symbols" stroke="none" stroke-width="1" fill="none" fill-rule="evenodd">
        <g id="daohang/ic_yuangongguanli2" fill="url(#linearGradient-1)">
            <g id="Page-1">
                <g>
                    <path d="M7.330788,16.71399 L7.325568,16.71669 C6.896808,16.96131 6.547068,17.22555 6.256188,17.52417 L6.253668,17.52687 C5.925168,17.86635 5.692788,18.22257 5.543208,18.61623 L5.541228,18.62145 C5.470848,18.80829 5.433408,19.01043 5.431788,19.20681 C5.429628,19.36485 5.430708,19.52037 5.431248,19.67049 C5.431248,19.74321 5.431788,19.86003 5.431788,19.93257 L-7.2e-05,19.93257 L-7.2e-05,18.83799 C-7.2e-05,18.78435 0.011088,18.72765 0.028188,18.67671 C0.191628,18.24057 0.465408,17.87805 0.801288,17.56143 C1.185408,17.20161 1.622628,16.92135 2.085228,16.68393 C2.782368,16.32663 3.515688,16.06923 4.266648,15.86565 C4.999968,15.66765 5.742108,15.51483 6.495588,15.41295 C6.642648,15.39279 6.792228,15.37587 6.938748,15.35625 C6.975648,15.35031 7.015068,15.33933 7.049088,15.32223 C7.463988,15.10983 7.638588,14.73903 7.545528,14.27805 C7.492068,14.01417 7.382268,13.77405 7.243668,13.54473 C7.190208,13.45653 7.128108,13.37175 7.074468,13.28427 C7.052328,13.25025 7.001208,13.22739 7.026768,13.16799 C7.029468,13.15953 6.995448,13.13145 6.975648,13.11705 C6.636708,12.84543 6.334848,12.53385 6.064128,12.19167 C5.553828,11.54385 5.172768,10.82169 4.882068,10.04913 C4.868388,10.01259 4.853988,9.97857 4.837068,9.93879 C4.812048,9.95571 4.797648,9.96741 4.780728,9.97857 C4.614048,10.10007 4.436388,10.11447 4.247568,10.03797 C4.117428,9.98397 4.007628,9.89631 3.911688,9.79443 C3.739608,9.61083 3.615588,9.39285 3.527928,9.15777 C3.370428,8.74179 3.305088,8.31411 3.364668,7.87005 C3.386808,7.69437 3.435048,7.52715 3.519468,7.37163 C3.570408,7.27569 3.635208,7.19073 3.719988,7.12557 C3.846888,7.02639 3.990528,6.99237 4.148748,7.02369 C4.165668,7.02639 4.180068,7.02945 4.197168,7.03215 C4.202928,7.03215 4.208688,7.03215 4.222548,7.02945 C4.225788,7.01523 4.228308,7.00137 4.228308,6.98697 C4.191228,6.45219 4.183308,5.91993 4.222548,5.38515 C4.282128,4.57281 4.445388,3.78063 4.789728,3.03885 C5.350968,1.82691 6.271128,1.00917 7.523928,0.56205 C7.994988,0.39537 8.480628,0.29079 8.977248,0.24525 C9.829368,0.16605 10.673028,0.20331 11.511468,0.38421 C12.089628,0.50895 12.636828,0.71541 13.139208,1.03797 C13.929408,1.54467 14.465268,2.25783 14.802588,3.13011 C15.005988,3.65643 15.126948,4.19985 15.194808,4.76019 C15.219648,4.96539 15.236568,5.17131 15.248988,5.37669 C15.199668,5.36175 15.149268,5.34753 15.098688,5.33421 C14.582088,5.19633 14.035068,5.12955 13.425768,5.12955 C13.335588,5.12955 13.242168,5.13045 13.148208,5.13369 L13.144068,5.13369 C12.593268,5.15277 12.092508,5.23719 11.613888,5.39109 C10.264968,5.82021 9.273348,6.73443 8.745948,8.03619 C8.521488,8.58789 8.388288,9.19593 8.337168,9.89361 C8.327808,10.02375 8.322048,10.15515 8.319348,10.29321 C8.235468,10.37871 8.159508,10.47465 8.092188,10.58013 L8.090028,10.58337 C7.945308,10.81215 7.847028,11.04939 7.798248,11.28861 C7.629048,12.10257 7.789248,12.90105 8.262468,13.59927 C8.363808,13.74831 8.488548,13.88547 8.643348,14.01795 L8.654508,14.02749 C8.823888,14.16969 9.003168,14.27535 9.190548,14.34537 C9.459468,14.87925 9.774288,15.34023 10.141308,15.73659 C9.809208,15.80391 9.480708,15.88419 9.158688,15.97581 C8.443548,16.17921 7.862508,16.41375 7.330788,16.71399 Z M16.764876,13.016268 C16.561656,13.589388 16.285176,14.125788 15.904296,14.602248 C15.746076,14.799528 15.571476,14.980608 15.379596,15.146568 C15.317856,15.200208 15.252696,15.248448 15.216156,15.327648 C15.165036,15.434748 15.086016,15.527628 15.029676,15.632028 C14.948136,15.775848 14.894316,15.930828 14.871636,16.097508 C14.840316,16.331868 14.939496,16.552188 15.127416,16.680528 L13.785516,18.944748 L15.048756,19.702548 C15.057936,19.707588 15.065316,19.712448 15.071076,19.716228 C15.092856,19.794168 15.031296,19.841328 15.010236,19.855188 L14.890176,19.932048 L6.699816,19.932048 C6.696576,19.892808 6.694056,19.861488 6.694056,19.830708 C6.694056,19.607868 6.691536,19.385028 6.694056,19.162188 C6.694056,19.111248 6.705216,19.057608 6.722136,19.012608 C6.817716,18.761508 6.973236,18.547308 7.159356,18.355248 C7.390656,18.118008 7.661916,17.929008 7.949376,17.765208 C8.440236,17.488728 8.962236,17.296668 9.501516,17.144388 C10.124856,16.966548 10.756836,16.842528 11.400516,16.769268 C11.668356,16.737948 11.888676,16.492608 11.897136,16.210548 C11.902356,16.083108 11.871576,15.958908 11.829096,15.840648 C11.772396,15.685848 11.690676,15.541308 11.600496,15.403428 C11.569716,15.355728 11.518776,15.321888 11.516076,15.256908 C11.516076,15.245748 11.496456,15.234048 11.482056,15.222888 C10.906956,14.757228 10.503216,14.161788 10.201356,13.495968 C10.150956,13.380228 10.105776,13.263948 10.054836,13.145688 C10.046376,13.117608 10.035216,13.088988 10.020996,13.049748 C9.806436,13.182228 9.648396,13.173768 9.462276,13.018428 C9.402696,12.967488 9.346536,12.911328 9.304056,12.849228 C9.027216,12.442608 8.931636,11.993688 9.032976,11.511468 C9.052596,11.412828 9.100836,11.313648 9.154476,11.229228 C9.244656,11.088108 9.377316,11.017548 9.552456,11.051388 C9.560916,11.054268 9.572076,11.051388 9.580536,11.051388 C9.583236,11.051388 9.586476,11.048868 9.597636,11.048868 L9.597636,10.975608 C9.577836,10.637028 9.569376,10.298448 9.594936,9.960048 C9.631476,9.454968 9.721656,8.960868 9.913716,8.489628 C10.305936,7.525008 11.005776,6.892488 11.995776,6.579468 C12.382056,6.455268 12.780036,6.396408 13.186476,6.382188 C13.723056,6.365268 14.252976,6.401808 14.772456,6.540228 C15.316956,6.684048 15.804936,6.929928 16.202916,7.332948 C16.566876,7.700148 16.801416,8.140068 16.956396,8.625528 C17.083296,9.026208 17.153856,9.435168 17.170776,9.852948 C17.184996,10.163088 17.176716,10.473768 17.179236,10.781388 L17.179236,10.835028 C17.204796,10.835028 17.227476,10.837728 17.247096,10.835028 C17.388756,10.817928 17.498556,10.871568 17.588916,10.978668 C17.661996,11.066328 17.709876,11.170908 17.732736,11.283768 C17.836776,11.780028 17.743896,12.240108 17.450496,12.655008 C17.391456,12.737088 17.309196,12.807648 17.224776,12.863988 C17.114436,12.943008 16.987716,12.960108 16.855056,12.903768 C16.843896,12.897828 16.829496,12.895308 16.809876,12.889548 C16.792956,12.934548 16.779096,12.973968 16.764876,13.016268 Z" id="Combined-Shape"></path>
                    <path d="M19.147932,21.57384 C17.980092,21.57384 17.145972,20.3196 17.724852,19.21152 C17.955072,18.7707 18.386892,18.45282 18.878292,18.37326 C19.910412,18.20568 20.759472,19.02324 20.759472,19.9623 C20.759472,20.81874 20.054772,21.57384 19.147932,21.57384 M22.471632,20.71812 C22.068792,19.9623 22.320432,19.05618 23.025492,18.60312 L22.219992,17.24358 C22.018572,17.39478 21.716712,17.44518 21.464532,17.44518 C20.608632,17.44518 19.953972,16.74012 19.953972,15.88422 L18.392832,15.88422 C18.392832,16.1364 18.342432,16.43826 18.191232,16.63986 C17.788572,17.39478 16.831332,17.59638 16.076412,17.19372 L15.270372,18.55326 C15.522192,18.70428 15.673032,18.85512 15.824232,19.10712 C16.226892,19.86276 15.975432,20.76888 15.270372,21.22194 L16.076412,22.58202 C16.277832,22.43064 16.579692,22.38042 16.831872,22.38042 C17.688312,22.38042 18.342432,23.08548 18.342432,23.89098 L19.903392,23.89098 C19.903392,23.63898 19.953972,23.38734 20.104632,23.13534 C20.507292,22.37988 21.464532,22.17864 22.219452,22.58148 L23.024952,21.2214 C22.823892,21.171 22.622832,20.96958 22.471632,20.71812" id="Fill-6"></path>
                </g>
            </g>
        </g>
    </g>
</svg>