<?xml version="1.0" encoding="UTF-8"?>
<svg width="14px" height="20px" viewBox="0 0 14 20" version="1.1" xmlns="http://www.w3.org/2000/svg" xmlns:xlink="http://www.w3.org/1999/xlink">
    <!-- Generator: Sketch 52.2 (67145) - http://www.bohemiancoding.com/sketch -->
    <title>phone</title>
    <desc>Created with Sketch.</desc>
    <defs>
        <linearGradient x1="50%" y1="0%" x2="50%" y2="100%" id="linearGradient-1">
            <stop stop-color="#FD902D" offset="0%"></stop>
            <stop stop-color="#F95714" offset="100%"></stop>
        </linearGradient>
    </defs>
    <g id="Symbols" stroke="none" stroke-width="1" fill="none" fill-rule="evenodd">
        <g id="phone" fill="url(#linearGradient-1)" fill-rule="nonzero">
            <g id="形状">
                <path d="M11.3744584,0 L2.6244524,0 C1.1759971,0 0,0.959558224 0,2.14246577 L0,17.8575538 C0,19.0404613 1.1759971,20 2.6244524,20 L11.3744827,20 C12.8240271,20 14,19.0404613 14,17.8575342 L14,2.1424853 C14,0.959577758 12.8240029,1.95337871e-05 11.3744584,1.95337871e-05 L11.3744584,0 Z M5.68722922,1.07166263 L8.31277078,1.07166263 C8.55400653,1.07166263 8.75000605,1.23158574 8.75000605,1.42889653 C8.75000605,1.62530876 8.55400653,1.78611089 8.31277078,1.78611089 L5.68722922,1.78611089 C5.44599347,1.78611089 5.24999395,1.62532829 5.24999395,1.42889653 C5.24999395,1.23160528 5.44599347,1.07166263 5.68722922,1.07166263 Z M7,18.9283569 C6.27522777,18.9283569 5.68722922,18.4477281 5.68722922,17.8575733 C5.68722922,17.264801 6.27522777,16.7859107 7,16.7859107 C7.72477223,16.7859107 8.31277078,17.264801 8.31277078,17.8575733 C8.31277078,18.4477281 7.72477223,18.9283569 7,18.9283569 Z M12.2499939,15.0006788 C12.2499939,15.3935228 11.8579949,15.714248 11.3744584,15.714248 L2.6244524,15.714248 C2.14200508,15.714248 1.74998185,15.3935228 1.74998185,15.0006788 L1.74998185,3.57134276 C1.74998185,3.17676026 2.14200508,2.8568945 2.6244524,2.8568945 L11.3744827,2.8568945 C11.8579949,2.8568945 12.2499939,3.17674073 12.2499939,3.57134276 L12.2499939,15.0006593 L12.2499939,15.0006788 Z M11.3744584,0 L2.6244524,0 C1.1759971,0 0,0.959558224 0,2.14246577 L0,17.8575538 C0,19.0404613 1.1759971,20 2.6244524,20 L11.3744827,20 C12.8240271,20 14,19.0404613 14,17.8575342 L14,2.1424853 C14,0.959577758 12.8240029,1.95337871e-05 11.3744584,1.95337871e-05 L11.3744584,0 Z M5.68722922,1.07166263 L8.31277078,1.07166263 C8.55400653,1.07166263 8.75000605,1.23158574 8.75000605,1.42889653 C8.75000605,1.62530876 8.55400653,1.78611089 8.31277078,1.78611089 L5.68722922,1.78611089 C5.44599347,1.78611089 5.24999395,1.62532829 5.24999395,1.42889653 C5.24999395,1.23160528 5.44599347,1.07166263 5.68722922,1.07166263 Z M7,18.9283569 C6.27522777,18.9283569 5.68722922,18.4477281 5.68722922,17.8575733 C5.68722922,17.264801 6.27522777,16.7859107 7,16.7859107 C7.72477223,16.7859107 8.31277078,17.264801 8.31277078,17.8575733 C8.31277078,18.4477281 7.72477223,18.9283569 7,18.9283569 Z M12.2499939,15.0006788 C12.2499939,15.3935228 11.8579949,15.714248 11.3744584,15.714248 L2.6244524,15.714248 C2.14200508,15.714248 1.74998185,15.3935228 1.74998185,15.0006788 L1.74998185,3.57134276 C1.74998185,3.17676026 2.14200508,2.8568945 2.6244524,2.8568945 L11.3744827,2.8568945 C11.8579949,2.8568945 12.2499939,3.17674073 12.2499939,3.57134276 L12.2499939,15.0006593 L12.2499939,15.0006788 Z"></path>
            </g>
        </g>
    </g>
</svg>