<?xml version="1.0" encoding="UTF-8"?>
<svg width="22px" height="24px" viewBox="0 0 22 24" version="1.1" xmlns="http://www.w3.org/2000/svg" xmlns:xlink="http://www.w3.org/1999/xlink">
    <!-- Generator: Sketch 49 (51002) - http://www.bohemiancoding.com/sketch -->
    <title>ic_alliance</title>
    <desc>Created with Sketch.</desc>
    <defs>
        <polygon id="path-1" points="0 23.73216 21.75312 23.73216 21.75312 0 0 0"></polygon>
    </defs>
    <g id="Symbols" stroke="none" stroke-width="1" fill="none" fill-rule="evenodd">
        <g id="ic_alliance">
            <g>
                <path d="M8.98344,13.564704 L7.76328,13.564704 L7.76328,14.613504 L8.52024,14.613504 C8.85672,14.613504 9.01128,14.461824 8.98296,14.158944 L8.98296,13.564704 L8.98344,13.564704 Z" id="Fill-1" fill="#97A2B3"></path>
                <mask id="mask-2" fill="white">
                    <use xlink:href="#path-1"></use>
                </mask>
                <g id="Clip-4"></g>
                <polygon id="Fill-3" fill="#97A2B3" mask="url(#mask-2)" points="8.22576 18.03936 9.27744 18.03936 9.27744 16.536 8.22576 16.536"></polygon>
                <polygon id="Fill-5" fill="#97A2B3" mask="url(#mask-2)" points="7.76352 12.97008 8.98368 12.97008 8.98368 11.99136 7.76352 11.99136"></polygon>
                <path d="M8.730816,7.711392 L7.637376,7.711392 L7.637376,8.934912 C8.001216,8.934912 8.366016,8.900352 8.730816,8.830272 L8.730816,7.711392 Z" id="Fill-6" fill="#97A2B3" mask="url(#mask-2)"></path>
                <polygon id="Fill-7" fill="#97A2B3" mask="url(#mask-2)" points="7.63728 5.19456 8.73072 5.19456 8.73072 4.07568 7.63728 4.07568"></polygon>
                <polygon id="Fill-8" fill="#97A2B3" mask="url(#mask-2)" points="7.63728 7.01232 8.73072 7.01232 8.73072 5.89344 7.63728 5.89344"></polygon>
                <polygon id="Fill-9" fill="#97A2B3" mask="url(#mask-2)" points="10.4136 18.03936 11.46528 18.03936 11.46528 16.536 10.4136 16.536"></polygon>
                <path d="M15.756912,7.291872 L13.569072,7.291872 C13.680912,8.457792 14.410512,9.424512 15.756912,10.193472 L15.756912,10.927872 C14.353872,10.368192 13.401072,9.646272 12.895632,8.760672 C12.334512,9.669312 11.395152,10.391232 10.077072,10.927872 L10.077072,10.228512 C11.395152,9.412992 12.110352,8.434272 12.223152,7.291872 L10.203792,7.291872 L10.203792,6.557952 L12.264912,6.557952 L12.264912,4.740192 L10.455792,4.740192 L10.455792,4.005792 L11.128752,4.005792 C10.988112,3.749472 10.876752,3.411552 10.792272,2.992032 L11.970192,2.992032 C12.054672,3.435072 12.180912,3.772992 12.348912,4.005792 L13.443312,4.005792 C13.610832,3.702912 13.723152,3.376512 13.779312,3.026592 L14.999472,3.026592 C14.943312,3.329952 14.830992,3.656352 14.662992,4.005792 L15.462192,4.005792 L15.462192,4.740192 L13.526832,4.740192 L13.526832,6.557952 L15.756912,6.557952 L15.756912,7.291872 Z M10.876752,13.600032 L10.876752,11.257632 L15.251952,11.257632 L15.251952,14.439072 C15.279312,15.184512 14.845392,15.545472 13.947312,15.522432 L13.022352,15.522432 L13.022352,14.928192 L13.485072,14.928192 C13.848912,14.951712 14.017392,14.811552 13.989552,14.508672 L13.989552,14.263872 L12.012432,14.263872 C11.871792,14.893152 11.297232,15.359712 10.287312,15.662112 L10.287312,15.067872 C10.707792,14.764992 10.904112,14.275872 10.876752,13.600032 Z M15.756912,18.703392 L6.122832,18.703392 L6.122832,18.039552 L6.964272,18.039552 L6.964272,15.801792 L14.873232,15.801792 L14.873232,18.039552 L15.756912,18.039552 L15.756912,18.703392 Z M8.856912,15.242592 L6.627312,15.242592 L6.627312,11.327232 L10.119312,11.327232 L10.119312,14.123712 C10.146672,14.893152 9.726192,15.266112 8.856912,15.242592 Z M5.996112,9.040032 L6.543312,9.004992 L6.543312,4.075872 L6.080592,4.075872 L6.080592,3.341952 L10.245552,3.341952 L10.245552,4.075872 L9.782832,4.075872 L9.782832,8.690112 C9.978672,8.644032 10.203792,8.608992 10.455792,8.585472 L10.455792,9.249792 C10.399152,9.273312 10.343472,9.296832 10.287312,9.319872 C10.146672,9.342912 9.978672,9.378432 9.782832,9.424512 L9.782832,10.927872 L8.730672,10.927872 L8.730672,9.634272 C8.085552,9.727392 7.174032,9.808992 5.996112,9.879072 L5.996112,9.040032 Z M21.100272,1.870272 L10.898352,0.000192 L0.891792,1.870272 L-4.8e-05,2.001792 L-4.8e-05,14.095872 C-4.8e-05,14.821152 0.188592,15.542112 0.566352,16.260192 C0.943152,16.978272 1.436112,17.673792 2.045232,18.348192 C2.654352,19.022112 3.346512,19.660992 4.122672,20.262432 C4.898352,20.864352 5.688432,21.401472 6.493872,21.872352 C7.298352,22.343232 8.074032,22.735872 8.820912,23.046912 C9.567312,23.358912 10.223952,23.572512 10.789392,23.688672 L11.028912,23.732352 L11.289552,23.688672 C11.841072,23.572512 12.482832,23.358912 13.214832,23.046912 C13.947312,22.735872 14.701392,22.343232 15.477552,21.872352 C16.253232,21.401472 17.017872,20.864352 17.771952,20.262432 C18.526032,19.660992 19.197072,19.022112 19.784592,18.348192 C20.371632,17.673792 20.846832,16.978272 21.208752,16.260192 C21.571152,15.542112 21.753072,14.821152 21.753072,14.095872 L21.753072,2.001792 L21.100272,1.870272 Z" id="Fill-10" fill="#97A2B3" mask="url(#mask-2)"></path>
                <polygon id="Fill-11" fill="#97A2B3" mask="url(#mask-2)" points="13.989696 13.075296 12.138816 13.075296 12.138816 13.494816 12.138816 13.739616 13.989696 13.739616"></polygon>
                <polygon id="Fill-12" fill="#97A2B3" mask="url(#mask-2)" points="12.60144 18.03936 13.65312 18.03936 13.65312 16.536 12.60144 16.536"></polygon>
                <polygon id="Fill-13" fill="#97A2B3" mask="url(#mask-2)" points="12.13872 12.516 13.9896 12.516 13.9896 11.88672 12.13872 11.88672"></polygon>
            </g>
        </g>
    </g>
</svg>