<?xml version="1.0" encoding="UTF-8"?>
<svg width="60px" height="60px" viewBox="0 0 60 60" version="1.1" xmlns="http://www.w3.org/2000/svg" xmlns:xlink="http://www.w3.org/1999/xlink">
    <!-- Generator: Sketch 49 (51002) - http://www.bohemiancoding.com/sketch -->
    <title>ic_dimission</title>
    <desc>Created with Sketch.</desc>
    <defs>
        <path d="M30,60 C46.5685425,60 60,46.5685425 60,30 C60,13.4314575 46.5685425,0 30,0 C13.4314575,0 0,13.4314575 0,30 C0,46.5685425 13.4314575,60 30,60 Z" id="path-1"></path>
        <mask id="mask-2" maskContentUnits="userSpaceOnUse" maskUnits="objectBoundingBox" x="0" y="0" width="60" height="60" fill="white">
            <use xlink:href="#path-1"></use>
        </mask>
        <mask id="mask-4" maskContentUnits="userSpaceOnUse" maskUnits="objectBoundingBox" x="0" y="0" width="60" height="60" fill="white">
            <use xlink:href="#path-1"></use>
        </mask>
        <circle id="path-5" cx="30" cy="30" r="27.2727273"></circle>
    </defs>
    <g id="Symbols" stroke="none" stroke-width="1" fill="none" fill-rule="evenodd">
        <g id="ic_dimission">
            <g>
                <mask id="mask-3" fill="white">
                    <use xlink:href="#path-1"></use>
                </mask>
                <g id="Mask-Copy" stroke="#97A2B3" mask="url(#mask-2)" stroke-width="2" opacity="0.4" stroke-dasharray="1,1">
                    <use mask="url(#mask-4)" xlink:href="#path-1"></use>
                </g>
                <mask id="mask-6" fill="white">
                    <use xlink:href="#path-5"></use>
                </mask>
                <use id="Mask" fill="#97A2B3" xlink:href="#path-5"></use>
                <g id="Page-1" mask="url(#mask-6)" fill="#FFFFFF">
                    <g transform="translate(10.227273, 18.409091)">
                        <path d="M18.7085455,30.8170432 C18.6844091,28.5817705 19.3150227,26.3884295 20.5226591,24.507225 C20.4655909,24.075225 20.5543636,23.6366795 20.7750682,23.2611341 C21.7491136,21.991725 22.4670682,20.5453841 22.8888409,19.0018841 C24.0482045,18.0423614 24.7845682,16.6657705 24.9394091,15.1687023 C25.0658182,12.944475 24.5135455,12.8497705 24.5135455,12.8497705 C25.3339773,10.3416341 25.5861818,0.940111364 19.5760227,2.07574773 C18.5825455,0.104134091 12.2725227,-1.44182045 9.32277273,3.81111136 C7.72711364,6.581475 7.41088636,9.90717955 8.45509091,12.928725 C8.45509091,13.1338841 8.06072727,12.7078159 7.93472727,14.0486114 C7.87193182,15.4720432 8.25831818,16.8791114 9.03886364,18.0712023 C9.30968182,18.4076795 9.66272727,18.668475 10.0640455,18.8284295 C10.4252727,20.4776795 11.17125,22.0179068 12.2410227,23.3241341 C12.4320682,24.3990205 11.9014773,25.4728841 10.9317273,25.974225 C5.22122727,27.0468614 0,30.2017705 0,33.6565432 L0,36.3066341 C0,40.0134068 8.6445,40.8021341 16.4211136,40.8021341 C18.7609091,40.7867932 21.0964091,40.6022932 23.4092045,40.2500659 C20.4340909,38.0125432 18.6819545,34.5080659 18.6770455,30.7855432 L18.7085455,30.8170432 Z" id="Fill-1"></path>
                        <path d="M34.8616432,29.5392273 L25.570575,29.5392273 C25.1240523,29.4872727 24.6871432,29.6961136 24.4474159,30.0763636 C24.2076886,30.4566136 24.2076886,30.9409773 24.4474159,31.3210227 C24.6871432,31.7012727 25.1240523,31.9103182 25.570575,31.8581591 L34.8616432,31.8581591 C35.3083705,31.9103182 35.7448705,31.7012727 35.9845977,31.3210227 C36.224325,30.9409773 36.224325,30.4566136 35.9845977,30.0763636 C35.7448705,29.6961136 35.3083705,29.4872727 34.8616432,29.5392273 M30.2237795,39.9978409 C26.4566659,40.0041818 23.057325,37.7390455 21.612825,34.2597273 C20.1681205,30.7804091 20.9633932,26.7735682 23.6271886,24.1099773 C26.2909841,21.4461818 30.297825,20.6509091 33.7769386,22.0952045 C37.2562568,23.5399091 39.5213932,26.9394545 39.5150523,30.7065682 C39.5064614,35.8343182 35.3517341,39.9890455 30.2237795,39.9978409" id="Fill-4"></path>
                    </g>
                </g>
            </g>
        </g>
    </g>
</svg>