<?xml version="1.0" encoding="UTF-8"?>
<svg width="19px" height="20px" viewBox="0 0 19 20" version="1.1" xmlns="http://www.w3.org/2000/svg" xmlns:xlink="http://www.w3.org/1999/xlink">
    <!-- Generator: Sketch 49 (51002) - http://www.bohemiancoding.com/sketch -->
    <title>ic_dimission2</title>
    <desc>Created with Sketch.</desc>
    <defs></defs>
    <g id="Symbols" stroke="none" stroke-width="1" fill="none" fill-rule="evenodd">
        <g id="ic_dimission2" fill="#394A66">
            <g>
                <path d="M8.99513435,15.0774018 C8.9835295,13.9754239 9.28673075,12.8941181 9.86736656,11.966694 C9.83992798,11.7537202 9.88261021,11.5375196 9.98872573,11.3523776 C10.4570502,10.7265655 10.8022453,10.0135269 11.0050351,9.25258938 C11.5624612,8.77954963 11.9165074,8.10089742 11.9909555,7.36285054 C12.0517334,6.26631799 11.7862971,6.21962914 11.7862971,6.21962914 C12.1806652,4.98313087 12.3019261,0.348228735 9.41222047,0.908091595 C8.93455311,-0.063903742 5.90067202,-0.826051346 4.48242186,1.7636169 C3.71522337,3.12939186 3.56318019,4.76894702 4.0652374,6.25855332 C4.0652374,6.35969569 3.87562598,6.14964628 3.81504474,6.81065151 C3.78485246,7.51239604 3.97062838,8.20607339 4.34591738,8.79376805 C4.47612771,8.95964961 4.6458732,9.08822042 4.83882839,9.16707718 C5.01250774,9.98014891 5.37117623,10.739473 5.88552671,11.3834363 C5.97738204,11.9133497 5.72227207,12.4427589 5.25601286,12.6899174 C2.51038441,13.2187216 0,14.7740755 0,16.4772606 L0,17.7837417 C0,19.6111615 4.15630596,20 7.8953291,20 C9.02031097,19.992437 10.1432276,19.9014795 11.2552277,19.7278332 C9.82478266,18.6247461 8.98234935,16.8970569 8.97998904,15.0618724 L8.99513435,15.0774018 Z" id="Fill-1"></path>
                <path d="M16.7500451,13.9432305 L12.2577634,13.9432305 C12.0418672,13.9181104 11.8306193,14.0190854 11.7147099,14.2029371 C11.5988005,14.3867889 11.5988005,14.6209798 11.7147099,14.8047326 C11.8306193,14.9885843 12.0418672,15.0896583 12.2577634,15.0644392 L16.7500451,15.0644392 C16.9660402,15.0896583 17.1770903,14.9885843 17.2929997,14.8047326 C17.4089091,14.6209798 17.4089091,14.3867889 17.2929997,14.2029371 C17.1770903,14.0190854 16.9660402,13.9181104 16.7500451,13.9432305 M14.507613,18.9999936 C12.6861931,19.0030594 11.0425934,17.9078609 10.3441698,16.2256028 C9.64564739,14.5433447 10.0301661,12.6060281 11.3181256,11.318176 C12.6060851,10.0302249 14.5434143,9.64570878 16.2255846,10.3440289 C17.9078538,11.0425467 19.0030594,12.6862346 18.9999936,14.5076424 C18.9958398,16.986921 16.9870067,18.995741 14.507613,18.9999936" id="Fill-3"></path>
            </g>
        </g>
    </g>
</svg>