<?xml version="1.0" encoding="UTF-8"?>
<svg width="60px" height="60px" viewBox="0 0 60 60" version="1.1" xmlns="http://www.w3.org/2000/svg" xmlns:xlink="http://www.w3.org/1999/xlink">
    <!-- Generator: Sketch 49 (51002) - http://www.bohemiancoding.com/sketch -->
    <title>ic_evaluate</title>
    <desc>Created with Sketch.</desc>
    <defs>
        <circle id="path-1" cx="30" cy="30" r="27.2727273"></circle>
        <path d="M30,60 C46.5685425,60 60,46.5685425 60,30 C60,13.4314575 46.5685425,0 30,0 C13.4314575,0 0,13.4314575 0,30 C0,46.5685425 13.4314575,60 30,60 Z" id="path-3"></path>
        <mask id="mask-4" maskContentUnits="userSpaceOnUse" maskUnits="objectBoundingBox" x="0" y="0" width="60" height="60" fill="white">
            <use xlink:href="#path-3"></use>
        </mask>
        <mask id="mask-6" maskContentUnits="userSpaceOnUse" maskUnits="objectBoundingBox" x="0" y="0" width="60" height="60" fill="white">
            <use xlink:href="#path-3"></use>
        </mask>
    </defs>
    <g id="Symbols" stroke="none" stroke-width="1" fill="none" fill-rule="evenodd">
        <g id="ic_evaluate">
            <g>
                <mask id="mask-2" fill="white">
                    <use xlink:href="#path-1"></use>
                </mask>
                <use id="Mask" fill="#5EC860" xlink:href="#path-1"></use>
                <path d="M30.3502251,23.3672268 C30.3502251,23.3672268 29.6549672,23.5991106 29.1913964,22.6717723 C28.7278256,21.7446307 26.4097749,19.1948929 22.4695214,19.1948929 C18.2971875,19.4267767 15.0521919,22.6717723 15.2838789,26.8443029 C15.5157627,30.7845564 17.8336167,37.7381184 28.2644515,43.3013615 C28.7278256,43.7647356 28.7278256,44.2283064 28.7278256,44.2283064 L28.7278256,50.9501814 C28.7278256,50.9501814 28.9597094,51.877323 28.0323711,51.877323 C27.1052295,51.6456359 26.8733457,50.2547268 26.8733457,50.2547268 C26.8733457,50.2547268 25.7147137,46.7780441 23.1647793,45.155448 C20.8471219,43.5328518 18.2971875,41.6787653 13.6614795,40.7516237 C13.4295957,44.9237609 14.8203081,50.7182976 17.1383588,53.4999191 C21.0786123,58.599198 26.4097749,59.7582233 29.886851,59.9899104 C34.522559,59.9899104 40.5489795,57.6720564 43.562288,52.8044646 C47.0391674,48.1689532 46.8072837,40.5195433 46.8072837,40.5195433 C46.8072837,40.5195433 41.2446307,41.4468816 37.0721001,45.155448 C34.522559,47.2418116 33.8271045,49.3275852 33.5952207,49.7913527 C32.8999628,50.7182976 33.1318466,51.1818684 32.436392,52.1094034 C31.5094471,52.8044646 31.7409375,52.1094034 31.5094471,51.1818684 L31.5094471,44.6918772 C31.5094471,44.6918772 31.2773667,43.5328518 32.6680791,43.069281 C38.2311254,40.0561691 42.1715756,35.4202644 44.0258588,30.7845564 C46.3437128,26.1488483 44.9530004,20.3541149 38.92658,19.1948929 C34.2906753,18.4996351 31.5094471,22.6717723 31.5094471,22.6717723 C31.5094471,22.6717723 31.0456796,23.3672268 30.3502251,23.3672268" id="Fill-1" fill="#FFFFFF" mask="url(#mask-2)"></path>
                <mask id="mask-5" fill="white">
                    <use xlink:href="#path-3"></use>
                </mask>
                <g id="Mask-Copy" stroke="#5EC860" mask="url(#mask-4)" stroke-width="2" opacity="0.4" stroke-dasharray="1,1">
                    <use mask="url(#mask-6)" xlink:href="#path-3"></use>
                </g>
            </g>
        </g>
    </g>
</svg>