<?xml version="1.0" encoding="UTF-8"?>
<svg width="20px" height="18px" viewBox="0 0 20 18" version="1.1" xmlns="http://www.w3.org/2000/svg" xmlns:xlink="http://www.w3.org/1999/xlink">
    <!-- Generator: Sketch 49 (51002) - http://www.bohemiancoding.com/sketch -->
    <title>ic_educational experience2</title>
    <desc>Created with Sketch.</desc>
    <defs></defs>
    <g id="Symbols" stroke="none" stroke-width="1" fill="none" fill-rule="evenodd">
        <g id="ic_educational-experience2" fill="#F9C04D">
            <g id="工作经历2">
                <path d="M19.6356793,10.4667859 L12.4547503,10.4667859 L12.4547503,10.7679082 C12.4547503,10.9709798 12.2800251,11.1354818 12.063942,11.1354818 L8.01459142,11.1354818 C7.79804363,11.1354818 7.62331839,10.9709798 7.62331839,10.7679082 L7.62331839,10.4667859 L0.175654639,10.4667859 L0.175654639,9.77764353 L7.62331839,9.77764353 L7.62331839,9.47930946 C7.62331839,9.27530844 7.79804363,9.11080648 8.01459142,9.11080648 L12.063942,9.11080648 C12.2800251,9.11080648 12.4547503,9.27530844 12.4547503,9.47930946 L12.4547503,9.77764353 L19.6356793,9.77764353 L19.6356793,10.4667859 Z M7.17163503,1.10504426 C7.17163503,0.923813286 7.32870188,0.77650503 7.52155022,0.77650503 L12.4793792,0.77650503 C12.6712981,0.77650503 12.828365,0.923813286 12.828365,1.10504426 L12.828365,2.56743883 L7.17163503,2.56743883 L7.17163503,1.10504426 Z M18.4158554,2.60833198 L13.6545923,2.60833198 L13.6545923,1.10504426 C13.6545923,0.495829364 13.126699,0 12.4793792,0 L7.52155022,0 C6.87330096,0 6.34540765,0.495829364 6.34540765,1.10504426 L6.34540765,2.60833198 L1.58460931,2.60833198 C0.709124283,2.60833198 0,3.28213945 0,4.11254908 L0,15.8646809 C0,16.6950905 0.709124283,17.3693627 1.58460931,17.3693627 L18.4158554,17.3693627 C19.2918051,17.3693627 20,16.6950905 20,15.8646809 L20,4.11254908 C20,3.28213945 19.2918051,2.60833198 18.4158554,2.60833198 Z"></path>
            </g>
        </g>
    </g>
</svg>