<?xml version="1.0" encoding="UTF-8"?>
<svg width="120px" height="120px" viewBox="0 0 120 120" version="1.1" xmlns="http://www.w3.org/2000/svg" xmlns:xlink="http://www.w3.org/1999/xlink">
    <!-- Generator: Sketch 49 (51002) - http://www.bohemiancoding.com/sketch -->
    <title>ic_female</title>
    <desc>Created with Sketch.</desc>
    <defs>
        <rect id="path-1" x="0" y="0" width="120" height="120" rx="60"></rect>
        <polygon id="path-3" points="0.312343902 0.380307692 80.4417585 0.380307692 80.4417585 102.651051 0.312343902 102.651051 0.312343902 0.380307692"></polygon>
        <path d="M0.643594393,5.88191519 C4.54201801,4.54620682 7.27473262,2.08823879 8.95280374,0.132865385 C13.4983551,5.97894231 19.5505421,7.68169231 26.1953084,7.68169231 C32.748486,7.68169231 38.7246542,6.07317308 43.2500561,0.368442308 C44.6878866,2.76549768 47.0549205,5.04900612 51.4341551,6.15733068 L51.4341551,15.4836231 L0.643594393,15.4836231 L0.643594393,5.88191519 Z" id="path-5"></path>
        <path d="M17.5731402,6.85528846 C-2.02594393,6.85528846 0.80964486,24.5 0.80964486,24.5 L0.852691589,30.4874231 C8.65147664,37.66875 17.9944486,43.1058654 28.3091776,46.2098269 L49.1648598,48.6598269 L67.3186729,46.5207885 C78.7297196,43.2849038 88.9940748,37.20325 97.3433084,29.0617115 L97.3762804,24.5 L97.3735327,24.5 C97.3735327,24.5 100.210037,6.85528846 80.6118692,6.85528846 C71.9915327,6.85528846 68.1594579,3.72305769 66.1472523,0.368442308 C61.6218505,6.07317308 55.6456822,7.68169231 49.0925047,7.68169231 C42.4477383,7.68169231 36.3955514,5.97894231 31.85,0.132865385 C29.4183178,2.96638462 24.7720187,6.85528846 17.5731402,6.85528846 Z" id="path-7"></path>
    </defs>
    <g id="Symbols" stroke="none" stroke-width="1" fill="none" fill-rule="evenodd">
        <g id="ic_female">
            <g id="女－选中后">
                <g>
                    <mask id="mask-2" fill="white">
                        <use xlink:href="#path-1"></use>
                    </mask>
                    <g id="Mask">
                        <use fill="#FFFFFF" fill-rule="evenodd" xlink:href="#path-1"></use>
                        <rect stroke="#E5E5E5" stroke-width="0.8" x="0.4" y="0.4" width="119.2" height="119.2" rx="59.6"></rect>
                    </g>
                    <g id="Page-1-Copy" mask="url(#mask-2)">
                        <g transform="translate(10.000000, 8.000000)">
                            <g id="Group-21" stroke-width="1" fill="none">
                                <g id="Group-3" transform="translate(10.000000, 0.000000)">
                                    <mask id="mask-4" fill="white">
                                        <use xlink:href="#path-3"></use>
                                    </mask>
                                    <g id="Clip-2"></g>
                                    <path d="M71.0721,45.0476442 C73.1399049,45.824766 76.4997585,43.3877596 76.4997585,43.3877596 C63.8387341,38.6187276 71.0721,18.1045609 61.5259537,6.59827244 C51.9791488,-4.90801603 40.3770512,3.07844551 40.3770512,3.07844551 C40.3770512,3.07844551 28.7742951,-4.90801603 19.2281488,6.59827244 C9.6813439,18.1045609 16.9153683,38.6187276 4.2543439,43.3877596 C4.2543439,43.3877596 7.61419756,45.824766 9.6813439,45.0476442 C9.6813439,45.0476442 19.3690756,72.6787147 0.312343902,83.2157468 C0.312343902,83.2157468 23.7871976,107.483471 40.3770512,101.784138 C56.9669049,107.483471 80.4417585,83.2157468 80.4417585,83.2157468 C61.3856854,72.6787147 71.0721,45.0476442 71.0721,45.0476442" id="Fill-1" fill="#654C3F" mask="url(#mask-4)"></path>
                                </g>
                                <path d="M34.4549682,72.1264815 C34.4540523,72.1283333 34.4531364,72.1264815 34.4531364,72.1264815 L34.448557,72.1338889 L34.4549682,72.1264815 Z" id="Fill-1" fill="#F6D8AA"></path>
                                <path d="M80.6115944,81.5883333 C69.2857252,81.5883333 66.2211645,76.2772222 64.6952953,72.1262963 C60.0801364,61.7207407 59.8255196,41.3411111 59.8255196,41.3411111 L38.262772,41.3411111 C38.262772,41.3411111 40.4792206,58.2753704 33.9159682,72.1262963 C33.9159682,72.1281481 33.9132206,72.1262963 33.9132206,72.1262963 C33.9132206,72.1262963 28.8996505,81.5883333 17.5737813,81.5883333 C-2.02621869,81.5883333 0.809370093,98.9262963 0.809370093,98.9262963 L0.94308972,117.101296 L49.164585,122.665185 L97.2432019,117.101296 L97.3769215,98.9262963 L97.3741738,98.9262963 C97.3741738,98.9262963 100.209763,81.5883333 80.6115944,81.5883333" id="Fill-5" fill="#F6D8AA"></path>
                                <path d="M80.6115944,81.5883333 C69.2857252,81.5883333 66.2211645,76.2772222 64.6952953,72.1262963 C60.0801364,61.7207407 59.8255196,41.3411111 59.8255196,41.3411111 L38.262772,41.3411111 C38.262772,41.3411111 40.4792206,58.2753704 33.9159682,72.1262963 C33.9159682,72.1281481 33.9132206,72.1262963 33.9132206,72.1262963 C33.9132206,72.1262963 28.8996505,81.5883333 17.5737813,81.5883333 C-2.02621869,81.5883333 0.809370093,98.9262963 0.809370093,98.9262963 L0.94308972,117.101296 L49.164585,122.665185 L97.2432019,117.101296 L97.3769215,98.9262963 L97.3741738,98.9262963 C97.3741738,98.9262963 100.209763,81.5883333 80.6115944,81.5883333" id="Fill-7" fill="#F6D8AA"></path>
                                <path d="M55.004286,78.1360185 C57.821557,78.1360185 61.3880243,75.7471296 64.7768093,72.3434259 C64.7502486,72.2730556 64.7218561,72.1989815 64.6952953,72.1267593 C60.0801364,61.7202778 59.8255196,41.3415741 59.8255196,41.3415741 L38.262772,41.3415741 C38.262772,41.3415741 39.5349402,51.0906481 37.2836879,61.8452778 C41.7083421,69.6471296 49.6866411,78.1360185 55.004286,78.1360185" id="Fill-9" fill="#DBBA8C"></path>
                                <path d="M80.6115944,81.5883333 C71.9912579,81.5883333 68.1591832,78.5105556 66.1469776,75.2133333 C61.6215757,80.8198148 55.6454075,82.4003704 49.0922299,82.4003704 C42.4474636,82.4003704 36.3961925,80.7272222 31.8506411,74.9818519 C29.418043,77.767037 24.7717439,81.5883333 17.5737813,81.5883333 C-2.02621869,81.5883333 0.809370093,98.9262963 0.809370093,98.9262963 L0.94308972,117.101296 L49.164585,122.665185 L97.2432019,117.101296 L97.3769215,98.9262963 L97.3741738,98.9262963 C97.3741738,98.9262963 100.209763,81.5883333 80.6115944,81.5883333" id="Fill-19" fill="#FFB000"></path>
                            </g>
                            <g id="Group-30" stroke-width="1" fill="none" transform="translate(0.000000, 75.000000)">
                                <g id="Group-24" transform="translate(22.897196, 0.000000)">
                                    <mask id="mask-6" fill="white">
                                        <use xlink:href="#path-5"></use>
                                    </mask>
                                    <g id="Clip-23"></g>
                                    <path d="M43.2497813,0.368065385 C38.7243794,6.07373846 32.7482112,7.68225769 26.1950336,7.68225769 C19.5502673,7.68225769 13.4989963,5.97950769 8.95344486,0.132488462 C7.27462243,2.08871923 4.54161308,4.54625769 0.643594393,5.88056538 C7.70783738,11.8943731 16.5672206,15.4836231 26.1950336,15.4836231 C35.6790523,15.4836231 44.4221178,12.0036808 51.4341551,6.14912308 C47.0626224,5.03908462 44.6868093,2.76435385 43.2497813,0.368065385" id="Fill-22" fill="#FC8E00" mask="url(#mask-6)"></path>
                                </g>
                                <mask id="mask-8" fill="white">
                                    <use xlink:href="#path-7"></use>
                                </mask>
                                <g id="Clip-26"></g>
                                <polygon id="Fill-25" fill="#FC8E00" mask="url(#mask-8)" points="-15.8265421 31.0631731 114.008804 31.0631731 114.008804 25.4074423 -15.8265421 25.4074423"></polygon>
                                <path d="M22.8470972,7.27715962 C22.8470972,16.6229673 15.482443,24.2019481 6.3977514,24.2019481 C-2.68694019,24.2019481 -10.0515944,16.6229673 -10.0515944,7.27715962 C-10.0515944,-2.07053269 -2.68694019,-9.64762885 6.3977514,-9.64762885 C15.482443,-9.64762885 22.8470972,-2.07053269 22.8470972,7.27715962" id="Fill-28" fill="#F6D8AA" mask="url(#mask-8)"></path>
                                <path d="M108.801065,7.27715962 C108.801065,16.6229673 101.436411,24.2019481 92.3517196,24.2019481 C83.267028,24.2019481 75.9023738,16.6229673 75.9023738,7.27715962 C75.9023738,-2.07053269 83.267028,-9.64762885 92.3517196,-9.64762885 C101.436411,-9.64762885 108.801065,-2.07053269 108.801065,7.27715962" id="Fill-29" fill="#F6D8AA" mask="url(#mask-8)"></path>
                            </g>
                            <g id="Page-1" stroke-width="1" fill="none" transform="translate(30.000000, 4.000000)">
                                <path d="M19.9996589,59 C12.5966806,59 6.94628758,52.8020011 4.41374222,48.1541623 C1.88186122,43.5063236 0.129276048,16.7791044 5.58434687,9.41931089 C10.9258119,2.21208961 19.9996589,3.0277896 19.9996589,3.0277896 C19.9996589,3.0277896 29.0735058,2.21208961 34.4162996,9.41931089 C39.870706,16.7791044 38.1181209,43.5063236 35.5855755,48.1541623 C33.0530301,52.8020011 27.4026371,59 19.9996589,59" id="Fill-8" fill="#F6D8AA"></path>
                                <path d="M2.19736659,34 C24.9030485,30.7857054 30.1788574,14.9362506 30.1788574,14.9362506 C30.1788574,14.9362506 30.8383335,23.6029167 38.3318318,29.4178076 C38.3318318,29.4178076 43.696107,14.3179131 35.1859163,6.02569572 C26.6743853,-2.26784714 12.7824943,-2.01998194 4.39763087,6.89189841 C-3.98857291,15.8024533 2.19736659,34 2.19736659,34" id="Fill-10" fill="#654C3F"></path>
                            </g>
                            <path d="M35.007,72 C35.006,72.002 35.005,72 35.005,72 L35,72.008 L35.007,72 Z" id="Fill-31" fill="#F6D8AA"></path>
                        </g>
                    </g>
                </g>
            </g>
        </g>
    </g>
</svg>