<?xml version="1.0" encoding="UTF-8"?>
<svg width="60px" height="60px" viewBox="0 0 60 60" version="1.1" xmlns="http://www.w3.org/2000/svg" xmlns:xlink="http://www.w3.org/1999/xlink">
    <!-- Generator: Sketch 49 (51002) - http://www.bohemiancoding.com/sketch -->
    <title>ic_jibenxinxi</title>
    <desc>Created with Sketch.</desc>
    <defs>
        <path d="M30,60 C46.5685425,60 60,46.5685425 60,30 C60,13.4314575 46.5685425,0 30,0 C13.4314575,0 0,13.4314575 0,30 C0,46.5685425 13.4314575,60 30,60 Z" id="path-1"></path>
        <mask id="mask-2" maskContentUnits="userSpaceOnUse" maskUnits="objectBoundingBox" x="0" y="0" width="60" height="60" fill="white">
            <use xlink:href="#path-1"></use>
        </mask>
        <mask id="mask-4" maskContentUnits="userSpaceOnUse" maskUnits="objectBoundingBox" x="0" y="0" width="60" height="60" fill="white">
            <use xlink:href="#path-1"></use>
        </mask>
        <circle id="path-5" cx="30" cy="30" r="27.2727273"></circle>
    </defs>
    <g id="Symbols" stroke="none" stroke-width="1" fill="none" fill-rule="evenodd">
        <g id="ic_jibenxinxi">
            <g>
                <mask id="mask-3" fill="white">
                    <use xlink:href="#path-1"></use>
                </mask>
                <g id="Mask-Copy" stroke="#507BE6" mask="url(#mask-2)" stroke-width="2" fill="#FFFFFF" opacity="0.4" stroke-dasharray="1,1">
                    <use mask="url(#mask-4)" xlink:href="#path-1"></use>
                </g>
                <mask id="mask-6" fill="white">
                    <use xlink:href="#path-5"></use>
                </mask>
                <use id="Mask" fill="#507BE6" xlink:href="#path-5"></use>
                <path d="M27.27271,16.9819694 C25.8486263,16.9819694 26.0679767,17.6076334 25.3013795,17.7152002 C24.5345001,17.823049 25.4565057,17.4125187 23.1562908,17.842927 C20.8564994,18.2741812 20.0445924,21.1800365 19.9349172,22.2565507 C19.825242,23.332501 19.7979997,26.3586113 19.8708342,27.9736645 C20.0899022,28.942048 19.3234462,28.942048 19.3234462,28.942048 C17.9453781,28.855205 18.5647536,33.0763927 18.5647536,33.0763927 C18.76279,34.1165343 18.4934718,34.6346315 20.5342491,35.4404664 C21.5062226,38.1613575 24.045408,39.6008921 24.045408,39.6008921 C24.045408,39.6008921 24.0581117,39.3323275 24.0965051,40.5753377 C23.8888703,40.4736919 25.7807321,43.7527181 19.442014,44.6723229 C13.1030136,45.5912228 11.8896701,49.5575208 10.6945351,50.6801351 C9.49911782,51.8044411 9.54569801,57.2510165 9.54569801,57.2510165 L50.4545455,57.2727273 C50.4545455,57.2727273 50.1506449,51.8043001 48.95551,50.6801351 C47.7606573,49.5575208 46.4589525,45.5910819 40.1203756,44.672182 C33.9578153,43.7958577 35.946084,40.5632135 35.9026092,40.3697906 C35.9140425,39.8798892 35.9808075,39.7506116 35.9808075,39.7506116 C35.9808075,39.7506116 38.1326715,38.0812815 39.1045038,35.3592626 C40.6341693,34.4100522 41.2165629,34.2778141 41.4696487,33.1842415 C41.4696487,33.1842415 41.9195005,28.9197733 40.4753732,28.9416251 C40.4753732,28.9416251 39.7906442,29.1574636 40.0098535,28.1886572 C40.2289216,27.2197098 40.1559459,24.1937406 40.0462707,23.1175083 C39.9367367,22.0409941 40.1020258,18.9645545 37.8022344,18.5331593 C36.2321994,18.2462674 36.0275288,18.5307627 35.2609317,18.4234778 C34.4943345,18.31577 32.6062838,16.3636364 31.1826236,16.3636364 L27.27271,16.9819694 Z" id="Page-1" fill="#FFFFFF" mask="url(#mask-6)"></path>
            </g>
        </g>
    </g>
</svg>