<?xml version="1.0" encoding="UTF-8"?>
<svg width="20px" height="20px" viewBox="0 0 20 20" version="1.1" xmlns="http://www.w3.org/2000/svg" xmlns:xlink="http://www.w3.org/1999/xlink">
    <!-- Generator: Sketch 49 (51002) - http://www.bohemiancoding.com/sketch -->
    <title>ic_jibenxinxi2</title>
    <desc>Created with Sketch.</desc>
    <defs></defs>
    <g id="Symbols" stroke="none" stroke-width="1" fill="none" fill-rule="evenodd">
        <g id="ic_jibenxinxi2" fill="#507BE6">
            <g id="基本信息2">
                <path d="M8.63990953,0.301733627 C7.94583963,0.301733627 8.05274662,0.607044579 7.67912251,0.659534948 C7.30536082,0.712162906 7.75472791,0.511832691 6.63364921,0.721862961 C5.51277689,0.932305999 5.11706968,2.3503027 5.06361619,2.87561915 C5.01016269,3.40066043 4.99688531,4.87733902 5.03238338,5.66545129 C5.13915278,6.1380022 4.76559747,6.1380022 4.76559747,6.1380022 C4.09395466,6.09562466 4.39582587,8.15547606 4.39582587,8.15547606 C4.49234486,8.66304348 4.36108454,8.91586406 5.35571855,9.30909466 C5.82943897,10.6368327 7.06698713,11.3392955 7.06698713,11.3392955 C7.06698713,11.3392955 7.07317865,11.2082416 7.09189081,11.8148046 C6.99069379,11.7652036 7.91274937,13.3652999 4.82338503,13.8140479 C1.73388311,14.2624518 1.14252372,16.1979224 0.56003886,16.7457347 C-0.0225835948,17.2943726 0.000118661677,19.9521877 0.000118661677,19.9521877 L19.9382722,19.9627821 C19.9382722,19.9627821 19.7901572,17.2943038 19.2076723,16.7457347 C18.625325,16.1979224 17.9909002,14.262383 14.9016046,13.8139791 C11.8980961,13.3863511 12.8671385,11.8088883 12.8459497,11.7145019 C12.8515221,11.4754403 12.884062,11.4123555 12.884062,11.4123555 C12.884062,11.4123555 13.9328374,10.5977573 14.4064891,9.2694689 C15.1520174,8.80627408 15.4358644,8.74174463 15.5592133,8.20810402 C15.5592133,8.20810402 15.7784621,6.12713264 15.0746233,6.13779582 C15.0746233,6.13779582 14.7409002,6.24312053 14.8477384,5.77036324 C14.9545078,5.29753715 14.9189409,3.82092735 14.8654874,3.29574849 C14.8121027,2.77043203 14.8926613,1.26919373 13.771789,1.05868189 C13.0065854,0.918684645 12.906833,1.05751238 12.5332089,1.0051596 C12.1595848,0.95260044 11.2393867,0 10.5455232,0 L8.63990953,0.301733627 Z"></path>
            </g>
        </g>
    </g>
</svg>