<?xml version="1.0" encoding="UTF-8"?>
<svg width="14px" height="14px" viewBox="0 0 14 14" version="1.1" xmlns="http://www.w3.org/2000/svg" xmlns:xlink="http://www.w3.org/1999/xlink">
    <!-- Generator: Sketch 49 (51002) - http://www.bohemiancoding.com/sketch -->
    <title>ic_man2</title>
    <desc>Created with Sketch.</desc>
    <defs>
        <polygon id="path-1" points="4.52219262e-06 0.000189189189 13.716526 0.000189189189 13.716526 13.7182973 4.52219262e-06 13.7182973"></polygon>
    </defs>
    <g id="Symbols" stroke="none" stroke-width="1" fill="none" fill-rule="evenodd">
        <g id="ic_man2">
            <g>
                <mask id="mask-2" fill="white">
                    <use xlink:href="#path-1"></use>
                </mask>
                <g id="Clip-2"></g>
                <path d="M9.68024324,4.86072432 L12.4874324,2.05353514 L12.5763514,5.00034595 C12.5926216,5.31818378 12.8468919,5.57245405 13.1647297,5.58834595 C13.3130541,5.59477838 13.4568378,5.5384 13.5616486,5.43358919 C13.6664595,5.3284 13.7224595,5.18423784 13.716027,5.03629189 L13.5858649,0.715589189 C13.5718649,0.398508108 13.317973,0.144616216 13.0005135,0.130616216 L8.67905405,0.000454054054 C8.53110811,-0.0056 8.3877027,0.0507783784 8.28327027,0.155210811 C8.17845946,0.260021622 8.12283784,0.403805405 8.12889189,0.551372973 C8.13456757,0.705372973 8.19927027,0.851048649 8.30937838,0.95812973 C8.41797297,1.0671027 8.56289189,1.13180541 8.71613514,1.13899459 L11.6629459,1.22753514 L8.85537838,4.0351027 C6.63921622,2.21434595 3.44683784,2.24234595 1.4962973,4.19402162 C-0.586675676,6.27699459 -0.482243243,9.77472432 1.73051351,11.9867243 C3.94327027,14.2009946 7.44137838,14.3050486 9.52435135,12.2220757 C11.4688378,10.267373 11.5017568,7.07158919 9.68024324,4.86072432" id="Fill-1" fill="#4A90E2" mask="url(#mask-2)"></path>
            </g>
        </g>
    </g>
</svg>