<?xml version="1.0" encoding="UTF-8"?>
<svg width="20px" height="20px" viewBox="0 0 20 20" version="1.1" xmlns="http://www.w3.org/2000/svg" xmlns:xlink="http://www.w3.org/1999/xlink">
    <!-- Generator: Sketch 49 (51002) - http://www.bohemiancoding.com/sketch -->
    <title>ic_search</title>
    <desc>Created with Sketch.</desc>
    <defs>
        <polygon id="path-1" points="0.0035 19.1341418 0.0035 0.0098 19.9723301 0.0098 19.9723301 19.1341418"></polygon>
    </defs>
    <g id="Symbols" stroke="none" stroke-width="1" fill="none" fill-rule="evenodd">
        <g id="ic_search">
            <g>
                <mask id="mask-2" fill="white">
                    <use xlink:href="#path-1"></use>
                </mask>
                <g id="Clip-2"></g>
                <path d="M1.52045,7.8548 C1.52045,4.35505 4.3577,1.5178 7.85795,1.5178 C11.35745,1.5178 14.1947,4.35505 14.1947,7.8548 C14.1947,11.3548 11.35745,14.19205 7.85795,14.19205 C4.3577,14.19205 1.52045,11.3548 1.52045,7.8548 M19.6077,17.34205 L14.03195,12.6963 C15.07645,11.3633 15.69895,9.68405 15.69895,7.85955 C15.69895,3.52455 12.18445,0.0098 7.8492,0.0098 C3.51445,0.0098 -5e-05,3.52455 -5e-05,7.85955 C-5e-05,12.19455 3.51445,15.7088 7.8492,15.7088 C9.62545,15.7088 11.2637,15.1188 12.57895,14.1243 L18.30995,18.8993 C18.73995,19.25755 19.3792,19.1993 19.7372,18.7698 C20.09595,18.3393 20.03745,17.7003 19.6077,17.34205" id="Fill-1" fill="#FFFFFF" mask="url(#mask-2)"></path>
            </g>
        </g>
    </g>
</svg>