<?xml version="1.0" encoding="UTF-8"?>
<svg width="22px" height="19px" viewBox="0 0 22 19" version="1.1" xmlns="http://www.w3.org/2000/svg" xmlns:xlink="http://www.w3.org/1999/xlink">
    <!-- Generator: Sketch 49 (51002) - http://www.bohemiancoding.com/sketch -->
    <title>ic_upload_cb</title>
    <desc>Created with Sketch.</desc>
    <defs>
        <polygon id="path-1" points="0.00366666667 0.00177222222 21.5481002 0.00177222222 21.5481002 18.2202167 0.00366666667 18.2202167"></polygon>
        <linearGradient x1="50%" y1="0%" x2="50%" y2="100%" id="linearGradient-3">
            <stop stop-color="#FD902D" offset="0%"></stop>
            <stop stop-color="#F95714" offset="100%"></stop>
        </linearGradient>
    </defs>
    <g id="Symbols" stroke="none" stroke-width="1" fill="none" fill-rule="evenodd">
        <g id="ic_upload_cb">
            <g>
                <mask id="mask-2" fill="white">
                    <use xlink:href="#path-1"></use>
                </mask>
                <g id="Clip-2"></g>
                <path d="M20.8368111,12.3266611 L17.5728667,10.0612722 L15.5335889,10.0612722 L18.9552,12.8302167 L15.1938111,12.7807167 C15.0850333,12.7807167 14.9279778,12.8864389 14.8784778,12.9738278 L13.8334778,15.5001611 L7.71503333,15.5001611 L6.67003333,12.9738278 C6.62114444,12.8864389 6.46408889,12.7807167 6.35531111,12.7807167 L2.61592222,12.7807167 L6.01492222,10.0612722 L3.97503333,10.0612722 L0.7117,12.3266611 C0.202033333,12.6322167 -0.104133333,13.3356056 0.0327555556,13.8923278 L0.637144444,17.21005 C0.775255556,17.76555 1.38147778,18.2202167 1.98586667,18.2202167 L19.5626444,18.2202167 C20.1664222,18.2202167 20.7732556,17.76555 20.9107556,17.21005 L21.5151444,13.8923278 C21.6526444,13.3356056 21.3470889,12.6322167 20.8368111,12.3266611 Z M11.0278667,0.102605556 C10.9618667,0.0408833333 10.8726444,0.00177222222 10.7742556,0.00177222222 C10.6758667,0.00177222222 10.5878667,0.0408833333 10.5212556,0.102605556 L5.2217,5.08927222 C5.18625556,5.12288333 5.1722,5.17666111 5.19114444,5.22493889 C5.21131111,5.27321667 5.25714444,5.30316111 5.30603333,5.30316111 L8.73436667,5.30316111 L8.73436667,10.3717167 C8.73436667,10.4664389 8.77103333,10.5611611 8.84314444,10.6326611 C8.91525556,10.7053833 9.00997778,10.7414389 9.10531111,10.7414389 L12.4438111,10.7414389 C12.5385333,10.7414389 12.6332556,10.7053833 12.7053667,10.6326611 C12.7774778,10.5611611 12.8141444,10.4664389 12.8141444,10.3717167 L12.8141444,5.30316111 L16.2424778,5.30316111 C16.2919778,5.30316111 16.3378111,5.27321667 16.3573667,5.22493889 C16.3763111,5.17666111 16.3628667,5.12288333 16.3268111,5.08927222 L11.0278667,0.102605556 Z" id="Fill-1" fill="url(#linearGradient-3)" mask="url(#mask-2)"></path>
            </g>
        </g>
    </g>
</svg>