<?xml version="1.0" encoding="UTF-8"?>
<svg width="20px" height="20px" viewBox="0 0 20 20" version="1.1" xmlns="http://www.w3.org/2000/svg" xmlns:xlink="http://www.w3.org/1999/xlink">
    <!-- Generator: Sketch 49 (51002) - http://www.bohemiancoding.com/sketch -->
    <title>ic_unpromising2</title>
    <desc>Created with Sketch.</desc>
    <defs></defs>
    <g id="Symbols" stroke="none" stroke-width="1" fill="none" fill-rule="evenodd">
        <g id="ic_unpromising2" fill="#F95714">
            <g id="失信行为2">
                <path d="M6.39014127,17.0267508 L7,17.0267508 L7,12.8806733 L6.39014127,12.8806733 L6.39014127,17.0267508 Z M7.31710249,17.0267508 L7.95100691,17.0267508 L7.95100691,14.1731289 L7.31710249,14.1731289 L7.31710249,17.0267508 Z M8.39014127,17.0267508 L9.26810941,17.0267508 L9.26810941,13.222122 L8.39014127,13.222122 L8.39014127,17.0267508 Z M5.07303877,17.0267508 L5.95130748,17.0267508 L5.95130748,12.2708145 L5.07303877,12.2708145 L5.07303877,17.0267508 Z M4.14637812,17.0267508 L4.75593628,17.0267508 L4.75593628,14.1731289 L4.14637812,14.1731289 L4.14637812,17.0267508 Z M2.82927562,17.0267508 L3.70724376,17.0267508 L3.70724376,13.222122 L2.82927562,13.222122 L2.82927562,17.0267508 Z M0.951307484,17.636309 L11.4634806,17.636309 L11.4634806,10.9780583 L0.951307484,10.9780583 L0.951307484,17.636309 Z M10.3252179,19.2182146 C10.3252179,19.4301172 8.60685302,19.6011422 6.45266005,19.6011422 C4.29876766,19.6011422 2.55154794,19.4301172 2.55154794,19.2182146 C2.55154794,19.0670274 3.48782687,18.9365795 4.75593628,18.8743613 L4.75593628,18.2948602 L0,18.2948602 L0,10.3681996 L12.4147881,10.3681996 L12.4147881,18.2948602 L7.60985873,18.2948602 L7.60985873,18.8560265 C9.21971746,18.906823 10.3252179,19.0492937 10.3252179,19.2182146 Z M14.6275924,8.75864142 L11.0934776,8.75864142 C9.64382326,8.75864142 8.32942591,9.07544334 7.36699729,10.0267508 L13.0243463,10.0267508 L13.0243463,18.5876165 L10.2687106,18.5876165 C10.9609258,18.9290652 10.9609258,18.9729486 10.9609258,19.1749324 C10.9609258,19.2506763 10.9609258,19.357379 10.8951007,19.4436429 C11.7619477,19.5398257 12.5716862,19.5924256 13.3207093,19.5924256 C17.2407574,19.5924256 19.513676,18.490532 19.6537421,18.4192967 L19.9326721,18.2945597 L20,18.2945597 L20,13.9492035 C20,11.0090171 17.5713856,8.75864142 14.629997,8.75864142 L14.6275924,8.75864142 Z M8.69522092,4.16651638 C8.69522092,1.86504358 10.5602645,-1.79412041e-13 12.860535,-1.79412041e-13 C15.1611061,-1.79412041e-13 17.027352,1.86504358 17.027352,4.16651638 C17.027352,6.4667869 15.1611061,8.33183048 12.860535,8.33183048 C10.5602645,8.33183048 8.69522092,6.4667869 8.69522092,4.16651638 Z"></path>
            </g>
        </g>
    </g>
</svg>