<?xml version="1.0" encoding="UTF-8"?>
<svg width="14px" height="14px" viewBox="0 0 14 14" version="1.1" xmlns="http://www.w3.org/2000/svg" xmlns:xlink="http://www.w3.org/1999/xlink">
    <!-- Generator: Sketch 49 (51002) - http://www.bohemiancoding.com/sketch -->
    <title>ic_women_cb</title>
    <desc>Created with Sketch.</desc>
    <defs></defs>
    <g id="Symbols" stroke="none" stroke-width="1" fill="none" fill-rule="evenodd">
        <g id="ic_women_cb" fill="#FC8E00">
            <g id="Fill-1">
                <path d="M1.30907747,6.17978261 C1.30907747,2.76682609 4.12688181,0 7.60268616,0 C11.0784905,0 13.8961427,2.76682609 13.8961427,6.17978261 C13.8961427,9.59197826 11.0784905,12.3585 7.60268616,12.3585 C6.10164268,12.3585 4.72309921,11.8429348 3.64129486,10.9816304 C3.62440355,11.0061304 3.60492529,11.0292609 3.58316442,11.0508696 L2.58399051,12.0498913 L3.57677312,13.0426739 C3.77764268,13.2436957 3.7793166,13.5673696 3.57753399,13.7688478 C3.37727312,13.9689565 3.0542079,13.971087 2.85136007,13.768087 L1.85842529,12.7754565 L0.883294857,13.750587 C0.680447031,13.953587 0.357381814,13.9520652 0.156816597,13.7511957 C-0.0446616643,13.5495652 -0.0429877512,13.2258913 0.157881814,13.0250217 L1.13301225,12.0498913 L0.15149051,11.0685217 C-0.0495312295,10.8676522 -0.0512051425,10.5438261 0.15072964,10.341587 C0.35099051,10.1414783 0.673903553,10.1401087 0.876903553,10.3429565 L1.85842529,11.3243261 L2.85775138,10.3254565 C2.87144703,10.3111522 2.88559921,10.2989783 2.90051225,10.2868043 C1.91046877,9.19480435 1.30907747,7.75615217 1.30907747,6.17978261 Z"></path>
            </g>
        </g>
    </g>
</svg>