<?xml version="1.0" encoding="UTF-8"?>
<svg width="20px" height="15px" viewBox="0 0 20 15" version="1.1" xmlns="http://www.w3.org/2000/svg" xmlns:xlink="http://www.w3.org/1999/xlink">
    <!-- Generator: Sketch 49 (51002) - http://www.bohemiancoding.com/sketch -->
    <title>ic_work2</title>
    <desc>Created with Sketch.</desc>
    <defs></defs>
    <g id="Symbols" stroke="none" stroke-width="1" fill="none" fill-rule="evenodd">
        <g id="ic_work2" fill="#FC8E00">
            <g id="教育经历2">
                <path d="M11.5531671,9.39400843 C12.5864228,8.96244767 13.9791098,8.24762141 15.497729,7.58867454 L15.497729,12.8830311 C15.497729,12.8830311 13.5335375,15 10.0804607,15 C6.36196453,15 4.35317201,12.8830311 4.35317201,12.8830311 L4.35317201,7.94114449 C5.52547779,8.42514591 6.8420808,8.84166223 8.4350349,9.39400843 C9.41713068,9.74776791 10.6628969,9.87027271 11.5531671,9.39400843 M19.1554454,4.76418669 L19.1554454,8.11694963 L19.8520076,8.82317905 L18.3998526,10.3555636 L16.9288953,8.86874224 L17.9363524,7.94114449 L17.9363524,5.29332146 C13.6642795,7.0784528 12.2947675,7.63337805 11.3472156,8.06665818 C10.3996637,8.49950847 9.7175313,8.49821895 8.77828743,8.13887154 C7.8386063,7.77995397 3.36495454,6.12549441 1.14452607,5.0487417 C-0.337800142,4.32961703 -0.433123774,3.87312546 1.16945014,3.26318051 C3.26176015,2.45765773 6.71964678,1.16813352 8.55222175,0.464483144 C9.63751192,0.0191674513 10.2112028,-0.2232631 11.2068537,0.283519914 C12.9847707,1.02800522 17.0487057,2.57285522 19.0693044,3.41835326 C20.8271071,4.19679604 19.6447443,4.45212183 19.1554454,4.76418669"></path>
            </g>
        </g>
    </g>
</svg>