<?xml version="1.0" encoding="UTF-8"?>
<svg width="22px" height="22px" viewBox="0 0 22 22" version="1.1" xmlns="http://www.w3.org/2000/svg" xmlns:xlink="http://www.w3.org/1999/xlink">
    <!-- Generator: Sketch 49 (51002) - http://www.bohemiancoding.com/sketch -->
    <title>ic_dimission_cb</title>
    <desc>Created with Sketch.</desc>
    <defs>
        <polygon id="path-1" points="0.00372307692 0.0283151124 21.6964677 0.0283151124 21.6964677 21.7496738 0.00372307692 21.7496738"></polygon>
    </defs>
    <g id="Symbols" stroke="none" stroke-width="1" fill="none" fill-rule="evenodd">
        <g id="ic_dimission_cb">
            <g>
                <mask id="mask-2" fill="white">
                    <use xlink:href="#path-1"></use>
                </mask>
                <g id="Clip-2"></g>
                <path d="M10.0246215,16.4131508 C10.0246215,15.18352 10.3823754,14.0385046 10.9905908,13.0654277 C10.9675754,12.8850277 10.9970215,12.6677354 11.1252985,12.3976431 C11.80256,11.4885354 12.2144677,10.4575815 12.24696,10.1201354 C12.24696,10.1201354 13.2904369,9.29970462 13.3503446,8.06804308 C13.4156677,6.83942769 13.1215446,6.78188923 13.1215446,6.78188923 C13.5595138,5.44225846 13.7013292,0.413735385 10.4724062,1.01382769 C9.93323692,-0.0411569231 6.55979077,-0.868018462 4.98729846,1.94222769 C4.20308308,3.34345846 3.91132923,5.25610462 4.52360615,6.81742769 C4.50160615,6.93385846 4.30732923,6.70370462 4.23659077,7.42530462 C4.16822154,8.12118154 4.48129846,9.11761231 4.82314462,9.58062769 C4.97037538,9.77558154 5.20865231,9.91807385 5.37449846,9.99016615 C5.37449846,9.99016615 5.57859077,11.2292738 6.54625231,12.3976431 C6.76896,13.3243508 5.84868308,13.8134277 5.84868308,13.8134277 C2.80117538,14.3993046 6.76923077e-05,16.0909354 6.76923077e-05,17.92032 L6.76923077e-05,19.3381354 C6.76923077e-05,21.3235508 4.62582154,21.7496738 8.78991385,21.7496738 C10.0449292,21.7496738 11.3371754,21.6386585 12.53296,21.45352 C11.0115754,20.2932738 10.0246215,18.4686277 10.0246215,16.4131508 Z M18.9721908,17.9710892 L17.9236369,19.0193046 L16.3778831,17.4732123 L14.8216369,19.02912 L13.7524369,17.9602585 L15.3083446,16.4043508 L13.7632677,14.8589354 L14.8118215,13.81072 L16.3568985,15.3557969 L17.9138215,13.7988738 L18.9826831,14.8684123 L17.4260985,16.4249969 L18.9721908,17.9710892 Z M16.3717908,11.0898277 C13.43056,11.0898277 11.0471138,13.4725969 11.0471138,16.4131508 C11.0471138,19.3533662 13.43056,21.7361354 16.3717908,21.7361354 C19.3126831,21.7361354 21.6964677,19.3523508 21.6964677,16.4131508 C21.6964677,13.4725969 19.3126831,11.0898277 16.3717908,11.0898277 Z" id="Fill-1" fill="#748093" mask="url(#mask-2)"></path>
            </g>
        </g>
    </g>
</svg>