<?xml version="1.0" encoding="UTF-8"?>
<svg width="22px" height="20px" viewBox="0 0 22 20" version="1.1" xmlns="http://www.w3.org/2000/svg" xmlns:xlink="http://www.w3.org/1999/xlink">
    <!-- Generator: Sketch 46.2 (44496) - http://www.bohemiancoding.com/sketch -->
    <title>企业联盟点击前</title>
    <desc>Created with Sketch.</desc>
    <defs></defs>
    <g id="Symbols" stroke="none" stroke-width="1" fill="none" fill-rule="evenodd">
        <g id="企业联盟点击前" fill="#394A66">
            <path d="M0.775365756,-5.68434189e-14 L0.775365756,18.4391232 L0,18.4391232 L0,19.9647942 L21.9764554,19.9647942 L21.9764554,18.4391232 L21.197879,18.4391232 L21.197879,4.62105295 L14.9245868,4.62105295 L14.9245868,-5.68434189e-14 L0.775365756,-5.68434189e-14 Z M2.33225096,18.4391232 L13.3219502,18.4391232 L13.3219502,1.5251467 L2.33225096,1.5251467 L2.33225096,18.4391232 Z M14.9245868,18.4393854 L19.6409938,18.4393854 L19.6409938,6.14619965 L14.9245868,6.14619965 L14.9245868,18.4393854 Z M8.65129459,6.14619965 L11.8108164,6.14619965 L11.8108164,3.85821746 L8.65129459,3.85821746 L8.65129459,6.14619965 Z M3.93488757,6.14619965 L7.09467693,6.14619965 L7.09467693,3.85821746 L3.93488757,3.85821746 L3.93488757,6.14619965 Z M16.481472,10.0046792 L18.0380897,10.0046792 L18.0380897,7.71643491 L16.481472,7.71643491 L16.481472,10.0046792 Z M8.65129459,10.0046792 L11.8108164,10.0046792 L11.8108164,7.71643491 L8.65129459,7.71643491 L8.65129459,10.0046792 Z M3.93488757,10.0046792 L7.09467693,10.0046792 L7.09467693,7.71643491 L3.93488757,7.71643491 L3.93488757,10.0046792 Z M16.481472,13.8183324 L18.0380897,13.8183324 L18.0380897,11.5300881 L16.481472,11.5300881 L16.481472,13.8183324 Z M8.65129459,13.8183324 L11.8108164,13.8183324 L11.8108164,11.5300881 L8.65129459,11.5300881 L8.65129459,13.8183324 Z M3.93488757,13.8183324 L7.09467693,13.8183324 L7.09467693,11.5300881 L3.93488757,11.5300881 L3.93488757,13.8183324 Z"></path>
        </g>
    </g>
</svg>