<?xml version="1.0" encoding="UTF-8"?>
<svg width="20px" height="19px" viewBox="0 0 20 19" version="1.1" xmlns="http://www.w3.org/2000/svg" xmlns:xlink="http://www.w3.org/1999/xlink">
    <!-- Generator: Sketch 46.2 (44496) - http://www.bohemiancoding.com/sketch -->
    <title>离职评价点击前</title>
    <desc>Created with Sketch.</desc>
    <defs>
        <polygon id="path-1" points="0.00338461538 0.191476923 0.00338461538 17.8440923 19.9008308 17.8440923 19.9008308 0.191476923"></polygon>
    </defs>
    <g id="Symbols" stroke="none" stroke-width="1" fill="none" fill-rule="evenodd">
        <g id="离职评价点击前">
            <g>
                <g id="Group-3" transform="translate(0.000000, 0.135385)">
                    <mask id="mask-2" fill="white">
                        <use xlink:href="#path-1"></use>
                    </mask>
                    <g id="Clip-2"></g>
                    <path d="M8.92144615,1.43763077 L10.7906769,1.43763077 L10.7906769,3.30686154 C10.7906769,3.82224615 10.3712923,4.24132308 9.85621538,4.24132308 C9.34052308,4.24132308 8.92144615,3.82224615 8.92144615,3.30686154 L8.92144615,1.43763077 Z M1.24606154,16.3031692 L1.24606154,3.91732308 C1.24606154,3.75424615 1.37867692,3.62193846 1.54113846,3.62193846 L7.69806154,3.62193846 C7.85129231,4.67516923 8.76083077,5.48747692 9.85621538,5.48747692 C10.9512923,5.48747692 11.8608308,4.67516923 12.0137538,3.62193846 L18.3596,3.62193846 C18.5220615,3.62193846 18.6546769,3.75424615 18.6546769,3.91732308 L18.6546769,11.1939385 L19.9008308,11.1939385 L19.9008308,3.91732308 C19.9008308,3.06716923 19.2097538,2.37578462 18.3596,2.37578462 L12.0368308,2.37578462 L12.0368308,0.814861538 C12.0368308,0.470553846 11.7580615,0.191476923 11.4137538,0.191476923 L8.29836923,0.191476923 C7.95406154,0.191476923 7.67529231,0.470553846 7.67529231,0.814861538 L7.67529231,2.37578462 L1.54113846,2.37578462 C0.690984615,2.37578462 -9.23076923e-05,3.06716923 -9.23076923e-05,3.91732308 L-9.23076923e-05,16.3031692 C-9.23076923e-05,17.1527077 0.690984615,17.8440923 1.54113846,17.8440923 L11.5060615,17.8440923 L11.5060615,16.5979385 L1.54113846,16.5979385 C1.37867692,16.5979385 1.24606154,16.4656308 1.24606154,16.3031692 L1.24606154,16.3031692 Z" id="Fill-1" fill="#394A66" mask="url(#mask-2)"></path>
                </g>
                <path d="M12.4644308,7.48107692 C12.1198154,7.48107692 11.8413538,7.75984615 11.8413538,8.10384615 C11.8413538,8.44815385 12.1198154,8.72723077 12.4644308,8.72723077 L16.4290462,8.72723077 C16.7733538,8.72723077 17.0521231,8.44815385 17.0521231,8.10384615 C17.0521231,7.75984615 16.7733538,7.48107692 16.4290462,7.48107692 L12.4644308,7.48107692 Z M15.6192,10.7450769 C15.6192,10.4010769 15.3404308,10.1223077 14.9961231,10.1223077 L12.4644308,10.1223077 C12.1198154,10.1223077 11.8413538,10.4010769 11.8413538,10.7450769 C11.8413538,11.0893846 12.1198154,11.3684615 12.4644308,11.3684615 L14.9961231,11.3684615 C15.3404308,11.3684615 15.6192,11.0893846 15.6192,10.7450769 L15.6192,10.7450769 Z M19.7065846,17.8013846 L17.7721231,15.9804615 L19.7065846,14.1595385 C19.9573538,13.9235385 19.9687385,13.5293846 19.7333538,13.2789231 C19.4964308,13.0278462 19.1022769,13.0161538 18.8524308,13.2524615 L16.8628923,15.1247692 L14.8739692,13.2524615 C14.6232,13.0161538 14.2293538,13.0278462 13.9927385,13.2789231 C13.7573538,13.5293846 13.7687385,13.9235385 14.0195077,14.1595385 L15.9539692,15.9804615 L14.0195077,17.8013846 C13.7687385,18.0370769 13.7573538,18.4312308 13.9927385,18.682 C14.1105846,18.8072308 14.2748923,18.878 14.4465846,18.878 C14.5998154,18.878 14.7530462,18.8216923 14.8739692,18.7084615 L16.8628923,16.8358462 L18.8524308,18.7084615 C18.9727385,18.8216923 19.1259692,18.878 19.2795077,18.878 C19.4515077,18.878 19.6158154,18.8072308 19.7333538,18.682 C19.9687385,18.4312308 19.9573538,18.0370769 19.7065846,17.8013846 L19.7065846,17.8013846 Z M3.72843077,13.3278462 L6.43858462,12.0293846 C6.60443077,11.95 6.72689231,11.8013846 6.77243077,11.6232308 C6.81889231,11.4453846 6.78381538,11.2561538 6.67704615,11.1063077 L5.75827692,9.81430769 L5.75827692,8.19 C5.75827692,7.53430769 6.29304615,7.02076923 6.97643077,7.02076923 C7.65950769,7.02076923 8.19458462,7.53430769 8.19458462,8.19 L8.19458462,9.81984615 L7.30412308,11.1146154 C7.20196923,11.2632308 7.16935385,11.4487692 7.21427692,11.6232308 C7.25981538,11.7973846 7.37796923,11.9441538 7.5392,12.0247692 L10.1315077,13.3204615 L10.1315077,13.47 L3.72843077,13.47 L3.72843077,13.3278462 Z M2.48258462,12.9355385 L2.48258462,14.0927692 C2.48258462,14.4367692 2.76104615,14.7161538 3.10535385,14.7161538 L10.7545846,14.7161538 C11.0992,14.7161538 11.3776615,14.4367692 11.3776615,14.0927692 L11.3776615,12.9355385 C11.3776615,12.6992308 11.2444308,12.4835385 11.0333538,12.378 L8.73704615,11.2303077 L9.33089231,10.3663077 C9.40227692,10.2623077 9.44043077,10.1392308 9.44043077,10.0130769 L9.44043077,8.19 C9.44043077,6.83523077 8.35796923,5.77461538 6.97643077,5.77461538 C5.59458462,5.77461538 4.51212308,6.83523077 4.51212308,8.19 L4.51212308,10.0130769 C4.51212308,10.1426154 4.55273846,10.2690769 4.62781538,10.3743077 L5.23243077,11.2253846 L2.83643077,12.3733846 C2.62012308,12.4767692 2.48258462,12.6955385 2.48258462,12.9355385 L2.48258462,12.9355385 Z" id="Fill-4" fill="#394A66"></path>
            </g>
        </g>
    </g>
</svg>