<?xml version="1.0" encoding="UTF-8"?>
<svg width="20px" height="19px" viewBox="0 0 20 19" version="1.1" xmlns="http://www.w3.org/2000/svg" xmlns:xlink="http://www.w3.org/1999/xlink">
    <!-- Generator: Sketch 46.2 (44496) - http://www.bohemiancoding.com/sketch -->
    <title>账号管理点击前</title>
    <desc>Created with Sketch.</desc>
    <defs>
        <polygon id="path-1" points="0.000103896104 0.177922078 19.9481558 0.177922078 19.9481558 17.2762597 0.000103896104 17.2762597 0.000103896104 0.177922078"></polygon>
    </defs>
    <g id="Symbols" stroke="none" stroke-width="1" fill="none" fill-rule="evenodd">
        <g id="账号管理点击前">
            <g>
                <path d="M14.6050649,14.8647792 C14.0351948,14.8647792 13.5362338,14.3660779 13.5362338,13.7959481 C13.5362338,13.2260779 14.0351948,12.7273766 14.6050649,12.7273766 C14.89,12.7273766 15.1749351,12.869974 15.3887013,13.0123117 C15.6024675,13.1549091 15.6736364,13.511013 15.6736364,13.7959481 C15.6736364,14.3660779 15.1749351,14.8647792 14.6050649,14.8647792 M14.6050649,11.3027013 C13.2512987,11.3027013 12.1112987,12.4424416 12.1112987,13.7959481 C12.1112987,15.1497143 13.2512987,16.2894545 14.6050649,16.2894545 C15.9585714,16.2894545 17.0985714,15.1497143 17.0985714,13.7959481 C17.0985714,13.1549091 16.8136364,12.5136104 16.3861039,12.0149091 C15.8874026,11.5873766 15.2461039,11.3027013 14.6050649,11.3027013" id="Fill-1" fill="#394A66"></path>
                <path d="M7.83685714,5.24677922 C9.04802597,5.24677922 9.97425974,6.17301299 9.97425974,7.38418182 C9.97425974,8.59535065 9.04802597,9.52158442 7.83685714,9.52158442 C6.62568831,9.52158442 5.69945455,8.59535065 5.69945455,7.38418182 C5.69945455,6.17301299 6.62568831,5.24677922 7.83685714,5.24677922 M2.13737662,15.2210649 L3.56205195,15.2210649 C3.56205195,12.8698961 5.48568831,10.9462597 7.83685714,10.9462597 C8.47815584,10.9462597 9.11919481,11.0888571 9.68906494,11.3737922 C9.97425974,10.9462597 10.2591948,10.5901558 10.6152987,10.2337922 C10.4727013,10.1626234 10.3303636,10.0914545 10.2591948,10.020026 C10.9714026,9.37898701 11.4703636,8.45275325 11.4703636,7.38418182 C11.4703636,5.38937662 9.90283117,3.82184416 7.90802597,3.82184416 C5.91322078,3.82184416 4.34594805,5.38937662 4.34594805,7.38418182 C4.34594805,8.45275325 4.77348052,9.37898701 5.55711688,10.020026 C3.49114286,10.9462597 2.13737662,12.9410649 2.13737662,15.2210649 M18.4521818,14.366 C17.9534805,14.5085974 17.5259481,14.8647013 17.241013,15.2922338 C16.9560779,15.7195065 16.8846494,16.2896364 17.0272468,16.7171688 C16.7423117,17.0021039 16.3862078,17.1444416 15.9586753,17.287039 C15.6023117,16.9306753 15.1036104,16.7171688 14.5337403,16.7171688 C14.035039,16.7171688 13.5363377,16.9306753 13.1088052,17.287039 C12.7527013,17.1444416 12.3965974,16.9306753 12.0402338,16.7171688 C12.1828312,16.2184675 12.1114026,15.7195065 11.8264675,15.2922338 C11.5415325,14.8647013 11.114,14.5085974 10.6152987,14.366 C10.5441299,13.9384675 10.5441299,13.5823636 10.6152987,13.1548312 C11.114,13.0122338 11.5415325,12.6561299 11.8264675,12.2285974 C12.1114026,11.8010649 12.1828312,11.2311948 12.0402338,10.8039221 C12.3251688,10.5187273 12.6812727,10.3763896 13.1088052,10.2337922 C13.4651688,10.5901558 13.9638701,10.8039221 14.5337403,10.8039221 C15.0324416,10.8039221 15.5311429,10.5901558 15.9586753,10.2337922 C16.3147792,10.3763896 16.6711429,10.5901558 17.0272468,10.8039221 C16.8846494,11.3026234 16.9560779,11.8010649 17.241013,12.2285974 C17.5259481,12.6561299 17.9534805,13.0122338 18.4521818,13.1548312 C18.5236104,13.5823636 18.5236104,14.0096364 18.4521818,14.366 M19.6633506,12.5847013 C19.0932208,12.4426234 18.6659481,12.0862597 18.381013,11.6587273 C18.0958182,11.160026 18.0246494,10.5901558 18.1672468,10.0914545 C18.1672468,10.020026 18.1672468,9.87768831 18.0958182,9.80625974 C17.5973766,9.37898701 17.0272468,9.02262338 16.3862078,8.80885714 C16.3147792,8.80885714 16.1724416,8.80885714 16.101013,8.88028571 C15.7449091,9.30781818 15.175039,9.52158442 14.6051688,9.52158442 C14.035039,9.52158442 13.5363377,9.30781818 13.1088052,8.88028571 C13.0376364,8.80885714 12.895039,8.80885714 12.8238701,8.80885714 C12.1828312,9.02262338 11.6127013,9.37898701 11.114,9.80625974 C11.0428312,9.87768831 10.9714026,9.94885714 11.0428312,10.0914545 C11.1854286,10.5901558 11.114,11.160026 10.8290649,11.6587273 C10.5441299,12.1574286 10.0454286,12.5137922 9.54672727,12.5847013 C9.47555844,12.5847013 9.40438961,12.6561299 9.33296104,12.7987273 C9.19036364,13.4397662 9.19036364,14.0810649 9.33296104,14.7932727 C9.33296104,14.8647013 9.40438961,14.9358701 9.54672727,15.0072987 C10.1165974,15.1496364 10.5441299,15.4348312 10.8290649,15.9332727 C11.114,16.431974 11.1854286,17.0021039 11.0428312,17.5008052 C11.0428312,17.571974 11.0428312,17.7143117 11.114,17.7857403 C11.6127013,18.2132727 12.1828312,18.5693766 12.8238701,18.7831429 L12.895039,18.7831429 C12.9664675,18.7831429 13.0376364,18.7831429 13.1088052,18.7117143 C13.4651688,18.2844416 14.035039,18.0706753 14.6051688,18.0706753 C15.175039,18.0706753 15.6734805,18.2844416 16.101013,18.7117143 C16.1724416,18.7831429 16.2436104,18.7831429 16.3862078,18.7831429 C17.0272468,18.5693766 17.5973766,18.2132727 18.0958182,17.7857403 C18.1672468,17.7143117 18.2384156,17.6434026 18.1672468,17.5008052 C17.9534805,17.0021039 18.0246494,16.3608052 18.3098442,15.9332727 C18.5945195,15.4348312 19.0932208,15.0784675 19.5921818,15.0072987 C19.6633506,15.0072987 19.7345195,14.9358701 19.8059481,14.7932727 C19.9482857,14.1522338 19.9482857,13.5109351 19.8059481,12.7987273 C19.8059481,12.7272987 19.7345195,12.6561299 19.6633506,12.5847013" id="Fill-3" fill="#394A66"></path>
                <g id="Group-7" transform="translate(0.000000, 0.081896)">
                    <mask id="mask-2" fill="white">
                        <use xlink:href="#path-1"></use>
                    </mask>
                    <g id="Clip-6"></g>
                    <path d="M18.5234805,0.177818182 L1.42477922,0.177818182 C0.641142857,0.177818182 0.000103896104,0.818857143 0.000103896104,1.60275325 L0.000103896104,15.8513247 C0.000103896104,16.6352208 0.641142857,17.2762597 1.42477922,17.2762597 L8.90555844,17.2762597 C8.76296104,16.848987 8.69179221,16.3502857 8.62062338,15.8513247 L2.13750649,15.8513247 C1.70997403,15.8513247 1.42477922,15.4952208 1.42477922,15.1391169 L1.42477922,2.31522078 C1.42477922,1.95885714 1.70997403,1.60275325 2.13750649,1.60275325 L17.811013,1.60275325 C18.2382857,1.60275325 18.5234805,1.95885714 18.5234805,2.31522078 L18.5234805,8.58457143 C19.0221818,8.79833766 19.5208831,9.08327273 19.9481558,9.43963636 L19.9481558,1.60275325 C19.9481558,0.818857143 19.3071169,0.177818182 18.5234805,0.177818182" id="Fill-5" fill="#394A66" mask="url(#mask-2)"></path>
                </g>
                <path d="M13.5362857,8.09657143 L15.6736883,8.09657143 C16.1012208,8.09657143 16.3861558,7.81163636 16.3861558,7.3841039 C16.3861558,6.95657143 16.1012208,6.67163636 15.6736883,6.67163636 L13.5362857,6.67163636 C13.1087532,6.67163636 12.8238182,6.95657143 12.8238182,7.3841039 C12.8238182,7.81163636 13.1087532,8.09657143 13.5362857,8.09657143 M13.5362857,5.2467013 L17.0983636,5.2467013 C17.5258961,5.2467013 17.8110909,4.96176623 17.8110909,4.53449351 C17.8110909,4.10696104 17.5258961,3.82176623 17.0983636,3.82176623 L13.5362857,3.82176623 C13.1087532,3.82176623 12.8238182,4.10696104 12.8238182,4.53449351 C12.8238182,4.96176623 13.1087532,5.2467013 13.5362857,5.2467013" id="Fill-8" fill="#394A66"></path>
            </g>
        </g>
    </g>
</svg>