<?xml version="1.0" encoding="UTF-8"?>
<svg width="33px" height="40px" viewBox="0 0 33 40" version="1.1" xmlns="http://www.w3.org/2000/svg" xmlns:xlink="http://www.w3.org/1999/xlink">
    <!-- Generator: Sketch 49 (51002) - http://www.bohemiancoding.com/sketch -->
    <title>ic_evaluate</title>
    <desc>Created with Sketch.</desc>
    <defs>
        <polygon id="path-1" points="0.00588847584 39.9768327 0.00588847584 0.0253210037 32.9250409 0.0253210037 32.9250409 39.9768327"></polygon>
        <linearGradient x1="50%" y1="0%" x2="50%" y2="100%" id="linearGradient-3">
            <stop stop-color="#FBD249" offset="0%"></stop>
            <stop stop-color="#F5A623" offset="100%"></stop>
        </linearGradient>
    </defs>
    <g id="Symbols" stroke="none" stroke-width="1" fill="none" fill-rule="evenodd">
        <g id="ic_evaluate">
            <g>
                <mask id="mask-2" fill="white">
                    <use xlink:href="#path-1"></use>
                </mask>
                <g id="Clip-2"></g>
                <path d="M15.4382097,3.50010409 C14.9780026,2.59393309 12.6775714,0.101739777 8.76686852,0.101739777 C4.62576014,0.328208178 1.40506583,3.50010409 1.63532033,7.5783197 C1.86527286,11.4299182 4.16585508,18.2269442 14.5180976,23.6644164 C14.9780026,24.1175019 14.9780026,24.5707361 14.9780026,24.5707361 L14.9780026,31.1408476 C14.9780026,31.1408476 15.2081061,32.0471673 14.2878431,32.0471673 C13.367731,31.8206989 13.1377784,30.461145 13.1377784,30.461145 C13.1377784,30.461145 11.9874118,27.0629294 9.45687709,25.4769071 C7.15644587,23.8910335 4.62576014,22.0783941 0.0248976837,21.172223 C-0.20535682,25.25029 1.1751133,30.9143792 3.47554452,33.6330409 C7.38654939,38.6174275 12.6775714,39.7503643 16.1283692,39.9768327 C20.7292317,39.9768327 26.7105643,37.7112565 29.701155,32.953487 C33.1521039,28.4221859 32.9218494,20.9456059 32.9218494,20.9456059 C32.9218494,20.9456059 27.4007238,21.851777 23.2597664,25.4769071 C20.7292317,27.5161636 20.0390721,29.554974 19.8091196,30.0082082 C19.11896,30.9143792 19.3490635,31.3674647 18.658904,32.2739331 C17.7387919,32.953487 17.9687444,32.2739331 17.7387919,31.3674647 L17.7387919,25.0236729 C17.7387919,25.0236729 17.5085374,23.8910335 18.8888565,23.4377993 C24.410133,20.4925204 28.3209869,15.9610706 30.1613621,11.4299182 C32.4619443,6.8987658 31.0814742,1.23452788 25.1002926,0.101739777 C20.4992792,-0.577962825 17.7387919,3.50010409 17.7387919,3.50010409 C17.7387919,3.50010409 17.2785848,4.17980669 16.5884253,4.17980669 C16.5884253,4.17980669 15.8982657,4.40642379 15.4382097,3.50010409 Z" id="Fill-1" fill="url(#linearGradient-3)" mask="url(#mask-2)"></path>
            </g>
        </g>
    </g>
</svg>