<?xml version="1.0" encoding="UTF-8"?>
<svg width="40px" height="40px" viewBox="0 0 40 40" version="1.1" xmlns="http://www.w3.org/2000/svg" xmlns:xlink="http://www.w3.org/1999/xlink">
    <!-- Generator: Sketch 49 (51002) - http://www.bohemiancoding.com/sketch -->
    <title>ic_entering</title>
    <desc>Created with Sketch.</desc>
    <defs>
        <linearGradient x1="64.6907568%" y1="0%" x2="64.6907552%" y2="100%" id="linearGradient-1">
            <stop stop-color="#77E7AD" offset="0%"></stop>
            <stop stop-color="#10B57C" offset="100%"></stop>
        </linearGradient>
    </defs>
    <g id="Symbols" stroke="none" stroke-width="1" fill="none" fill-rule="evenodd">
        <g id="ic_entering">
            <g>
                <g id="Group-3" transform="translate(0.000000, 0.010500)" fill="url(#linearGradient-1)">
                    <path d="M23.078349,38.7106419 C20.8760671,39.0446725 18.496604,39.2437784 16.1853289,39.2437784 C8.51754362,39.2437784 -4.02684564e-05,38.4766236 -4.02684564e-05,34.9001993 L-4.02684564e-05,32.3472606 C-4.02684564e-05,29.0515795 5.15808054,26.0051417 10.7696242,24.9496313 C10.7696242,24.9496313 12.4641208,24.0688142 12.0540537,22.3998425 C10.2725772,20.2948591 9.89673826,18.063876 9.89673826,18.063876 C9.59083221,17.9332825 9.15284564,17.676558 8.88089933,17.3258587 C8.25177181,16.4918978 7.67566443,14.6970575 7.80143624,13.4440162 C7.93204027,12.1441188 8.28908725,12.5587367 8.32962416,12.3491309 C7.20210738,9.53644887 7.73955705,6.0921931 9.18385235,3.56786678 C12.0788859,-1.49391083 18.2916376,-0.004094992 19.2839866,1.89574505 C25.2294899,0.814509659 24.9686846,9.87192322 24.1623758,12.2853435 C24.1623758,12.2853435 24.703047,12.3885058 24.5834497,14.6012452 C24.4731141,16.8201534 22.551906,18.297763 22.551906,18.297763 C22.4912349,18.9053181 21.7332483,20.7626332 20.4861342,22.3998425 C20.2501611,22.8857291 20.1956644,23.2775095 20.2378121,23.6026152 C19.1178121,25.3550617 18.4592886,27.4175202 18.4592886,29.6317034 C18.4592886,33.3343899 20.2764698,36.6208835 23.078349,38.7106419" id="Fill-1"></path>
                </g>
                <path d="M39.951906,29.6422296 C39.951906,34.9364505 35.5626443,39.2298921 30.1466711,39.2298921 C24.7309664,39.2298921 20.3417047,34.9380255 20.3417047,29.6422296 C20.3417047,24.3465649 24.7309664,20.0548296 30.1466711,20.0548296 C35.5626443,20.0548296 39.951906,24.3465649 39.951906,29.6422296 Z M32.4254805,28.8733301 L34.6061299,27.9921372 C34.8044416,27.5026712 34.9035974,27.0130127 35.1019091,26.4256149 C35.2010649,25.8384095 35.3993766,25.2510117 35.4983377,24.6634215 C35.5974935,24.0760237 35.6966494,23.5865576 35.7958052,23.097284 C35.894961,22.6076255 35.894961,22.2158987 35.894961,21.922296 C35.3993766,21.922296 34.8044416,22.1181594 34.1105455,22.3138304 C33.4168442,22.6076255 32.8221039,22.9014206 32.2271688,23.2929549 C31.6326234,23.6844893 30.9385325,24.1739554 30.4429481,24.6634215 C29.9473636,25.15308 29.3528182,25.6425461 28.857039,26.2299439 C28.3614545,26.8173417 27.965026,27.3068078 27.4694416,27.9921372 C27.0728182,28.579535 26.6761948,29.0691935 26.4780779,29.5586596 C26.279961,30.0479333 26.0816494,30.3417284 25.9824935,30.6355235 C25.8833377,30.9293186 25.7841818,31.1249896 25.7841818,31.2229213 C25.685026,31.320853 25.685026,31.4185923 25.7841818,31.516524 C25.7841818,31.516524 25.7841818,31.6144557 25.685026,31.7123874 C25.685026,31.8103191 25.5860649,31.9080584 25.4869091,32.1039218 C25.3877532,32.2020459 25.2885974,32.4956485 25.0904805,32.7894436 C24.891974,33.2787173 24.6940519,33.6704441 24.4957403,34.0619785 C24.2972338,34.3555812 24.1982727,34.6493763 24.0991169,34.9431714 C24.0991169,35.2367741 23.999961,35.4326375 23.999961,35.6283085 C24.4957403,35.0411031 24.891974,34.4535129 25.3877532,33.8661151 C25.4869091,33.6704441 25.685026,33.376649 25.9824935,33.180978 C26.0816494,32.8871829 26.279961,32.5933878 26.4780779,32.3975245 C26.6761948,32.2020459 26.7753506,31.9080584 26.9738571,31.7123874 C27.0728182,31.516524 27.2711299,31.320853 27.3702857,31.1249896 C27.965026,30.3417284 28.5595714,29.6563989 28.9561948,29.0691935 C29.5509351,28.383864 30.0465195,27.7962738 30.5422987,27.3068078 L32.1282078,25.7404778 C31.7315844,26.3278756 31.2361948,26.9152734 30.8395714,27.5026712 C30.4429481,27.9921372 30.0465195,28.579535 29.5509351,29.2648645 L28.063987,31.320853 C27.8658701,31.516524 27.7667143,31.8103191 27.5684026,32.0059901 C27.4694416,32.2997852 27.2711299,32.3975245 27.171974,32.5933878 C26.9738571,32.7894436 26.8747013,32.9851146 26.7753506,33.0830463 C27.171974,33.180978 27.5684026,33.2787173 27.965026,33.2787173 C28.3614545,33.376649 28.6589221,33.376649 29.0553506,33.376649 C29.4517792,33.376649 29.7492468,33.2787173 30.0465195,33.180978 C30.3437922,33.0830463 30.6412597,32.8871829 30.9385325,32.7894436 C31.137039,32.6913195 31.4343117,32.4956485 31.6326234,32.3975245 C31.9298961,32.2020459 32.1282078,32.0059901 32.3263247,31.9080584 L30.7406104,31.7123874 L32.7227532,31.2229213 L33.2185325,30.7334552 C33.4168442,30.5373994 33.516,30.3417284 33.7141169,30.145865 C33.9124286,29.950194 34.0115844,29.6563989 34.1105455,29.4607279 C34.2097013,29.3627962 34.2097013,29.2648645 34.3088571,29.0691935 L34.5071688,28.383864 C34.3088571,28.383864 34.1105455,28.383864 33.9124286,28.4816033 C33.614961,28.579535 33.4168442,28.579535 33.2185325,28.6774667 C32.9212597,28.775206 32.7227532,28.775206 32.4254805,28.8733301 Z M23.999961,36.0199391 C23.999961,36.2902613 24.222039,36.5094052 24.4957403,36.5094052 C24.7692468,36.5094052 24.9913247,36.2902613 24.9913247,36.0199391 C24.9913247,35.7496168 24.7692468,35.530473 24.4957403,35.530473 C24.222039,35.530473 23.999961,35.7496168 23.999961,36.0199391 Z M26.2799805,36.0199391 C26.2799805,36.2902613 26.5018636,36.5094052 26.7753701,36.5094052 C27.0492662,36.5094052 27.2711494,36.2902613 27.2711494,36.0199391 C27.2711494,35.7496168 27.0492662,35.530473 26.7753701,35.530473 C26.5018636,35.530473 26.2799805,35.7496168 26.2799805,36.0199391 Z M28.460513,36.0199391 C28.460513,36.2902613 28.6825909,36.5094052 28.9562922,36.5094052 C29.2297987,36.5094052 29.4518766,36.2902613 29.4518766,36.0199391 C29.4518766,35.7496168 29.2297987,35.530473 28.9562922,35.530473 C28.6825909,35.530473 28.460513,35.7496168 28.460513,36.0199391 Z M30.6412208,36.0199391 C30.6412208,36.2902613 30.8632987,36.5094052 31.137,36.5094052 C31.4105065,36.5094052 31.6325844,36.2902613 31.6325844,36.0199391 C31.6325844,35.7496168 31.4105065,35.530473 31.137,35.530473 C30.8632987,35.530473 30.6412208,35.7496168 30.6412208,36.0199391 Z M32.6239091,36.0199391 C32.6239091,36.2902613 32.8457922,36.5094052 33.1194935,36.5094052 C33.3931948,36.5094052 33.6150779,36.2902613 33.6150779,36.0199391 C33.6150779,35.7496168 33.3931948,35.530473 33.1194935,35.530473 C32.8457922,35.530473 32.6239091,35.7496168 32.6239091,36.0199391 Z" id="Combined-Shape" fill="url(#linearGradient-1)"></path>
                <g id="Page-1" transform="translate(24.000000, 21.728395)"></g>
            </g>
        </g>
    </g>
</svg>