<?xml version="1.0" encoding="UTF-8"?>
<svg width="48px" height="40px" viewBox="0 0 48 40" version="1.1" xmlns="http://www.w3.org/2000/svg" xmlns:xlink="http://www.w3.org/1999/xlink">
    <!-- Generator: Sketch 49 (51002) - http://www.bohemiancoding.com/sketch -->
    <title>ic_exposure</title>
    <desc>Created with Sketch.</desc>
    <defs>
        <linearGradient x1="50%" y1="0%" x2="50%" y2="100%" id="linearGradient-1">
            <stop stop-color="#FD902D" offset="0%"></stop>
            <stop stop-color="#F95714" offset="100%"></stop>
        </linearGradient>
    </defs>
    <g id="Symbols" stroke="none" stroke-width="1" fill="none" fill-rule="evenodd">
        <g id="ic_exposure" fill="url(#linearGradient-1)">
            <g>
                <path d="M20.8047274,34.628915 L18.903841,34.628915 L18.5248456,27.3256735 L21.1837228,27.3256735 L20.8047274,34.628915 Z M19.8125168,38.1027454 C18.9817352,38.1027454 18.4912705,37.512044 18.4912705,36.806418 C18.4912705,36.0512375 19.0542573,35.493221 19.82917,35.493221 C20.626108,35.493221 21.1504163,36.0459657 21.1504163,36.806418 C21.1504163,37.5447289 20.626108,38.1027454 19.8125168,38.1027454 Z M27.6782165,31.811683 C26.9425195,29.9786899 26.3569702,28.0861258 25.9948966,26.3957339 C25.1697556,26.1988335 24.277733,26.0346179 23.3134569,25.9141581 C24.9801236,24.656051 25.7606769,22.0628692 27.1821112,18.5123346 C27.204405,18.4577718 27.2210583,18.4029454 27.2433521,18.3536544 C27.5613752,18.4084808 27.8901424,18.4084808 28.1240935,18.2608713 C28.7878055,17.8559997 29.1890948,15.6347409 29.2001074,14.5516566 C29.2167607,12.9321699 28.3921569,13.0911137 28.3921569,13.0911137 C28.3921569,13.0911137 28.375235,13.0855783 28.3473006,13.080043 C28.3529412,12.948776 28.3585818,12.8227808 28.3585818,12.6915138 C28.3585818,11.2254356 28.6594145,8.74744184 28.2637658,7.36861136 C27.6672039,5.28415496 26.8254096,3.58321956 25.359119,2.99778991 C23.4415794,2.22073156 20.715552,0 19.82917,0 C18.7587967,0 15.9323127,2.17170413 14.2712866,3.00859703 C12.8662369,3.71975831 11.9744829,5.30076103 11.3835616,7.37968207 C10.9989256,8.72002866 11.2943862,11.1653375 11.2943862,12.686242 C11.2943862,12.8119737 11.3000269,12.9432406 11.3056675,13.0692359 C11.2664518,13.080043 11.2385173,13.0855783 11.2385173,13.0855783 C11.2385173,13.0855783 10.4136449,12.9268982 10.4300295,14.5461212 C10.4413108,15.6294692 10.8428687,17.8504643 11.5063121,18.255336 C11.7515445,18.4029454 12.0859522,18.4029454 12.4149879,18.3428473 C12.4372818,18.3976737 12.4595756,18.4630436 12.4816009,18.5178699 C13.914585,22.1013531 14.64491,24.6832006 16.3282299,25.9305005 C10.8651625,26.6200476 7.82702122,28.7917517 5.25141015,29.9185918 C0.022293849,32.205484 0,34.7438395 0,34.7438395 L0,39 L34,38.9944646 C33.4203599,38.7535449 32.7625571,38.4092986 32.0711792,37.9058449 C30.2428149,36.5710337 28.7708837,34.5195258 27.6782165,31.811683 Z" id="Fill-1"></path>
                <g id="Group-6" transform="translate(26.000000, 17.000000)">
                    <path d="M15.7217935,14.34632 C16.2656198,14.95512 16.1976757,15.8849867 15.5744447,16.4161867 C15.3029408,16.64872 14.9517594,16.7756533 14.5893904,16.7756533 C14.1530741,16.7756533 13.7396788,16.5932533 13.4564416,16.2721867 L10.9534214,13.46072 L8.45040124,16.2721867 C8.16716403,16.5932533 7.75376868,16.7756533 7.3174524,16.7756533 C6.95535628,16.7756533 6.60390202,16.64872 6.33212527,16.4161867 C6.0322431,16.1617867 5.85078574,15.8017867 5.82268031,15.4089867 C5.79430202,15.01592 5.92446016,14.6396533 6.1850493,14.34632 L8.96557643,11.22472 L6.1850493,8.10338667 C5.92446016,7.81005333 5.79430202,7.42818667 5.82268031,7.04072 C5.85078574,6.64765333 6.0322431,6.29352 6.33212527,6.03352 C6.60390202,5.80098667 6.95535628,5.67378667 7.3174524,5.67378667 C7.75376868,5.67378667 8.16716403,5.85645333 8.45040124,6.17752 L10.9534214,8.98898667 L13.4564416,6.17752 C13.7396788,5.85645333 14.1530741,5.67378667 14.5893904,5.67378667 C14.9517594,5.67378667 15.3029408,5.80098667 15.5744447,6.03352 C16.1976757,6.56472 16.2656198,7.49432 15.7217935,8.10338667 L12.9412664,11.22472 L15.7217935,14.34632 Z M20.9772353,3.85832 C18.043902,2.51885333 12.6637594,0.255386667 11.0835795,0.249786667 C9.50912992,0.255386667 4.10661209,2.52445333 1.15608806,3.86952 C0.538587287,4.15165333 0.131195039,4.79352 0.142382636,5.46338667 C0.193408992,7.90418667 1.12798264,11.4905867 2.4246524,14.68952 C5.2278276,21.62952 9.54323845,22.5041867 10.925316,22.84712 C10.9760695,22.85832 11.0213656,22.8636533 11.0721191,22.8636533 C11.1231454,22.8636533 11.1744447,22.85832 11.225471,22.84152 C12.805378,22.4321867 17.0528447,21.2036533 19.6917532,14.68952 C20.9829656,11.50152 21.9229966,7.89832 21.9742958,5.44098667 C21.996671,4.84898667 21.5265191,4.10738667 20.9772353,3.85832 Z" id="Fill-4"></path>
                </g>
            </g>
        </g>
    </g>
</svg>