<?xml version="1.0" encoding="UTF-8"?>
<svg width="12px" height="15px" viewBox="0 0 12 15" version="1.1" xmlns="http://www.w3.org/2000/svg" xmlns:xlink="http://www.w3.org/1999/xlink">
    <!-- Generator: Sketch 49 (51002) - http://www.bohemiancoding.com/sketch -->
    <title>ic_location</title>
    <desc>Created with Sketch.</desc>
    <defs></defs>
    <g id="Symbols" stroke="none" stroke-width="1" fill="none" fill-rule="evenodd">
        <g id="ic_location" fill="#F95714">
            <path d="M4.64339205,7.19024478 C4.31413733,6.85074671 4.14654471,6.44213333 4.12985134,5.91892809 C4.14654471,5.39549772 4.31413733,4.98755973 4.64339205,4.64783654 C4.97088957,4.31013953 5.36955355,4.13746379 5.8850711,4.11967841 C6.40058866,4.13746379 6.79903299,4.31013953 7.12675016,4.64783654 C7.46017822,4.99206236 7.62821014,5.40742969 7.64094982,5.94144123 C7.62777085,6.4304265 7.46017822,6.84579383 7.12675016,7.19024478 C6.79903299,7.52771666 6.40058866,7.70061753 5.8850711,7.71817777 C5.36955355,7.70061753 4.97088957,7.52816692 4.64339205,7.19024478 Z M3.25103338,5.91892809 C3.26992325,6.67919663 3.5262543,7.31451728 4.02046585,7.8246649 C4.5146774,8.33436225 5.1362857,8.59911671 5.8850711,8.61847801 C6.63385651,8.59911671 7.25480586,8.33503765 7.74945671,7.8246649 C8.24388791,7.31451728 8.50021896,6.67919663 8.51910883,5.91892809 C8.50021896,5.15865955 8.24388791,4.52378917 7.74945671,4.01364155 C7.25524516,3.5032688 6.63385651,3.23873948 5.8850711,3.21937818 C5.1362857,3.23873948 4.5146774,3.5032688 4.02046585,4.01364155 C3.5262543,4.52378917 3.26992325,5.15865955 3.25147268,5.91892809 L3.25103338,5.91892809 Z M5.92614558,0 C7.60075395,0.0373718027 8.99552876,0.606728965 10.1102504,1.70807149 C11.2251916,2.80963914 11.8057254,4.18946913 11.8518519,5.84868711 C11.8518519,6.3176357 11.7945233,6.78140626 11.6785483,7.2406742 C11.5641109,7.6967903 11.3938825,8.13602154 11.1720364,8.5480119 C10.5245095,9.60725486 9.52752003,10.8139588 8.18128778,12.1685741 L6.23036024,14.0965989 C6.06035147,14.2640967 5.79150039,14.2640967 5.62127196,14.0965989 L3.66353529,12.1685741 C2.31356899,10.8144091 1.31394377,9.60275223 0.666636465,8.53427888 C0.235683996,7.7075966 0.00702878645,6.78590889 0,5.84868711 C0.0465657102,4.18946913 0.627099541,2.80963914 1.74182114,1.70807149 C2.85676239,0.606728965 4.2515372,0.0373718027 5.92614558,0 Z"></path>
        </g>
    </g>
</svg>