<?xml version="1.0" encoding="UTF-8"?>
<svg width="40px" height="40px" viewBox="0 0 40 40" version="1.1" xmlns="http://www.w3.org/2000/svg" xmlns:xlink="http://www.w3.org/1999/xlink">
    <!-- Generator: Sketch 49 (51002) - http://www.bohemiancoding.com/sketch -->
    <title>ic_new_built</title>
    <desc>Created with Sketch.</desc>
    <defs>
        <linearGradient x1="50%" y1="0%" x2="50%" y2="100%" id="linearGradient-1">
            <stop stop-color="#80C3F3" offset="0%"></stop>
            <stop stop-color="#4A90E2" offset="100%"></stop>
        </linearGradient>
    </defs>
    <g id="Symbols" stroke="none" stroke-width="1" fill="none" fill-rule="evenodd">
        <g id="ic_new_built" fill="url(#linearGradient-1)">
            <g id="Fill-1">
                <path d="M28.315082,36.0275984 C28.315082,36.0275984 30.4947541,32.686041 33.0014754,29.7969426 C34.9369672,27.565877 37.3492623,25.6124344 37.3492623,25.6124344 L36.8459016,24.4999754 C36.8459016,24.4999754 33.9848361,26.0791557 31.6662295,28.0198115 C29.314918,29.9867787 27.5063115,32.3164508 27.5063115,32.3164508 L23.9537705,29.6730082 L22.5,30.9022705 L28.315082,36.0275984 Z M39.8525033,30.1055364 C39.8525033,35.506596 35.4742252,39.8864636 30.0718411,39.8864636 C24.6691921,39.8864636 20.2911788,35.5081854 20.2911788,30.1055364 C20.2911788,24.7034172 24.6691921,20.3251391 30.0718411,20.3251391 C35.4742252,20.3251391 39.8525033,24.7034172 39.8525033,30.1055364 Z M23.0209801,39.3675232 C20.8241589,39.7081854 18.450649,39.9113642 16.1452185,39.9113642 C8.49647682,39.9113642 5.29801328e-05,39.1288477 5.29801328e-05,35.480106 L5.29801328e-05,32.8756026 C5.29801328e-05,29.5140132 5.14521854,26.4061987 10.7425695,25.3291126 C10.7425695,25.3291126 12.4329007,24.4308344 12.0241589,22.728053 C10.2469404,20.5805033 9.87210596,18.3050066 9.87210596,18.3050066 C9.5669404,18.1714967 9.1298543,17.9095099 8.85886093,17.551894 C8.23131126,16.7010331 7.65674172,14.8700397 7.78203974,13.591894 C7.91237086,12.2658013 8.26839735,12.6885828 8.30892715,12.4748079 C7.18415894,9.60540397 7.72005298,6.09176159 9.16111258,3.51666225 C12.0487947,-1.64731126 18.2458808,-0.127311258 19.2360795,1.81096689 C25.1666755,0.707655629 24.906543,9.94792053 24.1023046,12.4099073 C24.1023046,12.4099073 24.6413775,12.5150728 24.5221722,14.7722914 C24.4122384,17.0358675 22.4956821,18.5434172 22.4956821,18.5434172 C22.4352848,19.1630199 21.6792583,21.0578543 20.4352848,22.728053 C20.1995232,23.2236821 20.1454834,23.6234172 20.1876026,23.9550728 C19.0702517,25.7428874 18.413298,27.8467285 18.413298,30.1055364 C18.413298,33.882755 20.2260132,37.2356026 23.0209801,39.3675232 Z"></path>
            </g>
        </g>
    </g>
</svg>