<?xml version="1.0" encoding="UTF-8"?>
<svg width="35px" height="28px" viewBox="0 0 35 28" version="1.1" xmlns="http://www.w3.org/2000/svg" xmlns:xlink="http://www.w3.org/1999/xlink">
    <!-- Generator: Sketch 49 (51002) - http://www.bohemiancoding.com/sketch -->
    <title>ic_punctuation1</title>
    <desc>Created with Sketch.</desc>
    <defs></defs>
    <g id="Symbols" stroke="none" stroke-width="1" fill="none" fill-rule="evenodd" opacity="0.281533062">
        <g id="ic_punctuation1" fill="#F95714">
            <path d="M0.692772749,27.176 L0.692772749,12.704 C0.692772749,8.96 1.98877275,5.792 4.50877275,3.56 C6.38077275,1.76 8.03677275,0.968 11.4927727,0.176 L14.6607727,5.648 C11.8527727,6.08 10.4127727,6.656 8.97277275,7.88 C7.67677275,8.96 7.17277275,10.112 6.95677275,12.704 L15.2367727,12.704 L15.2367727,27.176 L0.692772749,27.176 Z M19.9887727,27.176 L19.9887727,12.704 C19.9887727,8.96 21.2847727,5.792 23.7327727,3.56 C25.6767727,1.76 27.3327727,0.968 30.7167727,0.176 L33.8847727,5.648 C31.0767727,6.08 29.6367727,6.656 28.2687727,7.88 C26.9007727,8.96 26.4687727,10.112 26.2527727,12.704 L34.4607727,12.704 L34.4607727,27.176 L19.9887727,27.176 Z"></path>
        </g>
    </g>
</svg>