<?xml version="1.0" encoding="UTF-8"?>
<svg width="35px" height="28px" viewBox="0 0 35 28" version="1.1" xmlns="http://www.w3.org/2000/svg" xmlns:xlink="http://www.w3.org/1999/xlink">
    <!-- Generator: Sketch 49 (51002) - http://www.bohemiancoding.com/sketch -->
    <title>ic_punctuation2</title>
    <desc>Created with Sketch.</desc>
    <defs></defs>
    <g id="Symbols" stroke="none" stroke-width="1" fill="none" fill-rule="evenodd" opacity="0.281533062">
        <g id="ic_punctuation2" fill="#F95714">
            <path d="M34.4607727,0.328 L34.4607727,14.8 C34.4607727,18.544 33.1647727,21.712 30.7167727,23.944 C28.7727727,25.744 27.1167727,26.536 23.7327727,27.328 L20.5647727,21.856 C23.3727727,21.424 24.8127727,20.848 26.2527727,19.624 C27.5487727,18.544 27.9807727,17.392 28.1967727,14.8 L19.9887727,14.8 L19.9887727,0.328 L34.4607727,0.328 Z M15.2367727,0.328 L15.2367727,14.8 C15.2367727,18.544 13.9407727,21.712 11.4207727,23.944 C9.54877275,25.744 7.89277275,26.536 4.43677275,27.328 L1.26877275,21.856 C4.07677275,21.424 5.51677275,20.848 6.95677275,19.624 C8.25277275,18.544 8.75677275,17.392 8.97277275,14.8 L0.692772749,14.8 L0.692772749,0.328 L15.2367727,0.328 Z"></path>
        </g>
    </g>
</svg>