<?xml version="1.0" encoding="UTF-8"?>
<svg width="48px" height="32px" viewBox="0 0 48 32" version="1.1" xmlns="http://www.w3.org/2000/svg" xmlns:xlink="http://www.w3.org/1999/xlink">
    <!-- Generator: Sketch 49 (51002) - http://www.bohemiancoding.com/sketch -->
    <title>ic_upload</title>
    <desc>Created with Sketch.</desc>
    <defs>
        <linearGradient x1="50%" y1="0%" x2="50%" y2="100%" id="linearGradient-1">
            <stop stop-color="#80C3F3" offset="0%"></stop>
            <stop stop-color="#4A90E2" offset="100%"></stop>
        </linearGradient>
    </defs>
    <g id="Symbols" stroke="none" stroke-width="1" fill="none" fill-rule="evenodd">
        <g id="ic_upload" fill="url(#linearGradient-1)">
            <g id="Fill-1">
                <path d="M32.8908867,17.729914 L28.8551824,17.729914 C28.5505067,17.729914 28.3064332,17.9752496 28.3064332,18.2712308 L28.3064332,25.0123681 C28.3064332,25.3129535 28.058031,25.5536849 27.7583499,25.5536849 L20.9332814,25.5536849 C20.6286057,25.5536849 20.3848651,25.3083494 20.3848651,25.0123681 L20.3848651,18.2712308 C20.3848651,17.9703166 20.1361299,17.729914 19.8364489,17.729914 L15.7441382,17.729914 C15.2519954,17.729914 15.0082548,17.146831 15.3552188,16.8041504 L23.9334213,8.33185171 C24.1488586,8.11874521 24.4958227,8.11874521 24.711593,8.33185171 L33.2891295,16.8041504 C33.6267701,17.146831 33.3833625,17.729914 32.8908867,17.729914 M38.8438835,11.9385476 L38.8721868,11.9385476 C37.6861159,5.80417186 32.6894345,1.08688854 26.431762,0.183487999 C20.1740895,-0.714321781 14.0239692,2.40137414 11.1130676,7.94773382 C4.60699285,8.3782221 -0.338409806,13.891695 0.0178776192,20.3174478 C0.374498023,26.7435296 5.89595418,31.697269 12.4066906,31.4243085 L38.1549502,31.4243085 C43.460969,31.4055631 47.8063437,27.2480131 47.9938108,22.0075008 C48.1766162,16.7666595 44.1359172,12.3223366 38.8438835,11.9385476"></path>
            </g>
        </g>
    </g>
</svg>