<?xml version="1.0" encoding="UTF-8"?>
<svg width="20px" height="17px" viewBox="0 0 20 17" version="1.1" xmlns="http://www.w3.org/2000/svg" xmlns:xlink="http://www.w3.org/1999/xlink">
    <!-- Generator: Sketch 49 (51002) - http://www.bohemiancoding.com/sketch -->
    <title>ic_uploaded discredit</title>
    <desc>Created with Sketch.</desc>
    <defs>
        <polygon id="path-1" points="0.004 0.0022 19.0691448 0.0022 19.0691448 16.1232 0.004 16.1232"></polygon>
    </defs>
    <g id="Symbols" stroke="none" stroke-width="1" fill="none" fill-rule="evenodd">
        <g id="ic_uploaded-discredit">
            <g>
                <mask id="mask-2" fill="white">
                    <use xlink:href="#path-1"></use>
                </mask>
                <g id="Clip-2"></g>
                <path d="M18.4393,10.9082 L15.5503,8.9032 L13.7463,8.9032 L16.7743,11.3532 L13.4453,11.3102 C13.3483,11.3102 13.2103,11.4032 13.1673,11.4802 L12.2423,13.7172 L6.8273,13.7172 L5.9023,11.4802 C5.8593,11.4032 5.7203,11.3102 5.6243,11.3102 L2.3143,11.3102 L5.3233,8.9032 L3.5173,8.9032 L0.6293,10.9082 C0.1783,11.1792 -0.0917,11.8022 0.0293,12.2932 L0.5643,15.2292 C0.6853,15.7212 1.2223,16.1232 1.7573,16.1232 L17.3113,16.1232 C17.8453,16.1232 18.3823,15.7212 18.5043,15.2292 L19.0403,12.2932 C19.1613,11.8022 18.8903,11.1792 18.4393,10.9082 Z M9.7583,0.0912 C9.7003,0.0362 9.6223,0.0022 9.5353,0.0022 C9.4473,0.0022 9.3693,0.0362 9.3103,0.0912 L4.6213,4.5042 C4.5893,4.5332 4.5773,4.5812 4.5933,4.6242 C4.6113,4.6672 4.6523,4.6922 4.6953,4.6922 L7.7293,4.6922 L7.7293,9.1782 C7.7293,9.2622 7.7613,9.3462 7.8253,9.4092 C7.8893,9.4732 7.9733,9.5062 8.0573,9.5062 L11.0113,9.5062 C11.0953,9.5062 11.1793,9.4732 11.2443,9.4092 C11.3073,9.3462 11.3393,9.2622 11.3393,9.1782 L11.3393,4.6922 L14.3743,4.6922 C14.4173,4.6922 14.4583,4.6672 14.4743,4.6242 C14.4923,4.5812 14.4793,4.5332 14.4483,4.5042 L9.7583,0.0912 Z" id="Fill-1" fill="#F95714" mask="url(#mask-2)"></path>
            </g>
        </g>
    </g>
</svg>