<?xml version="1.0" encoding="UTF-8"?>
<svg width="182px" height="60px" viewBox="0 0 182 60" version="1.1" xmlns="http://www.w3.org/2000/svg" xmlns:xlink="http://www.w3.org/1999/xlink">
    <!-- Generator: Sketch 49 (51002) - http://www.bohemiancoding.com/sketch -->
    <title>home_logo</title>
    <desc>Created with Sketch.</desc>
    <defs>
        <polygon id="path-1" points="5.62971429 3.02788329 5.62971429 0.284783937 0.479057143 0.284783937 0.479057143 3.02788329 5.62971429 3.02788329"></polygon>
        <polygon id="path-3" points="0 59.2527429 180.486857 59.2527429 180.486857 0.000171428571 0 0.000171428571"></polygon>
    </defs>
    <g id="Symbols" stroke="none" stroke-width="1" fill="none" fill-rule="evenodd">
        <g id="home_logo">
            <g>
                <path d="M95.4042,12.0324857 C95.4042,12.0324857 104.999914,11.2242 111.433629,8.93134286 C111.433629,8.93134286 118.6062,12.3427714 115.278771,12.3427714 C111.951343,12.3427714 101.115343,13.8024857 95.4042,12.0324857 Z" id="Fill-1" fill="#F95714"></path>
                <path d="M108.180171,19.1822571 C108.180171,19.1822571 111.137314,16.9176857 112.616743,15.3645429 C114.095314,13.8122571 113.309314,12.9894 109.746171,12.0328286 C109.746171,12.0328286 108.5496,18.4708286 107.8836,18.9508286 L108.180171,19.1822571 Z" id="Fill-3" fill="#F95714"></path>
                <path d="M103.3362,12.6532286 C103.3362,12.6532286 105.554486,13.1838 106.404771,14.7738 C107.255057,16.3629429 106.553057,17.8423714 104.870486,18.0635143 C103.188771,18.2855143 103.040486,16.1409429 103.077343,15.1063714 C103.1142,14.0709429 102.375343,12.3892286 102.005057,12.3429429 C101.635629,12.2958 103.3362,12.6532286 103.3362,12.6532286" id="Fill-5" fill="#F95714"></path>
                <path d="M96.7552286,13.3312286 C96.7552286,13.3312286 99.7132286,13.4100857 100.896086,15.6078 C102.078943,17.8055143 99.7869429,19.1358 99.1955143,18.9146571 C98.6032286,18.6926571 97.4940857,17.9400857 97.7160857,16.1349429 C97.9380857,14.3298 97.3089429,13.6646571 96.7552286,13.3312286" id="Fill-7" fill="#F95714"></path>
                <path d="M93.6865714,17.1766286 C93.6865714,17.1766286 95.3108571,18.4332 95.4042857,20.8374857 C95.4977143,23.2400571 93.7234286,24.3860571 92.3177143,23.7577714 C90.9137143,23.1294857 90.8022857,21.9826286 91.9491429,20.9849143 C93.0951429,19.9863429 94.056,19.0623429 93.6865714,17.1766286" id="Fill-9" fill="#F95714"></path>
                <path d="M101.607686,18.8926286 C101.607686,18.8926286 101.2674,28.8140571 91.2139714,35.5803429 C91.2139714,35.5803429 97.3185429,34.4343429 100.7574,29.4063429 C104.196257,24.3774857 104.935114,21.1237714 104.935114,21.1237714 C104.935114,21.1237714 105.870257,20.3103429 105.8274,20.1629143 C105.7854,20.0146286 105.268543,19.3306286 103.974257,19.1369143 C102.679971,18.9423429 101.607686,18.8926286 101.607686,18.8926286" id="Fill-11" fill="#F95714"></path>
                <path d="M113.586686,18.3133714 C113.586686,18.3133714 113.836971,16.8990857 115.000971,17.5368 C116.165829,18.1745143 117.718971,19.5459429 118.300971,20.5522286 C118.883829,21.5576571 118.4124,21.5576571 116.9424,21.4470857 C115.4724,21.3356571 113.752971,21.3219429 113.586686,21.4950857 C113.586686,21.4950857 115.999543,19.9616571 113.586686,19.2348 L112.699543,19.1825143 C112.699543,19.1825143 113.448686,18.7239429 113.586686,18.3133714" id="Fill-13" fill="#F95714"></path>
                <path d="M109.746343,23.0552571 C109.746343,23.0552571 110.426057,22.8889714 110.924914,22.0849714 C111.424629,21.2809714 111.452057,20.6432571 112.6992,21.3632571 C113.9472,22.0849714 115.030629,22.7038286 114.862629,23.0552571 C114.668057,23.4624 109.511486,23.3604 109.511486,23.3604 L109.746343,23.0552571 Z" id="Fill-15" fill="#F95714"></path>
                <path d="M108.225429,27.0304286 C108.225429,27.0304286 108.613714,24.8678571 109.750286,25.3384286 C110.886857,25.8107143 112.940571,26.5307143 113.37,28.029 C113.37,28.029 111.816857,28.5552857 110.797714,29.637 C109.778571,30.7187143 108.087429,33.0201429 106.201714,34.1018571 C104.315143,35.1827143 98.9357143,37.6512857 94.4442857,37.2347143 C94.4442857,37.2347143 105.046286,35.0078571 108.225429,27.0304286" id="Fill-17" fill="#F95714"></path>
                <path d="M102.314914,26.9530286 C102.314914,26.9530286 102.902057,26.8544571 103.418914,27.5573143 C103.936629,28.2593143 106.118057,33.4356 118.208057,33.9901714 C118.208057,33.9901714 116.618057,34.6930286 116.026629,35.5801714 C115.4352,36.4673143 115.656343,37.9107429 113.938629,37.2816 C112.2192,36.6524571 104.645486,34.8653143 101.998629,27.2367429 L102.314914,26.9530286 Z" id="Fill-19" fill="#F95714"></path>
                <path d="M114.217886,19.3793143 L94.8044571,19.3793143 C94.6587429,19.3793143 94.5378857,19.2593143 94.5378857,19.1127429 C94.5378857,18.9670286 94.6587429,18.8470286 94.8044571,18.8470286 L114.217886,18.8470286 C114.364457,18.8470286 114.484457,18.9670286 114.484457,19.1127429 C114.484457,19.2593143 114.364457,19.3793143 114.217886,19.3793143" id="Fill-21" fill="#F95714"></path>
                <path d="M111.197743,23.3218286 L95.9646,23.3218286 C95.8180286,23.3218286 95.6980286,23.2018286 95.6980286,23.0552571 C95.6980286,22.9095429 95.8180286,22.7895429 95.9646,22.7895429 L111.197743,22.7895429 C111.344314,22.7895429 111.464314,22.9095429 111.464314,23.0552571 C111.464314,23.2018286 111.344314,23.3218286 111.197743,23.3218286" id="Fill-23" fill="#F95714"></path>
                <path d="M109.290086,27.0748286 L102.264943,27.0748286 C102.118371,27.0748286 101.998371,26.9548286 101.998371,26.8082571 C101.998371,26.6625429 102.118371,26.5425429 102.264943,26.5425429 L109.290086,26.5425429 C109.436657,26.5425429 109.556657,26.6625429 109.556657,26.8082571 C109.556657,26.9548286 109.436657,27.0748286 109.290086,27.0748286" id="Fill-25" fill="#F95714"></path>
                <path d="M135.038743,37.0073143 L135.038743,25.3330286 C135.038743,25.3330286 134.844171,24.4458857 136.092171,24.8067429 C137.341029,25.1676 138.283029,25.7496 138.920743,25.7496 L143.274171,25.7496 C143.274171,25.7496 144.079029,23.9187429 144.632743,24.1133143 C145.188171,24.3078857 146.546743,24.6678857 147.767314,25.6107429 C148.986171,26.5536 148.819886,26.5810286 148.543029,26.9418857 C148.266171,27.3018857 147.988457,27.4964571 147.988457,27.4964571 L147.988457,36.6198857 C147.988457,36.6198857 148.210457,37.4230286 147.350743,37.9510286 C146.491029,38.4773143 144.205029,38.6161714 144.205029,37.7016 L144.205029,35.5098857 L138.671314,35.5098857 L139.170171,34.8447429 L143.551886,34.8447429 C143.551886,34.8447429 144.205029,34.5953143 144.205029,34.1513143 L144.205029,31.4196 C144.205029,31.4196 144.0096,30.6850286 143.551886,30.6850286 L138.788743,30.6850286 L139.170171,30.1861714 L143.317886,30.1861714 C143.317886,30.1861714 144.205029,30.2813143 144.205029,29.3530286 L144.205029,26.8861714 C144.205029,26.8861714 143.982171,26.2064571 143.441314,26.2064571 L139.295314,26.2064571 C139.295314,26.2064571 138.408171,26.0684571 138.408171,27.3576 L138.408171,36.9104571 C138.408171,36.9104571 138.463029,37.4376 138.0336,37.6450286 C137.603314,37.8533143 136.6056,38.1027429 135.9816,38.1027429 C135.3576,38.1027429 135.038743,37.8258857 135.038743,37.0073143" id="Fill-27" fill="#F95714"></path>
                <g id="Group-31" transform="translate(174.857143, 10.395600)">
                    <mask id="mask-2" fill="white">
                        <use xlink:href="#path-1"></use>
                    </mask>
                    <g id="Clip-30"></g>
                    <path d="M0.479057143,2.5338 C0.479057143,2.5338 0.923057143,2.12665714 1.32934286,1.42465714 C1.73562857,0.7218 2.01334286,0.0472285714 2.67848571,0.366085714 C3.34448571,0.684942857 4.45362857,1.3878 5.06391429,2.01608571 C5.6742,2.64437143 5.95105714,2.86637143 5.06391429,2.95894286 C4.17591429,3.05151429 2.90048571,3.02408571 2.90048571,3.02408571 L0.479057143,2.5338 Z" id="Fill-29" fill="#F95714" mask="url(#mask-2)"></path>
                </g>
                <path d="M146.737371,21.9507429 C146.737371,21.9507429 147.144514,21.6738857 147.587657,21.0816 C148.031657,20.4901714 148.745657,19.3621714 149.9328,20.6196 C151.118229,21.8770286 151.303371,22.3853143 150.951943,22.3853143 L149.676514,22.3853143 L146.737371,21.9507429 Z" id="Fill-32" fill="#F95714"></path>
                <path d="M161.934086,13.8409714 C161.7438,15.4146857 160.0458,16.5915429 158.140371,16.4698286 C156.2358,16.3481143 154.844657,14.9732571 155.034943,13.3995429 C155.225229,11.8258286 156.923229,10.6481143 158.828657,10.7698286 C160.734943,10.8924 162.125229,12.2672571 161.934086,13.8409714" id="Fill-34" fill="#F95714"></path>
                <path d="M160.633286,15.1066286 C160.633286,15.1066286 160.079571,15.9363429 160.596429,17.6249143 C160.710429,17.9977714 160.335,16.7446286 157.358143,15.0929143" id="Fill-36" fill="#F95714"></path>
                <path d="M149.322171,16.5618 L133.2096,16.5618 C133.063886,16.5618 132.946457,16.4435143 132.946457,16.2986571 C132.946457,16.1529429 133.063886,16.0346571 133.2096,16.0346571 L149.322171,16.0346571 L149.322171,16.5618 Z" id="Fill-38" fill="#F95714"></path>
                <path d="M149.9358,22.3852286 L133.209514,22.3852286 C133.0638,22.3852286 132.946371,22.2669429 132.946371,22.1220857 C132.946371,21.9763714 133.0638,21.8580857 133.209514,21.8580857 L149.9358,21.8580857 L149.9358,22.3852286 Z" id="Fill-40" fill="#F95714"></path>
                <path d="M160.633286,20.9153143 L153.741,20.9153143 C153.595286,20.9153143 153.477,20.7970286 153.477,20.6521714 C153.477,20.5064571 153.595286,20.3881714 153.741,20.3881714 L160.633286,20.3881714 L160.633286,20.9153143 Z" id="Fill-42" fill="#F95714"></path>
                <path d="M178.146171,13.4199429 L163.706743,13.4199429 C163.5396,13.4199429 163.405029,13.2845143 163.405029,13.1182286 C163.405029,12.9510857 163.5396,12.8156571 163.706743,12.8156571 L178.146171,12.8156571 L178.146171,13.4199429 Z" id="Fill-44" fill="#F95714"></path>
                <path d="M123.425486,12.6285429 C123.425486,12.6285429 129.4152,11.9745429 131.411486,19.6708286 C133.407771,27.3671143 131.855486,34.4728286 131.855486,34.4728286 C131.855486,34.4728286 131.596629,35.5931143 130.949486,36.3336857 C130.302343,37.0725429 129.563486,37.3194 128.379771,37.5842571 C127.196914,37.8491143 126.513771,37.9048286 126.346629,36.8874 C126.180343,35.8716857 125.9952,35.3102571 123.869486,34.4728286 C123.869486,34.4728286 124.6092,34.5525429 125.5332,34.4728286 C126.4572,34.3922571 127.973486,34.1891143 128.510057,33.0611143 C129.045771,31.9339714 129.212057,26.7199714 128.9352,25.5928286 C128.9352,25.5928286 126.402343,29.3822571 123.000343,30.5839714 C123.000343,30.5839714 128.510057,23.2819714 128.694343,20.4345429 C128.694343,20.4345429 128.657486,15.5445429 123.425486,12.6285429" id="Fill-46" fill="#F95714"></path>
                <path d="M123.000257,21.2509714 C123.000257,21.2509714 128.287971,19.1784 131.097686,16.1089714 C131.097686,16.1089714 132.7614,14.6304 133.057114,14.2232571 C133.352829,13.8169714 134.869114,13.8169714 134.869114,13.3729714 C134.869114,12.9298286 133.574829,11.1546857 130.801971,10.6369714 C130.801971,10.6369714 129.433971,15.6709714 123.000257,21.2509714" id="Fill-48" fill="#F95714"></path>
                <path d="M146.127171,16.1278286 C146.127171,16.1278286 146.534314,15.8501143 146.977457,15.2586857 C147.421457,14.6672571 148.135457,13.5392571 149.3226,14.7966857 C150.508029,16.0541143 150.693171,16.5615429 150.341743,16.5615429 L149.067171,16.5615429 L146.127171,16.1278286 Z" id="Fill-50" fill="#F95714"></path>
                <path d="M136.652571,11.0067429 L136.652571,22.0158857 L139.896857,22.0158857 L139.896857,12.3653143 C139.896857,12.3653143 140.784,11.7558857 140.174571,11.3393143 C139.564286,10.9236 139.093714,10.8404571 138.732857,10.8130286 C138.372,10.7847429 137.346857,10.8130286 137.346857,10.8130286 C137.346857,10.8130286 136.652571,10.8267429 136.652571,11.0067429" id="Fill-52" fill="#F95714"></path>
                <path d="M142.568829,11.0067429 L142.568829,22.0158857 L145.813114,22.0158857 L145.813114,12.3653143 C145.813114,12.3653143 146.700257,11.7558857 146.089971,11.3393143 C145.479686,10.9236 145.009114,10.8404571 144.648257,10.8130286 C144.2874,10.7847429 143.262257,10.8130286 143.262257,10.8130286 C143.262257,10.8130286 142.568829,10.8267429 142.568829,11.0067429" id="Fill-54" fill="#F95714"></path>
                <path d="M169.402286,14.4825429 L169.402286,35.4645429 C169.402286,35.4645429 169.155429,37.4522571 170.637429,37.2542571 C172.121143,37.0545429 173.068286,36.2599714 173.068286,35.0659714 L173.068286,12.8196857 C173.068286,12.8196857 170.226,12.8599714 169.773429,13.1916857 C169.319143,13.5225429 169.402286,12.8676857 169.402286,14.4825429" id="Fill-56" fill="#F95714"></path>
                <g id="Clip-59">
                    <mask id="mask-4" fill="white">
                        <use xlink:href="#path-3"></use>
                    </mask>
                    <g></g>
                </g>
                <polygon id="Fill-58" fill="#F95714" points="157.357714 31.6767429 160.787143 31.6767429 160.787143 20.6521714 157.357714 20.6521714"></polygon>
                <path d="M157.055743,20.3884286 C157.055743,20.3884286 157.9206,18.2164286 158.4846,18.4752857 C159.049457,18.7341429 160.787743,19.3315714 161.563457,20.049 C162.340029,20.7672857 162.340029,20.805 161.563457,21.5438571 C160.787743,22.2835714 159.973457,22.7644286 159.973457,22.7644286 L157.055743,20.3884286 Z" id="Fill-60" fill="#F95714"></path>
                <path d="M164.521457,29.0125714 C164.521457,29.0125714 161.193171,30.492 159.862029,30.972 C158.531743,31.4528571 156.461743,31.6011429 156.424029,32.2662857 C156.387171,32.9314286 156.430029,33.6831429 157.055743,34.4725714 C157.681457,35.2611429 158.6886,36.2965714 159.0726,36.0377143 C159.455743,35.7788571 162.191743,32.4514286 162.784029,31.4528571 C163.3746,30.4551429 164.521457,29.0125714 164.521457,29.0125714" id="Fill-61" fill="#F95714"></path>
                <path d="M179.004943,25.7706857 L162.726943,25.7706857 C162.538371,25.7706857 162.3858,25.6181143 162.3858,25.4304 C162.3858,25.2418286 162.538371,25.0892571 162.726943,25.0892571 L179.004943,25.0892571 L179.004943,25.7706857 Z" id="Fill-62" fill="#F95714"></path>
                <path d="M163.404771,16.2985714 C163.404771,16.2985714 166.129629,17.2182857 167.459914,18.9377143 C168.791057,20.6562857 168.5142,22.9302857 166.6842,23.2628571 C164.853343,23.5962857 163.855629,22.0885714 164.521629,20.652 C165.186771,19.2145714 166.175914,17.4908571 163.404771,16.2985714" id="Fill-63" fill="#F95714"></path>
                <path d="M175.723714,15.3941143 C175.723714,15.3941143 181.786286,16.1646857 179.559429,18.0504 C177.332571,19.9361143 173.949429,24.4978286 173.949429,24.4978286 C173.949429,24.4978286 175.446857,18.9932571 175.336286,17.2181143 C175.224857,15.4438286 175.723714,15.3941143 175.723714,15.3941143" id="Fill-64" fill="#F95714"></path>
                <path d="M126.263914,40.6576286 C126.263914,40.6576286 128.579914,39.3050571 128.579914,39.9170571 L128.579914,47.2893429 C128.579914,47.2893429 128.5182,47.7744857 129.194486,47.9030571 C129.194486,47.9030571 129.612771,48.3119143 129.194486,48.3119143 L126.263914,48.3119143 C126.263914,48.3119143 126.231343,47.9030571 126.4242,47.9030571 C126.617914,47.9030571 127.0362,47.8670571 127.0362,47.2893429 L127.0362,41.3519143 C127.0362,41.3519143 126.971914,40.7853429 126.263914,40.6576286" id="Fill-65" fill="#F95714"></path>
                <path d="M124.687714,47.3675143 C124.687714,47.8886571 124.265143,48.3120857 123.743143,48.3120857 C123.222,48.3120857 122.798571,47.8886571 122.798571,47.3675143 C122.798571,46.8455143 123.222,46.4220857 123.743143,46.4220857 C124.265143,46.4220857 124.687714,46.8455143 124.687714,47.3675143" id="Fill-66" fill="#F95714"></path>
                <path d="M153.114857,47.3675143 C153.114857,47.8886571 152.692286,48.3120857 152.169429,48.3120857 C151.648286,48.3120857 151.225714,47.8886571 151.225714,47.3675143 C151.225714,46.8455143 151.648286,46.4220857 152.169429,46.4220857 C152.692286,46.4220857 153.114857,46.8455143 153.114857,47.3675143" id="Fill-67" fill="#F95714"></path>
                <path d="M145.174629,43.7489143 C145.174629,43.7489143 147.491486,42.3963429 147.491486,43.0083429 L147.491486,47.2897714 C147.491486,47.2897714 147.429771,47.7740571 148.106057,47.9034857 C148.106057,47.9034857 148.524343,48.3114857 148.106057,48.3114857 L145.174629,48.3114857 C145.174629,48.3114857 145.142914,47.9034857 145.335771,47.9034857 C145.529486,47.9034857 145.947771,47.8674857 145.947771,47.2897714 L145.947771,44.4440571 C145.947771,44.4440571 145.883486,43.8774857 145.174629,43.7489143" id="Fill-68" fill="#F95714"></path>
                <path d="M168.684086,43.7489143 C168.684086,43.7489143 171.000943,42.3963429 171.000943,43.0083429 L171.000943,47.2897714 C171.000943,47.2897714 170.938371,47.7740571 171.614657,47.9034857 C171.614657,47.9034857 172.032943,48.3114857 171.614657,48.3114857 L168.684086,48.3114857 C168.684086,48.3114857 168.651514,47.9034857 168.844371,47.9034857 C169.038086,47.9034857 169.456371,47.8674857 169.456371,47.2897714 L169.456371,44.4440571 C169.456371,44.4440571 169.392086,43.8774857 168.684086,43.7489143" id="Fill-69" fill="#F95714"></path>
                <path d="M130.1646,43.3788857 C130.1646,43.3788857 132.481457,42.0263143 132.481457,42.6383143 L132.481457,50.0106 C132.481457,50.0106 132.418886,50.4957429 133.095171,50.6243143 C133.095171,50.6243143 133.513457,51.0331714 133.095171,51.0331714 L130.1646,51.0331714 C130.1646,51.0331714 130.132886,50.6243143 130.324886,50.6243143 C130.5186,50.6243143 130.936886,50.5883143 130.936886,50.0106 L130.936886,44.0731714 C130.936886,44.0731714 130.8726,43.5066 130.1646,43.3788857" id="Fill-70" fill="#F95714"></path>
                <path d="M137.669571,40.6576286 C137.669571,40.6576286 139.986429,39.3050571 139.986429,39.9170571 L139.986429,47.2893429 C139.986429,47.2893429 139.923857,47.7744857 140.600143,47.9030571 C140.600143,47.9030571 141.018429,48.3119143 140.600143,48.3119143 L137.669571,48.3119143 C137.669571,48.3119143 137.637857,47.9030571 137.830714,47.9030571 C138.023571,47.9030571 138.442714,47.8670571 138.442714,47.2893429 L138.442714,41.3519143 C138.442714,41.3519143 138.378429,40.7853429 137.669571,40.6576286" id="Fill-71" fill="#F95714"></path>
                <path d="M132.408686,44.2319143 C132.408686,44.2319143 133.181829,43.4270571 133.858114,43.2496286 C134.5344,43.0722 135.484971,43.1853429 136.0644,43.9584857 C136.643829,44.7307714 136.654114,45.4019143 136.471543,46.1639143 C136.288971,46.9267714 135.829543,47.6193429 134.9364,48.1499143 C134.020971,48.6950571 132.466971,48.1199143 131.908971,47.9913429 C131.908971,47.9913429 131.823257,47.2224857 131.908971,47.2867714 C131.995543,47.3519143 133.462114,48.1627714 134.020971,47.9913429 C134.578971,47.8199143 135.0444,47.5602 135.011829,45.8630571 C134.980114,44.1676286 133.894971,44.0922 133.691829,44.0922 C133.487829,44.0922 132.6444,44.4144857 132.481543,44.7367714 C132.317829,45.0590571 132.408686,44.2319143 132.408686,44.2319143" id="Fill-72" fill="#F95714"></path>
                <path d="M139.867714,44.1674571 C139.867714,44.1674571 141.042857,43.2323143 141.992571,43.1448857 C142.943143,43.0566 143.361429,43.3626 143.538857,44.2960286 C143.716286,45.2303143 143.603143,47.2900286 143.603143,47.2900286 C143.603143,47.2900286 143.555143,47.7254571 143.845714,47.8386 C144.135429,47.9517429 144.231429,47.9680286 144.264,48.0803143 C144.295714,48.1926 144.264,48.3117429 144.264,48.3117429 L141.414,48.3117429 C141.414,48.3117429 141.349714,47.9834571 141.526286,47.9028857 C141.703714,47.8231714 142.056,47.7666 142.072286,46.7234571 C142.090286,45.6811714 142.137429,44.8300286 141.896571,44.4426 C141.654857,44.0543143 141.376286,43.8940286 140.750571,44.1674571 C140.125714,44.4408857 139.867714,44.6663143 139.867714,44.6663143 L139.867714,44.1674571 Z" id="Fill-73" fill="#F95714"></path>
                <path d="M170.894743,44.3666571 C170.894743,44.3666571 172.627029,43.0980857 173.576743,43.0089429 C174.526457,42.9206571 174.815314,43.3620857 174.992743,44.2963714 C175.169314,45.2306571 175.057029,47.2895143 175.057029,47.2895143 C175.057029,47.2895143 175.009029,47.7258 175.298743,47.8389429 C175.589314,47.9520857 175.685314,47.9675143 175.717886,48.0806571 C175.7496,48.1929429 175.717886,48.3120857 175.717886,48.3120857 L172.867886,48.3120857 C172.867886,48.3120857 172.8036,47.9838 172.980171,47.9032286 C173.1576,47.8226571 173.509886,47.7669429 173.526171,46.7238 C173.544171,45.6806571 173.591314,44.8303714 173.350457,44.4429429 C173.108743,44.0546571 172.830171,43.8935143 172.204457,44.1678 C171.5796,44.4412286 171.001029,44.7969429 171.001029,44.7969429 L170.894743,44.3666571 Z" id="Fill-74" fill="#F95714"></path>
                <path d="M174.934371,44.3666571 C174.934371,44.3666571 176.666657,43.0980857 177.616371,43.0089429 C178.566086,42.9206571 178.854943,43.3620857 179.032371,44.2963714 C179.208943,45.2306571 179.096657,47.2895143 179.096657,47.2895143 C179.096657,47.2895143 179.048657,47.7258 179.338371,47.8389429 C179.628943,47.9520857 179.724943,47.9675143 179.756657,48.0806571 C179.789229,48.1929429 179.756657,48.3120857 179.756657,48.3120857 L176.907514,48.3120857 C176.907514,48.3120857 176.843229,47.9838 177.0198,47.9032286 C177.197229,47.8226571 177.549514,47.7669429 177.5658,46.7238 C177.582943,45.6806571 177.630943,44.8303714 177.390086,44.4429429 C177.148371,44.0546571 176.8698,43.8935143 176.244086,44.1678 C175.619229,44.4412286 175.040657,44.7969429 175.040657,44.7969429 L174.934371,44.3666571 Z" id="Fill-75" fill="#F95714"></path>
                <path d="M147.269743,44.3557714 C147.269743,44.3557714 147.667457,43.0966286 148.682314,43.1300571 C149.698029,43.1634857 149.786314,43.4386286 149.786314,43.7420571 C149.786314,44.0472 149.608886,44.8409143 149.123743,44.7089143 C148.6386,44.5769143 147.9786,44.0472 147.491743,44.9300571 C147.004886,45.8120571 147.269743,44.3557714 147.269743,44.3557714" id="Fill-76" fill="#F95714"></path>
                <path d="M159.852343,46.8945429 C159.852343,46.8945429 158.2632,48.8805429 157.004914,47.0042571 C155.746629,45.1279714 157.026343,43.5611143 157.666629,43.6271143 C158.306914,43.6939714 158.549486,44.9959714 159.609771,44.6642571 C160.668343,44.3342571 160.094914,42.8325429 158.350629,42.9979714 C156.6072,43.1634 154.929771,44.0239714 154.995771,46.1222571 C155.061771,48.2188286 157.600629,48.7262571 158.637771,48.1974 C159.675771,47.6668286 159.852343,46.8945429 159.852343,46.8945429" id="Fill-77" fill="#F95714"></path>
                <path d="M164.989371,47.8797429 C164.198229,48.0606 163.335086,47.2351714 163.062514,46.0360286 C162.789943,44.8368857 163.209086,43.7191714 164.001086,43.5391714 C164.792229,43.3591714 165.654514,44.1837429 165.927943,45.3828857 C166.200514,46.5811714 165.781371,47.6997429 164.989371,47.8797429 M167.601086,45.5106 C167.507657,44.0457429 166.041086,42.9468857 164.325943,43.0566 C162.609943,43.1663143 161.295086,44.4426 161.389371,45.9083143 C161.4828,47.3731714 162.949371,48.4720286 164.664514,48.3623143 C166.379657,48.2534571 167.694514,46.9763143 167.601086,45.5106" id="Fill-78" fill="#F95714"></path>
                <path d="M91.5546,43.1638286 C91.5546,43.1638286 92.4820286,44.2326857 94.0711714,48.3118286 L94.7774571,48.3118286 L96.2783143,45.0838286 L97.6908857,48.3118286 L98.3534571,48.3118286 C98.3534571,48.3118286 100.5606,43.1638286 100.913743,43.1638286 L99.2363143,43.1638286 C99.2363143,43.1638286 99.7214571,43.6489714 99.3023143,44.6861143 C98.8831714,45.7241143 98.5077429,46.6078286 98.5077429,46.6078286 L97.5143143,44.1572571 C97.5143143,44.1572571 97.2057429,43.1638286 97.6248857,43.1638286 L95.2626,43.1638286 C95.2626,43.1638286 95.4126,43.1629714 95.9474571,44.3561143 L94.9763143,46.6078286 L93.9168857,44.0466857 C93.9168857,44.0466857 93.6297429,43.1638286 94.0934571,43.1638286 L91.5546,43.1638286 Z" id="Fill-79" fill="#F95714"></path>
                <path d="M101.771743,43.1638286 C101.771743,43.1638286 102.699171,44.2326857 104.288314,48.3118286 L104.9946,48.3118286 L106.496314,45.0838286 L107.908029,48.3118286 L108.571457,48.3118286 C108.571457,48.3118286 110.7786,43.1638286 111.131743,43.1638286 L109.453457,43.1638286 C109.453457,43.1638286 109.939457,43.6489714 109.519457,44.6861143 C109.100314,45.7241143 108.724886,46.6078286 108.724886,46.6078286 L107.731457,44.1572571 C107.731457,44.1572571 107.422886,43.1638286 107.842029,43.1638286 L105.4806,43.1638286 C105.4806,43.1638286 105.6306,43.1629714 106.1646,44.3561143 L105.193457,46.6078286 L104.134029,44.0466857 C104.134029,44.0466857 103.846886,43.1638286 104.3106,43.1638286 L101.771743,43.1638286 Z" id="Fill-80" fill="#F95714"></path>
                <path d="M111.9888,43.1638286 C111.9888,43.1638286 112.916229,44.2326857 114.506229,48.3118286 L115.212514,48.3118286 L116.713371,45.0838286 L118.125943,48.3118286 L118.788514,48.3118286 C118.788514,48.3118286 120.995657,43.1638286 121.3488,43.1638286 L119.671371,43.1638286 C119.671371,43.1638286 120.156514,43.6489714 119.737371,44.6861143 C119.318229,45.7241143 118.941943,46.6078286 118.941943,46.6078286 L117.949371,44.1572571 C117.949371,44.1572571 117.639943,43.1638286 118.059086,43.1638286 L115.697657,43.1638286 C115.697657,43.1638286 115.847657,43.1629714 116.381657,44.3561143 L115.410514,46.6078286 L114.351086,44.0466857 C114.351086,44.0466857 114.063943,43.1638286 114.527657,43.1638286 L111.9888,43.1638286 Z" id="Fill-81" fill="#F95714"></path>
                <path d="M10.1818839,38.8204861 C4.79727048,35.2987076 1.0232346,30.0372719 0.176828571,23.9287714 C-1.47917143,11.9810571 8.68825714,1.31905714 22.8851143,0.1122 C36.752491,-1.0675569 49.3357363,7.21190989 51.4545217,18.7321065 C45.0839849,21.4472695 40.3967022,26.8554623 39.6337714,33.3347143 C39.3612269,35.6487144 39.6138623,37.8925601 40.3083296,39.9802485 C36.9958269,41.8087407 33.1169603,43.0119025 28.8791143,43.3722 C24.9998793,43.7022031 21.2211838,43.2920147 17.7439534,42.2778057 C10.9379804,50.0471062 10.4012354,54.0264042 10.6846286,52.0209429 C11.5051599,46.2135001 11.0047823,41.8699091 10.1818839,38.8204861 Z M8.25522857,22.7329714 C8.05722857,28.6918286 14.6075143,37.0789714 28.7178,33.2029714 C36.9403714,30.9461143 42.9849429,20.6029714 42.9849429,20.6029714 C24.7398,36.3889714 8.25522857,22.7329714 8.25522857,22.7329714 Z" id="Combined-Shape" fill="#F95714"></path>
                <path d="M73.0980619,48.9734365 C72.8773223,51.4041953 73.0636927,54.6950864 74.3363143,58.8576857 C74.822924,60.4517309 73.8135363,57.0744549 66.6865143,51.4062256 C64.4438312,51.9050674 62.0694667,52.1029089 59.6388857,51.9474 C48.2380286,51.2171143 39.9186,42.9919714 41.0568857,33.5745429 C42.1951714,24.1579714 52.3591714,17.1122571 63.7600286,17.8416857 C75.1608857,18.5711143 83.4803143,26.7971143 82.3428857,36.2154 C81.6960249,41.5625881 78.1390793,46.1450117 73.0980633,48.9734382 Z M52.7241429,35.8772571 C52.6787143,41.0312571 57.5704286,47.8121143 67.743,43.4749714 C73.6701429,40.9489714 77.8838571,31.5984 77.8838571,31.5984 C64.9092857,46.5032571 52.7241429,35.8772571 52.7241429,35.8772571 Z" id="Combined-Shape" fill="#F95714"></path>
            </g>
        </g>
    </g>
</svg>