<?xml version="1.0" encoding="UTF-8"?>
<svg width="269px" height="88px" viewBox="0 0 269 88" version="1.1" xmlns="http://www.w3.org/2000/svg" xmlns:xlink="http://www.w3.org/1999/xlink">
    <!-- Generator: Sketch 49 (51002) - http://www.bohemiancoding.com/sketch -->
    <title>shouye dibulan</title>
    <desc>Created with Sketch.</desc>
    <defs>
        <polygon id="path-1" points="8.25691429 4.44089549 8.25691429 0.417683108 0.702617143 0.417683108 0.702617143 4.44089549 8.25691429 4.44089549"></polygon>
        <polygon id="path-3" points="0 86.9040229 264.272499 86.9040229 264.272499 0.000251428571 0 0.000251428571"></polygon>
    </defs>
    <g id="Symbols" stroke="none" stroke-width="1" fill="none" fill-rule="evenodd">
        <g id="shouye-dibulan" transform="translate(1.000000, 0.000000)">
            <g transform="translate(-0.444444, 0.000000)">
                <path d="M140.92616,17.6476457 C140.92616,17.6476457 154.999874,16.46216 164.435989,13.0993029 C164.435989,13.0993029 174.95576,18.1027314 170.075531,18.1027314 C165.195303,18.1027314 149.302503,20.2436457 140.92616,17.6476457 Z" id="Fill-1" fill="#FFFFFF"></path>
                <path d="M159.664251,28.1339771 C159.664251,28.1339771 164.001394,24.8126057 166.171223,22.5346629 C168.339794,20.2579771 167.186994,19.05112 161.961051,17.6481486 C161.961051,17.6481486 160.20608,27.0905486 159.22928,27.7945486 L159.664251,28.1339771 Z" id="Fill-3" fill="#FFFFFF"></path>
                <path d="M152.55976,18.5580686 C152.55976,18.5580686 155.813246,19.33624 157.060331,21.66824 C158.307417,23.9989829 157.277817,26.1688114 154.810046,26.4931543 C152.343531,26.8187543 152.126046,23.6733829 152.180103,22.1560114 C152.23416,20.6373829 151.150503,18.1708686 150.607417,18.1029829 C150.065589,18.03384 152.55976,18.5580686 152.55976,18.5580686" id="Fill-5" fill="#FFFFFF"></path>
                <path d="M142.907669,19.5524686 C142.907669,19.5524686 147.246069,19.6681257 148.980926,22.89144 C150.715783,26.1147543 147.354183,28.06584 146.486754,27.7414971 C145.618069,27.4158971 143.991326,26.3121257 144.316926,23.6645829 C144.642526,21.01704 143.719783,20.0414971 142.907669,19.5524686" id="Fill-7" fill="#FFFFFF"></path>
                <path d="M138.406971,25.1923886 C138.406971,25.1923886 140.789257,27.03536 140.926286,30.5616457 C141.063314,34.0854171 138.461029,35.7662171 136.399314,34.8447314 C134.340114,33.9232457 134.176686,32.2411886 135.858743,30.7778743 C137.539543,29.3133029 138.9488,27.9581029 138.406971,25.1923886" id="Fill-9" fill="#FFFFFF"></path>
                <path d="M150.024606,27.7091886 C150.024606,27.7091886 149.52552,42.2606171 134.780491,52.1845029 C134.780491,52.1845029 143.733863,50.5037029 148.77752,43.1293029 C153.821177,35.7536457 154.904834,30.9815314 154.904834,30.9815314 C154.904834,30.9815314 156.276377,29.7885029 156.21352,29.5722743 C156.15192,29.3547886 155.393863,28.3515886 153.495577,28.0674743 C151.597291,27.7821029 150.024606,27.7091886 150.024606,27.7091886" id="Fill-11" fill="#FFFFFF"></path>
                <path d="M167.593806,26.8596114 C167.593806,26.8596114 167.960891,24.7853257 169.668091,25.72064 C171.376549,26.6559543 173.654491,28.6673829 174.508091,30.1432686 C175.362949,31.6178971 174.67152,31.6178971 172.51552,31.4557257 C170.35952,31.2922971 167.837691,31.2721829 167.593806,31.5261257 C167.593806,31.5261257 171.132663,29.2770971 167.593806,28.21104 L166.292663,28.1343543 C166.292663,28.1343543 167.391406,27.4617829 167.593806,26.8596114" id="Fill-13" fill="#FFFFFF"></path>
                <path d="M161.961303,33.8143771 C161.961303,33.8143771 162.958217,33.5704914 163.689874,32.3912914 C164.422789,31.2120914 164.463017,30.2767771 166.29216,31.3327771 C168.12256,32.3912914 169.711589,33.2989486 169.465189,33.8143771 C169.179817,34.41152 161.616846,34.26192 161.616846,34.26192 L161.961303,33.8143771 Z" id="Fill-15" fill="#FFFFFF"></path>
                <path d="M159.730629,39.6446286 C159.730629,39.6446286 160.300114,36.4728571 161.967086,37.1630286 C163.634057,37.8557143 166.646171,38.9117143 167.276,41.1092 C167.276,41.1092 164.998057,41.8810857 163.503314,43.4676 C162.008571,45.0541143 159.528229,48.4295429 156.762514,50.0160571 C153.995543,51.6013143 146.105714,55.2218857 139.518286,54.6109143 C139.518286,54.6109143 155.067886,51.3448571 159.730629,39.6446286" id="Fill-17" fill="#FFFFFF"></path>
                <path d="M151.061874,39.5311086 C151.061874,39.5311086 151.923017,39.3865371 152.681074,40.4173943 C153.440389,41.4469943 156.639817,49.03888 174.371817,49.8522514 C174.371817,49.8522514 172.039817,50.8831086 171.172389,52.1842514 C170.30496,53.4853943 170.629303,55.6024229 168.109989,54.67968 C165.58816,53.7569371 154.480046,51.1357943 150.597989,39.9472229 L151.061874,39.5311086 Z" id="Fill-19" fill="#FFFFFF"></path>
                <path d="M168.519566,28.4229943 L140.046537,28.4229943 C139.832823,28.4229943 139.655566,28.2469943 139.655566,28.0320229 C139.655566,27.8183086 139.832823,27.6423086 140.046537,27.6423086 L168.519566,27.6423086 C168.734537,27.6423086 168.910537,27.8183086 168.910537,28.0320229 C168.910537,28.2469943 168.734537,28.4229943 168.519566,28.4229943" id="Fill-21" fill="#FFFFFF"></path>
                <path d="M164.090023,34.2053486 L141.74808,34.2053486 C141.533109,34.2053486 141.357109,34.0293486 141.357109,33.8143771 C141.357109,33.6006629 141.533109,33.4246629 141.74808,33.4246629 L164.090023,33.4246629 C164.304994,33.4246629 164.480994,33.6006629 164.480994,33.8143771 C164.480994,34.0293486 164.304994,34.2053486 164.090023,34.2053486" id="Fill-23" fill="#FFFFFF"></path>
                <path d="M161.292126,39.7097486 L150.988583,39.7097486 C150.773611,39.7097486 150.597611,39.5337486 150.597611,39.3187771 C150.597611,39.1050629 150.773611,38.9290629 150.988583,38.9290629 L161.292126,38.9290629 C161.507097,38.9290629 161.683097,39.1050629 161.683097,39.3187771 C161.683097,39.5337486 161.507097,39.7097486 161.292126,39.7097486" id="Fill-25" fill="#FFFFFF"></path>
                <path d="M199.056823,54.2773943 L199.056823,37.1551086 C199.056823,37.1551086 198.771451,35.8539657 200.601851,36.3832229 C202.433509,36.91248 203.815109,37.76608 204.750423,37.76608 L211.135451,37.76608 C211.135451,37.76608 212.315909,35.0808229 213.128023,35.3661943 C213.942651,35.6515657 215.935223,36.1795657 217.725394,37.5624229 C219.513051,38.94528 219.269166,38.9855086 218.863109,39.5147657 C218.457051,40.0427657 218.049737,40.3281371 218.049737,40.3281371 L218.049737,53.7091657 C218.049737,53.7091657 218.375337,54.8871086 217.114423,55.6615086 C215.853509,56.4333943 212.500709,56.6370514 212.500709,55.29568 L212.500709,52.0811657 L204.384594,52.0811657 L205.116251,51.1056229 L211.542766,51.1056229 C211.542766,51.1056229 212.500709,50.7397943 212.500709,50.0885943 L212.500709,46.08208 C212.500709,46.08208 212.21408,45.0047086 211.542766,45.0047086 L204.556823,45.0047086 L205.116251,44.2730514 L211.199566,44.2730514 C211.199566,44.2730514 212.500709,44.4125943 212.500709,43.0511086 L212.500709,39.4330514 C212.500709,39.4330514 212.173851,38.4361371 211.380594,38.4361371 L205.299794,38.4361371 C205.299794,38.4361371 203.998651,38.2337371 203.998651,40.12448 L203.998651,54.1353371 C203.998651,54.1353371 204.079109,54.90848 203.44928,55.2127086 C202.818194,55.5181943 201.35488,55.8840229 200.43968,55.8840229 C199.52448,55.8840229 199.056823,55.4779657 199.056823,54.2773943" id="Fill-27" fill="#FFFFFF"></path>
                <g id="Group-31" transform="translate(257.457143, 15.246880)">
                    <mask id="mask-2" fill="white">
                        <use xlink:href="#path-1"></use>
                    </mask>
                    <g id="Clip-30"></g>
                    <path d="M0.702617143,3.71624 C0.702617143,3.71624 1.35381714,3.11909714 1.94970286,2.08949714 C2.54558857,1.05864 2.95290286,0.0692685714 3.92844571,0.536925714 C4.90524571,1.00458286 6.53198857,2.03544 7.42707429,2.95692571 C8.32216,3.87841143 8.72821714,4.20401143 7.42707429,4.33978286 C6.12467429,4.47555429 4.25404571,4.43532571 4.25404571,4.43532571 L0.702617143,3.71624 Z" id="Fill-29" fill="#FFFFFF" mask="url(#mask-2)"></path>
                </g>
                <path d="M216.214811,32.1944229 C216.214811,32.1944229 216.811954,31.7883657 217.461897,30.91968 C218.113097,30.0522514 219.160297,28.3978514 220.90144,30.24208 C222.640069,32.0863086 222.911611,32.8317943 222.396183,32.8317943 L220.525554,32.8317943 L216.214811,32.1944229 Z" id="Fill-32" fill="#FFFFFF"></path>
                <path d="M238.503326,20.3000914 C238.22424,22.6082057 235.73384,24.3342629 232.939211,24.1557486 C230.14584,23.9772343 228.105497,21.9607771 228.384583,19.6526629 C228.663669,17.3445486 231.154069,15.6172343 233.948697,15.7957486 C236.744583,15.97552 238.783669,17.9919771 238.503326,20.3000914" id="Fill-34" fill="#FFFFFF"></path>
                <path d="M236.595486,22.1563886 C236.595486,22.1563886 235.783371,23.3733029 236.541429,25.8498743 C236.708629,26.3967314 236.158,24.5587886 231.791943,22.1362743" id="Fill-36" fill="#FFFFFF"></path>
                <path d="M220.005851,24.29064 L196.37408,24.29064 C196.160366,24.29064 195.988137,24.1171543 195.988137,23.9046971 C195.988137,23.6909829 196.160366,23.5174971 196.37408,23.5174971 L220.005851,23.5174971 L220.005851,24.29064 Z" id="Fill-38" fill="#FFFFFF"></path>
                <path d="M220.90584,32.8316686 L196.373954,32.8316686 C196.16024,32.8316686 195.988011,32.6581829 195.988011,32.4457257 C195.988011,32.2320114 196.16024,32.0585257 196.373954,32.0585257 L220.90584,32.0585257 L220.90584,32.8316686 Z" id="Fill-40" fill="#FFFFFF"></path>
                <path d="M236.595486,30.6757943 L226.4868,30.6757943 C226.273086,30.6757943 226.0996,30.5023086 226.0996,30.2898514 C226.0996,30.0761371 226.273086,29.9026514 226.4868,29.9026514 L236.595486,29.9026514 L236.595486,30.6757943 Z" id="Fill-42" fill="#FFFFFF"></path>
                <path d="M262.281051,19.6825829 L241.103223,19.6825829 C240.85808,19.6825829 240.660709,19.4839543 240.660709,19.2400686 C240.660709,18.9949257 240.85808,18.7962971 241.103223,18.7962971 L262.281051,18.7962971 L262.281051,19.6825829 Z" id="Fill-44" fill="#FFFFFF"></path>
                <path d="M182.024046,18.5218629 C182.024046,18.5218629 190.80896,17.5626629 193.736846,28.8505486 C196.664731,40.1384343 194.388046,50.5601486 194.388046,50.5601486 C194.388046,50.5601486 194.008389,52.2032343 193.059246,53.2894057 C192.110103,54.3730629 191.026446,54.73512 189.290331,55.1235771 C187.555474,55.5120343 186.553531,55.5937486 186.308389,54.10152 C186.064503,52.6118057 185.79296,51.7883771 182.675246,50.5601486 C182.675246,50.5601486 183.76016,50.6770629 185.11536,50.5601486 C186.47056,50.4419771 188.694446,50.1440343 189.481417,48.4896343 C190.267131,46.8364914 190.511017,39.1892914 190.10496,37.5361486 C190.10496,37.5361486 186.390103,43.0939771 181.400503,44.8564914 C181.400503,44.8564914 189.481417,34.1468914 189.751703,29.9706629 C189.751703,29.9706629 189.697646,22.7986629 182.024046,18.5218629" id="Fill-46" fill="#FFFFFF"></path>
                <path d="M181.400377,31.1680914 C181.400377,31.1680914 189.155691,28.12832 193.276606,23.6264914 C193.276606,23.6264914 195.71672,21.45792 196.150434,20.8607771 C196.584149,20.2648914 198.808034,20.2648914 198.808034,19.6136914 C198.808034,18.9637486 196.909749,16.3602057 192.842891,15.6008914 C192.842891,15.6008914 190.836491,22.9840914 181.400377,31.1680914" id="Fill-48" fill="#FFFFFF"></path>
                <path d="M215.319851,23.6541486 C215.319851,23.6541486 215.916994,23.2468343 216.566937,22.3794057 C217.218137,21.5119771 218.265337,19.8575771 220.00648,21.7018057 C221.745109,23.5460343 222.016651,24.2902629 221.501223,24.2902629 L219.631851,24.2902629 L215.319851,23.6541486 Z" id="Fill-50" fill="#FFFFFF"></path>
                <path d="M201.423771,16.1432229 L201.423771,32.2899657 L206.182057,32.2899657 L206.182057,18.1357943 C206.182057,18.1357943 207.4832,17.2419657 206.589371,16.6309943 C205.694286,16.02128 205.004114,15.8993371 204.474857,15.8591086 C203.9456,15.8176229 202.442057,15.8591086 202.442057,15.8591086 C202.442057,15.8591086 201.423771,15.8792229 201.423771,16.1432229" id="Fill-52" fill="#FFFFFF"></path>
                <path d="M210.100949,16.1432229 L210.100949,32.2899657 L214.859234,32.2899657 L214.859234,18.1357943 C214.859234,18.1357943 216.160377,17.2419657 215.265291,16.6309943 C214.370206,16.02128 213.680034,15.8993371 213.150777,15.8591086 C212.62152,15.8176229 211.117977,15.8591086 211.117977,15.8591086 C211.117977,15.8591086 210.100949,15.8792229 210.100949,16.1432229" id="Fill-54" fill="#FFFFFF"></path>
                <path d="M249.456686,21.2410629 L249.456686,52.0146629 C249.456686,52.0146629 249.094629,54.9299771 251.268229,54.6395771 C253.444343,54.3466629 254.833486,53.1812914 254.833486,51.4300914 L254.833486,18.8022057 C254.833486,18.8022057 250.6648,18.8612914 250.001029,19.3478057 C249.334743,19.8330629 249.456686,18.8726057 249.456686,21.2410629" id="Fill-56" fill="#FFFFFF"></path>
                <g id="Clip-59" transform="translate(1.000000, 0.000000)">
                    <mask id="mask-4" fill="white">
                        <use xlink:href="#path-3"></use>
                    </mask>
                    <g></g>
                </g>
                <polygon id="Fill-58" fill="#FFFFFF" points="231.791314 46.4592229 236.821143 46.4592229 236.821143 30.2898514 231.791314 30.2898514"></polygon>
                <path d="M231.348423,29.9030286 C231.348423,29.9030286 232.61688,26.7174286 233.44408,27.0970857 C234.272537,27.4767429 236.822023,28.3529714 237.959737,29.4052 C239.098709,30.4586857 239.098709,30.514 237.959737,31.5976571 C236.822023,32.6825714 235.627737,33.3878286 235.627737,33.3878286 L231.348423,29.9030286 Z" id="Fill-60" fill="#FFFFFF"></path>
                <path d="M242.298137,42.5517714 C242.298137,42.5517714 237.416651,44.7216 235.464309,45.4256 C233.513223,46.1308571 230.477223,46.3483429 230.421909,47.3238857 C230.367851,48.2994286 230.430709,49.4019429 231.348423,50.5597714 C232.266137,51.7163429 233.74328,53.2349714 234.30648,52.8553143 C234.868423,52.4756571 238.881223,47.5954286 239.749909,46.1308571 C240.61608,44.6675429 242.298137,42.5517714 242.298137,42.5517714" id="Fill-61" fill="#FFFFFF"></path>
                <path d="M263.540583,37.7970057 L239.666183,37.7970057 C239.389611,37.7970057 239.16584,37.5732343 239.16584,37.29792 C239.16584,37.0213486 239.389611,36.7975771 239.666183,36.7975771 L263.540583,36.7975771 L263.540583,37.7970057 Z" id="Fill-62" fill="#FFFFFF"></path>
                <path d="M240.660331,23.9045714 C240.660331,23.9045714 244.656789,25.2534857 246.607874,27.7753143 C248.560217,30.2958857 248.15416,33.6310857 245.47016,34.1188571 C242.784903,34.6078857 241.321589,32.3965714 242.298389,30.2896 C243.273931,28.1813714 244.724674,25.6532571 240.660331,23.9045714" id="Fill-63" fill="#FFFFFF"></path>
                <path d="M258.728114,22.5780343 C258.728114,22.5780343 267.619886,23.7082057 264.353829,26.47392 C261.087771,29.2396343 256.125829,35.9301486 256.125829,35.9301486 C256.125829,35.9301486 258.322057,27.8567771 258.159886,25.2532343 C257.996457,22.6509486 258.728114,22.5780343 258.728114,22.5780343" id="Fill-64" fill="#FFFFFF"></path>
                <path d="M186.187074,59.6311886 C186.187074,59.6311886 189.583874,57.6474171 189.583874,58.5450171 L189.583874,69.3577029 C189.583874,69.3577029 189.49336,70.0692457 190.485246,70.2578171 C190.485246,70.2578171 191.098731,70.8574743 190.485246,70.8574743 L186.187074,70.8574743 C186.187074,70.8574743 186.139303,70.2578171 186.42216,70.2578171 C186.706274,70.2578171 187.31976,70.2050171 187.31976,69.3577029 L187.31976,60.6494743 C187.31976,60.6494743 187.225474,59.8185029 186.187074,59.6311886" id="Fill-65" fill="#FFFFFF"></path>
                <path d="M183.875314,69.4723543 C183.875314,70.2366971 183.255543,70.8577257 182.489943,70.8577257 C181.7256,70.8577257 181.104571,70.2366971 181.104571,69.4723543 C181.104571,68.7067543 181.7256,68.0857257 182.489943,68.0857257 C183.255543,68.0857257 183.875314,68.7067543 183.875314,69.4723543" id="Fill-66" fill="#FFFFFF"></path>
                <path d="M225.568457,69.4723543 C225.568457,70.2366971 224.948686,70.8577257 224.181829,70.8577257 C223.417486,70.8577257 222.797714,70.2366971 222.797714,69.4723543 C222.797714,68.7067543 223.417486,68.0857257 224.181829,68.0857257 C224.948686,68.0857257 225.568457,68.7067543 225.568457,69.4723543" id="Fill-67" fill="#FFFFFF"></path>
                <path d="M213.922789,64.1650743 C213.922789,64.1650743 217.320846,62.1813029 217.320846,63.0789029 L217.320846,69.3583314 C217.320846,69.3583314 217.230331,70.0686171 218.222217,70.2584457 C218.222217,70.2584457 218.835703,70.8568457 218.222217,70.8568457 L213.922789,70.8568457 C213.922789,70.8568457 213.876274,70.2584457 214.159131,70.2584457 C214.443246,70.2584457 215.056731,70.2056457 215.056731,69.3583314 L215.056731,65.1846171 C215.056731,65.1846171 214.962446,64.3536457 213.922789,64.1650743" id="Fill-68" fill="#FFFFFF"></path>
                <path d="M248.403326,64.1650743 C248.403326,64.1650743 251.801383,62.1813029 251.801383,63.0789029 L251.801383,69.3583314 C251.801383,69.3583314 251.709611,70.0686171 252.701497,70.2584457 C252.701497,70.2584457 253.314983,70.8568457 252.701497,70.8568457 L248.403326,70.8568457 C248.403326,70.8568457 248.355554,70.2584457 248.638411,70.2584457 C248.922526,70.2584457 249.536011,70.2056457 249.536011,69.3583314 L249.536011,65.1846171 C249.536011,65.1846171 249.441726,64.3536457 248.403326,64.1650743" id="Fill-69" fill="#FFFFFF"></path>
                <path d="M191.90808,63.6223657 C191.90808,63.6223657 195.306137,61.6385943 195.306137,62.5361943 L195.306137,73.34888 C195.306137,73.34888 195.214366,74.0604229 196.206251,74.2489943 C196.206251,74.2489943 196.819737,74.8486514 196.206251,74.8486514 L191.90808,74.8486514 C191.90808,74.8486514 191.861566,74.2489943 192.143166,74.2489943 C192.42728,74.2489943 193.040766,74.1961943 193.040766,73.34888 L193.040766,64.6406514 C193.040766,64.6406514 192.94648,63.80968 191.90808,63.6223657" id="Fill-70" fill="#FFFFFF"></path>
                <path d="M202.915371,59.6311886 C202.915371,59.6311886 206.313429,57.6474171 206.313429,58.5450171 L206.313429,69.3577029 C206.313429,69.3577029 206.221657,70.0692457 207.213543,70.2578171 C207.213543,70.2578171 207.827029,70.8574743 207.213543,70.8574743 L202.915371,70.8574743 C202.915371,70.8574743 202.868857,70.2578171 203.151714,70.2578171 C203.434571,70.2578171 204.049314,70.2050171 204.049314,69.3577029 L204.049314,60.6494743 C204.049314,60.6494743 203.955029,59.8185029 202.915371,59.6311886" id="Fill-71" fill="#FFFFFF"></path>
                <path d="M195.199406,64.8734743 C195.199406,64.8734743 196.333349,63.6930171 197.325234,63.4327886 C198.31712,63.17256 199.711291,63.3385029 200.56112,64.4724457 C201.410949,65.6051314 201.426034,66.5894743 201.158263,67.7070743 C200.890491,68.8259314 200.216663,69.8417029 198.90672,70.6198743 C197.564091,71.4194171 195.284891,70.5758743 194.466491,70.3873029 C194.466491,70.3873029 194.340777,69.2596457 194.466491,69.3539314 C194.593463,69.4494743 196.744434,70.6387314 197.564091,70.3873029 C198.382491,70.1358743 199.06512,69.75496 199.017349,67.2658171 C198.970834,64.7791886 197.379291,64.66856 197.081349,64.66856 C196.782149,64.66856 195.54512,65.1412457 195.306263,65.6139314 C195.066149,66.0866171 195.199406,64.8734743 195.199406,64.8734743" id="Fill-72" fill="#FFFFFF"></path>
                <path d="M206.139314,64.7789371 C206.139314,64.7789371 207.862857,63.4073943 209.255771,63.2791657 C210.649943,63.14968 211.263429,63.59848 211.523657,64.9675086 C211.783886,66.3377943 211.617943,69.3587086 211.617943,69.3587086 C211.617943,69.3587086 211.547543,69.9973371 211.973714,70.16328 C212.398629,70.3292229 212.539429,70.3531086 212.5872,70.5177943 C212.633714,70.68248 212.5872,70.8572229 212.5872,70.8572229 L208.4072,70.8572229 C208.4072,70.8572229 208.312914,70.3757371 208.571886,70.2575657 C208.832114,70.1406514 209.3488,70.05768 209.372686,68.5277371 C209.399086,66.9990514 209.468229,65.7507086 209.114971,65.18248 C208.760457,64.6129943 208.351886,64.3779086 207.434171,64.7789371 C206.517714,65.1799657 206.139314,65.5105943 206.139314,65.5105943 L206.139314,64.7789371 Z" id="Fill-73" fill="#FFFFFF"></path>
                <path d="M251.645623,65.0710971 C251.645623,65.0710971 254.186309,63.2105257 255.579223,63.0797829 C256.972137,62.9502971 257.395794,63.5977257 257.656023,64.9680114 C257.914994,66.3382971 257.750309,69.3579543 257.750309,69.3579543 C257.750309,69.3579543 257.679909,69.99784 258.104823,70.1637829 C258.530994,70.3297257 258.671794,70.3523543 258.719566,70.5182971 C258.76608,70.6829829 258.719566,70.8577257 258.719566,70.8577257 L254.539566,70.8577257 C254.539566,70.8577257 254.44528,70.37624 254.704251,70.2580686 C254.96448,70.1398971 255.481166,70.0581829 255.505051,68.52824 C255.531451,66.9982971 255.600594,65.7512114 255.247337,65.1829829 C254.892823,64.6134971 254.484251,64.3771543 253.566537,64.77944 C252.65008,65.1804686 251.801509,65.7021829 251.801509,65.7021829 L251.645623,65.0710971 Z" id="Fill-74" fill="#FFFFFF"></path>
                <path d="M257.570411,65.0710971 C257.570411,65.0710971 260.111097,63.2105257 261.504011,63.0797829 C262.896926,62.9502971 263.320583,63.5977257 263.580811,64.9680114 C263.839783,66.3382971 263.675097,69.3579543 263.675097,69.3579543 C263.675097,69.3579543 263.604697,69.99784 264.029611,70.1637829 C264.455783,70.3297257 264.596583,70.3523543 264.643097,70.5182971 C264.690869,70.6829829 264.643097,70.8577257 264.643097,70.8577257 L260.464354,70.8577257 C260.464354,70.8577257 260.370069,70.37624 260.62904,70.2580686 C260.889269,70.1398971 261.405954,70.0581829 261.42984,68.52824 C261.454983,66.9982971 261.525383,65.7512114 261.172126,65.1829829 C260.817611,64.6134971 260.40904,64.3771543 259.491326,64.77944 C258.574869,65.1804686 257.726297,65.7021829 257.726297,65.7021829 L257.570411,65.0710971 Z" id="Fill-75" fill="#FFFFFF"></path>
                <path d="M216.995623,65.0551314 C216.995623,65.0551314 217.578937,63.2083886 219.067394,63.2574171 C220.557109,63.3064457 220.686594,63.7099886 220.686594,64.1550171 C220.686594,64.60256 220.426366,65.7666743 219.714823,65.5730743 C219.00328,65.3794743 218.03528,64.60256 217.321223,65.8974171 C216.607166,67.1910171 216.995623,65.0551314 216.995623,65.0551314" id="Fill-76" fill="#FFFFFF"></path>
                <path d="M235.450103,68.7786629 C235.450103,68.7786629 233.11936,71.6914629 231.273874,68.9395771 C229.428389,66.1876914 231.305303,63.8896343 232.244389,63.9864343 C233.183474,64.0844914 233.539246,65.9940914 235.094331,65.5075771 C236.646903,65.0235771 235.805874,62.8210629 233.247589,63.0636914 C230.69056,63.30632 228.230331,64.5684914 228.327131,67.6459771 C228.423931,70.7209486 232.147589,71.4651771 233.668731,70.68952 C235.191131,69.9113486 235.450103,68.7786629 235.450103,68.7786629" id="Fill-77" fill="#FFFFFF"></path>
                <path d="M242.984411,70.2236229 C241.824069,70.48888 240.558126,69.2782514 240.158354,67.5195086 C239.758583,65.7607657 240.373326,64.1214514 241.534926,63.8574514 C242.695269,63.5934514 243.959954,64.8028229 244.360983,66.5615657 C244.760754,68.3190514 244.146011,69.9596229 242.984411,70.2236229 M246.814926,66.74888 C246.677897,64.6004229 244.526926,62.9887657 242.011383,63.14968 C239.494583,63.3105943 237.566126,65.18248 237.704411,67.3321943 C237.84144,69.4806514 239.992411,71.0923086 242.507954,70.9313943 C245.023497,70.7717371 246.951954,68.8985943 246.814926,66.74888" id="Fill-78" fill="#FFFFFF"></path>
                <path d="M135.28008,63.3069486 C135.28008,63.3069486 136.640309,64.8746057 138.971051,70.8573486 L140.006937,70.8573486 L142.208194,66.1229486 L144.279966,70.8573486 L145.251737,70.8573486 C145.251737,70.8573486 148.48888,63.3069486 149.006823,63.3069486 L146.546594,63.3069486 C146.546594,63.3069486 147.258137,64.0184914 146.643394,65.5396343 C146.028651,67.0620343 145.478023,68.3581486 145.478023,68.3581486 L144.020994,64.7639771 C144.020994,64.7639771 143.568423,63.3069486 144.183166,63.3069486 L140.71848,63.3069486 C140.71848,63.3069486 140.93848,63.3056914 141.722937,65.0556343 L140.298594,68.3581486 L138.744766,64.6018057 C138.744766,64.6018057 138.323623,63.3069486 139.003737,63.3069486 L135.28008,63.3069486 Z" id="Fill-79" fill="#FFFFFF"></path>
                <path d="M150.265223,63.3069486 C150.265223,63.3069486 151.625451,64.8746057 153.956194,70.8573486 L154.99208,70.8573486 L157.194594,66.1229486 L159.265109,70.8573486 L160.238137,70.8573486 C160.238137,70.8573486 163.47528,63.3069486 163.993223,63.3069486 L161.531737,63.3069486 C161.531737,63.3069486 162.244537,64.0184914 161.628537,65.5396343 C161.013794,67.0620343 160.463166,68.3581486 160.463166,68.3581486 L159.006137,64.7639771 C159.006137,64.7639771 158.553566,63.3069486 159.168309,63.3069486 L155.70488,63.3069486 C155.70488,63.3069486 155.92488,63.3056914 156.70808,65.0556343 L155.283737,68.3581486 L153.729909,64.6018057 C153.729909,64.6018057 153.308766,63.3069486 153.98888,63.3069486 L150.265223,63.3069486 Z" id="Fill-80" fill="#FFFFFF"></path>
                <path d="M165.25024,63.3069486 C165.25024,63.3069486 166.610469,64.8746057 168.942469,70.8573486 L169.978354,70.8573486 L172.179611,66.1229486 L174.251383,70.8573486 L175.223154,70.8573486 C175.223154,70.8573486 178.460297,63.3069486 178.97824,63.3069486 L176.518011,63.3069486 C176.518011,63.3069486 177.229554,64.0184914 176.614811,65.5396343 C176.000069,67.0620343 175.448183,68.3581486 175.448183,68.3581486 L173.992411,64.7639771 C173.992411,64.7639771 173.538583,63.3069486 174.153326,63.3069486 L170.689897,63.3069486 C170.689897,63.3069486 170.909897,63.3056914 171.693097,65.0556343 L170.268754,68.3581486 L168.714926,64.6018057 C168.714926,64.6018057 168.293783,63.3069486 168.973897,63.3069486 L165.25024,63.3069486 Z" id="Fill-81" fill="#FFFFFF"></path>
                <path d="M15.9334297,56.9367129 C8.0359967,51.7714378 2.50074408,44.0546654 1.25934857,35.0955314 C-1.16945143,17.5722171 13.7427771,1.93461714 34.5648343,0.16456 C54.9036535,-1.56575013 73.3590799,10.5774678 76.4666318,27.4737562 C67.1231779,31.4559953 60.2484966,39.3880114 59.1295314,48.8909143 C58.7297995,52.2847811 59.1003314,55.5757549 60.1188834,58.6376978 C55.2605462,61.3194864 49.5715417,63.0841236 43.3560343,63.61256 C37.6664896,64.0965646 32.124403,63.4949549 27.024465,62.0074484 C17.0423712,73.4024224 16.2551453,79.2387262 16.6707886,76.2973829 C17.8742345,67.7798002 17.1403474,61.4092 15.9334297,56.9367129 Z M13.1076686,33.3416914 C12.8172686,42.0813486 22.4243543,54.3824914 43.11944,48.6976914 C55.1792114,45.3876343 64.0445829,30.2176914 64.0445829,30.2176914 C37.28504,53.3704914 13.1076686,33.3416914 13.1076686,33.3416914 Z" id="Combined-Shape" fill="#FFFFFF"></path>
                <path d="M108.210491,71.8277069 C107.886739,75.3928198 108.160083,80.2194601 110.026594,86.3246057 C110.740289,88.6625386 109.259853,83.7092005 98.8068876,75.3957975 C95.517619,76.1274322 92.0352179,76.4175998 88.4703657,76.18952 C71.7491086,75.1184343 59.54728,63.0548914 61.2167657,49.2426629 C62.8862514,35.4316914 77.7934514,25.0979771 94.5147086,26.1678057 C111.235966,27.2376343 123.437794,39.3024343 121.769566,53.11592 C120.820837,60.9584625 115.603983,67.6793505 108.210493,71.8277093 Z M78.3287429,52.6199771 C78.2621143,60.1791771 85.4366286,70.1244343 100.3564,63.7632914 C109.049543,60.0584914 115.229657,46.34432 115.229657,46.34432 C96.2002857,68.2047771 78.3287429,52.6199771 78.3287429,52.6199771 Z" id="Combined-Shape" fill="#FFFFFF"></path>
            </g>
        </g>
    </g>
</svg>