<?xml version="1.0" encoding="UTF-8"?>
<svg width="14px" height="16px" viewBox="0 0 14 16" version="1.1" xmlns="http://www.w3.org/2000/svg" xmlns:xlink="http://www.w3.org/1999/xlink">
    <!-- Generator: Sketch 49 (51002) - http://www.bohemiancoding.com/sketch -->
    <title>Page 1</title>
    <desc>Created with Sketch.</desc>
    <defs>
        <polygon id="path-1" points="1.000072 5.1368 7.928632 5.1368 7.928632 11.48 1.000072 11.48"></polygon>
    </defs>
    <g id="Symbols" stroke="none" stroke-width="1" fill="none" fill-rule="evenodd">
        <g id="页面-1">
            <g id="Page-1">
                <g id="Group-3" transform="translate(0.000000, 0.103464)">
                    <mask id="mask-2" fill="white">
                        <use xlink:href="#path-1"></use>
                    </mask>
                    <g id="Clip-2"></g>
                    <path d="M7.456552,11.48 L3.496552,11.48 C3.234952,11.48 3.024472,11.26832 3.024472,11.00792 C3.024472,10.74632 3.236152,10.53584 3.496552,10.53584 L7.456552,10.53584 C7.718152,10.53584 7.928632,10.74776 7.928632,11.00792 C7.928632,11.26832 7.718152,11.48 7.456552,11.48 M7.456552,6.08048 L3.496552,6.08048 C3.234952,6.08048 3.024472,5.8688 3.024472,5.6084 C3.024472,5.3468 3.236152,5.13656 3.496552,5.13656 L7.456552,5.13656 C7.718152,5.13656 7.928632,5.34824 7.928632,5.6084 C7.928632,5.8688 7.718152,6.08048 7.456552,6.08048 M7.456552,8.77952 L3.496552,8.77952 C3.234952,8.77952 3.024472,8.56784 3.024472,8.30768 C3.024472,8.04584 3.236152,7.8356 3.496552,7.8356 L7.456552,7.8356 C7.718152,7.8356 7.928632,8.04728 7.928632,8.30768 C7.928632,8.56928 7.718152,8.77952 7.456552,8.77952 M1.865032,11.48 L1.471912,11.48 C1.210552,11.48 1.000072,11.26832 1.000072,11.00792 C1.000072,10.74632 1.211512,10.53584 1.471912,10.53584 L1.865032,10.53584 C2.126632,10.53584 2.337112,10.74776 2.337112,11.00792 C2.337112,11.26832 2.125432,11.48 1.865032,11.48 M1.865032,6.08048 L1.471912,6.08048 C1.210552,6.08048 1.000072,5.8688 1.000072,5.6084 C1.000072,5.3468 1.211512,5.13656 1.471912,5.13656 L1.865032,5.13656 C2.126632,5.13656 2.337112,5.34824 2.337112,5.6084 C2.337112,5.8688 2.125432,6.08048 1.865032,6.08048 M1.865032,8.77952 L1.471912,8.77952 C1.210552,8.77952 1.000072,8.56784 1.000072,8.30768 C1.000072,8.04584 1.211512,7.8356 1.471912,7.8356 L1.865032,7.8356 C2.126632,7.8356 2.337112,8.04728 2.337112,8.30768 C2.337112,8.56928 2.125432,8.77952 1.865032,8.77952" id="Fill-1" fill="#F95714" mask="url(#mask-2)"></path>
                </g>
                <path d="M10.83016,10.013624 C10.68544,10.013624 10.53952,9.961064 10.42768,9.855944 L8.99992,8.522744 C8.83696,8.370344 8.82784,8.114024 8.98024,7.950824 C9.13288,7.788104 9.3892,7.778504 9.55216,7.931144 L10.83016,9.124904 L12.13552,7.928504 C12.29992,7.777544 12.55624,7.788104 12.70744,7.953464 C12.85864,8.118104 12.84808,8.374184 12.68248,8.525624 L11.22832,9.858584 C11.11672,9.962504 10.97344,10.013624 10.83016,10.013624" id="Fill-4" fill="#F95714"></path>
            </g>
        </g>
    </g>
</svg>