<?xml version="1.0" encoding="UTF-8"?>
<svg width="14px" height="14px" viewBox="0 0 14 14" version="1.1" xmlns="http://www.w3.org/2000/svg" xmlns:xlink="http://www.w3.org/1999/xlink">
    <!-- Generator: Sketch 49 (51002) - http://www.bohemiancoding.com/sketch -->
    <title>ic_read</title>
    <desc>Created with Sketch.</desc>
    <defs></defs>
    <g id="Symbols" stroke="none" stroke-width="1" fill="none" fill-rule="evenodd">
        <g id="ic_read" fill="#F95714">
            <g id="Fill-1">
                <path d="M0.04375,2.581875 C0.01785,2.662375 0,2.7462 0,2.834925 L0,10.575175 C0,10.668625 0.019075,10.757175 0.047775,10.841175 L4.593225,6.477375 L0.04375,2.581875 Z M13.105575,11.4101 C13.183975,11.4101 13.2587,11.3954 13.3308,11.374925 L8.743175,6.96825 L6.9699,8.411475 L5.19925,6.970525 L0.609875,11.3751 C0.6818,11.3954 0.75635,11.409925 0.834925,11.409925 L13.105575,11.409925 L13.105575,11.4101 Z M6.9699,7.414325 L8.1676,6.439925 L8.773625,5.946775 L13.340075,2.037975 C13.265175,2.01575 13.1873,2 13.105575,2 L0.834925,2 C0.75285,2 0.6748,2.01575 0.599725,2.038325 L5.1688,5.948875 L5.775175,6.442375 L6.9699,7.414325 Z M13.892725,10.841175 C13.92125,10.757 13.9405,10.668625 13.9405,10.575175 L13.9405,2.834925 C13.9405,2.7462 13.92265,2.662375 13.89675,2.581875 L9.349375,6.475275 L13.892725,10.841175 Z"></path>
            </g>
        </g>
    </g>
</svg>