<?xml version="1.0" encoding="UTF-8"?>
<svg width="14px" height="14px" viewBox="0 0 14 14" version="1.1" xmlns="http://www.w3.org/2000/svg" xmlns:xlink="http://www.w3.org/1999/xlink">
    <!-- Generator: Sketch 49 (51002) - http://www.bohemiancoding.com/sketch -->
    <title>ic_unread</title>
    <desc>Created with Sketch.</desc>
    <defs></defs>
    <g id="Symbols" stroke="none" stroke-width="1" fill="none" fill-rule="evenodd">
        <g id="ic_unread" fill="#97A2B3">
            <g>
                <path d="M13.8834477,4.94676 L9.34013161,8.60021806 L13.8792929,12.6967084 C13.9079252,12.6179471 13.9268929,12.5348503 13.9268929,12.4471471 L13.9268929,5.18448903 C13.9268929,5.10121161 13.90928,5.02226968 13.8834477,4.94676 Z" id="Fill-1"></path>
                <path d="M6.96347355,10.4166052 L5.19441548,9.0647471 L0.60928,13.1979987 C0.681357419,13.2169665 0.755512258,13.2305148 0.834002581,13.2305148 L13.0924929,13.2305148 C13.1714348,13.2305148 13.2462219,13.2169665 13.3182994,13.1972761 L8.73488,9.06266968 L6.96347355,10.4166052 Z" id="Path"></path>
                <path d="M0.0434993548,4.94676 C0.0176670968,5.02226968 -3.61290327e-05,5.10121161 -3.61290327e-05,5.18448903 L-3.61290327e-05,12.4471471 C-3.61290327e-05,12.5348503 0.0193832258,12.6179471 0.0479251613,12.6967987 L4.5888929,8.60202452 L0.0434993548,4.94676 Z" id="Path"></path>
                <path d="M5.16379613,8.10624387 L6.96347355,9.48086323 L13.327151,4.37285032 C13.3220026,4.37140516 13.3169445,4.37032129 13.3117961,4.36950839 C13.3169445,4.36824387 13.3220929,4.36679871 13.327151,4.36535355 L8.76549935,1.37703097 L8.15997677,0.914218065 L6.96347355,-2.70967755e-05 L5.76968,0.911869677 L5.16379613,1.37504387 L0.599073548,4.36535355 C0.604492903,4.36688903 0.609912258,4.36833419 0.615331613,4.36968903 C0.609912258,4.37050194 0.604492903,4.37167613 0.599073548,4.37312129 L5.16379613,8.10624387 Z" id="Path"></path>
                <path d="M13.8834477,4.94676 L9.34013161,8.60021806 L13.8792929,12.6967084 C13.9079252,12.6179471 13.9268929,12.5348503 13.9268929,12.4471471 L13.9268929,5.18448903 C13.9268929,5.10121161 13.90928,5.02226968 13.8834477,4.94676 Z" id="Path"></path>
                <path d="M6.96347355,10.4166052 L5.19441548,9.0647471 L0.60928,13.1979987 C0.681357419,13.2169665 0.755512258,13.2305148 0.834002581,13.2305148 L13.0924929,13.2305148 C13.1714348,13.2305148 13.2462219,13.2169665 13.3182994,13.1972761 L8.73488,9.06266968 L6.96347355,10.4166052 Z" id="Path"></path>
                <path d="M0.0434993548,4.94676 C0.0176670968,5.02226968 -3.61290327e-05,5.10121161 -3.61290327e-05,5.18448903 L-3.61290327e-05,12.4471471 C-3.61290327e-05,12.5348503 0.0193832258,12.6179471 0.0479251613,12.6967987 L4.5888929,8.60202452 L0.0434993548,4.94676 Z" id="Path"></path>
                <path d="M5.16379613,8.10624387 L6.96347355,9.48086323 L13.327151,4.37285032 C13.3220026,4.37140516 13.3169445,4.37032129 13.3117961,4.36950839 C13.3169445,4.36824387 13.3220929,4.36679871 13.327151,4.36535355 L8.76549935,1.37703097 L8.15997677,0.914218065 L6.96347355,-2.70967755e-05 L5.76968,0.911869677 L5.16379613,1.37504387 L0.599073548,4.36535355 C0.604492903,4.36688903 0.609912258,4.36833419 0.615331613,4.36968903 C0.609912258,4.37050194 0.604492903,4.37167613 0.599073548,4.37312129 L5.16379613,8.10624387 Z" id="Path"></path>
            </g>
        </g>
    </g>
</svg>