<?xml version="1.0" encoding="UTF-8"?>
<svg width="14px" height="14px" viewBox="0 0 14 14" version="1.1" xmlns="http://www.w3.org/2000/svg" xmlns:xlink="http://www.w3.org/1999/xlink">
    <!-- Generator: Sketch 49 (51002) - http://www.bohemiancoding.com/sketch -->
    <title>icon_reject</title>
    <desc>Created with Sketch.</desc>
    <defs>
        <polygon id="path-1" points="0 0.00827692308 7.98527348 0.00827692308 7.98527348 7.46427692 0 7.46427692"></polygon>
    </defs>
    <g id="Symbols" stroke="none" stroke-width="1" fill="none" fill-rule="evenodd">
        <g id="icon_reject">
            <g>
                <g id="Group-3" fill="#F95714">
                    <path d="M13.7962735,7.9930439 C13.4250769,7.33565854 13.4250769,6.67820488 13.7962735,6.02768293 C14.1674017,5.37024634 14.0274359,4.85270732 13.3760684,4.46796341 C12.7318291,4.0832878 12.4027692,3.51673171 12.3887521,2.7613122 C12.3817436,2.01309756 11.9965299,1.62835366 11.2474017,1.62135366 C10.4982051,1.61433659 9.92394872,1.28560976 9.53880342,0.635241463 C9.15357265,-0.00814390244 8.6354188,-0.147990244 7.97723077,0.21554878 C7.31897436,0.579087805 6.66078632,0.58622439 6.0094188,0.21554878 C5.35123077,-0.155195122 4.83305983,-0.0153487805 4.44784615,0.635241463 C4.06270085,1.27867805 3.49538462,1.60733659 2.74625641,1.61433659 C1.98991453,1.62135366 1.61177778,2.00609756 1.60476923,2.7543122 C1.59075214,3.50973171 1.26162393,4.0762878 0.617452991,4.46103171 C-0.0267692308,4.84570732 -0.166735043,5.36324634 0.197179487,6.02068293 C0.568376068,6.67806829 0.568376068,7.33545366 0.197179487,7.9860439 C-0.166940171,8.64342927 -0.0267692308,9.16101951 0.617452991,9.54569512 C1.26162393,9.93043902 1.59075214,10.4969951 1.60476923,11.2522098 C1.61177778,12.0006293 1.99692308,12.3853732 2.74625641,12.3923902 C3.49558974,12.3993902 4.0697094,12.7280488 4.4548547,13.3784854 C4.84008547,14.0218707 5.35823932,14.1618537 6.01642735,13.798178 C6.67468376,13.4274512 7.33287179,13.4274512 7.98423932,13.798178 C8.64242735,14.1688537 9.16059829,14.0288707 9.54581197,13.3784854 C9.93095726,12.7350488 10.4982051,12.4063902 11.254547,12.3923902 C12.0107521,12.3853732 12.3888889,12.0006293 12.3958974,11.2522098 C12.402906,10.5037902 12.7320342,9.93043902 13.3832137,9.54569512 C14.0270427,9.16801951 14.1670598,8.64342927 13.7962735,7.9930439 Z" id="Fill-1"></path>
                </g>
                <g id="Page-1" transform="translate(3.000000, 3.000000)">
                    <mask id="mask-2" fill="white">
                        <use xlink:href="#path-1"></use>
                    </mask>
                    <g id="Clip-2"></g>
                    <path d="M3.45408615,0.00827692308 L-6.15384615e-06,3.08544615 L3.45408615,6.16255385 L3.45408615,4.0916 C3.45408615,4.0916 8.24184,2.49326154 7.27279385,7.46427692 C7.27279385,7.46427692 10.4281785,1.45209231 3.45820923,1.86710769 L3.45408615,0.00827692308 Z" id="Fill-1" fill="#FFFFFF" mask="url(#mask-2)"></path>
                </g>
            </g>
        </g>
    </g>
</svg>