<?xml version="1.0" encoding="UTF-8"?>
<svg width="14px" height="14px" viewBox="0 0 14 14" version="1.1" xmlns="http://www.w3.org/2000/svg" xmlns:xlink="http://www.w3.org/1999/xlink">
    <!-- Generator: Sketch 49 (51002) - http://www.bohemiancoding.com/sketch -->
    <title>icon_authentication</title>
    <desc>Created with Sketch.</desc>
    <defs></defs>
    <g id="Symbols" stroke="none" stroke-width="1" fill="none" fill-rule="evenodd">
        <g id="icon_authentication">
            <g>
                <g id="Group-3" fill="#F9C04D">
                    <path d="M13.7962735,7.9930439 C13.4250769,7.33565854 13.4250769,6.67820488 13.7962735,6.02768293 C14.1674017,5.37024634 14.0274359,4.85270732 13.3760684,4.46796341 C12.7318291,4.0832878 12.4027692,3.51673171 12.3887521,2.7613122 C12.3817436,2.01309756 11.9965299,1.62835366 11.2474017,1.62135366 C10.4982051,1.61433659 9.92394872,1.28560976 9.53880342,0.635241463 C9.15357265,-0.00814390244 8.6354188,-0.147990244 7.97723077,0.21554878 C7.31897436,0.579087805 6.66078632,0.58622439 6.0094188,0.21554878 C5.35123077,-0.155195122 4.83305983,-0.0153487805 4.44784615,0.635241463 C4.06270085,1.27867805 3.49538462,1.60733659 2.74625641,1.61433659 C1.98991453,1.62135366 1.61177778,2.00609756 1.60476923,2.7543122 C1.59075214,3.50973171 1.26162393,4.0762878 0.617452991,4.46103171 C-0.0267692308,4.84570732 -0.166735043,5.36324634 0.197179487,6.02068293 C0.568376068,6.67806829 0.568376068,7.33545366 0.197179487,7.9860439 C-0.166940171,8.64342927 -0.0267692308,9.16101951 0.617452991,9.54569512 C1.26162393,9.93043902 1.59075214,10.4969951 1.60476923,11.2522098 C1.61177778,12.0006293 1.99692308,12.3853732 2.74625641,12.3923902 C3.49558974,12.3993902 4.0697094,12.7280488 4.4548547,13.3784854 C4.84008547,14.0218707 5.35823932,14.1618537 6.01642735,13.798178 C6.67468376,13.4274512 7.33287179,13.4274512 7.98423932,13.798178 C8.64242735,14.1688537 9.16059829,14.0288707 9.54581197,13.3784854 C9.93095726,12.7350488 10.4982051,12.4063902 11.254547,12.3923902 C12.0107521,12.3853732 12.3888889,12.0006293 12.3958974,11.2522098 C12.402906,10.5037902 12.7320342,9.93043902 13.3832137,9.54569512 C14.0270427,9.16801951 14.1670598,8.64342927 13.7962735,7.9930439 Z" id="Fill-1"></path>
                </g>
                <path d="M5.92578125,10.0351562 C5.69140508,10.0403646 5.45052207,10.0410156 5.203125,10.0371094 C4.95572793,10.0332031 4.74283943,9.99479203 4.56445312,9.921875 C4.38606682,9.84895797 4.21093836,9.73893303 4.0390625,9.59179688 C3.86718664,9.44466072 3.74674514,9.31054748 3.67773437,9.18945312 C3.60872361,9.06835877 3.54752631,8.93099035 3.49414062,8.77734375 C3.44075494,8.62369715 3.40820318,8.44205834 3.39648437,8.23242188 C3.38476557,8.02278541 3.39583316,7.8151052 3.4296875,7.609375 C3.48697945,7.27343582 3.5859368,7.03059971 3.7265625,6.88085938 C3.8671882,6.73111904 4.03710838,6.61783893 4.23632812,6.54101562 C4.43554787,6.46419232 4.66275914,6.40494813 4.91796875,6.36328125 C5.17317836,6.32161438 5.53645598,6.30598953 6.0078125,6.31640625 C6.00520832,6.50651137 6.00390625,6.61979148 6.00390625,6.65625 L5.99609375,7.00390625 C5.66536293,6.9335934 5.39192816,6.9225258 5.17578125,6.97070312 C4.95963434,7.01888045 4.86588527,7.18229027 4.89453125,7.4609375 C4.92578141,7.7682307 5.10807125,7.921875 5.44140625,7.921875 C5.54557344,7.92447918 5.72135293,7.89192742 5.96875,7.82421875 L5.921875,8.24609375 C5.73697824,8.22526031 5.61718777,8.21354168 5.5625,8.2109375 C5.41145758,8.20833332 5.29036504,8.22981748 5.19921875,8.27539062 C5.10807246,8.32096377 5.03971377,8.37109348 4.99414062,8.42578125 C4.94856748,8.48046902 4.93359367,8.58203051 4.94921875,8.73046875 C4.96744801,8.94921984 5.07551984,9.09374965 5.2734375,9.1640625 C5.4140632,9.21614609 5.63281102,9.1940109 5.9296875,9.09765625 C5.93750004,9.34244914 5.94140625,9.48567687 5.94140625,9.52734375 L5.92578125,10.0351562 Z M8.24609375,4.2265625 C8.96224316,4.31510461 9.46874852,4.38997365 9.765625,4.45117188 C10.0625015,4.5123701 10.2903638,4.67577992 10.4492188,4.94140625 C10.6080737,5.20703258 10.6783855,5.42838453 10.6601562,5.60546875 C10.641927,5.78255297 10.5761724,5.92708277 10.4628906,6.0390625 C10.3496088,6.15104223 10.1822928,6.20312504 9.9609375,6.1953125 C9.80208254,6.19270832 9.65169342,6.15039104 9.50976562,6.06835938 C9.36783783,5.98632771 9.26562531,5.88671934 9.203125,5.76953125 L9.0859375,5.5078125 C9.0468748,5.44270801 8.98307336,5.37760449 8.89453125,5.3125 C8.80598914,5.24739551 8.56250199,5.20377615 8.1640625,5.18164062 C7.76562301,5.1595051 7.2617218,5.1484375 6.65234375,5.1484375 C6.29557113,5.15104168 6.01562602,5.15624996 5.8125,5.1640625 C5.60937398,5.17187504 5.44336002,5.21028611 5.31445312,5.27929688 C5.18554623,5.34830764 5.09505234,5.40624977 5.04296875,5.453125 L4.7734375,5.76171875 C4.5677073,5.97786566 4.3046891,6.08723957 3.984375,6.08984375 C3.67968598,6.09505211 3.50390648,6.01367271 3.45703125,5.84570312 C3.41015602,5.67773354 3.38932289,5.54427133 3.39453125,5.4453125 C3.41015633,5.22916559 3.47135363,5.05599023 3.578125,4.92578125 C3.68489637,4.79557227 3.8170565,4.69791699 3.97460937,4.6328125 C4.13216225,4.56770801 4.32161348,4.5065107 4.54296875,4.44921875 C4.76432402,4.3919268 4.94921801,4.36067711 5.09765625,4.35546875 L5.7109375,4.328125 C5.76822945,4.47916742 5.82226537,4.58528615 5.87304688,4.64648438 C5.92382838,4.7076826 6.03971264,4.78775992 6.22070312,4.88671875 C6.40169361,4.98567758 6.70833117,5.02278658 7.140625,4.99804688 C7.57291883,4.97330717 7.85481705,4.89648502 7.98632812,4.76757812 C8.1178392,4.63867123 8.18619789,4.5546877 8.19140625,4.515625 L8.24609375,4.2265625 Z M5.9296875,4.2578125 C5.93489586,4.18229129 5.98307246,4.10416707 6.07421875,4.0234375 C6.16536504,3.94270793 6.27408791,3.8958334 6.40039062,3.8828125 C6.52669334,3.8697916 6.77083152,3.8567709 7.1328125,3.84375 C7.49479348,3.8307291 7.73502545,3.89127537 7.85351562,4.02539062 C7.9720058,4.15950588 8.03125,4.26432254 8.03125,4.33984375 C8.02864582,4.40234406 7.97981818,4.49804623 7.88476562,4.62695312 C7.78971307,4.75586002 7.55468937,4.82291664 7.1796875,4.828125 C7.09895793,4.83072918 6.92578258,4.82161469 6.66015625,4.80078125 C6.39452992,4.77994781 6.20377662,4.71158912 6.08789062,4.59570312 C5.97200463,4.47981713 5.91927078,4.36718805 5.9296875,4.2578125 Z M7.80078125,7.328125 L7.79296875,8.3046875 L7.80078125,9.8828125 C7.79557289,10.1406263 7.78385426,10.3541658 7.765625,10.5234375 C7.74739574,10.6927092 7.71549502,10.8333328 7.66992187,10.9453125 C7.62434873,11.0572922 7.54101623,11.1705723 7.41992188,11.2851562 C7.29882752,11.3997402 7.14192805,11.453125 6.94921875,11.4453125 C6.82942648,11.4427083 6.70182359,11.399089 6.56640625,11.3144531 C6.43098891,11.2298173 6.33593777,11.1236986 6.28125,10.9960938 C6.22656223,10.8684889 6.19335943,10.6907563 6.18164062,10.4628906 C6.16992182,10.2350249 6.17187492,9.91666871 6.1875,9.5078125 C6.2005209,9.0468727 6.20768229,8.77408896 6.20898438,8.68945312 C6.21028646,8.60481729 6.21158854,8.25651348 6.21289062,7.64453125 C6.21419271,7.03254902 6.23111963,6.60091271 6.26367188,6.34960938 C6.29622412,6.09830604 6.34895797,5.88086029 6.421875,5.69726562 C6.49479203,5.51367096 6.66731635,5.40299498 6.93945312,5.36523438 C7.2115899,5.32747377 7.41796805,5.37499934 7.55859375,5.5078125 C7.62630242,5.57552117 7.68033834,5.67252541 7.72070312,5.79882812 C7.76106791,5.92513084 7.77994793,6.17708145 7.77734375,6.5546875 L7.80078125,7.328125 Z M8.01171875,6.27734375 C8.18880297,6.27734375 8.34830658,6.28059893 8.49023438,6.28710938 C8.63216217,6.29361982 8.8216134,6.3209633 9.05859375,6.36914062 C9.2955741,6.41731795 9.54296746,6.48502561 9.80078125,6.57226562 C10.058595,6.65950564 10.2662753,6.82486857 10.4238281,7.06835938 C10.581381,7.31185018 10.6666666,7.58723805 10.6796875,7.89453125 C10.6927084,8.20182445 10.6809898,8.44791574 10.6445312,8.6328125 C10.5351557,9.16146098 10.2747416,9.5286448 9.86328125,9.734375 C9.45182086,9.9401052 9.10416809,10.0325522 8.8203125,10.0117188 L8.00390625,9.99609375 C8.01171879,9.87890566 8.01822914,9.79036488 8.0234375,9.73046875 L8.03125,9.37890625 L8.0546875,9.03125 C8.15104215,9.05468762 8.25781191,9.07682281 8.375,9.09765625 C8.49218809,9.11848969 8.63736893,9.10416691 8.81054688,9.0546875 C8.98372482,9.00520809 9.0592449,8.87435002 9.03710938,8.66210938 C9.01497385,8.44986873 8.95703172,8.32682309 8.86328125,8.29296875 C8.76953078,8.25911441 8.65364652,8.23763025 8.515625,8.22851562 C8.37760348,8.219401 8.30598961,8.21614582 8.30078125,8.21875 L8.0234375,8.296875 C8.04687512,8.1171866 8.05859375,8.0078127 8.05859375,7.96875 L8.0625,7.67578125 C8.17708391,7.7200523 8.30078059,7.75716131 8.43359375,7.78710938 C8.56640691,7.81705744 8.70637947,7.78645879 8.85351562,7.6953125 C9.00065178,7.60416621 9.06835943,7.49349023 9.05664062,7.36328125 C9.04492182,7.23307227 8.99414107,7.12304732 8.90429688,7.03320312 C8.81445268,6.94335893 8.74739605,6.90234371 8.703125,6.91015625 L8.03515625,6.9375 C8.02473953,6.72135309 8.01692711,6.5013032 8.01171875,6.27734375 Z" id="хоб" fill="#FFFFFF"></path>
            </g>
        </g>
    </g>
</svg>