<?xml version="1.0" encoding="UTF-8"?>
<svg width="17px" height="18px" viewBox="0 0 17 18" version="1.1" xmlns="http://www.w3.org/2000/svg" xmlns:xlink="http://www.w3.org/1999/xlink">
    <!-- Generator: Sketch 52.5 (67469) - http://www.bohemiancoding.com/sketch -->
    <title>首页-选中</title>
    <desc>Created with Sketch.</desc>
    <g id="1.5.1" stroke="none" stroke-width="1" fill="none" fill-rule="evenodd">
        <g id="员工管理" transform="translate(-262.000000, -72.000000)">
            <rect fill="#F9F9F9" x="0" y="0" width="1920" height="1080"></rect>
            <g id="首页-选中" transform="translate(262.000000, 72.000000)" fill="#CCCCCC">
                <path d="M9.47007104,0.356510903 C8.95030475,-0.114969389 8.15756546,-0.114969389 7.63779917,0.356510903 L0.228751821,7.39170334 C-0.0473522616,7.6453971 -0.0675197542,8.07416805 0.183552762,8.35265788 C0.434625279,8.6311477 0.863186442,8.65536731 1.14403712,8.40693847 L1.26185033,8.29507972 L1.26185033,15.6377774 C1.26139876,16.000616 1.40521939,16.3487483 1.66162561,16.6054736 C1.91803182,16.8621989 2.26598495,17.0064524 2.62882382,17.0064522 L6.60682725,17.0064522 L6.60682725,12.8910709 C6.60648843,12.6355064 6.70780274,12.3902994 6.88843444,12.2095082 C7.06906614,12.0287169 7.31418359,11.9271861 7.56974822,11.9272993 L9.4415747,11.9272993 C9.69713934,11.9271861 9.94225678,12.0287169 10.1228885,12.2095082 C10.3035202,12.3902994 10.4048345,12.6355064 10.4044957,12.8910709 L10.4044957,17.0064522 L14.4769198,17.0064522 C14.8398324,17.0065653 15.1878948,16.8623617 15.4443931,16.6056241 C15.7008913,16.3488865 15.8447703,16.0006897 15.8443186,15.6377774 L15.8443186,8.38482191 C16.147996,8.65957763 16.5788436,8.63873702 16.8314827,8.35717621 C16.9529942,8.22261539 17.016063,8.04528884 17.0068101,7.86421972 C16.9975573,7.6831506 16.9167409,7.51317678 16.7821458,7.39170334 L9.47007104,0.356936222 L9.47007104,0.356510903 Z" id="路径"></path>
            </g>
        </g>
    </g>
</svg>