<?xml version="1.0" encoding="UTF-8"?>
<svg width="14px" height="14px" viewBox="0 0 14 14" version="1.1" xmlns="http://www.w3.org/2000/svg" xmlns:xlink="http://www.w3.org/1999/xlink">
    <!-- Generator: Sketch 52.3 (67297) - http://www.bohemiancoding.com/sketch -->
    <title>Page 1</title>
    <desc>Created with Sketch.</desc>
    <defs>
        <polygon id="path-1" points="0.00203636364 0.00870545455 13.9484291 0.00870545455 13.9484291 13.9572873 0.00203636364 13.9572873"></polygon>
    </defs>
    <g id="Symbols" stroke="none" stroke-width="1" fill="none" fill-rule="evenodd">
        <g id="反白">
            <g id="Page-1">
                <mask id="mask-2" fill="white">
                    <use xlink:href="#path-1"></use>
                </mask>
                <g id="Clip-2"></g>
                <path d="M7.96355636,3.55274182 C7.96355636,3.13681455 7.59828364,2.79852364 7.14926545,2.79852364 C6.70101091,2.79852364 6.33522909,3.13681455 6.33522909,3.55274182 C6.33522909,3.59525091 6.33853818,3.63674182 6.34617455,3.67696 C5.22286545,4.03943273 4.40577455,4.96903273 4.40577455,6.28808727 L4.40577455,7.74077818 C4.40577455,7.74077818 4.30115636,9.00637818 3.90381091,9.01859636 C3.66784727,9.01859636 3.48712,9.18634182 3.48712,9.39532364 C3.48712,9.60608727 3.66886545,9.77281455 3.89388364,9.77281455 L10.4033745,9.77281455 C10.6294109,9.77281455 10.8101382,9.60481455 10.8101382,9.39532364 C10.8101382,9.18634182 10.6283927,9.01859636 10.4033745,9.01859636 C9.99712,9.01859636 9.89606545,7.74077818 9.89606545,7.74077818 L9.89606545,6.28656 C9.89606545,4.96699636 9.13497455,4.03714182 7.95057455,3.67568727 C7.95821091,3.63572364 7.96355636,3.59423273 7.96355636,3.55274182 M7.14850182,11.5161964 C7.82788364,11.5161964 8.36904727,11.0475782 8.36904727,10.4702691 L5.92821091,10.4702691 C5.92948364,11.0496145 6.47548364,11.5161964 7.14850182,11.5161964 M6.97413818,13.9572873 C3.12235636,13.9572873 0.000101818182,10.8347782 0.000101818182,6.98325091 C0.000101818182,3.13121455 3.12235636,0.00870545455 6.97413818,0.00870545455 C10.82592,0.00870545455 13.9484291,3.13121455 13.9484291,6.98325091 C13.9484291,10.8347782 10.82592,13.9572873 6.97413818,13.9572873" id="Fill-1" fill="#FFFFFF" mask="url(#mask-2)"></path>
            </g>
        </g>
    </g>
</svg>