<?xml version="1.0" encoding="UTF-8"?>
<svg width="14px" height="14px" viewBox="0 0 14 14" version="1.1" xmlns="http://www.w3.org/2000/svg" xmlns:xlink="http://www.w3.org/1999/xlink">
    <!-- Generator: Sketch 49 (51002) - http://www.bohemiancoding.com/sketch -->
    <title>hetong/ic_daiyuangongqian</title>
    <desc>Created with Sketch.</desc>
    <defs></defs>
    <g id="Symbols" stroke="none" stroke-width="1" fill="none" fill-rule="evenodd">
        <g id="hetong/ic_daiyuangongqian" fill="#F59F00">
            <path d="M10.704095,7.82122062 C10.704095,8.04740853 10.5202777,8.23157933 10.2912593,8.23157933 L6.17596097,8.23157933 C5.94719377,8.23157933 5.76312533,8.04740853 5.76312533,7.82122062 L5.76312533,3.70379556 C5.76312533,3.47735605 5.94719377,3.29343685 6.17596097,3.29343685 L6.99836774,3.29343685 C7.22738606,3.29343685 7.4114545,3.47735605 7.4114545,3.70379556 L7.4114545,6.5866221 L10.2942727,6.5866221 C10.5232911,6.5866221 10.7071084,6.7705413 10.7071084,6.99698081 L10.7071084,7.82122062 L10.704095,7.82122062 Z M6.99836774,0 C3.13318147,0 0,3.1334196 0,7 C0,10.8638128 3.13318147,14 6.99836774,14 C10.8638051,14 14,10.8638128 14,7 C14,3.1334196 10.8638051,0 6.99836774,0 Z"></path>
        </g>
    </g>
</svg>