<?xml version="1.0" encoding="UTF-8"?>
<svg width="14px" height="14px" viewBox="0 0 14 14" version="1.1" xmlns="http://www.w3.org/2000/svg" xmlns:xlink="http://www.w3.org/1999/xlink">
    <!-- Generator: Sketch 49 (51002) - http://www.bohemiancoding.com/sketch -->
    <title>hetong/ic_daiwoqian ２</title>
    <desc>Created with Sketch.</desc>
    <defs></defs>
    <g id="Symbols" stroke="none" stroke-width="1" fill="none" fill-rule="evenodd">
        <g id="hetong/ic_daiwoqian-２" fill="#FFFFFF">
            <path d="M3.38033984,10.7791362 C6.9840099,4.49667221 10.4920581,10.7791362 10.4920581,10.7791362 L3.38033984,10.7791362 Z M6.96807292,2.83837625 C7.95446577,2.83837625 8.75397096,3.63788144 8.75397096,4.62416805 C8.75397096,5.61066715 7.95446577,6.4100661 6.96807292,6.4100661 C5.98168006,6.4100661 5.18217487,5.61066715 5.18217487,4.62416805 C5.18217487,3.63788144 5.98168006,2.83837625 6.96807292,2.83837625 Z M7,0 C3.1339779,0 0,3.1339779 0,7.00010625 C0,10.8660221 3.1339779,14 7,14 C10.8660221,14 14,10.8660221 14,7.00010625 C14,3.1339779 10.8660221,0 7,0 Z"></path>
        </g>
    </g>
</svg>