<?xml version="1.0" encoding="UTF-8"?>
<svg width="14px" height="14px" viewBox="0 0 14 14" version="1.1" xmlns="http://www.w3.org/2000/svg" xmlns:xlink="http://www.w3.org/1999/xlink">
    <!-- Generator: Sketch 49 (51002) - http://www.bohemiancoding.com/sketch -->
    <title>hetong/ic_jijiangdaoqi2</title>
    <desc>Created with Sketch.</desc>
    <defs></defs>
    <g id="Symbols" stroke="none" stroke-width="1" fill="none" fill-rule="evenodd">
        <g id="hetong/ic_jijiangdaoqi2">
            <g>
                <path d="M4.55695,5.8976 L9.13095,5.8976 C9.24345,5.8976 9.32795,5.8126 9.32795,5.7001 C9.32795,5.5886 9.24345,5.5036 9.13095,5.5036 L4.55695,5.5036 C4.44495,5.5036 4.35995,5.5886 4.35995,5.7001 C4.35995,5.8126 4.44495,5.8976 4.55695,5.8976" id="Fill-1" fill="#F95714"></path>
                <path d="M8.09405,6.8234 C8.09405,6.7109 8.00955,6.6264 7.89705,6.6264 L4.55705,6.6264 C4.44505,6.6264 4.36005,6.7109 4.36005,6.8234 C4.36005,6.9359 4.44505,7.0194 4.55705,7.0204 L7.89705,7.0204 C8.00955,7.0204 8.09405,6.9359 8.09405,6.8234" id="Fill-3" fill="#F95714"></path>
                <path d="M4.55695,4.77455 L7.05495,4.77455 C7.16695,4.77455 7.25145,4.68955 7.25145,4.57755 C7.25145,4.46555 7.16695,4.38105 7.05495,4.38105 L4.55695,4.38105 C4.44495,4.38105 4.35995,4.46555 4.35995,4.57755 C4.35995,4.68955 4.44495,4.77455 4.55695,4.77455" id="Fill-5" fill="#F95714"></path>
                <path d="M8.09285,4.52165 C8.09285,4.82965 8.34485,5.08265 8.65385,5.08265 L9.46785,5.08265 C9.63685,5.08265 9.66485,4.99765 9.55235,4.88565 L8.28985,3.62315 C8.17735,3.51115 8.09285,3.53915 8.09285,3.70765 L8.09285,4.52165 Z" id="Fill-7" fill="#F95714"></path>
                <path d="M9.10355,10.58365 C8.31705,10.58365 7.70005,9.96665 7.70005,9.18015 C7.70005,8.39415 8.31705,7.77715 9.10355,7.77715 C9.88905,7.77715 10.50705,8.39415 10.50705,9.18015 C10.50705,9.96665 9.89005,10.58365 9.10355,10.58365 Z M4.05105,10.24615 C3.74305,10.24615 3.49005,9.99415 3.49005,9.68515 L3.49005,3.56715 C3.49005,3.25915 3.74305,3.00615 4.05105,3.00615 L8.23355,3.00615 C8.40205,3.00615 8.59755,3.09065 8.71005,3.20265 L9.94505,4.46565 C10.05705,4.57765 10.14205,4.80215 10.14205,4.94315 L10.14205,7.86165 C9.86155,7.63715 9.49655,7.49665 9.10355,7.49665 C8.17755,7.49665 7.42005,8.25415 7.41855,9.15215 C7.41855,9.57315 7.58705,9.96565 7.84005,10.24615 L4.05105,10.24615 Z M6.99855,0.00015 C3.13355,0.00015 5e-05,3.13365 5e-05,6.99865 C5e-05,10.86415 3.13355,13.99715 6.99855,13.99715 C10.86405,13.99715 13.99755,10.86415 13.99755,6.99865 C13.99755,3.13365 10.86405,0.00015 6.99855,0.00015 Z" id="Fill-9" fill="#FFFFFF"></path>
                <path d="M9.2718,9.26285 C9.2718,9.35535 9.1968,9.43035 9.1038,9.43035 C9.0108,9.43035 8.9358,9.35535 8.9358,9.26285 L8.9358,8.63585 C8.9358,8.54385 9.0108,8.46885 9.1038,8.46885 C9.1968,8.46885 9.2718,8.54385 9.2718,8.63585 L9.2718,9.26285 Z M9.1038,9.88985 C9.0108,9.88985 8.9358,9.81485 8.9358,9.72285 C8.9358,9.62985 9.0108,9.55535 9.1038,9.55535 C9.1968,9.55535 9.2718,9.62985 9.2718,9.72285 C9.2718,9.81485 9.1968,9.88985 9.1038,9.88985 Z M9.1038,8.02985 C8.4858,8.02985 7.9808,8.53385 7.9808,9.15185 C7.9808,9.76985 8.4868,10.27435 9.1038,10.27435 C9.7203,10.27435 10.2253,9.79735 10.2268,9.15285 C10.2268,8.53485 9.7203,8.02985 9.1038,8.02985 Z" id="Fill-11" fill="#F95714"></path>
            </g>
        </g>
    </g>
</svg>