<?xml version="1.0" encoding="UTF-8"?>
<svg width="14px" height="14px" viewBox="0 0 14 14" version="1.1" xmlns="http://www.w3.org/2000/svg" xmlns:xlink="http://www.w3.org/1999/xlink">
    <!-- Generator: Sketch 49 (51002) - http://www.bohemiancoding.com/sketch -->
    <title>hetong/ic_qianyuewancheng</title>
    <desc>Created with Sketch.</desc>
    <defs></defs>
    <g id="Symbols" stroke="none" stroke-width="1" fill="none" fill-rule="evenodd">
        <g id="hetong/ic_qianyuewancheng" fill="#5EC860">
            <g>
                <path d="M11.0124545,5.34486385 L6.8506461,10.3244128 C6.70596681,10.4994741 6.44629203,10.5233142 6.27146148,10.3786374 L5.64062239,9.85041487 L3.11446125,7.73518757 C2.93939697,7.59004324 2.91532272,7.32756807 3.06327423,7.15250672 L3.59127183,6.52167816 C3.73618485,6.34988898 3.9986644,6.3255814 4.1709239,6.47353044 L6.37991252,8.32347785 L9.75101005,4.29145729 C9.89872784,4.11662966 10.1584026,4.09536052 10.3334669,4.24027112 L10.964306,4.7682599 C11.136098,4.91036578 11.160406,5.1698025 11.0124545,5.34486385 M7.00163611,0 C3.13573074,0 0,3.13263994 0,7.00151922 C0,10.8643216 3.13573074,14 7.00163611,14 C10.864503,14 14,10.8675938 14,7.00151922 C14,3.13263994 10.864503,0 7.00163611,0"></path>
            </g>
        </g>
    </g>
</svg>