<?xml version="1.0" encoding="UTF-8"?>
<svg width="14px" height="14px" viewBox="0 0 14 14" version="1.1" xmlns="http://www.w3.org/2000/svg" xmlns:xlink="http://www.w3.org/1999/xlink">
    <!-- Generator: Sketch 49 (51002) - http://www.bohemiancoding.com/sketch -->
    <title>hetong/ic_quanbu</title>
    <desc>Created with Sketch.</desc>
    <defs>
        <polygon id="path-1" points="0.000184210526 0 13.6315789 0 13.6315789 13.9999622 0.000184210526 13.9999622"></polygon>
    </defs>
    <g id="Symbols" stroke="none" stroke-width="1" fill="none" fill-rule="evenodd">
        <g id="hetong/ic_quanbu">
            <g>
                <mask id="mask-2" fill="white">
                    <use xlink:href="#path-1"></use>
                </mask>
                <g id="Clip-2"></g>
                <path d="M10.2625526,6.26061081 C10.2625526,6.4778 10.0912368,6.65412432 9.87939474,6.65412432 L7.58192105,6.65412432 C7.37044737,6.65412432 7.19913158,6.4778 7.19913158,6.26061081 L7.19913158,3.90104324 C7.19913158,3.68385405 7.37044737,3.50752973 7.58192105,3.50752973 L9.87939474,3.50752973 C10.0912368,3.50752973 10.2625526,3.68385405 10.2625526,3.90104324 L10.2625526,6.26061081 Z M10.2625526,10.0996378 C10.2625526,10.3164486 10.0912368,10.4923946 9.87939474,10.4923946 L7.58192105,10.4923946 C7.37044737,10.4923946 7.19913158,10.3164486 7.19913158,10.0996378 L7.19913158,7.73969189 C7.19913158,7.5225027 7.37044737,7.34617838 7.58192105,7.34617838 L9.87939474,7.34617838 C10.0912368,7.34617838 10.2625526,7.5225027 10.2625526,7.73969189 L10.2625526,10.0996378 Z M6.43244737,6.26061081 C6.43244737,6.4778 6.26113158,6.65412432 6.04965789,6.65412432 L3.75218421,6.65412432 C3.54034211,6.65412432 3.36902632,6.4778 3.36902632,6.26061081 L3.36902632,3.90104324 C3.36902632,3.68385405 3.54034211,3.50752973 3.75218421,3.50752973 L6.04965789,3.50752973 C6.26113158,3.50752973 6.43244737,3.68385405 6.43244737,3.90104324 L6.43244737,6.26061081 Z M6.43244737,10.0996378 C6.43244737,10.3164486 6.26113158,10.4923946 6.04965789,10.4923946 L3.75218421,10.4923946 C3.54034211,10.4923946 3.36902632,10.3164486 3.36902632,10.0996378 L3.36902632,7.73969189 C3.36902632,7.5225027 3.54034211,7.34617838 3.75218421,7.34617838 L6.04965789,7.34617838 C6.26113158,7.34617838 6.43244737,7.5225027 6.43244737,7.73969189 L6.43244737,10.0996378 Z M6.81597368,-3.78378378e-05 C3.05144737,-3.78378378e-05 0.000184210526,3.13407027 0.000184210526,6.99996216 C0.000184210526,10.8658541 3.05144737,13.9999622 6.81597368,13.9999622 C10.5801316,13.9999622 13.6317632,10.8658541 13.6317632,6.99996216 C13.6317632,3.13407027 10.5801316,-3.78378378e-05 6.81597368,-3.78378378e-05 Z M7.96507895,9.70574595 L9.49660526,9.70574595 L9.49660526,8.13320541 L7.96507895,8.13320541 L7.96507895,9.70574595 Z" id="Fill-1" fill="#748093" mask="url(#mask-2)"></path>
            </g>
        </g>
    </g>
</svg>