<?xml version="1.0" encoding="UTF-8"?>
<svg width="16px" height="15px" viewBox="0 0 16 15" version="1.1" xmlns="http://www.w3.org/2000/svg" xmlns:xlink="http://www.w3.org/1999/xlink">
    <!-- Generator: Sketch 49 (51002) - http://www.bohemiancoding.com/sketch -->
    <title>hetong/ic_xinjianwenjian2</title>
    <desc>Created with Sketch.</desc>
    <defs>
        <polygon id="path-1" points="0.00303448276 0.0303724138 13.8224 0.0303724138 13.8224 12.7705103 0.00303448276 12.7705103"></polygon>
    </defs>
    <g id="Symbols" stroke="none" stroke-width="1" fill="none" fill-rule="evenodd">
        <g id="hetong/ic_xinjianwenjian2">
            <g>
                <path d="M14.0721103,13.0352828 C14.0721103,13.2849379 13.9890759,13.534869 13.7808,13.742869 C13.6141793,13.9094897 13.3645241,14.0344552 13.0729379,14.0344552 L0.749351724,14.0344552 L2.49804138,5.87417931 C2.49804138,5.33293793 2.95597241,4.8750069 3.49721379,4.8750069 L14.8632828,4.8750069 C15.4045241,4.8750069 15.8624552,5.33293793 15.8624552,5.87417931 L14.0721103,13.0352828 Z M10.6739423,9.82606304 C10.8541351,9.82606304 11.0000462,9.68015197 11.0000462,9.50003692 C11.0000462,9.31999961 10.8541351,9.1740108 10.6739423,9.1740108 L8.82615001,9.1740108 L8.82615001,7.32598531 C8.82615001,7.14594799 8.6801612,7.00003692 8.50004615,7.00003692 C8.3199311,7.00003692 8.17386456,7.14594799 8.17386456,7.32598531 L8.17386456,9.1740108 L6.32615001,9.1740108 C6.14595722,9.1740108 6.00004615,9.31999961 6.00004615,9.50003692 C6.00004615,9.68015197 6.14587949,9.82606304 6.32615001,9.82606304 L8.17386456,9.82606304 L8.17386456,11.6740108 C8.17386456,11.8542036 8.3199311,12.0001147 8.50004615,12.0001147 C8.6801612,12.0001147 8.82622775,11.8542036 8.82622775,11.6740108 L8.82622775,9.82606304 L10.6739423,9.82606304 Z" id="Combined-Shape" fill="#F95714"></path>
                <g id="Group-5" transform="translate(0.000000, 0.264828)">
                    <mask id="mask-2" fill="white">
                        <use xlink:href="#path-1"></use>
                    </mask>
                    <g id="Clip-4"></g>
                    <path d="M2.70626207,3.86071724 L13.8224,3.86071724 L13.8224,2.9032 C13.8224,2.65354483 13.7390897,2.40388966 13.5310897,2.19561379 C13.364469,2.0289931 13.1145379,1.90402759 12.8232276,1.90402759 L6.91122759,1.90402759 L6.91122759,1.02982069 C6.91122759,0.488303448 6.45329655,0.0303724138 5.91205517,0.0303724138 L0.999227586,0.0303724138 C0.457986207,0.0303724138 5.51724138e-05,0.488303448 5.51724138e-05,1.02982069 L5.51724138e-05,12.7705103 L1.74846897,4.86016552 C1.74846897,4.31864828 2.16502069,3.86071724 2.70626207,3.86071724" id="Fill-3" fill="#F97842" mask="url(#mask-2)"></path>
                </g>
            </g>
        </g>
    </g>
</svg>