<?xml version="1.0" encoding="UTF-8"?>
<svg width="14px" height="14px" viewBox="0 0 14 14" version="1.1" xmlns="http://www.w3.org/2000/svg" xmlns:xlink="http://www.w3.org/1999/xlink">
    <!-- Generator: Sketch 49 (51002) - http://www.bohemiancoding.com/sketch -->
    <title>hetong/ic_yidaoqi2</title>
    <desc>Created with Sketch.</desc>
    <defs>
        <polygon id="path-1" points="0 0.0200754717 13.8964462 0.0200754717 13.8964462 13.9165217 0 13.9165217"></polygon>
    </defs>
    <g id="Symbols" stroke="none" stroke-width="1" fill="none" fill-rule="evenodd">
        <g id="hetong/ic_yidaoqi2">
            <g>
                <mask id="mask-2" fill="white">
                    <use xlink:href="#path-1"></use>
                </mask>
                <g id="Clip-10"></g>
                <path d="M6.94821981,0.0200688679 C3.11083302,0.0200688679 -6.60377358e-06,3.13090849 -6.60377358e-06,6.96829528 C-6.60377358e-06,10.8056821 3.11083302,13.9165217 6.94821981,13.9165217 C10.7856066,13.9165217 13.8964462,10.8056821 13.8964462,6.96829528 C13.8964462,3.13090849 10.7856066,0.0200688679 6.94821981,0.0200688679 Z" id="Fill-9" fill="#FFFFFF" mask="url(#mask-2)"></path>
                <path d="M4.02195566,10.1923896 C3.71620094,10.1923896 3.46512547,9.94237075 3.46512547,9.6354934 L3.46512547,3.56134245 C3.46512547,3.25558774 3.71620094,3.00451226 4.02195566,3.00451226 L8.17440849,3.00451226 C8.34141792,3.00451226 8.53583302,3.08851226 8.64717264,3.19998396 L9.87336132,4.45338019 C9.98470094,4.56478585 10.068767,4.78753113 10.068767,4.92726698 L10.068767,7.82506887 C9.79035189,7.60238962 9.42787075,7.46258774 9.03805,7.46258774 C8.11873868,7.46258774 7.36643679,8.21488962 7.36531415,9.10593679 C7.36531415,9.52408774 7.53245566,9.91390849 7.78346509,10.1923896 L4.02195566,10.1923896 Z M4.52420566,5.98418962 L9.0653566,5.98418962 C9.17676226,5.98418962 9.2608283,5.87672088 9.2608283,5.73418962 C9.2608283,5.59165836 9.17676226,5.48418962 9.0653566,5.48418962 L4.52420566,5.48418962 C4.4128,5.48418962 4.3288,5.59165836 4.3288,5.73418962 C4.3288,5.87672088 4.4128,5.98418962 4.52420566,5.98418962 Z M8.03568302,6.84895943 C8.03568302,6.70642817 7.95161698,6.59895943 7.84027736,6.59895943 L4.52419245,6.59895943 C4.41278679,6.59895943 4.32878679,6.70642817 4.32878679,6.84895943 C4.32878679,6.99149069 4.41278679,7.09769211 4.52419245,7.09895943 L7.84027736,7.09895943 C7.95161698,7.09895943 8.03568302,6.99149069 8.03568302,6.84895943 Z M4.52420566,4.86934717 L7.00392264,4.86934717 C7.11526226,4.86934717 7.1993283,4.76179394 7.1993283,4.61943166 C7.1993283,4.47681591 7.11526226,4.36934717 7.00392264,4.36934717 L4.52420566,4.36934717 C4.4128,4.36934717 4.3288,4.47681591 4.3288,4.61943166 C4.3288,4.76179394 4.4128,4.86934717 4.52420566,4.86934717 Z M8.03458679,4.50913585 C8.03458679,4.81482453 8.2846717,5.06596604 8.59154906,5.06596604 L9.39952075,5.06596604 C9.56758679,5.06596604 9.59492642,4.98183396 9.48352075,4.87056038 L8.23005849,3.61703208 C8.11865283,3.50562642 8.03458679,3.53402264 8.03458679,3.70109811 L8.03458679,4.50913585 Z" id="Combined-Shape" fill="#F95714"></path>
                <path d="M9.03805,10.5275311 C8.25735189,10.5275311 7.64485189,9.91496509 7.64485189,9.13426698 C7.64485189,8.35363491 8.25735189,7.74113491 9.03805,7.74113491 C9.81769151,7.74113491 10.4312481,8.35363491 10.4312481,9.13426698 C10.4312481,9.91496509 9.81874811,10.5275311 9.03805,10.5275311 Z M9.03805,7.99218396 C8.42442736,7.99218396 7.92326698,8.49235377 7.92326698,9.10597642 C7.92326698,9.71946698 8.42548396,10.2207594 9.03805,10.2207594 C9.65055,10.2207594 10.1517764,9.74687264 10.152833,9.10696698 C10.152833,8.49334434 9.65055,7.99218396 9.03805,7.99218396 Z" id="Combined-Shape" fill="#F95714"></path>
                <path d="M9.88293679,8.82551415 L8.91739906,9.69800472 C8.90590849,9.70949528 8.89263491,9.71814623 8.87771038,9.72389151 C8.86278585,9.72957075 8.8460783,9.73241038 8.82771981,9.73241038 C8.80929528,9.73241038 8.79265377,9.72957075 8.77772925,9.72389151 C8.76280472,9.71814623 8.74953113,9.70949528 8.73804057,9.69800472 L8.19322925,9.20483491 C8.18173868,9.19334434 8.1724934,9.18073113 8.16562547,9.16692925 C8.15875755,9.15312736 8.15525755,9.13813679 8.15525755,9.12208962 C8.15525755,9.10828774 8.15875755,9.09448585 8.16562547,9.08075 C8.1724934,9.06694811 8.18173868,9.05426887 8.19322925,9.0427783 C8.20471981,9.03359906 8.21792736,9.02554245 8.23285189,9.01860849 C8.24777642,9.01174057 8.26448396,9.0083066 8.28290849,9.0083066 C8.29895566,9.0083066 8.31447453,9.01174057 8.32946509,9.01860849 C8.34438962,9.02554245 8.35759717,9.03359906 8.36908774,9.0427783 L8.82771981,9.45663679 L9.7070783,8.66345755 C9.71856887,8.65196698 9.73177642,8.64331604 9.74670094,8.63757075 C9.76169151,8.63182547 9.77714434,8.62898585 9.79325755,8.62898585 C9.81168208,8.62898585 9.82832358,8.63182547 9.84324811,8.63757075 C9.85817264,8.64331604 9.87144623,8.65196698 9.88293679,8.66345755 C9.89442736,8.67263679 9.9036066,8.68412736 9.91047453,8.69792925 C9.91740849,8.71173113 9.92084245,8.72665566 9.92084245,8.74276887 C9.92084245,8.75888208 9.91740849,8.7738066 9.91047453,8.78760849 C9.9036066,8.80141038 9.89442736,8.81402358 9.88293679,8.82551415" id="Path" fill="#F95714"></path>
            </g>
        </g>
    </g>
</svg>