<?xml version="1.0" encoding="UTF-8"?>
<svg width="14px" height="14px" viewBox="0 0 14 14" version="1.1" xmlns="http://www.w3.org/2000/svg" xmlns:xlink="http://www.w3.org/1999/xlink">
    <!-- Generator: Sketch 49 (51002) - http://www.bohemiancoding.com/sketch -->
    <title>hetong/ic_yuqiweiqian</title>
    <desc>Created with Sketch.</desc>
    <defs></defs>
    <g id="Symbols" stroke="none" stroke-width="1" fill="none" fill-rule="evenodd">
        <g id="hetong/ic_yuqiweiqian" fill="#F95714">
            <path d="M7.99353772,8.15638709 C7.99353772,8.64249941 7.59946313,9.036574 7.11335081,9.036574 L6.9176184,9.036574 C6.43168007,9.036574 6.03760548,8.64249941 6.03760548,8.15638709 L6.03760548,2.74477736 C6.03760548,2.25883903 6.43168007,1.86476444 6.9176184,1.86476444 L7.11335081,1.86476444 C7.59946313,1.86476444 7.99353772,2.25883903 7.99353772,2.74477736 L7.99353772,8.15638709 Z M7.0155716,11.4137224 C6.50753725,11.4137224 6.09571626,11.0019014 6.09571626,10.494041 C6.09571626,9.98600669 6.50753725,9.57418569 7.0155716,9.57418569 C7.52343197,9.57418569 7.93542695,9.98600669 7.93542695,10.494041 C7.93542695,11.0019014 7.52343197,11.4137224 7.0155716,11.4137224 Z M7.00008699,0 C3.13398039,0 0,3.13398039 0,7.00008699 C0,10.8660196 3.13398039,14 7.00008699,14 C10.8661936,14 14,10.8660196 14,7.00008699 C14,3.13398039 10.8661936,0 7.00008699,0 Z"></path>
        </g>
    </g>
</svg>